<svg xmlns="http://www.w3.org/2000/svg" width="126.023" height="98.826" viewBox="0 0 126.023 98.826">
  <path id="Path_91156" data-name="Path 91156" d="M45.009-96.278a28.046,28.046,0,0,1,17.632,5.915Q70.3-84.448,74.653-73.71t4.355,25.3a71.58,71.58,0,0,1-4.5,26.117q-4.5,11.557-12.434,18.2A28.11,28.11,0,0,1,43.464,2.548,27.931,27.931,0,0,1,26.042-3.367Q18.315-9.282,13.89-20.111T9.464-45.5A71.317,71.317,0,0,1,13.89-71.344q4.426-11.466,12.434-18.2A28.148,28.148,0,0,1,45.009-96.278ZM43.745-93q-8.992,0-14.822,12.376t-5.831,34.58q0,16.38,2.95,26.3T33.98-5.278A15.7,15.7,0,0,0,44.728-.728q9.132,0,14.892-12.467t5.76-34.671q0-16.38-2.95-26.3T54.563-88.543A15.768,15.768,0,0,0,43.745-93ZM122-95.732v76.986q0,8.736,3.091,11.83t10.4,3.094V0q-2.81-.182-8.219-.455T116.1-.728q-6.463,0-12.434.273T94.463,0V-3.822q7.025,0,10.959-3t3.934-11.921V-62.79q0-8.736-1.4-12.922a8.087,8.087,0,0,0-4.988-5.46,30.615,30.615,0,0,0-9.9-1.274v-4a69,69,0,0,0,16.859-2.366A30.448,30.448,0,0,0,122-95.732Z" transform="translate(-9.464 96.278)" fill="#502b13" opacity="0.2"/>
</svg>
