<svg xmlns="http://www.w3.org/2000/svg" width="120.5" height="98.083" viewBox="0 0 120.5 98.083">
  <path id="Path_109423" data-name="Path 109423" d="M36.544-48.852a27.814,27.814,0,0,1,16.051,4.746A31.859,31.859,0,0,1,63.512-30.875a46.932,46.932,0,0,1,3.954,19.991,50.67,50.67,0,0,1-4.072,20.71A34.868,34.868,0,0,1,52.123,24.279a27.876,27.876,0,0,1-16.877,5.249,28,28,0,0,1-15.874-4.674,31.427,31.427,0,0,1-11.035-13.3A47.308,47.308,0,0,1,4.324-8.583,49.921,49.921,0,0,1,8.337-29.005,35.47,35.47,0,0,1,19.608-43.459,27.621,27.621,0,0,1,36.544-48.852Zm-1.062,2.589q-6.727,0-11.094,9.851t-4.367,27.4q0,12.944,2.242,20.853t6.019,11.505a11.528,11.528,0,0,0,8.025,3.6q6.845,0,11.153-9.923t4.308-27.469q0-12.944-2.242-20.782t-5.9-11.433A11.374,11.374,0,0,0,35.482-46.263Zm65.974-2.589a23.02,23.02,0,0,1,9.855,2.013,16.334,16.334,0,0,1,6.786,5.681,15.422,15.422,0,0,1,2.478,8.845A19.582,19.582,0,0,1,117.743-22.1a26.841,26.841,0,0,1-7.73,8.2A37.931,37.931,0,0,1,98.741-8.583a33.019,33.019,0,0,1,13.1,2.229A20.9,20.9,0,0,1,121.283.981a20.88,20.88,0,0,1,3.541,12.44,26.291,26.291,0,0,1-2.833,12.153,35.109,35.109,0,0,1-7.612,9.923,47.007,47.007,0,0,1-11.035,7.478A60.149,60.149,0,0,1,90.3,47.649a58.862,58.862,0,0,1-13.4,1.582V46.5A37.581,37.581,0,0,0,88.3,44.054a34.266,34.266,0,0,0,10.5-6.328,31.1,31.1,0,0,0,7.671-10.283,32.425,32.425,0,0,0,2.892-14.022q0-8.485-3.3-13.95a11.608,11.608,0,0,0-9.088-6.04L93.725-4.988a6.357,6.357,0,0,1-2.774.719,2.059,2.059,0,0,1-1.475-.5,2.2,2.2,0,0,1-.531-1.654,2.432,2.432,0,0,1,1.062-2.157A4.315,4.315,0,0,1,92.486-9.3a13.721,13.721,0,0,1,1.947.144q1,.144,2.183.288a25.028,25.028,0,0,0,7.022-9.42A27.222,27.222,0,0,0,105.7-28.574q0-6.616-2.833-9.708a9.748,9.748,0,0,0-7.553-3.092,14.7,14.7,0,0,0-8.793,2.948,21.9,21.9,0,0,0-6.786,8.845l-2.006-1.294a43.52,43.52,0,0,1,5.016-8.845,22.99,22.99,0,0,1,7.612-6.616A22.818,22.818,0,0,1,101.456-48.852Z" transform="translate(-4.324 48.852)" fill="#502b13" opacity="0.2"/>
</svg>
