<svg id="Group_134052" data-name="Group 134052" xmlns="http://www.w3.org/2000/svg" xmlns:xlink="http://www.w3.org/1999/xlink" width="43.885" height="43.35" viewBox="0 0 43.885 43.35">
  <defs>
    <clipPath id="clip-path">
      <rect id="Rectangle_84289" data-name="Rectangle 84289" width="43.885" height="43.35" fill="#7e4b2c"/>
    </clipPath>
  </defs>
  <g id="Group_134051" data-name="Group 134051" clip-path="url(#clip-path)">
    <path id="Path_172577" data-name="Path 172577" d="M2.084,30.939c.135-1.169.256-2.4.423-3.615a4.914,4.914,0,0,0-.47-3.054c-.494-.941-.962-1.9-1.439-2.846a4.584,4.584,0,0,1,1.049-5.8c.757-.707,1.509-1.42,2.273-2.12A4.86,4.86,0,0,0,5.4,10.894c.252-1.141.509-2.283.816-3.41a4.566,4.566,0,0,1,4.34-3.355c1.262-.043,2.522-.137,3.781-.243a4.173,4.173,0,0,0,2.149-.927c.937-.7,1.864-1.421,2.822-2.1A4.455,4.455,0,0,1,24.562.851c.949.661,1.867,1.367,2.785,2.069A4.971,4.971,0,0,0,30.3,3.964a32.288,32.288,0,0,1,3.642.252,4.385,4.385,0,0,1,3.81,3.558c.29,1.132.544,2.274.812,3.411a4.315,4.315,0,0,0,1.261,2.179c.817.776,1.649,1.538,2.466,2.314a4.576,4.576,0,0,1,1,5.733c-.394.788-.75,1.6-1.2,2.351a6,6,0,0,0-.648,4.227,20.881,20.881,0,0,1,.318,2.991,4.317,4.317,0,0,1-2.591,4.166c-1.062.522-2.165.962-3.258,1.417a4.8,4.8,0,0,0-2.27,1.9c-.58.911-1.173,1.814-1.771,2.713A4.561,4.561,0,0,1,26.46,43.1c-.784-.24-1.588-.424-2.353-.715a6.018,6.018,0,0,0-4.36.008,20.111,20.111,0,0,1-3.018.858,4.29,4.29,0,0,1-4.516-1.808c-.687-.927-1.3-1.914-1.911-2.893a5.018,5.018,0,0,0-2.44-2.042q-1.457-.59-2.892-1.231a4.609,4.609,0,0,1-2.886-4.34m19.86,5.7A14.95,14.95,0,1,0,6.99,21.685,14.967,14.967,0,0,0,21.944,36.634" transform="translate(0 0)" fill="#7e4b2c"/>
    <path id="Path_172578" data-name="Path 172578" d="M59.645,71.732A13.488,13.488,0,1,1,73.138,58.268,13.507,13.507,0,0,1,59.645,71.732M57.787,59.365c-.929-.932-1.911-1.93-2.907-2.913a2,2,0,0,0-2.865-.04,1.974,1.974,0,0,0,.021,2.86q2.186,2.208,4.394,4.394a1.957,1.957,0,0,0,2.892-.007q3.966-3.982,7.909-7.988a1.987,1.987,0,0,0,.05-2.9,2.013,2.013,0,0,0-2.9.089c-.523.511-1.02,1.048-1.542,1.56-1.673,1.643-3.351,3.281-5.05,4.942" transform="translate(-37.705 -36.56)" fill="#7e4b2c"/>
  </g>
</svg>
