<svg xmlns="http://www.w3.org/2000/svg" xmlns:xlink="http://www.w3.org/1999/xlink" width="39.94" height="27.89" viewBox="0 0 39.94 27.89">
  <defs>
    <clipPath id="clip-path">
      <rect id="Rectangle_2556" data-name="Rectangle 2556" width="39.94" height="27.89" fill="#7e4b2c"/>
    </clipPath>
  </defs>
  <g id="Group_2870" data-name="Group 2870" clip-path="url(#clip-path)">
    <path id="Path_11012" data-name="Path 11012" d="M39.94,25.415a2.9,2.9,0,0,1-.307.031q-4.968,0-9.935,0c-.114,0-.228-.014-.414-.026,0-.674.034-1.333-.006-1.989a8.212,8.212,0,0,0-4.908-7.325c-.058-.028-.113-.059-.145-.076a16.851,16.851,0,0,0,1.145-1.695,16.3,16.3,0,0,0,.717-1.9.214.214,0,0,1,.1.05,5.028,5.028,0,0,0,4.327,1.117,8.205,8.205,0,0,0,3.474-1.379.484.484,0,0,1,.407-.043,9.4,9.4,0,0,1,5.387,6.858c.059.277.108.557.162.835Z" fill="#7e4b2c"/>
    <path id="Path_11013" data-name="Path 11013" d="M13.979,12.443a6.27,6.27,0,0,0,1.847,3.538c-3.974,1.924-5.465,5.178-5.106,9.436H.02c0-.123,0-.249,0-.374,0-1.469-.051-2.939.009-4.4A9.348,9.348,0,0,1,5.523,12.19a.446.446,0,0,1,.522.07,7.719,7.719,0,0,0,5.19,1.388,4.714,4.714,0,0,0,2.4-.945l.349-.26" fill="#7e4b2c"/>
    <path id="Path_11014" data-name="Path 11014" d="M26.947,27.89H13.06a1.7,1.7,0,0,1-.032-.229c0-1.416-.02-2.832.015-4.247a5.949,5.949,0,0,1,5.188-5.634,12.331,12.331,0,0,1,4.185.118,5.968,5.968,0,0,1,4.548,5.682c.051,1.375.012,2.753.012,4.13a1.225,1.225,0,0,1-.029.18" fill="#7e4b2c"/>
    <path id="Path_11015" data-name="Path 11015" d="M4.932,5.7a5.68,5.68,0,1,1,5.68,5.669A5.668,5.668,0,0,1,4.932,5.7" fill="#7e4b2c"/>
    <path id="Path_11016" data-name="Path 11016" d="M35.025,5.7A5.677,5.677,0,1,1,29.378,0,5.686,5.686,0,0,1,35.025,5.7" fill="#7e4b2c"/>
    <path id="Path_11017" data-name="Path 11017" d="M20,15.291a3.739,3.739,0,1,1,3.728-3.735A3.712,3.712,0,0,1,20,15.291" fill="#7e4b2c"/>
  </g>
</svg>
