<svg id="Group_137107" data-name="Group 137107" xmlns="http://www.w3.org/2000/svg" xmlns:xlink="http://www.w3.org/1999/xlink" width="34.126" height="32.159" viewBox="0 0 34.126 32.159">
  <defs>
    <clipPath id="clip-path">
      <rect id="Rectangle_85962" data-name="Rectangle 85962" width="34.126" height="32.159" fill="#7e4b2c"/>
    </clipPath>
  </defs>
  <g id="Group_137106" data-name="Group 137106" clip-path="url(#clip-path)">
    <path id="Path_246105" data-name="Path 246105" d="M6.321,18.809l.784-.3v6.073c.426-.276.792-.5,1.14-.748a.408.408,0,0,0,.094-.291c.008-.7,0-1.4,0-2.1q0-7.762-.007-15.525a.6.6,0,0,1,.321-.581Q12.676,2.786,16.681.22c.109-.07.222-.134.364-.22V32.155H0v-.337q0-5.03,0-10.061c0-.221.025-.385.277-.435.222-.044.276-.188.274-.412-.01-1.755,0-3.509-.012-5.264a.449.449,0,0,1,.308-.5c1.716-.744,3.426-1.505,5.138-2.26.1-.043.2-.074.335-.123Zm9.7-3.775c-.153.095-.255.155-.354.219-.735.476-1.453.983-2.212,1.416a.952.952,0,0,0-.55,1.029c.048.611.011,1.229.011,1.908,1.036-.649,2.011-1.258,2.983-1.872a.265.265,0,0,0,.117-.182c.008-.818.005-1.635.005-2.518m0-12.661c-1.048.678-2.023,1.305-2.99,1.945a.385.385,0,0,0-.111.279c-.011.476-.005.953-.005,1.429v.929c1.04-.652,2.015-1.26,2.984-1.876a.3.3,0,0,0,.118-.213c.008-.806.005-1.613.005-2.493m0,4.216C14.977,7.27,14,7.9,13.017,8.545a.228.228,0,0,0-.091.161c-.006.8,0,1.6,0,2.465,1.038-.65,2.02-1.263,3-1.885a.3.3,0,0,0,.1-.222c.007-.8,0-1.592,0-2.476M12.92,23.82c.738-.461,1.422-.884,2.1-1.312.327-.206.776-.351.937-.649a2.757,2.757,0,0,0,.067-1.172c.006-.459,0-.918,0-1.447C14.979,19.92,14,20.554,13.02,21.2a.3.3,0,0,0-.1.222c-.007.775,0,1.55,0,2.4m3.108-12.992c-.154.089-.248.137-.337.195a18.54,18.54,0,0,1-1.818,1.16,1.51,1.51,0,0,0-.965,1.77,9.875,9.875,0,0,1,.012,1.436c.777-.487,1.458-.991,2.205-1.36a1.423,1.423,0,0,0,.916-1.661,11.184,11.184,0,0,1-.013-1.54m-3.973,2.551c-.909.589-1.761,1.139-2.61,1.695a.23.23,0,0,0-.087.165c-.006.771,0,1.543,0,2.33a.57.57,0,0,0,.131-.031c.808-.5,1.617-1.005,2.419-1.519a.367.367,0,0,0,.145-.261c.011-.765.007-1.529.007-2.379m-2.7,8.407a.624.624,0,0,0,.129-.035c.808-.5,1.617-1,2.42-1.509a.308.308,0,0,0,.144-.2c.01-.791.006-1.582.006-2.372-.061,0-.088-.009-.1,0q-1.242.8-2.479,1.6a.264.264,0,0,0-.112.182c-.008.77-.005,1.541-.005,2.331m0-12.6c.908-.57,1.751-1.1,2.589-1.63a.262.262,0,0,0,.107-.185c.007-.782,0-1.564,0-2.344-.06,0-.087-.015-.1-.006-.829.532-1.659,1.063-2.483,1.6a.3.3,0,0,0-.111.217c-.008.752,0,1.5,0,2.345m2.7-.028c-.909.59-1.753,1.136-2.593,1.687a.232.232,0,0,0-.1.158c-.007.772,0,1.543,0,2.31.06.008.087.02.1.012.829-.512,1.658-1.025,2.481-1.546a.294.294,0,0,0,.112-.214c.008-.775,0-1.55,0-2.408m0,12.653c-.911.59-1.757,1.132-2.592,1.691-.075.05-.1.21-.105.32-.01.632-.006,1.264,0,1.9,0,.091.015.181.028.319.884-.555,1.719-1.076,2.548-1.605a.3.3,0,0,0,.12-.21c.009-.774.005-1.549.005-2.411M1.22,22.543c.647-.287,1.235-.539,1.812-.815a.385.385,0,0,0,.135-.294c.013-.565.007-1.132.005-1.7,0-.115-.012-.23-.021-.389-.635.294-1.218.559-1.794.84a.308.308,0,0,0-.132.232c-.01.686-.006,1.373-.006,2.123M3.658,21.41c.632-.281,1.207-.534,1.778-.8.067-.031.153-.117.154-.179.011-.724.007-1.448.007-2.225-.646.3-1.237.569-1.821.852a.269.269,0,0,0-.112.2c-.008.7-.005,1.394-.005,2.144m.212,6.978c.64-.282,1.243-.546,1.842-.818a.207.207,0,0,0,.093-.157c.006-.724,0-1.449,0-2.221-.642.3-1.232.568-1.816.85a.267.267,0,0,0-.118.2c-.009.7-.005,1.393-.005,2.146M1.278,29.5A13.408,13.408,0,0,1,2.61,28.93a.786.786,0,0,0,.623-.968c-.052-.531-.011-1.072-.011-1.654-.642.3-1.226.559-1.8.838a.3.3,0,0,0-.136.227c-.011.687-.006,1.375-.006,2.128M3.513,17.617c.52-.23.983-.47,1.47-.638a.631.631,0,0,0,.485-.756c-.039-.578-.01-1.162-.01-1.8-.655.3-1.246.573-1.832.853a.239.239,0,0,0-.109.179c-.008.707,0,1.413,0,2.166m-.5-2.054a6.651,6.651,0,0,1-.976.431,1.172,1.172,0,0,0-.977,1.512,8.09,8.09,0,0,1,.011,1.247c.634-.282,1.211-.534,1.783-.8.067-.031.151-.118.152-.181.011-.718.007-1.437.007-2.213m2.8,6.071a9.042,9.042,0,0,1-1.164.522.97.97,0,0,0-.789,1.227,10.948,10.948,0,0,1,.012,1.443c.635-.28,1.211-.527,1.779-.793a.329.329,0,0,0,.155-.243c.012-.7.007-1.392.007-2.156M3.22,22.749a6.5,6.5,0,0,1-.977.437,1.17,1.17,0,0,0-.977,1.51,8.112,8.112,0,0,1,.011,1.249c.634-.282,1.21-.534,1.78-.8a.3.3,0,0,0,.156-.212c.012-.707.007-1.414.007-2.184" transform="translate(0)" fill="#7e4b2c"/>
    <path id="Path_246106" data-name="Path 246106" d="M134.059.69c.135.08.239.137.338.2q3.188,2.083,6.379,4.162a.6.6,0,0,1,.324.581q-.013,13.357-.007,26.713v.409h-7.034Z" transform="translate(-116.167 -0.598)" fill="#7e4b2c"/>
    <path id="Path_246107" data-name="Path 246107" d="M191.061,149.223c.147.036.274.059.4.1l7.931,2.531c.176.056.3.106.3.348-.01,2.974-.007,5.948-.007,8.922,0,.054-.006.107-.011.182h-8.608Zm6.949,6.445c0-.64-.009-1.235.005-1.829a.308.308,0,0,0-.256-.349c-.719-.249-1.432-.518-2.148-.777a2.261,2.261,0,0,0-.246-.059V154.9l2.645.767m0,3.985c0-.675.009-1.294-.011-1.913,0-.088-.133-.213-.231-.251-.69-.267-1.386-.517-2.081-.769-.1-.036-.2-.058-.332-.094,0,.728,0,1.414.007,2.1a.272.272,0,0,0,.158.2c.811.247,1.626.481,2.489.732m-5.957-4.005c0,.753,0,1.427.007,2.1a.28.28,0,0,0,.146.213c.812.247,1.629.48,2.479.727,0-.679,0-1.319-.005-1.96a.221.221,0,0,0-.117-.162c-.815-.3-1.634-.6-2.51-.919m2.634-.939c0-.643-.012-1.23.006-1.817a.332.332,0,0,0-.273-.375c-.689-.24-1.372-.494-2.059-.74-.087-.031-.179-.045-.306-.076,0,.725,0,1.41.008,2.1,0,.066.1.165.174.188.8.245,1.607.477,2.451.724" transform="translate(-165.561 -129.307)" fill="#7e4b2c"/>
  </g>
</svg>
