<svg xmlns="http://www.w3.org/2000/svg" width="537.488" height="757.264" viewBox="0 0 537.488 757.264">
  <g id="Group_136785" data-name="Group 136785" transform="translate(-738.512 -2482.933)">
    <g id="Group_120885" data-name="Group 120885" transform="translate(-5052.908 2413.076)">
      <path id="Path_172444" data-name="Path 172444" d="M455.75,24.787q32.241.089,64.483.211c2.154.012,3.386-.495,3.072-2.893a3.845,3.845,0,0,1,0-.871c.342-3.554-1.6-9.123.884-10.24,3.882-1.745,9.07-.586,13.705-.646a1.452,1.452,0,0,1,1.677,1.523c.012.29.047.58.046.87-.024,4.211,1.329,9.177-.449,12.431-1.967,3.6-7.317.919-11.151,1.4-1.8.227-2.992.325-2.981,2.6.1,21.353.119,42.706.2,64.059a24.182,24.182,0,0,0,.5,3.447l-1.145,1.27c-1.321-2.854-1.349-5.9-1.35-8.955,0-19.142-.126-38.285.1-57.424.049-4.12-1.257-5.012-5.128-4.974-18.993.187-37.988.1-56.982.069-1.874,0-3.748-.218-5.623-.335q.072-.771.145-1.542m75.313.186c6.81,0,6.858,0,6.8-5.618-.081-8.395.981-7.239-5.555-7.319-7.253-.089-7.254-.024-7.258,6.07,0,6.864,0,6.864,6.009,6.867" transform="translate(5779 69.805)" fill="#855232" opacity="0.5"/>
      <path id="Path_172445" data-name="Path 172445" d="M455.75,24.787q-.072.771-.145,1.542c-9.247-1.451-14.63-8.248-13.142-16.594,1.164-6.528,7.061-10.757,13.354-9.446a8.765,8.765,0,0,1,7.3,7.681,7.383,7.383,0,0,1-4.123,8.343,6.653,6.653,0,0,1-7.035-.283,5.863,5.863,0,0,1-2.737-5.58,5.15,5.15,0,0,1,5.98-4.855c1.494.307,2.792.986,2.957,2.723a2.3,2.3,0,0,1-1.485,2.426,2.456,2.456,0,0,1-3.334-1.15c-.274-.431-.559-.854-.988-1.509-1.988,3.111-1.3,5.324,1.531,6.711,2.617,1.284,6.031-.491,6.968-3.433a6.754,6.754,0,0,0-1.48-6.9c-2.159-2.4-4.967-2.91-7.973-2.144a8.983,8.983,0,0,0-6.837,7.165,11.428,11.428,0,0,0,3.785,11.785c2.134,1.9,4.843,2.546,7.407,3.516" transform="translate(5779 69.805)" fill="#855232" opacity="0.5"/>
      <path id="Path_172446" data-name="Path 172446" d="M524.587,97.948l1.145-1.27c1.818,3.7,3.886,7.1,8.15,8.525,6.262,2.091,12.895-1.278,13.949-7.252a7.553,7.553,0,0,0-2.505-7.48,6.525,6.525,0,0,0-6.935-1.219c-3.017,1.212-4.234,3.677-3.214,6.683,1.058,3.118,3.483,3.4,6.275,2.262.04-1.642-1.468-1.39-1.94-2.226-.856-1.515-.757-2.866.731-3.759,1.516-.91,2.759-.275,3.632,1.187,1.852,3.1-.713,7.326-4.581,7.383a5.778,5.778,0,0,1-6.236-4.936c-.782-3.715.719-6.591,4.085-8.281,5.258-2.638,11.852,1.169,12.646,7.264a10.491,10.491,0,0,1-4.944,10.849,12.808,12.808,0,0,1-14.023.257,12.3,12.3,0,0,1-6.235-7.987" transform="translate(5779 69.805)" fill="#855232" opacity="0.5"/>
      <path id="Path_172447" data-name="Path 172447" d="M503.278,32.292c3.772,0,7.546.078,11.314-.031,2.084-.06,3.163.356,3.12,2.82-.139,7.977-.059,15.959-.065,23.938,0,1.848-.479,3.434-2.3,4.331a2.464,2.464,0,0,1-2.843-.2,1.705,1.705,0,0,1-.789-1.874c.333-1.058,1.076-1.915,2.228-1.6,2.32.641,1.876-.94,1.879-2.148.016-6.82-.079-13.641.055-20.456.046-2.358-.839-2.945-3.036-2.911-6.816.109-13.636.045-20.454.036-1.337,0-2.669-.24-2.059,1.971.3,1.1-.636,1.868-1.733,2.118a1.792,1.792,0,0,1-1.835-.9,2.51,2.51,0,0,1-.07-2.86c.949-1.8,2.57-2.186,4.4-2.183q6.093.007,12.185,0Z" transform="translate(5779 69.805)" fill="#855232" opacity="0.5"/>
      <path id="Path_172448" data-name="Path 172448" d="M532.38,33.525q0,6.189,0,12.377c0,6.816-.025,13.632.033,20.448.01,1.195-.8,3.13,2.024,2.438a1.784,1.784,0,0,1,2.013,2.519c-.493,1.46-1.9,1.735-3.273,1.231a3.719,3.719,0,0,1-2.55-3.695q.006-17.388.128-34.776c0-.205.3-.408.463-.612l1.162.07" transform="translate(5779.281 69.805)" fill="#855232" opacity="0.5"/>
      <path id="Path_172449" data-name="Path 172449" d="M516.645,18.135c-.436,1.576-1.465,1.269-2.23,1.271q-16.1.045-32.2.021c-2.172,0-4.108-.49-4.795-2.865-.4-1.38-.091-2.722,1.526-3.069,1.4-.3,2.515.664,2.239,1.924-.669,3.05,1.483,2.134,2.794,2.142,9.427.052,18.853.013,28.28.047,1.418.006,2.9-.355,4.382.529" transform="translate(5779 69.805)" fill="#855232" opacity="0.5"/>
    </g>
    <g id="Group_120897" data-name="Group 120897" transform="translate(1168.309 3132.109)">
      <path id="Path_172444-2" data-name="Path 172444" d="M455.75,83.187q32.241-.088,64.483-.211c2.154-.012,3.386.5,3.072,2.893a3.845,3.845,0,0,0,0,.871c.342,3.554-1.6,9.123.884,10.24,3.882,1.745,9.07.586,13.705.646a1.452,1.452,0,0,0,1.677-1.523c.012-.29.047-.58.046-.87-.024-4.211,1.329-9.177-.449-12.431-1.967-3.6-7.317-.919-11.151-1.4-1.8-.227-2.992-.325-2.981-2.6.1-21.353.119-42.706.2-64.059a24.182,24.182,0,0,1,.5-3.447l-1.145-1.27c-1.321,2.854-1.349,5.9-1.35,8.955,0,19.142-.126,38.285.1,57.424.049,4.12-1.257,5.012-5.128,4.974-18.993-.187-37.988-.1-56.982-.069-1.874,0-3.748.218-5.623.335q.072.771.145,1.542M531.063,83c6.81,0,6.858,0,6.8,5.618-.081,8.395.981,7.239-5.555,7.319-7.253.089-7.254.024-7.258-6.07,0-6.864,0-6.864,6.009-6.867" transform="translate(-442.217 -0.076)" fill="#855232" opacity="0.5"/>
      <path id="Path_172445-2" data-name="Path 172445" d="M455.75,1.593q-.072-.771-.145-1.542C446.358,1.5,440.975,8.3,442.463,16.645c1.164,6.528,7.061,10.757,13.354,9.446a8.765,8.765,0,0,0,7.3-7.681,7.383,7.383,0,0,0-4.123-8.343,6.653,6.653,0,0,0-7.035.283,5.863,5.863,0,0,0-2.737,5.58,5.15,5.15,0,0,0,5.98,4.855c1.494-.307,2.792-.986,2.957-2.723a2.3,2.3,0,0,0-1.485-2.426,2.456,2.456,0,0,0-3.334,1.15c-.274.431-.559.854-.988,1.509-1.988-3.111-1.3-5.324,1.531-6.711,2.617-1.284,6.031.491,6.968,3.433a6.754,6.754,0,0,1-1.48,6.9c-2.159,2.4-4.967,2.91-7.973,2.144a8.983,8.983,0,0,1-6.837-7.165,11.428,11.428,0,0,1,3.785-11.785c2.134-1.9,4.843-2.546,7.407-3.516" transform="translate(-442.217 81.518)" fill="#855232" opacity="0.5"/>
      <path id="Path_172446-2" data-name="Path 172446" d="M524.587,96.665l1.145,1.27c1.818-3.7,3.886-7.1,8.15-8.525,6.262-2.091,12.895,1.278,13.949,7.252a7.553,7.553,0,0,1-2.505,7.48,6.525,6.525,0,0,1-6.935,1.219c-3.017-1.212-4.234-3.677-3.214-6.683,1.058-3.118,3.483-3.4,6.275-2.262.04,1.642-1.468,1.39-1.94,2.226-.856,1.515-.757,2.866.731,3.759,1.516.91,2.759.275,3.632-1.187,1.852-3.1-.713-7.326-4.581-7.383a5.778,5.778,0,0,0-6.236,4.936c-.782,3.715.719,6.591,4.085,8.281,5.258,2.638,11.852-1.169,12.646-7.264a10.491,10.491,0,0,0-4.944-10.849,12.808,12.808,0,0,0-14.023-.257,12.3,12.3,0,0,0-6.235,7.987" transform="translate(-442.217 -86.715)" fill="#855232" opacity="0.5"/>
      <path id="Path_172447-2" data-name="Path 172447" d="M503.278,63.667c3.772,0,7.546-.078,11.314.031,2.084.06,3.163-.356,3.12-2.82-.139-7.977-.059-15.959-.065-23.938,0-1.848-.479-3.434-2.3-4.331a2.464,2.464,0,0,0-2.843.2,1.705,1.705,0,0,0-.789,1.874c.333,1.058,1.076,1.915,2.228,1.6,2.32-.641,1.876.94,1.879,2.148.016,6.82-.079,13.641.055,20.456.046,2.358-.839,2.945-3.036,2.911-6.816-.109-13.636-.045-20.454-.036-1.337,0-2.669.24-2.059-1.971.3-1.1-.636-1.868-1.733-2.118a1.792,1.792,0,0,0-1.835.9,2.51,2.51,0,0,0-.07,2.86c.949,1.8,2.57,2.186,4.4,2.183q6.093-.007,12.185,0Z" transform="translate(-442.217 11.938)" fill="#855232" opacity="0.5"/>
      <path id="Path_172448-2" data-name="Path 172448" d="M532.38,72.7q0-6.189,0-12.377c0-6.816-.025-13.632.033-20.448.01-1.195-.8-3.13,2.024-2.438a1.784,1.784,0,0,0,2.013-2.519c-.493-1.46-1.9-1.735-3.273-1.231a3.719,3.719,0,0,0-2.55,3.695q.006,17.388.128,34.776c0,.205.3.408.463.612l1.162-.07" transform="translate(-442.217 1.673)" fill="#855232" opacity="0.5"/>
      <path id="Path_172449-2" data-name="Path 172449" d="M516.645,14.732c-.436-1.576-1.465-1.269-2.23-1.271q-16.1-.045-32.2-.021c-2.172,0-4.108.49-4.795,2.865-.4,1.38-.091,2.722,1.526,3.069,1.4.3,2.515-.664,2.239-1.924-.669-3.05,1.483-2.134,2.794-2.142,9.427-.052,18.853-.013,28.28-.047,1.418-.006,2.9.355,4.382-.529" transform="translate(-442.217 75.031)" fill="#855232" opacity="0.5"/>
    </g>
    <g id="Group_120892" data-name="Group 120892" transform="translate(738.512 2482.933)">
      <path id="Path_172444-3" data-name="Path 172444" d="M539.943,24.787Q507.7,24.875,475.46,25c-2.154.012-3.386-.495-3.072-2.893a3.845,3.845,0,0,0,0-.871c-.342-3.554,1.6-9.123-.884-10.24-3.882-1.745-9.07-.586-13.705-.646a1.452,1.452,0,0,0-1.677,1.523c-.012.29-.047.58-.046.87.024,4.211-1.329,9.177.449,12.431,1.967,3.6,7.317.919,11.151,1.4,1.8.227,2.992.325,2.981,2.6-.1,21.353-.119,42.706-.2,64.059a24.182,24.182,0,0,1-.5,3.447l1.145,1.27c1.321-2.854,1.349-5.9,1.35-8.955,0-19.142.126-38.285-.1-57.424-.049-4.12,1.257-5.012,5.128-4.974,18.993.187,37.988.1,56.982.069,1.874,0,3.748-.218,5.623-.335q-.072-.771-.145-1.542m-75.313.186c-6.81,0-6.858,0-6.8-5.618.081-8.395-.981-7.239,5.555-7.319,7.253-.089,7.254-.024,7.258,6.07,0,6.864,0,6.864-6.009,6.867" transform="translate(-445.785 -0.051)" fill="#855232" opacity="0.5"/>
      <path id="Path_172445-3" data-name="Path 172445" d="M449.717,24.787q.072.771.145,1.542c9.247-1.451,14.63-8.248,13.142-16.594C461.84,3.207,455.943-1.022,449.65.289a8.765,8.765,0,0,0-7.3,7.681,7.383,7.383,0,0,0,4.123,8.343,6.653,6.653,0,0,0,7.035-.283,5.863,5.863,0,0,0,2.737-5.58,5.15,5.15,0,0,0-5.98-4.855c-1.494.307-2.792.986-2.957,2.723a2.3,2.3,0,0,0,1.485,2.426,2.456,2.456,0,0,0,3.334-1.15c.274-.431.559-.854.988-1.509,1.988,3.111,1.3,5.324-1.531,6.711-2.617,1.284-6.031-.491-6.968-3.433a6.754,6.754,0,0,1,1.48-6.9c2.159-2.4,4.967-2.91,7.973-2.144a8.983,8.983,0,0,1,6.837,7.165,11.428,11.428,0,0,1-3.785,11.785c-2.134,1.9-4.843,2.546-7.407,3.516" transform="translate(-355.559 -0.051)" fill="#855232" opacity="0.5"/>
      <path id="Path_172446-3" data-name="Path 172446" d="M549.908,97.948l-1.145-1.27c-1.818,3.7-3.886,7.1-8.15,8.525-6.262,2.091-12.895-1.278-13.949-7.252a7.553,7.553,0,0,1,2.505-7.48,6.525,6.525,0,0,1,6.935-1.219c3.017,1.212,4.234,3.677,3.214,6.683-1.058,3.118-3.483,3.4-6.275,2.262-.04-1.642,1.468-1.39,1.94-2.226.856-1.515.757-2.866-.731-3.759-1.516-.91-2.759-.275-3.632,1.187-1.852,3.1.713,7.326,4.581,7.383a5.778,5.778,0,0,0,6.236-4.936c.782-3.715-.719-6.591-4.085-8.281-5.258-2.638-11.852,1.169-12.646,7.264a10.491,10.491,0,0,0,4.944,10.849,12.808,12.808,0,0,0,14.023.257,12.3,12.3,0,0,0,6.235-7.987" transform="translate(-524.587 -0.051)" fill="#855232" opacity="0.5"/>
      <path id="Path_172447-3" data-name="Path 172447" d="M500.713,32.292c-3.772,0-7.546.078-11.314-.031-2.084-.06-3.163.356-3.12,2.82.139,7.977.059,15.959.065,23.938,0,1.848.479,3.434,2.3,4.331a2.464,2.464,0,0,0,2.843-.2,1.705,1.705,0,0,0,.789-1.874c-.333-1.058-1.076-1.915-2.228-1.6-2.32.641-1.876-.94-1.879-2.148-.016-6.82.079-13.641-.055-20.456-.046-2.358.839-2.945,3.036-2.911,6.816.109,13.636.045,20.454.036,1.337,0,2.669-.24,2.059,1.971-.3,1.1.636,1.868,1.733,2.118a1.792,1.792,0,0,0,1.835-.9,2.51,2.51,0,0,0,.07-2.86c-.949-1.8-2.57-2.186-4.4-2.183q-6.093.007-12.185,0Z" transform="translate(-454.083 -0.051)" fill="#855232" opacity="0.5"/>
      <path id="Path_172448-3" data-name="Path 172448" d="M534.83,33.525q0,6.189,0,12.377c0,6.816.025,13.632-.033,20.448-.01,1.195.8,3.13-2.024,2.438a1.784,1.784,0,0,0-2.013,2.519c.493,1.46,1.9,1.735,3.273,1.231a3.719,3.719,0,0,0,2.55-3.695q-.006-17.388-.128-34.776c0-.205-.3-.408-.463-.612l-1.162.07" transform="translate(-517.302 -0.051)" fill="#855232" opacity="0.5"/>
      <path id="Path_172449-3" data-name="Path 172449" d="M477.267,18.135c.436,1.576,1.465,1.269,2.23,1.271q16.1.045,32.2.021c2.172,0,4.108-.49,4.795-2.865.4-1.38.091-2.722-1.526-3.069-1.4-.3-2.515.664-2.239,1.924.669,3.05-1.483,2.134-2.794,2.142-9.427.052-18.853.013-28.28.047-1.418.006-2.9-.355-4.382.529" transform="translate(-444.003 -0.051)" fill="#855232" opacity="0.5"/>
    </g>
    <g id="Group_120896" data-name="Group 120896" transform="translate(738.512 3132.35)">
      <path id="Path_172444-4" data-name="Path 172444" d="M539.943,83.187Q507.7,83.1,475.46,82.976c-2.154-.012-3.386.5-3.072,2.893a3.845,3.845,0,0,1,0,.871c-.342,3.554,1.6,9.123-.884,10.24-3.882,1.745-9.07.586-13.705.646a1.452,1.452,0,0,1-1.677-1.523c-.012-.29-.047-.58-.046-.87.024-4.211-1.329-9.177.449-12.431,1.967-3.6,7.317-.919,11.151-1.4,1.8-.227,2.992-.325,2.981-2.6-.1-21.353-.119-42.706-.2-64.059a24.183,24.183,0,0,0-.5-3.447l1.145-1.27c1.321,2.854,1.349,5.9,1.35,8.955,0,19.142.126,38.285-.1,57.424-.049,4.12,1.257,5.012,5.128,4.974,18.993-.187,37.988-.1,56.982-.069,1.874,0,3.748.218,5.623.335q-.072.771-.145,1.542M464.63,83c-6.81,0-6.858,0-6.8,5.618.081,8.395-.981,7.239,5.555,7.319,7.253.089,7.254.024,7.258-6.07,0-6.864,0-6.864-6.009-6.867" transform="translate(-445.785 -0.076)" fill="#855232" opacity="0.5"/>
      <path id="Path_172445-4" data-name="Path 172445" d="M449.717,1.593q.072-.771.145-1.542C459.109,1.5,464.492,8.3,463,16.645c-1.164,6.528-7.061,10.757-13.354,9.446a8.765,8.765,0,0,1-7.3-7.681,7.383,7.383,0,0,1,4.123-8.343,6.653,6.653,0,0,1,7.035.283,5.863,5.863,0,0,1,2.737,5.58,5.15,5.15,0,0,1-5.98,4.855c-1.494-.307-2.792-.986-2.957-2.723a2.3,2.3,0,0,1,1.485-2.426,2.456,2.456,0,0,1,3.334,1.15c.274.431.559.854.988,1.509,1.988-3.111,1.3-5.324-1.531-6.711-2.617-1.284-6.031.491-6.968,3.433a6.754,6.754,0,0,0,1.48,6.9c2.159,2.4,4.967,2.91,7.973,2.144a8.983,8.983,0,0,0,6.837-7.165,11.428,11.428,0,0,0-3.785-11.785c-2.134-1.9-4.843-2.546-7.407-3.516" transform="translate(-355.559 81.518)" fill="#855232" opacity="0.5"/>
      <path id="Path_172446-4" data-name="Path 172446" d="M549.908,96.665l-1.145,1.27c-1.818-3.7-3.886-7.1-8.15-8.525-6.262-2.091-12.895,1.278-13.949,7.252a7.553,7.553,0,0,0,2.505,7.48,6.525,6.525,0,0,0,6.935,1.219c3.017-1.212,4.234-3.677,3.214-6.683-1.058-3.118-3.483-3.4-6.275-2.262-.04,1.642,1.468,1.39,1.94,2.226.856,1.515.757,2.866-.731,3.759-1.516.91-2.759.275-3.632-1.187-1.852-3.1.713-7.326,4.581-7.383a5.778,5.778,0,0,1,6.236,4.936c.782,3.715-.719,6.591-4.085,8.281-5.258,2.638-11.852-1.169-12.646-7.264a10.491,10.491,0,0,1,4.944-10.849,12.808,12.808,0,0,1,14.023-.257,12.3,12.3,0,0,1,6.235,7.987" transform="translate(-524.587 -86.715)" fill="#855232" opacity="0.5"/>
      <path id="Path_172447-4" data-name="Path 172447" d="M500.713,63.667c-3.772,0-7.546-.078-11.314.031-2.084.06-3.163-.356-3.12-2.82.139-7.977.059-15.959.065-23.938,0-1.848.479-3.434,2.3-4.331a2.464,2.464,0,0,1,2.843.2,1.705,1.705,0,0,1,.789,1.874c-.333,1.058-1.076,1.915-2.228,1.6-2.32-.641-1.876.94-1.879,2.148-.016,6.82.079,13.641-.055,20.456-.046,2.358.839,2.945,3.036,2.911,6.816-.109,13.636-.045,20.454-.036,1.337,0,2.669.24,2.059-1.971-.3-1.1.636-1.868,1.733-2.118a1.792,1.792,0,0,1,1.835.9,2.51,2.51,0,0,1,.07,2.86c-.949,1.8-2.57,2.186-4.4,2.183q-6.093-.007-12.185,0Z" transform="translate(-454.083 11.938)" fill="#855232" opacity="0.5"/>
      <path id="Path_172448-4" data-name="Path 172448" d="M534.83,72.7q0-6.189,0-12.377c0-6.816.025-13.632-.033-20.448-.01-1.195.8-3.13-2.024-2.438a1.784,1.784,0,0,1-2.013-2.519c.493-1.46,1.9-1.735,3.273-1.231a3.719,3.719,0,0,1,2.55,3.695q-.006,17.388-.128,34.776c0,.205-.3.408-.463.612l-1.162-.07" transform="translate(-517.302 1.673)" fill="#855232" opacity="0.5"/>
      <path id="Path_172449-4" data-name="Path 172449" d="M477.267,14.732c.436-1.576,1.465-1.269,2.23-1.271q16.1-.045,32.2-.021c2.172,0,4.108.49,4.795,2.865.4,1.38.091,2.722-1.526,3.069-1.4.3-2.515-.664-2.239-1.924.669-3.05-1.483-2.134-2.794-2.142-9.427-.052-18.853-.013-28.28-.047-1.418-.006-2.9.355-4.382-.529" transform="translate(-444.004 75.031)" fill="#855232" opacity="0.5"/>
    </g>
    <g id="Group_120891" data-name="Group 120891" transform="translate(228 -48.861)">
      <path id="Path_172450" data-name="Path 172450" d="M24.97,628.92c.008-145.7.007-360.306,0-506,0-1.628-.115-3.257-.176-4.885l1.46.026c.107,1.389.308,2.777.308,4.165.015,146.389.117,360.3.1,506.694" transform="translate(503 2538.632)" fill="#774625" opacity="0.5"/>
      <path id="Path_172451" data-name="Path 172451" d="M26.252,118.068l-1.46-.033c-1.368-1.815-2.921-3.263-5.458-2.6a2.77,2.77,0,0,0-2.172,2.443c-.163,1.724,1.239,1.007,2.122,1.138,1.6.24,2.35,1.249,1.714,2.761-.645,1.534-1.981,1.477-3.291.834a4.183,4.183,0,0,1-2.611-4.546c.348-2.559,1.851-4.339,4.462-4.59,3.378-.325,5.926.932,6.694,4.593" transform="translate(503 2538.435)" fill="#774625" opacity="0.5"/>
      <path id="Path_172452" data-name="Path 172452" d="M10.139,4.946l-.319.025L9.5,5l-.32.025-.32.025a12.061,12.061,0,0,1-.876,1.311,5.335,5.335,0,0,1-1.02,1.019,3.18,3.18,0,0,1-1.239.567A3.477,3.477,0,0,1,4.193,7.9a2.71,2.71,0,0,1-.77-.312,2.563,2.563,0,0,1-.614-.514,2.7,2.7,0,0,1-.434-.686,3.086,3.086,0,0,1-.231-.828,1.485,1.485,0,0,1,.076-.894.6.6,0,0,1,.454-.3,2.919,2.919,0,0,1,.643-.014,2.55,2.55,0,0,0,.643-.024,2.607,2.607,0,0,0,.9-.367,1.633,1.633,0,0,0,.554-.613,1.675,1.675,0,0,0,.171-.832,2.869,2.869,0,0,0-.254-1.024,2.286,2.286,0,0,0-.576-.84,1.369,1.369,0,0,0-.72-.331A1.876,1.876,0,0,0,3.223.4a3.661,3.661,0,0,0-.845.4,5.133,5.133,0,0,0-1.056.859A4.036,4.036,0,0,0,.247,4,5.173,5.173,0,0,0,.3,5.466,7.373,7.373,0,0,0,.819,7.208a4.981,4.981,0,0,0,.876,1.357,3.9,3.9,0,0,0,1.228.9,4.224,4.224,0,0,0,1.57.377,6.827,6.827,0,0,0,2.08-.181A4.447,4.447,0,0,0,8.26,8.834,4.511,4.511,0,0,0,9.476,7.286a7.456,7.456,0,0,0,.664-2.339" transform="translate(519.284 3162.941)" fill="#774625" opacity="0.5"/>
    </g>
    <g id="Group_120893" data-name="Group 120893" transform="translate(729.209 -48.861)">
      <path id="Path_172450-2" data-name="Path 172450" d="M24.97,629.112c.008-145.75.007-360.441,0-506.19,0-1.629-.115-3.258-.176-4.887l1.46.026c.107,1.389.308,2.778.308,4.167.015,146.444.117,360.439.1,506.883" transform="translate(502.996 2538.632)" fill="#774625" opacity="0.5"/>
      <path id="Path_172451-2" data-name="Path 172451" d="M0,4.643l.365-.008L.73,4.626l.365-.008.365-.008A12.331,12.331,0,0,1,2.532,3.345a5.863,5.863,0,0,1,1.217-.964,3.889,3.889,0,0,1,1.436-.5,4.436,4.436,0,0,1,1.731.129,3.265,3.265,0,0,1,.85.352,2.793,2.793,0,0,1,.662.546,2.631,2.631,0,0,1,.449.707,2.784,2.784,0,0,1,.211.838,1.333,1.333,0,0,1-.139.887.7.7,0,0,1-.53.28A3.723,3.723,0,0,1,7.693,5.6a3.257,3.257,0,0,0-.727-.009,3.214,3.214,0,0,0-1.034.32,1.759,1.759,0,0,0-.663.583,1.528,1.528,0,0,0-.243.822,2.573,2.573,0,0,0,.226,1.036,2.257,2.257,0,0,0,.6.868,1.622,1.622,0,0,0,.794.366,2.393,2.393,0,0,0,.919-.043,4.466,4.466,0,0,0,.976-.357,5.83,5.83,0,0,0,1.24-.8,4.2,4.2,0,0,0,.877-1.028,3.768,3.768,0,0,0,.471-1.249,4.575,4.575,0,0,0,.023-1.466,6.668,6.668,0,0,0-.477-1.762,4.873,4.873,0,0,0-.906-1.4A4.351,4.351,0,0,0,8.442.513,5.255,5.255,0,0,0,6.692.05,8.739,8.739,0,0,0,4.33.116,5.407,5.407,0,0,0,2.367.852,4.743,4.743,0,0,0,.895,2.335,6.9,6.9,0,0,0,0,4.643" transform="translate(527.792 2651.861)" fill="#774625" opacity="0.5"/>
      <path id="Path_172452-2" data-name="Path 172452" d="M0,4.98l.341.008L.683,5,1.024,5l.342.008A12.157,12.157,0,0,0,2.372,6.277a5.576,5.576,0,0,0,1.142.964,3.513,3.513,0,0,0,1.349.5,3.928,3.928,0,0,0,1.627-.127,2.971,2.971,0,0,0,.8-.352A2.647,2.647,0,0,0,8.335,6.01a2.929,2.929,0,0,0,.2-.839A1.407,1.407,0,0,0,8.4,4.283.65.65,0,0,0,7.9,4a3.3,3.3,0,0,0-.684.019,2.885,2.885,0,0,1-.684.01,2.893,2.893,0,0,1-.973-.32,1.69,1.69,0,0,1-.623-.583,1.6,1.6,0,0,1-.228-.822,2.716,2.716,0,0,1,.212-1.036A2.268,2.268,0,0,1,5.49.4,1.489,1.489,0,0,1,6.237.036,2.12,2.12,0,0,1,7.1.077a4.04,4.04,0,0,1,.919.355,5.46,5.46,0,0,1,1.169.8,4.149,4.149,0,0,1,.827,1.029,3.919,3.919,0,0,1,.445,1.251,4.864,4.864,0,0,1,.022,1.469,7.006,7.006,0,0,1-.45,1.765,4.916,4.916,0,0,1-.854,1.4,4.111,4.111,0,0,1-1.253.966,4.71,4.71,0,0,1-1.647.46,7.725,7.725,0,0,1-2.22-.07,4.9,4.9,0,0,1-1.841-.739A4.611,4.611,0,0,1,.837,7.283,7.16,7.16,0,0,1,0,4.98" transform="translate(528.137 3163.183)" fill="#774625" opacity="0.5"/>
    </g>
    <g id="Group_120894" data-name="Group 120894" transform="translate(-1821.367 3030.531) rotate(-90)">
      <path id="Path_172450-3" data-name="Path 172450" d="M24.962,418.94c.008-85.813.007-212.216,0-298.028,0-.959-.11-1.918-.168-2.877l1.4.016a20.046,20.046,0,0,1,.295,2.453c.014,86.222.112,212.215.1,298.436" transform="translate(503.041 2559.607)" fill="#774625" opacity="0.5"/>
      <path id="Path_172451-3" data-name="Path 172451" d="M0,4.655.34,4.646l.339-.008.339-.008.34-.008a12.143,12.143,0,0,1,1-1.264A5.549,5.549,0,0,1,3.49,2.394a3.475,3.475,0,0,1,1.34-.5,3.878,3.878,0,0,1,1.616.126,2.942,2.942,0,0,1,.8.352A2.643,2.643,0,0,1,8.281,3.625a2.945,2.945,0,0,1,.2.839,1.415,1.415,0,0,1-.13.888.645.645,0,0,1-.5.28,3.258,3.258,0,0,1-.68-.019,2.848,2.848,0,0,0-.68-.01,2.861,2.861,0,0,0-.966.32,1.684,1.684,0,0,0-.619.583,1.606,1.606,0,0,0-.227.822,2.732,2.732,0,0,0,.211,1.036,2.269,2.269,0,0,0,.562.869A1.476,1.476,0,0,0,6.2,9.6a2.093,2.093,0,0,0,.859-.041A4,4,0,0,0,7.969,9.2,5.424,5.424,0,0,0,9.13,8.4a4.145,4.145,0,0,0,.822-1.029,3.935,3.935,0,0,0,.442-1.251,4.9,4.9,0,0,0,.022-1.469,7.043,7.043,0,0,0-.447-1.765,4.922,4.922,0,0,0-.849-1.4A4.088,4.088,0,0,0,7.874.519,4.656,4.656,0,0,0,6.237.059,7.626,7.626,0,0,0,4.032.13,4.846,4.846,0,0,0,2.2.869,4.6,4.6,0,0,0,.832,2.352,7.19,7.19,0,0,0,0,4.655" transform="translate(527.832 2673.05)" fill="#774625" opacity="0.5"/>
      <path id="Path_172452-3" data-name="Path 172452" d="M.081,4.958l.348.014.347.014L1.124,5l.348.014a12.2,12.2,0,0,0,1,1.282,5.652,5.652,0,0,0,1.145.984,3.614,3.614,0,0,0,1.364.525,4.065,4.065,0,0,0,1.658-.1,3.051,3.051,0,0,0,.82-.337A2.7,2.7,0,0,0,8.1,6.836a2.651,2.651,0,0,0,.442-.7A2.887,2.887,0,0,0,8.762,5.3a1.385,1.385,0,0,0-.117-.89.664.664,0,0,0-.5-.289,3.416,3.416,0,0,0-.7.007,2.986,2.986,0,0,1-.7,0,2.98,2.98,0,0,1-.984-.337A1.708,1.708,0,0,1,5.142,3.2a1.577,1.577,0,0,1-.218-.826,2.675,2.675,0,0,1,.234-1.032A2.264,2.264,0,0,1,5.749.48,1.525,1.525,0,0,1,6.515.126a2.194,2.194,0,0,1,.879.056,4.156,4.156,0,0,1,.929.372A5.56,5.56,0,0,1,9.5,1.378a4.163,4.163,0,0,1,.823,1.043,3.875,3.875,0,0,1,.43,1.258,4.78,4.78,0,0,1,0,1.469A6.908,6.908,0,0,1,10.259,6.9,4.9,4.9,0,0,1,9.366,8.29a4.176,4.176,0,0,1-1.292.943,4.858,4.858,0,0,1-1.683.431,8,8,0,0,1-2.258-.109,5.033,5.033,0,0,1-1.861-.771A4.645,4.645,0,0,1,.893,7.277,7.082,7.082,0,0,1,.081,4.958" transform="translate(527.833 2973.55)" fill="#774625" opacity="0.5"/>
    </g>
    <g id="Group_120895" data-name="Group 120895" transform="translate(-1820.367 3751.599) rotate(-90)">
      <path id="Path_172450-4" data-name="Path 172450" d="M24.962,418.329c.008-85.638.007-211.785,0-297.423,0-.957-.11-1.914-.168-2.871l1.4.016a19.966,19.966,0,0,1,.295,2.448c.014,86.046.112,211.784.1,297.83" transform="translate(503.041 2559.832)" fill="#774625" opacity="0.5"/>
      <path id="Path_172451-4" data-name="Path 172451" d="M26.252,118.068l-1.46-.033c-1.368-1.815-2.921-3.263-5.458-2.6a2.77,2.77,0,0,0-2.172,2.443c-.163,1.724,1.239,1.007,2.122,1.138,1.6.24,2.35,1.249,1.714,2.761-.645,1.534-1.981,1.477-3.291.834a4.183,4.183,0,0,1-2.611-4.546c.348-2.559,1.851-4.339,4.462-4.59,3.378-.325,5.926.932,6.694,4.593" transform="translate(503 2559.831)" fill="#774625" opacity="0.5"/>
      <path id="Path_172452-4" data-name="Path 172452" d="M10.122,5.5,9.8,5.487l-.32-.009-.32-.009-.321-.009A12.061,12.061,0,0,1,7.832,6.673a5.335,5.335,0,0,1-1.121.907,3.18,3.18,0,0,1-1.291.434A3.477,3.477,0,0,1,3.9,7.808a2.71,2.71,0,0,1-.733-.39,2.563,2.563,0,0,1-.557-.575,2.7,2.7,0,0,1-.36-.728,3.086,3.086,0,0,1-.143-.848,1.485,1.485,0,0,1,.169-.881.6.6,0,0,1,.484-.255,2.919,2.919,0,0,1,.641.053,2.55,2.55,0,0,0,.642.043,2.607,2.607,0,0,0,.93-.271A1.633,1.633,0,0,0,5.588,3.4,1.675,1.675,0,0,0,5.845,2.6,2.869,2.869,0,0,0,5.7,1.551a2.286,2.286,0,0,0-.485-.9,1.369,1.369,0,0,0-.681-.4,1.876,1.876,0,0,0-.814,0,3.661,3.661,0,0,0-.882.309A5.133,5.133,0,0,0,1.7,1.3,4.036,4.036,0,0,0,.383,3.517a5.173,5.173,0,0,0-.1,1.467A7.373,7.373,0,0,0,.616,6.77a4.981,4.981,0,0,0,.729,1.442A3.9,3.9,0,0,0,2.473,9.237,4.224,4.224,0,0,0,4,9.777a6.827,6.827,0,0,0,2.087.037,4.447,4.447,0,0,0,1.765-.649A4.511,4.511,0,0,0,9.218,7.753a7.456,7.456,0,0,0,.9-2.257" transform="translate(519.284 2972.662)" fill="#774625" opacity="0.5"/>
    </g>
  </g>
</svg>
