<svg xmlns="http://www.w3.org/2000/svg" width="315" height="63.205" viewBox="0 0 315 63.205">
  <g id="Group_137061" data-name="Group 137061" transform="translate(-30 -4040.003)">
    <g id="Group_120885" data-name="Group 120885" transform="translate(281.887 4040.003)">
      <path id="Path_172444" data-name="Path 172444" d="M455.69,18.677q18.9.052,37.791.124c1.262.007,1.984-.29,1.8-1.7a2.252,2.252,0,0,1,0-.51c.2-2.083-.939-5.347.518-6,2.275-1.023,5.316-.343,8.032-.379a.851.851,0,0,1,.983.893c.007.17.028.34.027.51-.014,2.468.779,5.378-.263,7.285-1.153,2.11-4.288.539-6.535.82-1.058.133-1.754.19-1.747,1.524.059,12.514.07,25.028.115,37.542a14.179,14.179,0,0,0,.292,2.02l-.671.744a12.15,12.15,0,0,1-.791-5.248c0-11.218-.074-22.437.059-33.654.029-2.415-.737-2.937-3.005-2.915-11.131.11-22.263.056-33.395.04-1.1,0-2.2-.128-3.3-.2q.042-.452.085-.9m44.138.109c3.991,0,4.019,0,3.988-3.292-.047-4.92.575-4.242-3.256-4.289-4.251-.052-4.251-.014-4.254,3.557,0,4.023,0,4.023,3.522,4.024" transform="translate(-447.759 -4.18)" fill="#855232" opacity="0.5"/>
      <path id="Path_172445" data-name="Path 172445" d="M450.148,14.548q-.042.452-.085.9c-5.419-.85-8.574-4.834-7.7-9.725A6.611,6.611,0,0,1,450.188.19a5.137,5.137,0,0,1,4.276,4.5,4.327,4.327,0,0,1-2.416,4.889,3.9,3.9,0,0,1-4.123-.166,3.436,3.436,0,0,1-1.6-3.27,3.018,3.018,0,0,1,3.5-2.845c.876.18,1.636.578,1.733,1.6a1.349,1.349,0,0,1-.87,1.422,1.44,1.44,0,0,1-1.954-.674c-.161-.253-.328-.5-.579-.884-1.165,1.823-.76,3.12.9,3.933a3.1,3.1,0,0,0,4.084-2.012,3.958,3.958,0,0,0-.867-4.043A4.422,4.422,0,0,0,447.6,1.381a5.264,5.264,0,0,0-4.007,4.2,6.7,6.7,0,0,0,2.218,6.907,12.886,12.886,0,0,0,4.341,2.061" transform="translate(-442.217 -0.051)" fill="#855232" opacity="0.5"/>
      <path id="Path_172446" data-name="Path 172446" d="M524.587,93.3l.671-.744c1.065,2.168,2.277,4.162,4.776,5,3.67,1.225,7.557-.749,8.175-4.25a4.426,4.426,0,0,0-1.468-4.384,3.824,3.824,0,0,0-4.064-.714,2.918,2.918,0,0,0-1.884,3.917c.62,1.827,2.041,1.995,3.678,1.326.023-.962-.86-.815-1.137-1.3a1.449,1.449,0,0,1,.428-2.2c.888-.533,1.617-.161,2.129.7a2.99,2.99,0,0,1-2.685,4.327,3.386,3.386,0,0,1-3.655-2.893,4.116,4.116,0,0,1,2.394-4.853c3.081-1.546,6.946.685,7.411,4.257a6.149,6.149,0,0,1-2.9,6.358,7.506,7.506,0,0,1-8.218.151,7.211,7.211,0,0,1-3.654-4.681" transform="translate(-476.314 -35.925)" fill="#855232" opacity="0.5"/>
      <path id="Path_172447" data-name="Path 172447" d="M496.241,32.277c2.211,0,4.422.046,6.631-.018,1.221-.035,1.854.209,1.828,1.653-.081,4.675-.035,9.353-.038,14.029a2.514,2.514,0,0,1-1.348,2.538,1.444,1.444,0,0,1-1.666-.118,1,1,0,0,1-.462-1.1c.2-.62.631-1.122,1.306-.936,1.36.376,1.1-.551,1.1-1.259.009-4-.046-7.994.032-11.988.027-1.382-.492-1.726-1.779-1.706-3.995.064-7.992.026-11.987.021-.784,0-1.564-.141-1.207,1.155.177.643-.373,1.095-1.016,1.241a1.05,1.05,0,0,1-1.075-.527,1.471,1.471,0,0,1-.041-1.676,2.568,2.568,0,0,1,2.58-1.279q3.571,0,7.141,0Z" transform="translate(-460.456 -13.382)" fill="#855232" opacity="0.5"/>
      <path id="Path_172448" data-name="Path 172448" d="M531.654,33.5q0,3.627,0,7.254c0,3.995-.015,7.989.019,11.984.006.7-.471,1.834,1.186,1.429a1.046,1.046,0,0,1,1.18,1.476,1.347,1.347,0,0,1-1.918.721,2.18,2.18,0,0,1-1.494-2.165q0-10.19.075-20.381c0-.12.177-.239.271-.359l.681.041" transform="translate(-478.649 -13.878)" fill="#855232" opacity="0.5"/>
      <path id="Path_172449" data-name="Path 172449" d="M500.345,16.191c-.256.924-.859.744-1.307.745q-9.434.026-18.869.012c-1.273,0-2.408-.287-2.81-1.679-.234-.809-.053-1.6.894-1.8.82-.176,1.474.389,1.312,1.128-.392,1.787.869,1.251,1.637,1.255,5.525.03,11.049.008,16.574.028a4.5,4.5,0,0,1,2.568.31" transform="translate(-456.726 -5.592)" fill="#855232" opacity="0.5"/>
    </g>
    <g id="Group_120892" data-name="Group 120892" transform="translate(30 4040.003)">
      <path id="Path_172444-2" data-name="Path 172444" d="M505.032,18.677q-18.9.052-37.791.124c-1.262.007-1.984-.29-1.8-1.7a2.252,2.252,0,0,0,0-.51c-.2-2.083.939-5.347-.518-6-2.275-1.023-5.316-.343-8.032-.379a.851.851,0,0,0-.983.893c-.007.17-.028.34-.027.51.014,2.468-.779,5.378.263,7.285,1.153,2.11,4.288.539,6.535.82,1.058.133,1.754.19,1.747,1.524-.059,12.514-.07,25.028-.115,37.542a14.171,14.171,0,0,1-.292,2.02l.671.744a12.149,12.149,0,0,0,.791-5.248c0-11.218.074-22.437-.059-33.654-.029-2.415.737-2.937,3.005-2.915,11.131.11,22.263.056,33.395.04,1.1,0,2.2-.128,3.3-.2q-.042-.452-.085-.9m-44.138.109c-3.991,0-4.019,0-3.988-3.292.047-4.92-.575-4.242,3.256-4.289,4.251-.052,4.251-.014,4.254,3.557,0,4.023,0,4.023-3.522,4.024" transform="translate(-449.85 -4.18)" fill="#855232" opacity="0.5"/>
      <path id="Path_172445-2" data-name="Path 172445" d="M446.613,14.548q.042.452.085.9c5.419-.85,8.574-4.834,7.7-9.725A6.611,6.611,0,0,0,446.574.19a5.137,5.137,0,0,0-4.277,4.5,4.327,4.327,0,0,0,2.416,4.889,3.9,3.9,0,0,0,4.123-.166,3.436,3.436,0,0,0,1.6-3.27,3.018,3.018,0,0,0-3.5-2.845c-.876.18-1.636.578-1.733,1.6a1.349,1.349,0,0,0,.87,1.422,1.44,1.44,0,0,0,1.954-.674c.161-.253.328-.5.579-.884,1.165,1.823.76,3.12-.9,3.933a3.1,3.1,0,0,1-4.084-2.012,3.958,3.958,0,0,1,.867-4.043,4.422,4.422,0,0,1,4.673-1.257,5.265,5.265,0,0,1,4.007,4.2,6.7,6.7,0,0,1-2.218,6.907,12.886,12.886,0,0,1-4.341,2.061" transform="translate(-391.431 -0.051)" fill="#855232" opacity="0.5"/>
      <path id="Path_172446-2" data-name="Path 172446" d="M539.427,93.3l-.671-.744c-1.065,2.168-2.277,4.162-4.776,5-3.67,1.225-7.557-.749-8.175-4.25a4.426,4.426,0,0,1,1.468-4.384,3.824,3.824,0,0,1,4.064-.714,2.918,2.918,0,0,1,1.884,3.917c-.62,1.827-2.041,1.995-3.678,1.326-.023-.962.86-.815,1.137-1.3a1.449,1.449,0,0,0-.428-2.2c-.888-.533-1.617-.161-2.129.7a2.99,2.99,0,0,0,2.685,4.327,3.386,3.386,0,0,0,3.655-2.893,4.116,4.116,0,0,0-2.394-4.853c-3.081-1.546-6.946.685-7.411,4.257a6.149,6.149,0,0,0,2.9,6.358,7.506,7.506,0,0,0,8.218.151,7.211,7.211,0,0,0,3.654-4.681" transform="translate(-524.587 -35.925)" fill="#855232" opacity="0.5"/>
      <path id="Path_172447-2" data-name="Path 172447" d="M494.738,32.277c-2.211,0-4.422.046-6.631-.018-1.221-.035-1.854.209-1.828,1.653.081,4.675.035,9.353.038,14.029a2.514,2.514,0,0,0,1.348,2.538,1.444,1.444,0,0,0,1.666-.118,1,1,0,0,0,.462-1.1c-.2-.62-.631-1.122-1.306-.936-1.36.376-1.1-.551-1.1-1.259-.009-4,.046-7.994-.032-11.988-.027-1.382.492-1.726,1.779-1.706,3.995.064,7.992.026,11.987.021.784,0,1.564-.141,1.207,1.155-.177.643.373,1.095,1.016,1.241a1.05,1.05,0,0,0,1.075-.527,1.471,1.471,0,0,0,.041-1.676,2.568,2.568,0,0,0-2.58-1.279q-3.571,0-7.141,0Z" transform="translate(-467.41 -13.382)" fill="#855232" opacity="0.5"/>
      <path id="Path_172448-2" data-name="Path 172448" d="M533.09,33.5q0,3.627,0,7.254c0,3.995.015,7.989-.019,11.984-.006.7.471,1.834-1.186,1.429a1.046,1.046,0,0,0-1.18,1.476,1.347,1.347,0,0,0,1.918.721,2.18,2.18,0,0,0,1.494-2.165q0-10.19-.075-20.381c0-.12-.177-.239-.271-.359l-.681.041" transform="translate(-522.818 -13.878)" fill="#855232" opacity="0.5"/>
      <path id="Path_172449-2" data-name="Path 172449" d="M477.267,16.191c.255.924.859.744,1.307.745q9.434.026,18.869.012c1.273,0,2.408-.287,2.81-1.679.234-.809.053-1.6-.894-1.8-.82-.176-1.474.389-1.312,1.128.392,1.787-.869,1.251-1.637,1.255-5.525.03-11.049.008-16.574.028a4.494,4.494,0,0,0-2.568.31" transform="translate(-457.773 -5.592)" fill="#855232" opacity="0.5"/>
    </g>
    <g id="Group_120894" data-name="Group 120894" transform="translate(96.315 4051.595) rotate(-90)">
      <path id="Path_172450" data-name="Path 172450" d="M.1,176.348C.1,126.057.1,51.977.1,1.686.1,1.124.034.562,0,0L.819.009A11.748,11.748,0,0,1,.991,1.447c.008,50.531.066,124.371.058,174.9" transform="translate(0.008 2.701)" fill="#774625" opacity="0.5"/>
      <path id="Path_172451" data-name="Path 172451" d="M0,2.734l.2-.005.2-.005.2-.005.2-.005a7.139,7.139,0,0,1,.587-.742,3.263,3.263,0,0,1,.667-.566,2.044,2.044,0,0,1,.787-.294,2.279,2.279,0,0,1,.949.074,1.727,1.727,0,0,1,.467.206,1.549,1.549,0,0,1,.61.735,1.725,1.725,0,0,1,.116.492.829.829,0,0,1-.076.521.379.379,0,0,1-.291.164,1.913,1.913,0,0,1-.4-.011,1.673,1.673,0,0,0-.4-.005,1.682,1.682,0,0,0-.567.188.99.99,0,0,0-.364.343.942.942,0,0,0-.133.482,1.6,1.6,0,0,0,.124.607,1.328,1.328,0,0,0,.33.509.865.865,0,0,0,.435.215,1.23,1.23,0,0,0,.5-.025A2.351,2.351,0,0,0,4.682,5.4a3.189,3.189,0,0,0,.681-.472,2.435,2.435,0,0,0,.482-.6A2.309,2.309,0,0,0,6.1,3.587a2.869,2.869,0,0,0,.013-.861,4.126,4.126,0,0,0-.262-1.035,2.883,2.883,0,0,0-.5-.821A2.4,2.4,0,0,0,4.626.3a2.734,2.734,0,0,0-.96-.27,4.483,4.483,0,0,0-1.3.042A2.851,2.851,0,0,0,1.3.51a2.7,2.7,0,0,0-.806.871A4.22,4.22,0,0,0,0,2.734" transform="translate(0 0.005)" fill="#774625" opacity="0.5"/>
      <path id="Path_172452" data-name="Path 172452" d="M.047,2.911l.2.008.2.008.2.008.2.008a7.15,7.15,0,0,0,.589.752,3.314,3.314,0,0,0,.673.577,2.121,2.121,0,0,0,.8.307A2.389,2.389,0,0,0,3.9,4.52a1.793,1.793,0,0,0,.481-.2,1.588,1.588,0,0,0,.377-.314A1.556,1.556,0,0,0,5.018,3.6a1.693,1.693,0,0,0,.127-.49.812.812,0,0,0-.069-.522.389.389,0,0,0-.3-.169,2,2,0,0,0-.408,0,1.753,1.753,0,0,1-.408,0,1.749,1.749,0,0,1-.578-.2,1,1,0,0,1-.366-.348.924.924,0,0,1-.128-.484A1.568,1.568,0,0,1,3.031.785a1.328,1.328,0,0,1,.347-.5.9.9,0,0,1,.45-.207,1.288,1.288,0,0,1,.516.033,2.438,2.438,0,0,1,.545.218,3.26,3.26,0,0,1,.689.483,2.439,2.439,0,0,1,.482.611,2.27,2.27,0,0,1,.252.737,2.8,2.8,0,0,1,0,.861,4.051,4.051,0,0,1-.286,1.03,2.878,2.878,0,0,1-.524.812,2.454,2.454,0,0,1-.757.554,2.854,2.854,0,0,1-.988.254,4.7,4.7,0,0,1-1.326-.062,2.955,2.955,0,0,1-1.093-.451,2.723,2.723,0,0,1-.81-.884,4.149,4.149,0,0,1-.478-1.36" transform="translate(0.002 176.117)" fill="#774625" opacity="0.5"/>
    </g>
  </g>
</svg>
