<svg xmlns="http://www.w3.org/2000/svg" width="315" height="63.345" viewBox="0 0 315 63.345">
  <g id="Group_137062" data-name="Group 137062" transform="translate(-30 -4601.459)">
    <g id="Group_120897" data-name="Group 120897" transform="translate(281.887 4601.459)">
      <path id="Path_172444" data-name="Path 172444" d="M455.69,52.9q18.9-.052,37.791-.124c1.262-.007,1.984.29,1.8,1.7a2.252,2.252,0,0,0,0,.51c.2,2.083-.939,5.347.518,6,2.275,1.023,5.316.343,8.032.379a.851.851,0,0,0,.983-.893c.007-.17.028-.34.027-.51-.014-2.468.779-5.378-.263-7.285-1.153-2.11-4.288-.539-6.535-.82-1.058-.133-1.754-.19-1.747-1.524.059-12.514.07-25.028.115-37.542a14.179,14.179,0,0,1,.292-2.02l-.671-.744a12.15,12.15,0,0,0-.791,5.248c0,11.218-.074,22.437.059,33.654.029,2.415-.737,2.937-3.005,2.915-11.131-.11-22.263-.056-33.395-.04-1.1,0-2.2.128-3.3.2q.042.452.085.9m44.138-.109c3.991,0,4.019,0,3.988,3.292-.047,4.92.575,4.242-3.256,4.289-4.251.052-4.251.014-4.254-3.557,0-4.023,0-4.023,3.522-4.024" transform="translate(-447.759 -4.195)" fill="#855232" opacity="0.5"/>
      <path id="Path_172445" data-name="Path 172445" d="M450.148.954q-.042-.452-.085-.9c-5.419.85-8.574,4.834-7.7,9.725a6.611,6.611,0,0,0,7.826,5.536,5.137,5.137,0,0,0,4.276-4.5,4.327,4.327,0,0,0-2.416-4.889,3.9,3.9,0,0,0-4.123.166,3.436,3.436,0,0,0-1.6,3.27,3.018,3.018,0,0,0,3.5,2.845c.876-.18,1.636-.578,1.733-1.6a1.349,1.349,0,0,0-.87-1.422,1.44,1.44,0,0,0-1.954.674c-.161.253-.328.5-.579.884-1.165-1.823-.76-3.12.9-3.933a3.1,3.1,0,0,1,4.084,2.012,3.958,3.958,0,0,1-.867,4.043,4.422,4.422,0,0,1-4.673,1.257,5.264,5.264,0,0,1-4.007-4.2,6.7,6.7,0,0,1,2.218-6.907A12.886,12.886,0,0,1,450.148.954" transform="translate(-442.217 47.754)" fill="#855232" opacity="0.5"/>
      <path id="Path_172446" data-name="Path 172446" d="M524.587,92.547l.671.744c1.065-2.168,2.277-4.162,4.776-5,3.67-1.225,7.557.749,8.175,4.25a4.426,4.426,0,0,1-1.468,4.384,3.824,3.824,0,0,1-4.064.714,2.918,2.918,0,0,1-1.884-3.917c.62-1.827,2.041-1.995,3.678-1.326.023.962-.86.815-1.137,1.3a1.449,1.449,0,0,0,.428,2.2c.888.533,1.617.161,2.129-.7a2.99,2.99,0,0,0-2.685-4.327,3.386,3.386,0,0,0-3.655,2.893,4.116,4.116,0,0,0,2.394,4.853c3.081,1.546,6.946-.685,7.411-4.257a6.149,6.149,0,0,0-2.9-6.358,7.506,7.506,0,0,0-8.218-.151,7.211,7.211,0,0,0-3.654,4.681" transform="translate(-476.314 -86.715)" fill="#855232" opacity="0.5"/>
      <path id="Path_172447" data-name="Path 172447" d="M496.241,50.665c2.211,0,4.422-.046,6.631.018,1.221.035,1.854-.209,1.828-1.653-.081-4.675-.035-9.353-.038-14.029a2.514,2.514,0,0,0-1.348-2.538,1.444,1.444,0,0,0-1.666.118,1,1,0,0,0-.462,1.1c.2.62.631,1.122,1.306.936,1.36-.376,1.1.551,1.1,1.259.009,4-.046,7.994.032,11.988.027,1.382-.492,1.726-1.779,1.706-3.995-.064-7.992-.026-11.987-.021-.784,0-1.564.141-1.207-1.155.177-.643-.373-1.095-1.016-1.241a1.05,1.05,0,0,0-1.075.527,1.471,1.471,0,0,0-.041,1.676,2.568,2.568,0,0,0,2.58,1.279q3.571,0,7.141,0Z" transform="translate(-460.456 -6.355)" fill="#855232" opacity="0.5"/>
      <path id="Path_172448" data-name="Path 172448" d="M531.654,56.455q0-3.627,0-7.254c0-3.995-.015-7.989.019-11.984.006-.7-.471-1.834,1.186-1.429a1.046,1.046,0,0,0,1.18-1.476,1.347,1.347,0,0,0-1.918-.721,2.18,2.18,0,0,0-1.494,2.165q0,10.19.075,20.381c0,.12.177.239.271.359l.681-.041" transform="translate(-478.814 -12.868)" fill="#855232" opacity="0.5"/>
      <path id="Path_172449" data-name="Path 172449" d="M500.345,14.2c-.256-.924-.859-.744-1.307-.745q-9.434-.026-18.869-.012c-1.273,0-2.408.287-2.81,1.679-.234.809-.053,1.6.894,1.8.82.176,1.474-.389,1.312-1.128-.392-1.787.869-1.251,1.637-1.255,5.525-.03,11.049-.008,16.574-.028a4.5,4.5,0,0,0,2.568-.31" transform="translate(-456.726 38.41)" fill="#855232" opacity="0.5"/>
    </g>
    <g id="Group_120896" data-name="Group 120896" transform="translate(30 4601.6)">
      <path id="Path_172444-2" data-name="Path 172444" d="M505.032,52.9q-18.9-.052-37.791-.124c-1.262-.007-1.984.29-1.8,1.7a2.252,2.252,0,0,1,0,.51c-.2,2.083.939,5.347-.518,6-2.275,1.023-5.316.343-8.032.379a.851.851,0,0,1-.983-.893c-.007-.17-.028-.34-.027-.51.014-2.468-.779-5.378.263-7.285,1.153-2.11,4.288-.539,6.535-.82,1.058-.133,1.753-.19,1.747-1.524-.059-12.514-.07-25.028-.115-37.542a14.171,14.171,0,0,0-.292-2.02l.671-.744a12.151,12.151,0,0,1,.791,5.248c0,11.218.074,22.437-.059,33.654-.029,2.415.737,2.937,3.005,2.915,11.131-.11,22.263-.056,33.395-.04,1.1,0,2.2.128,3.3.2q-.042.452-.085.9m-44.138-.109c-3.991,0-4.019,0-3.988,3.292.047,4.92-.575,4.242,3.256,4.289,4.251.052,4.251.014,4.254-3.557,0-4.023,0-4.023-3.522-4.024" transform="translate(-449.85 -4.195)" fill="#855232" opacity="0.5"/>
      <path id="Path_172445-2" data-name="Path 172445" d="M446.613.954q.042-.452.085-.9c5.419.85,8.574,4.834,7.7,9.725a6.611,6.611,0,0,1-7.826,5.536,5.137,5.137,0,0,1-4.277-4.5,4.327,4.327,0,0,1,2.416-4.889,3.9,3.9,0,0,1,4.123.166,3.436,3.436,0,0,1,1.6,3.27,3.018,3.018,0,0,1-3.5,2.845c-.876-.18-1.636-.578-1.733-1.6a1.349,1.349,0,0,1,.87-1.422,1.44,1.44,0,0,1,1.954.674c.161.253.328.5.579.884,1.165-1.823.76-3.12-.9-3.933a3.1,3.1,0,0,0-4.084,2.012,3.958,3.958,0,0,0,.867,4.043,4.422,4.422,0,0,0,4.673,1.257,5.264,5.264,0,0,0,4.007-4.2,6.7,6.7,0,0,0-2.218-6.907A12.886,12.886,0,0,0,446.613.954" transform="translate(-391.43 47.754)" fill="#855232" opacity="0.5"/>
      <path id="Path_172446-2" data-name="Path 172446" d="M539.427,92.547l-.671.744c-1.065-2.168-2.277-4.162-4.776-5-3.67-1.225-7.557.749-8.175,4.25a4.426,4.426,0,0,0,1.468,4.384,3.824,3.824,0,0,0,4.064.714,2.918,2.918,0,0,0,1.884-3.917c-.62-1.827-2.041-1.995-3.678-1.326-.023.962.86.815,1.137,1.3a1.449,1.449,0,0,1-.428,2.2c-.888.533-1.617.161-2.129-.7a2.99,2.99,0,0,1,2.685-4.327,3.386,3.386,0,0,1,3.655,2.893,4.116,4.116,0,0,1-2.394,4.853c-3.082,1.546-6.946-.685-7.411-4.257a6.149,6.149,0,0,1,2.9-6.358,7.506,7.506,0,0,1,8.218-.151,7.211,7.211,0,0,1,3.654,4.681" transform="translate(-524.587 -86.715)" fill="#855232" opacity="0.5"/>
      <path id="Path_172447-2" data-name="Path 172447" d="M494.738,50.665c-2.211,0-4.422-.046-6.631.018-1.221.035-1.854-.209-1.828-1.653.081-4.675.035-9.353.038-14.029a2.514,2.514,0,0,1,1.348-2.538,1.444,1.444,0,0,1,1.666.118,1,1,0,0,1,.462,1.1c-.2.62-.631,1.122-1.306.936-1.36-.376-1.1.551-1.1,1.259-.009,4,.046,7.994-.032,11.988-.027,1.382.492,1.726,1.779,1.706,3.995-.064,7.992-.026,11.987-.021.784,0,1.564.141,1.207-1.155-.177-.643.373-1.095,1.016-1.241a1.05,1.05,0,0,1,1.075.527,1.471,1.471,0,0,1,.041,1.676,2.568,2.568,0,0,1-2.58,1.279q-3.571,0-7.141,0Z" transform="translate(-467.41 -6.355)" fill="#855232" opacity="0.5"/>
      <path id="Path_172448-2" data-name="Path 172448" d="M533.09,56.455q0-3.627,0-7.254c0-3.995.015-7.989-.019-11.984-.006-.7.471-1.834-1.186-1.429a1.046,1.046,0,0,1-1.18-1.476,1.347,1.347,0,0,1,1.918-.721,2.18,2.18,0,0,1,1.494,2.165q0,10.19-.075,20.381c0,.12-.177.239-.271.359l-.681-.041" transform="translate(-522.818 -12.868)" fill="#855232" opacity="0.5"/>
      <path id="Path_172449-2" data-name="Path 172449" d="M477.267,14.2c.256-.924.859-.744,1.307-.745q9.434-.026,18.869-.012c1.273,0,2.407.287,2.81,1.679.234.809.053,1.6-.894,1.8-.82.176-1.474-.389-1.312-1.128.392-1.787-.869-1.251-1.637-1.255-5.525-.03-11.049-.008-16.574-.028a4.5,4.5,0,0,1-2.568-.31" transform="translate(-457.773 38.41)" fill="#855232" opacity="0.5"/>
    </g>
    <g id="Group_120895" data-name="Group 120895" transform="translate(97.032 4660.909) rotate(-90)">
      <path id="Path_172450" data-name="Path 172450" d="M.1,175.99C.1,125.8.1,51.872.1,1.683.1,1.122.034.561,0,0L.819.009A11.7,11.7,0,0,1,.991,1.444C1,51.872,1.057,125.562,1.049,175.99" transform="translate(5.734 2.702)" fill="#774625" opacity="0.5"/>
      <path id="Path_172451" data-name="Path 172451" d="M6.566,2.721,5.71,2.7C4.909,1.638,4,.789,2.512,1.178A1.623,1.623,0,0,0,1.239,2.609c-.1,1.01.726.59,1.244.667.941.141,1.377.732,1,1.618s-1.161.866-1.929.489A2.452,2.452,0,0,1,.028,2.719,2.832,2.832,0,0,1,2.643.029c1.98-.19,3.473.546,3.923,2.692" transform="translate(0 0)" fill="#774625" opacity="0.5"/>
      <path id="Path_172452" data-name="Path 172452" d="M5.948,3.229l-.189-.005L5.57,3.219l-.189-.005-.189-.005a7.069,7.069,0,0,1-.593.711,3.128,3.128,0,0,1-.659.531,1.867,1.867,0,0,1-.759.253,2.046,2.046,0,0,1-.893-.123,1.6,1.6,0,0,1-.43-.23,1.508,1.508,0,0,1-.327-.338,1.587,1.587,0,0,1-.211-.427,1.811,1.811,0,0,1-.084-.5.87.87,0,0,1,.1-.516.354.354,0,0,1,.284-.149A1.715,1.715,0,0,1,2,2.454a1.5,1.5,0,0,0,.377.026,1.531,1.531,0,0,0,.546-.159A.958.958,0,0,0,3.279,2a.982.982,0,0,0,.151-.475A1.682,1.682,0,0,0,3.345.91,1.342,1.342,0,0,0,3.06.384a.8.8,0,0,0-.4-.237,1.1,1.1,0,0,0-.478,0,2.149,2.149,0,0,0-.518.181A3.01,3.01,0,0,0,1,.763a2.364,2.364,0,0,0-.771,1.3,3.031,3.031,0,0,0-.057.86A4.326,4.326,0,0,0,.361,3.968a2.928,2.928,0,0,0,.428.846,2.3,2.3,0,0,0,.661.6,2.487,2.487,0,0,0,.894.319,4.017,4.017,0,0,0,1.226.025,2.612,2.612,0,0,0,1.038-.378,2.643,2.643,0,0,0,.807-.828,4.367,4.367,0,0,0,.533-1.326" transform="translate(0.717 175.462)" fill="#774625" opacity="0.5"/>
    </g>
  </g>
</svg>
