<svg xmlns="http://www.w3.org/2000/svg" width="27.386" height="22.71" viewBox="0 0 27.386 22.71">
  <g id="Group_79" data-name="Group 79" transform="translate(-508.228 -2010.652)">
    <rect id="Rectangle_62" data-name="Rectangle 62" width="7.492" height="0.462" transform="translate(508.228 2013.609)" fill="#214b32"/>
    <rect id="Rectangle_63" data-name="Rectangle 63" width="7.534" height="0.462" transform="translate(528.08 2013.609)" fill="#214b32"/>
    <rect id="Rectangle_64" data-name="Rectangle 64" width="27.385" height="0.425" transform="translate(508.228 2032.938)" fill="#214b32"/>
    <path id="Path_149" data-name="Path 149" d="M181.5,284.233v2.28h-12.36v-2.28h-7.492V302.3h10.218v-4.476h7.125V302.3h10.042V284.233Zm-17.436,4.729h1.752v1.752h-1.752Zm.022,2.572h1.752v1.752h-1.752Zm1.774,4.324h-1.752v-1.752h1.752Zm.8-6.9h1.752v1.752h-1.752Zm.019,2.572h1.752v1.752h-1.752Zm1.774,4.324H166.7v-1.752h1.752Zm.8-6.9h1.752v1.752h-1.752Zm.023,2.572h1.752v1.752h-1.752Zm1.772,4.324H169.3v-1.752h1.752Zm8.008,1.672h-7.23v-.291h7.23Zm-5.432-4.244h-1.752v-1.752h1.752Zm.021,2.572H171.9v-1.752h1.752Zm-.044-5.143h-1.752v-1.752H173.6Zm2.616,2.571h-1.752v-1.752h1.752Zm.023,2.572H174.49v-1.752h1.752Zm-.043-5.143h-1.752v-1.752H176.2Zm2.616,2.571h-1.752v-1.752h1.752Zm.02,2.572h-1.752v-1.752h1.752Zm-.042-5.143h-1.752v-1.752h1.752Zm.844-1.752h1.752v1.752h-1.752Zm.022,2.572h1.752v1.752h-1.752Zm1.773,4.324H179.68v-1.752h1.752Zm0-8.673h-12.3v-.4h12.3Zm.8,1.777h1.752v1.752h-1.752Zm.022,2.572H184v1.752h-1.751Zm1.774,4.324h-1.752v-1.752h1.752Zm.8-6.9h1.752v1.752h-1.752Zm.02,2.572H186.6v1.752h-1.751Zm1.774,4.324h-1.752v-1.752h1.752Z" transform="translate(346.577 1730.24)" fill="#214b32"/>
    <path id="Path_150" data-name="Path 150" d="M171.5,285.245h11.992V279.33H171.5Zm7.466-2.5h-1.047V283.8H177v-1.046h-1.047v-.923H177v-1.046h.923v1.046h1.047Z" transform="translate(344.401 1731.322)" fill="#214b32"/>
  </g>
</svg>
