<svg xmlns="http://www.w3.org/2000/svg" width="28.29" height="23.088" viewBox="0 0 28.29 23.088">
  <g id="Group_58" data-name="Group 58" transform="translate(-5.5 -5.499)">
    <path id="Path_14" data-name="Path 14" d="M140.095,94.222c-2.685-1.835-7.821-1.861-10.523-.018-.038-.053-.02-.114-.02-.168,0-.559.011-1.119-.006-1.678a2.4,2.4,0,0,1,.186-.969,4.374,4.374,0,0,1,2.88-2.623,6.55,6.55,0,0,1,5.54.523,4.1,4.1,0,0,1,1.906,2.538.7.7,0,0,1,.036.175c0,.73,0,1.461,0,2.22" transform="translate(-115.327 -82.888)" fill="#214b32"/>
    <path id="Path_15" data-name="Path 15" d="M145.479,103.138l1.725.662c.416.159.831.322,1.25.471a.24.24,0,0,1,.188.27q-.008,3.745,0,7.49c0,.679,0,1.358,0,2.037,0,.137-.014.193-.178.192q-1.417-.015-2.835,0c-.156,0-.181-.045-.181-.188q.006-5.363,0-10.725a.337.337,0,0,1,.029-.208" transform="translate(-118.835 -86.143)" fill="#214b32"/>
    <path id="Path_16" data-name="Path 16" d="M150.557,105.081l2.574.983c.148.057.293.127.446.171s.175.113.174.255q-.007,3.386,0,6.771c0,.419,0,.839,0,1.258,0,.122-.02.17-.159.169-.959-.007-1.917-.005-2.876,0-.114,0-.161-.016-.161-.149,0-3.143,0-6.285,0-9.456" transform="translate(-119.961 -86.571)" fill="#214b32"/>
    <path id="Path_17" data-name="Path 17" d="M136.826,108.177c0-.632,0-1.264,0-1.9,0-.118.023-.162.154-.155a13.364,13.364,0,0,1,3.008.461c.125.036.166.085.165.215q-.008,1.757,0,3.514c0,.138-.037.168-.169.146A18.881,18.881,0,0,0,137,110.2c-.156,0-.183-.048-.181-.19.008-.612,0-1.224,0-1.836" transform="translate(-116.932 -86.802)" fill="#214b32"/>
    <path id="Path_18" data-name="Path 18" d="M136.826,102.051c0-.585,0-1.171,0-1.757,0-.132.021-.186.171-.178a13.663,13.663,0,0,1,2.991.458c.122.034.168.082.167.215-.005,1.171,0,2.342,0,3.513,0,.092.029.186-.138.141a13.21,13.21,0,0,0-2.994-.43c-.157-.005-.2-.053-.194-.207.009-.585,0-1.171,0-1.757" transform="translate(-116.932 -85.476)" fill="#214b32"/>
    <path id="Path_19" data-name="Path 19" d="M136.826,114.335c0-.6,0-1.2,0-1.8,0-.132.033-.169.165-.167a20.56,20.56,0,0,1,3.037.275c.108.019.124.065.124.158q0,1.687,0,3.374c0,.117-.038.145-.149.144-1,0-2.01,0-3.015,0-.14,0-.164-.049-.163-.173.005-.606,0-1.211,0-1.817" transform="translate(-116.932 -88.18)" fill="#214b32"/>
    <path id="Path_20" data-name="Path 20" d="M134.869,103.828a1.906,1.906,0,0,0-1.35-.376c-.6.012-1.2,0-1.8.007-.143,0-.176-.042-.175-.179q.009-1.247,0-2.495a.175.175,0,0,1,.153-.206,13.381,13.381,0,0,1,3.01-.46c.094,0,.161-.01.161.126-.005,1.176,0,2.352,0,3.582" transform="translate(-115.768 -85.476)" fill="#214b32"/>
    <path id="Path_21" data-name="Path 21" d="M136.826,96.656c0-.453,0-.906,0-1.358,0-.118.011-.175.157-.168a10.091,10.091,0,0,1,3,.59.2.2,0,0,1,.166.224q-.011,1.288,0,2.577c0,.14-.032.168-.166.132a13.306,13.306,0,0,0-2.979-.424c-.15-.006-.187-.048-.184-.195.01-.459,0-.919,0-1.378" transform="translate(-116.932 -84.376)" fill="#214b32"/>
    <path id="Path_22" data-name="Path 22" d="M134.869,96.68c0,.459,0,.918,0,1.377,0,.111-.013.164-.147.168a13.345,13.345,0,0,0-3.035.429c-.125.034-.142-.009-.141-.121q0-1.307,0-2.614a.17.17,0,0,1,.131-.188,9.931,9.931,0,0,1,3.058-.6c.132-.006.135.057.134.154,0,.465,0,.931,0,1.4" transform="translate(-115.769 -84.376)" fill="#214b32"/>
    <path id="Path_23" data-name="Path 23" d="M142.125,101.144a6.022,6.022,0,0,1,1.7,1.046.25.25,0,0,1,.1.2c0,1.164,0,2.328,0,3.487-.053.041-.079-.008-.106-.027a7.513,7.513,0,0,0-1.563-.826c-.089-.036-.157-.062-.156-.188.005-1.2,0-2.408,0-3.612a.54.54,0,0,1,.014-.08" transform="translate(-118.098 -85.703)" fill="#214b32"/>
    <path id="Path_24" data-name="Path 24" d="M143.915,111.4c-.454-.16-.907-.309-1.37-.424-.435-.108-.434-.111-.434-.556,0-1.026,0-2.051,0-3.077,0-.175.038-.183.183-.115a6.111,6.111,0,0,1,1.528.967.269.269,0,0,1,.116.216c0,.973,0,1.945,0,2.917a.4.4,0,0,1-.016.072" transform="translate(-118.098 -87.037)" fill="#214b32"/>
    <path id="Path_25" data-name="Path 25" d="M142.11,114.718c0-.526,0-1.052,0-1.577,0-.143.032-.162.168-.127a13.1,13.1,0,0,1,1.52.483.182.182,0,0,1,.14.2q-.008,1.3,0,2.6c0,.125-.023.173-.161.17q-.748-.013-1.5,0c-.131,0-.17-.034-.168-.168.008-.525,0-1.051,0-1.577" transform="translate(-118.098 -88.318)" fill="#214b32"/>
    <path id="Path_26" data-name="Path 26" d="M128.183,100.227c0-.55,0-1.061,0-1.571a1.007,1.007,0,0,1,.138-.391,3.959,3.959,0,0,1,1.553-1.7c.124-.079.137-.034.136.085q0,1.237,0,2.475a.157.157,0,0,1-.117.175,7.405,7.405,0,0,0-1.714.924" transform="translate(-115.026 -84.684)" fill="#214b32"/>
    <path id="Path_27" data-name="Path 27" d="M143.933,100.222a7.442,7.442,0,0,0-1.712-.918c-.066-.026-.111-.052-.111-.138,0-.878,0-1.756,0-2.63.076-.028.111.023.154.05a3.84,3.84,0,0,1,1.6,1.854.86.86,0,0,1,.065.329c0,.472,0,.945,0,1.453" transform="translate(-118.099 -84.684)" fill="#214b32"/>
    <path id="Path_28" data-name="Path 28" d="M130.011,101.137c0,.821,0,1.613,0,2.405,0,.1-.024.141-.133.14q-.789-.007-1.578,0c-.1,0-.124-.034-.122-.128,0-.393,0-.786,0-1.178a.181.181,0,0,1,.063-.154,6.109,6.109,0,0,1,1.767-1.085" transform="translate(-115.026 -85.701)" fill="#214b32"/>
    <path id="Path_29" data-name="Path 29" d="M130.907,117.4a1.085,1.085,0,1,1,1.081-1.1,1.08,1.08,0,0,1-1.081,1.1" transform="translate(-115.387 -88.809)" fill="#214b32"/>
    <path id="Path_30" data-name="Path 30" d="M126.546,116.311a1.085,1.085,0,1,1-1.089-1.086,1.08,1.08,0,0,1,1.089,1.086" transform="translate(-114.186 -88.809)" fill="#214b32"/>
    <path id="Path_31" data-name="Path 31" d="M135.337,114.437c0,.742,0,1.478,0,2.213,0,.093-.026.129-.124.129-.479,0-.958,0-1.437,0-.076,0-.13,0-.1-.106a1.922,1.922,0,0,0,.02-1.005c-.017-.073-.016-.107.074-.111a1.625,1.625,0,0,0,1.521-1.1c0-.009.021-.012.042-.023" transform="translate(-116.237 -88.635)" fill="#214b32"/>
    <path id="Path_32" data-name="Path 32" d="M135.013,110.925c.2-.578.389-1.132.578-1.687l.043.006c0,.518,0,1.037,0,1.555,0,.065-.022.1-.09.1-.17.006-.34.016-.532.025" transform="translate(-116.533 -87.488)" fill="#214b32"/>
    <path id="Path_33" data-name="Path 33" d="M135.385,112.431c.065-.058.128-.036.185-.047.108-.02.159.015.151.136-.009.145,0,.292-.016.445a3.176,3.176,0,0,0-.32-.534" transform="translate(-116.615 -88.181)" fill="#214b32"/>
    <path id="Path_34" data-name="Path 34" d="M123.056,109.217q3.337.007,6.675,0a.715.715,0,0,0,.776-.5c.367-1.055.728-2.111,1.091-3.167a.7.7,0,0,0-.08-.65.757.757,0,0,0-.692-.318q-4.167,0-8.333,0c-.134,0-.218-.008-.235-.178-.058-.589-.132-1.177-.2-1.765a.737.737,0,0,0-.5-.656q-1.092-.41-2.183-.824a.744.744,0,0,0-.37-.058.722.722,0,0,0-.637.642.707.707,0,0,0,.468.754c.557.217,1.118.426,1.68.632a.245.245,0,0,1,.185.24c.119,1.1.249,2.2.377,3.294.165,1.415.337,2.828.5,4.243a.749.749,0,0,0,.857.783h3.9c1.326,0,2.652,0,3.977,0a.72.72,0,1,0,.034-1.437c-.586-.007-1.173,0-1.759,0q-2.718,0-5.435,0c-.148,0-.212-.03-.218-.189a3.681,3.681,0,0,0-.075-.634c-.044-.2.031-.224.207-.224m-.294-1.093a.087.087,0,0,1-.087-.076v0c-.064-.514-.126-1.03-.193-1.544-.012-.089.011-.125.1-.117.033,0,.066,0,.1,0q3.514,0,7.03,0c.172,0,.217.023.151.2-.173.468-.329.942-.488,1.414-.03.088-.061.141-.175.141-2.015,0-5.956-.01-6.44-.014" transform="translate(-112.859 -85.694)" fill="#214b32"/>
    <path id="Path_35" data-name="Path 35" d="M123.477,105.661h8.647v.02h-8.655l.008-.02" transform="translate(-113.986 -86.699)" fill="#214b32"/>
    <path id="Path_36" data-name="Path 36" d="M131.533,114.616h-8.208v-.02h8.216l-.009.02" transform="translate(-113.954 -88.67)" fill="#214b32"/>
  </g>
</svg>
