<svg xmlns="http://www.w3.org/2000/svg" width="31.473" height="25.916" viewBox="0 0 31.473 25.916">
  <g id="Group_77" data-name="Group 77" transform="translate(-830.345 -2020.686)">
    <path id="Path_2" data-name="Path 2" d="M446.493,137.645v11.2h7.988l0-5.027H446.5v-.127h7.979l0-6.048h1.337l-2.689-3.181h-6.643Zm2.458,5.669h-1.675v-2.2h1.675Zm.012-2.69H447.29v-2.2h1.674Zm2.214,2.69H449.5v-2.2h1.675Zm.012-2.69h-1.674v-2.2h1.674Zm2.215,2.69H451.73v-2.2H453.4Zm.012-2.69h-1.674v-2.2h1.674Zm1.068-2.554h-7.978v-.126h7.978Zm0-.294h-7.978v-.127h7.978Z" transform="translate(405.042 1894.77)" fill="#214b32"/>
    <path id="Path_3" data-name="Path 3" d="M422.455,148.847h7.99v-10.8h-7.978v-.126h7.978v-.142h-7.978v-.126h7.978v-3.186H423.8l-2.689,3.181,1.344.011Zm5.5-10.418h1.674v2.194h-1.674Zm-.012,2.689h1.674v2.2h-1.674Zm-2.214-2.689h1.674v2.194h-1.674Zm-.012,2.689h1.674v2.2H425.72Zm-2.214-2.689h1.674v2.194h-1.674Zm-.013,2.689h1.675v2.2h-1.675Z" transform="translate(410.666 1894.77)" fill="#214b32"/>
    <path id="Path_4" data-name="Path 4" d="M433.658,130.77v16.444H442.5V130.651h-8.841v-.127H442.5v-.135h-8.841v-.126h8.96v.012h1.455l-2.689-3.182h-6.644l-2.688,3.182h1.6Zm5.806,3.114h1.674v2.2h-1.674Zm-2.226,0h1.674v2.2h-1.674Zm.044,5.6h1.675v2.2h-1.675Zm.013-2.689h1.674v2.2H437.3Zm1.628-3.965v.56h-1.674v-2.2h1.674Zm-3.9-1.636H436.7v2.2h-1.674v-2.2Zm1.72,7.8h-1.674v-2.2h1.674Zm-1.732-5.106h1.674v2.2h-1.674Zm.044,5.6h1.674v2.2h-1.674Zm.612,3.473h2.345v3.81h-2.345Zm4.916,4.117h-4.916v-.126h4.916Zm0-.307h-2.346v-3.81h2.346Zm0-3.99h-4.916v-.127h4.916Zm.6-1.1h-1.675v-2.2h1.675Zm.012-2.69h-1.674v-2.2H441.2Zm-.044-5.6h-1.674v-2.2h1.674v2.2Z" transform="translate(408.241 1896.403)" fill="#214b32"/>
    <path id="Path_5" data-name="Path 5" d="M443.03,124.623h-3.192v-1.14h3.192l-.547.547Z" transform="translate(406.517 1897.203)" fill="#214b32"/>
    <rect id="Rectangle_69" data-name="Rectangle 69" width="0.248" height="4.354" transform="translate(846.322 2021.365)" fill="#214b32"/>
  </g>
</svg>
