<svg xmlns="http://www.w3.org/2000/svg" width="31.817" height="22.314" viewBox="0 0 31.817 22.314">
  <g id="Group_78" data-name="Group 78" transform="translate(-764.293 -2019.193)">
    <path id="Path_152" data-name="Path 152" d="M371.794,300.428h-2.671v-.821c0-1.807-.061-1.868-1.876-1.868h-3.732c0-.941.038-1.809-.021-2.67a1.21,1.21,0,0,0-.447-.836c-.966-.624-1.984-1.168-2.977-1.751a1.987,1.987,0,0,0-2.176.023c-.9.539-1.8,1.086-2.725,1.583a1.086,1.086,0,0,0-.633,1.121c.029.822.008,1.646.008,2.53h-.656c-1.295,0-2.589-.005-3.883,0-.75,0-1.056.319-1.067,1.075-.008.519,0,1.039,0,1.616h-5.6v10.528h14.139v-5.537h2.889v5.541H374.5V300.428Zm-26.02,8.476h-1.283V307.62h1.283Zm0-2.369h-1.283V305.25h1.283Zm0-2.641h-1.283V302.61h1.283Zm2.147,5.01h-1.284V307.62h1.284Zm0-2.369h-1.284V305.25h1.284Zm0-2.641h-1.284V302.61h1.284Zm4.876,4.616h-2.122v-1.753H352.8Zm0-2.74h-2.122v-1.753H352.8Zm0-2.691h-2.122v-1.753H352.8Zm3.16,5.431h-2.122v-1.753h2.122Zm0-2.74h-2.122v-1.753h2.122Zm0-2.691h-2.122v-1.753h2.122Zm3.006-5.291a1.726,1.726,0,1,1,1.77-1.691,1.731,1.731,0,0,1-1.77,1.691M364,308.509h-2.123v-1.753H364Zm0-2.74h-2.123v-1.753H364Zm0-2.691h-2.123v-1.753H364Zm3.16,5.431H365.04v-1.753h2.123Zm0-2.74H365.04v-1.753h2.123Zm0-2.691H365.04v-1.753h2.123ZM371.2,308.9h-1.284V307.62H371.2Zm0-2.369h-1.284V305.25H371.2Zm0-2.641h-1.284V302.61H371.2Zm2.147,5.01h-1.283V307.62h1.283Zm0-2.369h-1.283V305.25h1.283Zm0-2.641h-1.283V302.61h1.283Z" transform="translate(421.283 1729.296)" fill="#214b32"/>
    <path id="Path_153" data-name="Path 153" d="M374.438,317.741H343.213a.3.3,0,0,1,0-.592h31.225a.3.3,0,0,1,0,.592" transform="translate(421.376 1723.766)" fill="#214b32"/>
    <path id="Path_154" data-name="Path 154" d="M366.068,290.177h-2.592v-.926h2.592l-.445.445Z" transform="translate(416.825 1729.942)" fill="#214b32"/>
    <rect id="Rectangle_65" data-name="Rectangle 65" width="0.148" height="2.592" transform="translate(780.227 2019.193)" fill="#214b32"/>
    <rect id="Rectangle_66" data-name="Rectangle 66" width="0.182" height="1.111" transform="translate(780.096 2024.401)" fill="#214b32"/>
    <rect id="Rectangle_67" data-name="Rectangle 67" width="1.111" height="0.182" transform="translate(780.15 2025.372)" fill="#214b32"/>
  </g>
</svg>
