<svg xmlns="http://www.w3.org/2000/svg" width="30.667" height="9.326" viewBox="0 0 30.667 9.326">
  <path id="Path_38" data-name="Path 38" d="M222.615,28.092c-.375-1.133-2.463-4.194-2.785-5.417a2.906,2.906,0,0,1,1.1-.307c1.037.434,3.084,2.607,4.619,3.17a10.147,10.147,0,0,0,3.395.247c2.008-.382,5.426-1.789,7.985-2.6s5.7-1.829,7.362-2.309a8.819,8.819,0,0,1,2.62-.576,7.1,7.1,0,0,1,3.395.861c.2.187.282.254.07.562a2.95,2.95,0,0,1-.58.531c-.21.156-.433.306-.6.427-.046.036-.1.072-.146.113.07.088.179.259.118.36a4.667,4.667,0,0,1-.883.554c0,.054.014.11.01.159a.241.241,0,0,1,.224.106.442.442,0,0,1,.067.352.3.3,0,0,1-.38.191.249.249,0,0,1-.231.013.389.389,0,0,1-.166-.221.347.347,0,0,1,.065-.327.3.3,0,0,1,.232-.083.271.271,0,0,0,0-.1,2.983,2.983,0,0,1-.585.23c-.166.029-.228-.173-.26-.29-.731.269-3.471,1.131-4.34,1.464-.061.028-.118.047-.135.058a1.9,1.9,0,0,1,.084.7.693.693,0,0,1-.008.088c-.087.042-.215.109-.367.179-.215.108-.494.226-.777.334-.532.212-1.1.4-1.395.491-.128.043-.2.093-.277.02-.1-.079-.02-.242-.574-.158-.176-.054-.217-.385-.254-.458a2.559,2.559,0,0,0-.254.094c-.489.157-1.188.388-2,.664l.1-.033a.62.62,0,0,1,.026.391.389.389,0,0,1,.344.156.575.575,0,0,1,.094.534.444.444,0,0,1-.554.288.414.414,0,0,1-.359.017.584.584,0,0,1-.149-.833.532.532,0,0,1,.35-.123.317.317,0,0,0-.1-.314c-.293.1-.6.207-.909.311-.115.036-.229.071-.352.113a2.152,2.152,0,0,1,.017.252.387.387,0,0,1,.331.159.621.621,0,0,1,.092.519.433.433,0,0,1-.546.278.4.4,0,0,1-.346.015.529.529,0,0,1-.233-.324.491.491,0,0,1,.092-.477.426.426,0,0,1,.337-.121.314.314,0,0,0-.026-.211c-1.152.378-2.533.871-3.626,1.134a17.711,17.711,0,0,1-3.518.533,36.9,36.9,0,0,1-5.532.055c-.019-.012-.036-.024-.056-.035a.455.455,0,0,1,.041.028,33.462,33.462,0,0,0,5.34-1.441q2.865-.933,5.729-1.862c1.426-.461,2.85-.965,4.277-1.426,2.16-.74,4.329-1.4,6.492-2.122,1.553-.5,3.1-.961,4.67-1.424a11.966,11.966,0,0,0-2.606.282c-2.584.679-8.533,2.6-12.559,3.982-1.644.546-3.286,1.067-4.93,1.613-1.513.453-3.02.965-4.538,1.419a8.5,8.5,0,0,1-2.309.567.984.984,0,0,1-.241-.606c.265-.224.582-.22.809-.423m25-7.539c-.1.074.18.572.357.55.44-.026.9-.035,1.344-.087.57-.022-.992-.553-1.7-.463M235.57,28.141c.1-.014.2.114.218.287s-.046.33-.149.344-.2-.119-.219-.287.046-.33.15-.344m-.484-.019a.262.262,0,0,0-.191.121.523.523,0,0,0,.055.519.22.22,0,0,0,.256.1.428.428,0,0,1-.12-.741m13.271-4.142c.071-.01.138.078.153.2s-.033.22-.1.23-.139-.078-.147-.194.031-.225.1-.234m-.331-.017a.173.173,0,0,0-.126.086.344.344,0,0,0,.035.356.151.151,0,0,0,.177.068.3.3,0,0,1-.086-.51m-10.752,3.755c.1-.014.2.118.219.292s-.047.325-.15.339-.2-.113-.218-.287.046-.324.149-.344m-.573-.007a.266.266,0,0,0-.186.124.5.5,0,0,0,.055.515.227.227,0,0,0,.255.106.434.434,0,0,1-.125-.745m8.065-5.7.093-.028a.081.081,0,0,1,.1.065l.049.281a.105.105,0,0,1-.069.112l-.093.027a.072.072,0,0,1-.094-.064l-.05-.281a.1.1,0,0,1,.064-.112m-10.124,3.32.093-.028a.076.076,0,0,1,.1.065l.049.282a.1.1,0,0,1-.065.111l-.091.027a.074.074,0,0,1-.1-.064l-.048-.276a.111.111,0,0,1,.067-.117m.648-.2.092-.028a.077.077,0,0,1,.1.064l.043.278a.1.1,0,0,1-.063.111l-.092.027a.075.075,0,0,1-.1-.064l-.049-.276a.1.1,0,0,1,.069-.113m.612-.224.093-.028a.079.079,0,0,1,.1.065l.049.281a.1.1,0,0,1-.068.111l-.093.028a.076.076,0,0,1-.1-.064l-.049-.281a.1.1,0,0,1,.063-.112m.677-.227.093-.028a.078.078,0,0,1,.1.064l.045.282a.1.1,0,0,1-.065.111l-.092.028a.082.082,0,0,1-.1-.064l-.045-.282a.1.1,0,0,1,.064-.111m-2.572.848.1-.029a.079.079,0,0,1,.1.064l.049.282a.109.109,0,0,1-.068.113l-.093.027a.076.076,0,0,1-.1-.064l-.049-.282a.1.1,0,0,1,.064-.111m3.172-1.07.092-.029a.076.076,0,0,1,.1.064l.049.282a.1.1,0,0,1-.064.111l-.1.028c-.043.016-.084-.013-.1-.064l-.048-.277a.108.108,0,0,1,.068-.116m.584-.2.093-.027a.074.074,0,0,1,.1.064l.049.278a.106.106,0,0,1-.069.112l-.092.027a.071.071,0,0,1-.1-.064l-.049-.277a.1.1,0,0,1,.064-.112m.589-.195.092-.028a.082.082,0,0,1,.1.064l.045.281a.1.1,0,0,1-.064.112l-.093.028a.079.079,0,0,1-.1-.064l-.043-.282a.1.1,0,0,1,.063-.111m.6-.193.093-.028a.073.073,0,0,1,.1.064l.049.282a.1.1,0,0,1-.063.111l-.1.029a.078.078,0,0,1-.1-.064l-.049-.282a.1.1,0,0,1,.068-.112m.577-.189.093-.028a.073.073,0,0,1,.094.064l.049.282a.1.1,0,0,1-.063.111l-.093.027a.081.081,0,0,1-.1-.064l-.048-.282a.106.106,0,0,1,.069-.112m-9.116,3.035.093-.028a.083.083,0,0,1,.1.064l.043.282a.1.1,0,0,1-.063.111l-.093.028a.082.082,0,0,1-.1-.064l-.044-.282a.1.1,0,0,1,.063-.112m.722-.234.1-.028a.075.075,0,0,1,.094.064l.049.281a.11.11,0,0,1-.068.113l-.094.028a.076.076,0,0,1-.094-.065l-.049-.281a.1.1,0,0,1,.064-.112m.782-.262.093-.028a.082.082,0,0,1,.1.064l.043.283a.094.094,0,0,1-.063.111L232,26.68a.082.082,0,0,1-.1-.064l-.045-.282a.1.1,0,0,1,.064-.111m.764-.26.1-.028a.078.078,0,0,1,.1.065l.049.281a.1.1,0,0,1-.069.112l-.092.026a.073.073,0,0,1-.1-.064l-.049-.281a.1.1,0,0,1,.063-.111m.679-.213.1-.029a.078.078,0,0,1,.094.064l.05.282a.106.106,0,0,1-.069.112l-.093.027a.072.072,0,0,1-.094-.064l-.049-.281a.1.1,0,0,1,.063-.112M240.1,23.5l.093-.027a.076.076,0,0,1,.1.065l.049.281a.1.1,0,0,1-.064.111l-.1.029a.079.079,0,0,1-.1-.065l-.048-.282a.109.109,0,0,1,.067-.112m.605-.212.093-.027a.079.079,0,0,1,.1.064l.048.281a.11.11,0,0,1-.068.113l-.092.028a.084.084,0,0,1-.1-.065l-.044-.282a.1.1,0,0,1,.063-.111m.6-.182.092-.028a.082.082,0,0,1,.1.064l.044.282a.1.1,0,0,1-.064.111l-.093.028a.082.082,0,0,1-.1-.065l-.044-.282a.1.1,0,0,1,.064-.111m.577-.181.1-.028a.078.078,0,0,1,.1.065l.049.282a.1.1,0,0,1-.067.111l-.094.028a.074.074,0,0,1-.1-.064l-.049-.282a.1.1,0,0,1,.065-.112m.6-.177.093-.027a.075.075,0,0,1,.1.064l.044.277a.093.093,0,0,1-.063.111l-.093.032a.08.08,0,0,1-.1-.064l-.045-.282a.1.1,0,0,1,.064-.111m.567-.187.093-.027a.076.076,0,0,1,.1.064l.048.281a.1.1,0,0,1-.063.112l-.093.026a.08.08,0,0,1-.1-.063l-.049-.282a.107.107,0,0,1,.068-.112m.588-.2.1-.029a.079.079,0,0,1,.1.065l.048.281a.108.108,0,0,1-.068.112l-.092.028a.075.075,0,0,1-.1-.064l-.049-.281a.1.1,0,0,1,.063-.112m.569-.173.1-.029a.078.078,0,0,1,.1.064l.05.282a.106.106,0,0,1-.069.112l-.093.027a.076.076,0,0,1-.1-.064l-.048-.281a.1.1,0,0,1,.063-.112" transform="translate(-219.83 -20.301)" fill="#214b32" fill-rule="evenodd"/>
</svg>
