<svg xmlns="http://www.w3.org/2000/svg" width="63.305" height="51.529" viewBox="0 0 63.305 51.529">
  <path id="Path_227914" data-name="Path 227914" d="M20.613-48.852a13.545,13.545,0,0,1,8.115,2.53,16.813,16.813,0,0,1,5.519,7.055,26.2,26.2,0,0,1,2,10.658,28.3,28.3,0,0,1-2.058,11.042,18.477,18.477,0,0,1-5.7,7.706,13.6,13.6,0,0,1-8.532,2.8,13.633,13.633,0,0,1-8.025-2.492,16.577,16.577,0,0,1-5.579-7.093A26.413,26.413,0,0,1,4.324-27.382,27.88,27.88,0,0,1,6.353-38.27a18.8,18.8,0,0,1,5.7-7.706A13.48,13.48,0,0,1,20.613-48.852Zm-.537,1.38q-3.4,0-5.609,5.253T12.26-27.612a44.205,44.205,0,0,0,1.134,11.119,13.661,13.661,0,0,0,3.043,6.134,5.693,5.693,0,0,0,4.057,1.917q3.461,0,5.638-5.291T28.31-28.379a43.736,43.736,0,0,0-1.134-11.08,14.051,14.051,0,0,0-2.983-6.1A5.616,5.616,0,0,0,20.076-47.472Zm40.632-1.38.239,1.994L42.987-16.187l.477-2.147H62.259q2.446,0,3.1-.805a5.616,5.616,0,0,0,.895-2.8h1.134q0,4.371.06,6.709t.179,4.256a5.49,5.49,0,0,0-1.492-.192q-1.074-.038-2.506-.115t-2.953-.077H39.407v-1.61Zm.955,0V2.677H55.458v-41.56l5.251-9.968Z" transform="translate(-4.324 48.852)" fill="#502b13" opacity="0.2"/>
</svg>
