<svg id="Group_332" data-name="Group 332" xmlns="http://www.w3.org/2000/svg" xmlns:xlink="http://www.w3.org/1999/xlink" width="26.971" height="32.996" viewBox="0 0 26.971 32.996">
  <defs>
    <clipPath id="clip-path">
      <rect id="Rectangle_316" data-name="Rectangle 316" width="26.971" height="32.996" fill="#7a5424" stroke="#7a5424" stroke-width="0.3"/>
    </clipPath>
  </defs>
  <g id="Group_331" data-name="Group 331" clip-path="url(#clip-path)">
    <path id="Path_63424" data-name="Path 63424" d="M25.088,30.354c.479,0,.911,0,1.342,0s.537.124.539.547c0,.539,0,1.077,0,1.616,0,.328-.162.468-.471.477-.082,0-.164,0-.246,0H.73C.056,33,0,32.939,0,32.251c0-.468,0-.937,0-1.4,0-.355.128-.479.488-.49.222-.007.445,0,.667,0h.724V.741c0-.7.044-.741.73-.741H24.344c.706,0,.745.04.745.761q0,14.541,0,29.082ZM24.33.777H2.635V30.335H24.33ZM26.2,31.139H.78v1.07H26.2Z" transform="translate(0 0)" fill="#7a5424" stroke="#7a5424" stroke-width="0.3"/>
    <path id="Path_63425" data-name="Path 63425" d="M48.05,29.3q0,6.306,0,12.612c0,.631-.043.672-.683.672H29.985c-.588,0-.646-.056-.646-.638q0-12.665,0-25.329c0-.566.081-.647.647-.647H47.4c.565,0,.647.082.647.648q0,6.341,0,12.682M30.1,41.811H47.3V30.441H30.1ZM30.07,22.566v.353c0,1.626.01,3.253-.008,4.879,0,.327.11.382.4.38,1.5-.013,2.994-.006,4.491-.007.113,0,.227-.01.342-.016V22.566Zm12.01,5.606c1.656,0,3.268-.008,4.881.007.306,0,.365-.1.363-.383-.012-1.626-.006-3.253-.006-4.879v-.343H42.08Zm-5.99-.027h5.2V22.58h-5.2ZM35.3,16.755H30.1v5.028h5.2Zm12,0h-5.21v5.012H47.3Zm-6.021,0H36.108v5.029H41.28ZM30.093,29.639H47.285c.1-.736.1-.736-.577-.736H30.093Z" transform="translate(-25.209 -13.726)" fill="#7a5424" stroke="#7a5424" stroke-width="0.3"/>
    <path id="Path_63426" data-name="Path 63426" d="M96.71,139.348c-.074.163-.113.273-.17.373q-1.467,2.546-2.938,5.09c-.136.236-.3.414-.585.244-.26-.156-.206-.375-.072-.605.995-1.715,1.978-3.436,2.985-5.144a.65.65,0,0,1,.463-.25c.1-.006.215.191.318.292" transform="translate(-79.767 -119.484)" fill="#7a5424" stroke="#7a5424" stroke-width="0.3"/>
    <path id="Path_63427" data-name="Path 63427" d="M75.421,139.29c-.073.158-.113.267-.17.366q-1.466,2.547-2.936,5.091c-.018.03-.033.062-.052.091-.13.2-.3.313-.529.182s-.24-.348-.11-.572c1.009-1.747,2.014-3.5,3.037-5.235a.535.535,0,0,1,.418-.211c.118.007.226.183.344.289" transform="translate(-61.468 -119.436)" fill="#7a5424" stroke="#7a5424" stroke-width="0.3"/>
  </g>
</svg>
