<svg id="Group_330" data-name="Group 330" xmlns="http://www.w3.org/2000/svg" xmlns:xlink="http://www.w3.org/1999/xlink" width="36.875" height="34.42" viewBox="0 0 36.875 34.42">
  <defs>
    <clipPath id="clip-path">
      <rect id="Rectangle_315" data-name="Rectangle 315" width="36.874" height="34.42" fill="#7a5424"/>
    </clipPath>
  </defs>
  <g id="Group_329" data-name="Group 329" clip-path="url(#clip-path)">
    <path id="Path_63422" data-name="Path 63422" d="M6.145,8.609c0-1.018,0-1.989,0-2.959a5.512,5.512,0,0,1,4.4-5.527A5.408,5.408,0,0,1,13.2.216a1.22,1.22,0,0,0,.624,0,5.536,5.536,0,0,1,7.069,5.3c0,1.01,0,2.02,0,3.086h4.111c.6,0,.782.194.813.8.129,2.581.264,5.161.4,7.8h8.588c.636,0,.8.163.852.805q.371,4.743.747,9.486.235,3,.463,6.006c.052.679-.16.909-.844.909H.839c-.649,0-.867-.208-.836-.845C.116,31.288.242,29,.357,26.713s.219-4.576.334-6.863q.173-3.47.356-6.939.091-1.783.176-3.566c.025-.527.231-.735.76-.736,1.369,0,2.737,0,4.161,0M2.424,9.847,1.259,33.166H14.794c.012-.138.023-.251.032-.364.11-1.467.217-2.934.33-4.4.142-1.836.292-3.672.435-5.509.132-1.7.257-3.393.391-5.089a.6.6,0,0,1,.632-.588c.269-.01.538,0,.807,0h2.645c-.124-2.479-.245-4.914-.367-7.348H17.207c0,.579,0,1.129,0,1.678,0,.476-.242.76-.628.75s-.595-.282-.6-.741c0-.56,0-1.119,0-1.692H7.372c0,1.275,0,2.528.008,3.78a.442.442,0,0,0,.188.288c.417.3.843.579,1.272.857a.766.766,0,0,1,.379.7c-.008,1.562,0,3.124,0,4.686,0,.5-.231.724-.729.725q-1.729.005-3.457,0A.633.633,0,0,1,4.3,20.17c0-1.562,0-3.124,0-4.686a.759.759,0,0,1,.381-.7c.388-.247.759-.522,1.154-.759a.581.581,0,0,0,.321-.581c-.019-1.075-.008-2.151-.008-3.226V9.847ZM30.681,33.175c-.38-4.938-.756-9.828-1.132-14.711H17.16L16.03,33.175ZM15.954,8.59c0-1.192.078-2.372-.02-3.537a4.013,4.013,0,0,0-2.118-3.235.655.655,0,0,0-.549-.024,3.866,3.866,0,0,0-2.109,2.984c-.135,1.24-.067,2.5-.086,3.754,0,.019.029.039.045.058Zm14.829,9.87,1.04,13.52c.472-.706.884-1.317,1.287-1.934a.423.423,0,0,0,.045-.253c-.1-1.017-.2-2.034-.3-3.051q-.254-2.536-.51-5.071c-.107-1.065-.216-2.129-.326-3.211ZM15.276,1.233c-.011.047-.02.065-.015.07.088.092.177.184.268.273a4.938,4.938,0,0,1,1.526,2.773A19.5,19.5,0,0,1,17.2,6.714c.022.622,0,1.245,0,1.868h2.461c0-1.011,0-1.995,0-2.979a4.323,4.323,0,0,0-4.391-4.37m-3.437.038a4.2,4.2,0,0,0-4.373,3.5C7.332,5.948,7.4,7.146,7.373,8.334a1.838,1.838,0,0,0,.026.244H9.833c0-.938-.013-1.846.005-2.754a8.428,8.428,0,0,1,.119-1.409A5.425,5.425,0,0,1,11.84,1.271M35.453,31.295l-.987-12.834h-1.2c.085.9.165,1.771.251,2.644.251,2.529.55,5.055.738,7.588a4,4,0,0,0,1.2,2.6M7.988,19.654c0-1.273.006-2.5-.009-3.73a.522.522,0,0,0-.2-.356c-.33-.236-.681-.6-1.029-.608-.328-.006-.676.364-.988.6a.62.62,0,0,0-.221.422c-.018,1.126-.011,2.252-.009,3.378,0,.1.017.194.027.291Zm12.941-9.8c.123,2.461.244,4.9.366,7.337h1.3l-.433-7.337Zm2.464,0,.431,7.33h1.157l-.369-7.33ZM35.1,33.178,33.8,31.23l-1.3,1.948Z" transform="translate(0 0)" fill="#7a5424"/>
    <path id="Path_63423" data-name="Path 63423" d="M127.8,138.994q0-1.19,0-2.381c0-.516.224-.8.622-.793s.6.285.6.811q0,2.285,0,4.57a1.857,1.857,0,0,0,1.986,1.993c.346,0,.691,0,1.037,0a1.846,1.846,0,0,0,1.894-1.892c.006-1.574-.007-3.149.012-4.723a.9.9,0,0,1,.234-.6.636.636,0,0,1,.584-.085.781.781,0,0,1,.381.545c.028,1.715.056,3.431,0,5.145a3.03,3.03,0,0,1-2.987,2.836,10.646,10.646,0,0,1-1.836-.066A3.006,3.006,0,0,1,127.8,141.3c0-.768,0-1.536,0-2.3" transform="translate(-108.128 -114.918)" fill="#7a5424"/>
  </g>
</svg>
