<svg id="Group_383" data-name="Group 383" xmlns="http://www.w3.org/2000/svg" xmlns:xlink="http://www.w3.org/1999/xlink" width="30.273" height="30.259" viewBox="0 0 30.273 30.259">
  <defs>
    <clipPath id="clip-path">
      <rect id="Rectangle_65582" data-name="Rectangle 65582" width="30.273" height="30.259" fill="#fff"/>
    </clipPath>
  </defs>
  <g id="Group_382" data-name="Group 382" clip-path="url(#clip-path)">
    <path id="Path_63454" data-name="Path 63454" d="M30.167,129.855H12.02c-.005-.111-.015-.212-.015-.314q0-4.049,0-8.1a1.526,1.526,0,0,1,1.663-1.666H28.51a1.525,1.525,0,0,1,1.656,1.641q0,4.064,0,8.129v.307M21.1,123.815a1.511,1.511,0,1,0,1.5,1.537,1.526,1.526,0,0,0-1.5-1.537" transform="translate(-10.489 -104.652)" fill="#fff"/>
    <path id="Path_63455" data-name="Path 63455" d="M46.8,8.589a3.8,3.8,0,0,1-.893,1.84.328.328,0,0,0-.088.191c-.006.649,0,1.3,0,1.877.634.169,1.239.29,1.814.5a3.8,3.8,0,0,1,1.531,1.1H37.422a4.6,4.6,0,0,1,3.345-1.5c0-.672,0-1.34-.006-2.008,0-.069-.078-.143-.132-.205a3.556,3.556,0,0,1-.8-1.586c-.035-.164-.1-.21-.262-.239a1.5,1.5,0,0,1-.936-2.5.657.657,0,0,0,.114-.367c.028-.765-.025-1.539.073-2.295A3.97,3.97,0,0,1,42.668,0a9.651,9.651,0,0,1,2.1.128,3.966,3.966,0,0,1,3.067,3.83c.008.588,0,1.176.007,1.764a.551.551,0,0,0,.1.311,1.505,1.505,0,0,1-.99,2.527l-.143.025M40.778,6.543c0,.6-.026,1.153.005,1.7A2.5,2.5,0,0,0,43.1,10.58a2.447,2.447,0,0,0,2.644-2.015,17.584,17.584,0,0,0,.067-2.228.215.215,0,0,0-.059-.138c-.319-.328-.642-.652-.969-.983a5.661,5.661,0,0,1-4.005,1.326m1.028,4.726a.669.669,0,0,0-.022.1c0,.357,0,.714,0,1.071a1.008,1.008,0,0,0,.739,1.047,2.348,2.348,0,0,0,1.576-.01.921.921,0,0,0,.684-.755c.048-.471.011-.95.011-1.457a3.567,3.567,0,0,1-2.986,0" transform="translate(-32.696 0)" fill="#fff"/>
    <path id="Path_63456" data-name="Path 63456" d="M15.133,223.624h14.4c.6,0,.734.142.735.747,0,.242.006.483,0,.725a.511.511,0,0,1-.556.546c-.073,0-.147,0-.221,0H.781c-.65,0-.779-.126-.779-.764,0-.231,0-.462,0-.693a.511.511,0,0,1,.57-.561c.084,0,.168,0,.252,0H15.133" transform="translate(0 -195.385)" fill="#fff"/>
    <path id="Path_63457" data-name="Path 63457" d="M169.786,176.7c.483,0,.923,0,1.363,0,.49,0,.653.167.655.667,0,.273,0,.546,0,.819a1.518,1.518,0,0,1-1.536,1.541c-.167,0-.335,0-.488,0a8.09,8.09,0,0,1-.384.8.471.471,0,0,1-.339.2q-2.3.019-4.6,0a.406.406,0,0,1-.317-.176,4.557,4.557,0,0,1-.387-1.274c-.057-.994-.021-1.994-.018-2.992,0-.411.187-.594.6-.595q2.379,0,4.758,0c.539,0,.691.152.695.69,0,.093,0,.186,0,.318m.026,1.018v.977c.863.087,1.125-.188.934-.977Z" transform="translate(-143.045 -153.508)" fill="#fff"/>
    <path id="Path_63458" data-name="Path 63458" d="M30.072,207.787c-.011.109-.013.2-.03.294-.127.667-.167.7-.845.7H12.626c-.491,0-.528-.026-.649-.512-.038-.151-.054-.307-.084-.481Z" transform="translate(-10.391 -181.548)" fill="#fff"/>
    <path id="Path_63459" data-name="Path 63459" d="M176.791,145.277c0,.315,0,.63,0,.944-.007.355-.193.549-.51.545a.476.476,0,0,1-.5-.527q-.011-.976,0-1.951a.5.5,0,0,1,.51-.554c.3,0,.487.217.5.567,0,.01,0,.021,0,.032q0,.472,0,.944" transform="translate(-153.582 -125.584)" fill="#fff"/>
    <path id="Path_63460" data-name="Path 63460" d="M192.77,145.28c0,.314.006.628,0,.942a.5.5,0,1,1-1.006,0q-.011-.973,0-1.946a.5.5,0,1,1,1.006,0c.007.335,0,.67,0,1" transform="translate(-167.542 -125.583)" fill="#fff"/>
  </g>
</svg>
