<svg id="Group_381" data-name="Group 381" xmlns="http://www.w3.org/2000/svg" xmlns:xlink="http://www.w3.org/1999/xlink" width="28.337" height="30.258" viewBox="0 0 28.337 30.258">
  <defs>
    <clipPath id="clip-path">
      <rect id="Rectangle_65581" data-name="Rectangle 65581" width="28.337" height="30.258" fill="#7a5424"/>
    </clipPath>
  </defs>
  <g id="Group_380" data-name="Group 380" clip-path="url(#clip-path)">
    <path id="Path_63445" data-name="Path 63445" d="M109.179,177.844H93.843a6.138,6.138,0,0,1,.225-2.284,6,6,0,0,1,5.664-4.267c1.414-.009,2.837-.059,4.241.072a5.916,5.916,0,0,1,5.205,5.7c.006.258,0,.517,0,.775" transform="translate(-80.843 -147.585)" fill="#7a5424"/>
    <path id="Path_63446" data-name="Path 63446" d="M36.723,8.8c0-.528,0-.952,0-1.377,0-.456-.1-.551-.542-.553-.4,0-.806-.01-1.208,0-.289.008-.416-.1-.415-.4q.011-3.037,0-6.075c0-.279.106-.393.387-.392q5.764.006,11.527,0c.261,0,.378.107.378.37q0,3.055,0,6.109c0,.342-.188.388-.467.388-2.3-.005-4.6.005-6.9-.011a1.291,1.291,0,0,0-.956.362c-.563.52-1.153,1.011-1.8,1.577m3.955-3.738c1.23,0,2.46,0,3.69,0,.26,0,.477-.061.478-.362s-.227-.355-.481-.355q-3.655,0-7.31,0c-.248,0-.485.027-.493.341-.008.331.227.376.5.375,1.207,0,2.414,0,3.621,0m.036-3.251H37.162a2.44,2.44,0,0,0-.276.006c-.215.025-.366.158-.316.364.032.131.187.25.315.332.074.048.2.015.3.015h5.759c.506,0,1.012,0,1.517,0,.228,0,.381-.112.381-.35s-.146-.35-.375-.361c-.092,0-.184,0-.276,0H40.714" transform="translate(-29.778 0)" fill="#7a5424"/>
    <path id="Path_63447" data-name="Path 63447" d="M91.7,29.307c-.538-.521-1.026-.954-1.465-1.431a1.328,1.328,0,0,0-1.091-.44c-2.346.019-4.692.009-7.038.009-.5,0-.532-.034-.533-.524,0-.515,0-1.03,0-1.588h.4q2.449,0,4.9,0c.84,0,1.2-.36,1.205-1.19,0-1.171,0-2.342,0-3.54.123-.01.221-.024.32-.024q2.5,0,5,0c.417,0,.462.043.462.451q0,2.984,0,5.968c0,.4-.05.445-.465.448s-.828,0-1.242,0a.4.4,0,0,0-.455.468c.009.431,0,.863,0,1.393" transform="translate(-70.29 -17.731)" fill="#7a5424"/>
    <path id="Path_63448" data-name="Path 63448" d="M31.5,91.313a3.874,3.874,0,1,1,3.865-3.891A3.878,3.878,0,0,1,31.5,91.313" transform="translate(-23.804 -72.006)" fill="#7a5424"/>
    <path id="Path_63449" data-name="Path 63449" d="M125.272,117.81a3.876,3.876,0,1,1,3.864-3.9,3.873,3.873,0,0,1-3.864,3.9" transform="translate(-104.604 -94.835)" fill="#7a5424"/>
    <path id="Path_63450" data-name="Path 63450" d="M6.086,144.932a14.382,14.382,0,0,1,.472,1.887,6.739,6.739,0,0,1-.127,1.506c-.11.994-.226,1.987-.341,2.981a1.369,1.369,0,0,1-.035.148H.061a5.628,5.628,0,0,1,6.025-6.521" transform="translate(0 -124.866)" fill="#7a5424"/>
    <path id="Path_63451" data-name="Path 63451" d="M66.033,151.46c-.506,0-1.012-.013-1.517.006-.245.009-.34-.06-.367-.314-.145-1.382-.309-2.762-.464-4.143a.771.771,0,0,1,.014-.271c.139-.545.276-1.09.439-1.628a.37.37,0,0,1,.266-.21,5.608,5.608,0,0,1,5.549,3.778.38.38,0,0,1-.148.516,6.173,6.173,0,0,0-1.788,2.025.418.418,0,0,1-.433.247c-.517-.014-1.034,0-1.551,0" transform="translate(-54.872 -124.851)" fill="#7a5424"/>
    <path id="Path_63452" data-name="Path 63452" d="M49.656,161.5h.82l.486,4.25h-1.79l.483-4.25" transform="translate(-42.372 -139.16)" fill="#7a5424"/>
    <path id="Path_63453" data-name="Path 63453" d="M49.453,144.984h1.715c-.128.483-.244.947-.378,1.406a.268.268,0,0,1-.185.146c-.672.1-.74.055-.912-.6-.081-.309-.157-.619-.24-.949" transform="translate(-42.613 -124.93)" fill="#7a5424"/>
  </g>
</svg>
