<svg xmlns="http://www.w3.org/2000/svg" width="105.171" height="105.324" viewBox="0 0 105.171 105.324">
  <g id="Group_120886" data-name="Group 120886" transform="translate(-6221.217 -69.856)">
    <path id="Path_172444" data-name="Path 172444" d="M455.747,24.442q31.487.086,62.974.206c2.1.012,3.307-.483,3-2.825a3.754,3.754,0,0,1,0-.851c.334-3.471-1.565-8.91.863-10,3.791-1.7,8.858-.572,13.384-.631a1.418,1.418,0,0,1,1.638,1.487c.012.283.046.566.045.85-.023,4.112,1.3,8.962-.439,12.14-1.921,3.516-7.146.9-10.89,1.367-1.763.222-2.922.317-2.911,2.539.1,20.853.116,41.707.192,62.56a23.619,23.619,0,0,0,.486,3.366l-1.118,1.24c-1.29-2.787-1.317-5.765-1.318-8.745,0-18.694-.123-37.389.1-56.08.048-4.024-1.228-4.895-5.008-4.858-18.549.183-37.1.093-55.649.067-1.83,0-3.66-.213-5.491-.327q.07-.753.142-1.506m73.551.182c6.651,0,6.7,0,6.645-5.487-.079-8.2.958-7.07-5.425-7.148-7.083-.087-7.084-.023-7.088,5.928,0,6.7,0,6.7,5.868,6.706" transform="translate(5778.687 69.572)" fill="#855232" opacity="0.5"/>
    <path id="Path_172445" data-name="Path 172445" d="M455.433,24.208q-.07.753-.142,1.506C446.261,24.3,441,17.659,442.457,9.508,443.594,3.133,449.353-1,455.5.283a8.56,8.56,0,0,1,7.126,7.5,7.21,7.21,0,0,1-4.027,8.148,6.5,6.5,0,0,1-6.87-.276,5.726,5.726,0,0,1-2.673-5.449,5.03,5.03,0,0,1,5.84-4.741c1.459.3,2.727.963,2.888,2.659a2.247,2.247,0,0,1-1.45,2.369,2.4,2.4,0,0,1-3.256-1.123c-.268-.421-.546-.834-.965-1.474-1.942,3.038-1.266,5.2,1.5,6.554,2.556,1.254,5.89-.48,6.8-3.353a6.6,6.6,0,0,0-1.445-6.737,7.369,7.369,0,0,0-7.786-2.094,8.772,8.772,0,0,0-6.677,7,11.16,11.16,0,0,0,3.7,11.509c2.084,1.859,4.73,2.486,7.234,3.434" transform="translate(5779 69.805)" fill="#855232" opacity="0.5"/>
    <path id="Path_172446" data-name="Path 172446" d="M524.587,97.685l1.118-1.24c1.775,3.613,3.8,6.936,7.959,8.326,6.115,2.042,12.593-1.248,13.623-7.082a7.376,7.376,0,0,0-2.446-7.3,6.372,6.372,0,0,0-6.773-1.19c-2.946,1.184-4.135,3.591-3.139,6.527,1.033,3.045,3.4,3.324,6.128,2.209.039-1.6-1.434-1.357-1.895-2.174-.836-1.48-.739-2.8.714-3.671,1.481-.889,2.695-.269,3.547,1.159,1.809,3.029-.7,7.155-4.474,7.21a5.643,5.643,0,0,1-6.09-4.821c-.764-3.628.7-6.437,3.989-8.087,5.135-2.576,11.575,1.142,12.35,7.094a10.246,10.246,0,0,1-4.828,10.6,12.508,12.508,0,0,1-13.695.251,12.017,12.017,0,0,1-6.089-7.8" transform="translate(5777.073 67.778)" fill="#855232" opacity="0.5"/>
    <path id="Path_172447" data-name="Path 172447" d="M502.88,32.291c3.684,0,7.369.076,11.049-.03,2.035-.059,3.089.348,3.047,2.754-.136,7.79-.058,15.586-.064,23.378,0,1.8-.468,3.354-2.246,4.23a2.406,2.406,0,0,1-2.776-.2,1.666,1.666,0,0,1-.771-1.83c.325-1.033,1.051-1.87,2.176-1.56,2.266.626,1.832-.918,1.835-2.1.016-6.66-.077-13.322.054-19.977.045-2.3-.819-2.876-2.965-2.843-6.657.106-13.317.044-19.975.035-1.306,0-2.607-.234-2.011,1.925.295,1.072-.621,1.824-1.693,2.068a1.75,1.75,0,0,1-1.792-.879,2.451,2.451,0,0,1-.068-2.793c.927-1.76,2.51-2.135,4.3-2.132q5.95.007,11.9,0Z" transform="translate(5777.969 69.052)" fill="#855232" opacity="0.5"/>
    <path id="Path_172448" data-name="Path 172448" d="M532.339,33.523q0,6.044,0,12.087c0,6.657-.024,13.313.032,19.97.01,1.167-.784,3.057,1.977,2.381a1.743,1.743,0,0,1,1.966,2.46c-.482,1.426-1.852,1.694-3.2,1.2a3.632,3.632,0,0,1-2.49-3.609q.006-16.981.125-33.962c0-.2.3-.4.452-.6l1.135.068" transform="translate(5776.931 69.024)" fill="#855232" opacity="0.5"/>
    <path id="Path_172449" data-name="Path 172449" d="M515.724,18.025c-.426,1.539-1.431,1.239-2.178,1.241q-15.721.044-31.443.021c-2.121,0-4.012-.479-4.683-2.8-.39-1.348-.089-2.658,1.49-3,1.366-.293,2.456.648,2.187,1.879-.653,2.979,1.448,2.084,2.729,2.092,9.206.051,18.412.013,27.618.046,1.385.006,2.835-.347,4.28.517" transform="translate(5778.18 69.492)" fill="#855232" opacity="0.5"/>
  </g>
</svg>
