<svg xmlns="http://www.w3.org/2000/svg" width="19.789" height="18.227" viewBox="0 0 19.789 18.227">
  <g id="Group_136831" data-name="Group 136831" transform="translate(0 0.001)">
    <path id="Path_174091" data-name="Path 174091" d="M8.048,14.847h3.69v2.762H8.048ZM1.861,9.9H4.314v7.713H1.861Zm13.621,0h2.453v7.713H15.482ZM4.959,2.78H7.417V4.92h4.947V2.784h2.471V17.613H12.377v-3.38H7.43v3.374H4.959ZM8.05.618h3.69v3.69H8.05ZM7.416,0V2.154h-3.1v7.12H1.228v8.358H0v.593H19.789v-.608H18.552V9.26H15.461V2.14h-3.1V0Z" transform="translate(0 0)" fill="#fff"/>
    <path id="Path_174092" data-name="Path 174092" d="M87.974,83.786h2.45v2.45h-2.45Zm.618,1.832h1.214V84.4H88.592Z" transform="translate(-81.157 -77.295)" fill="#fff"/>
    <path id="Path_174093" data-name="Path 174093" d="M135.835,83.852h2.454V86.3h-2.454Zm1.84.619h-1.222v1.213h1.222Z" transform="translate(-125.31 -77.356)" fill="#fff"/>
    <path id="Path_174094" data-name="Path 174094" d="M90.444,134.221h-2.45V131.77h2.45Zm-.624-1.837H88.608v1.221H89.82Z" transform="translate(-81.176 -121.561)" fill="#fff"/>
    <path id="Path_174095" data-name="Path 174095" d="M135.769,131.794h2.457v2.447h-2.457Zm.629,1.832h1.213V132.4H136.4Z" transform="translate(-125.249 -121.583)" fill="#fff"/>
    <path id="Path_174096" data-name="Path 174096" d="M112.8,15.9h.614v.917h.925v.614h-.918v.925H112.8v-.917h-.925V16.83h.918Z" transform="translate(-103.21 -14.673)" fill="#fff"/>
  </g>
</svg>
