<svg id="Group_136830" data-name="Group 136830" xmlns="http://www.w3.org/2000/svg" xmlns:xlink="http://www.w3.org/1999/xlink" width="18.583" height="18.585" viewBox="0 0 18.583 18.585">
  <defs>
    <clipPath id="clip-path">
      <rect id="Rectangle_85715" data-name="Rectangle 85715" width="18.583" height="18.585" fill="#fff"/>
    </clipPath>
  </defs>
  <g id="Group_136829" data-name="Group 136829" clip-path="url(#clip-path)">
    <path id="Path_174089" data-name="Path 174089" d="M17.456,139.113v-.9c-.061,0-.119-.01-.177-.01H2.675a.985.985,0,0,0-1.016.827A1,1,0,0,0,2.6,140.2c.067,0,.133,0,.2,0H15.474v.544H2.7a1.546,1.546,0,0,1-.174-3.087c.1,0,.194,0,.291,0H18.034v-.543H6.909v-.543h9.382v-.551H3.926a1.006,1.006,0,0,1-1.074-.872.993.993,0,0,1,.846-1.118c.245-.022.494,0,.754,0v.541c-.2,0-.4,0-.6,0a.451.451,0,0,0-.466.415.462.462,0,0,0,.4.485,1.228,1.228,0,0,0,.2.008H15.708v-.9H5.024v-.553H16.289v-.538H12.508v-.544h4.327v1.617h-.557v.911h.565v1.092h1.74v1.636h-.561v2h.56v1.642H18.4q-7.883,0-15.767,0a2.635,2.635,0,0,1-.408-5.237c.06-.009.118-.024.2-.041-.072-.079-.139-.145-.2-.218a2.008,2.008,0,0,1-.292-2.164,1.931,1.931,0,0,1,1.83-1.239c2.688-.019,5.377-.008,8.065-.009.035,0,.069.005.112.009v.536H11.7c-2.6,0-5.2.008-7.792,0a1.585,1.585,0,0,0-1.551,1.106,1.548,1.548,0,0,0,1.49,1.989c.763.007,1.526,0,2.289,0h.2v.547h-.21q-1.717,0-3.433,0a2.088,2.088,0,0,0-.427,4.144,3.454,3.454,0,0,0,.487.036q7.529,0,15.058,0h.215v-.539H16.05V140.2h1.405v-.541H5.381v-.548Z" transform="translate(0 -123.251)" fill="#fff"/>
    <path id="Path_174090" data-name="Path 174090" d="M39.338,2.445l-1.3-.437.172-.517,2.806.936,0,.037c-.253.085-.5.176-.76.252a.166.166,0,0,0-.137.192q.006,1.236,0,2.471a.171.171,0,0,0,.114.192.939.939,0,0,1,.605.855c.023.465.005.931.005,1.413h-2V7.535c0-.345,0-.691,0-1.036a.984.984,0,0,1,.6-.933.235.235,0,0,0,.119-.163c.008-.787.005-1.575,0-2.362a.761.761,0,0,0-.012-.086l-1.361.45c-.264.087-.263.088-.263.371,0,1.363-.005,2.726.006,4.088a.351.351,0,0,1-.224.362,6.109,6.109,0,0,1-1.8.544,14.461,14.461,0,0,1-3.745.1,8.414,8.414,0,0,1-2.324-.524.642.642,0,0,1-.485-.712c.034-1.307.01-2.616.016-3.925a.249.249,0,0,0-.2-.293c-.93-.3-1.855-.615-2.781-.925l-.124-.042c.085-.034.135-.058.187-.075Q29.994,1.2,33.521.026a.411.411,0,0,1,.24-.013q1.9.625,3.8,1.262c.039.013.077.031.13.053l-.169.507L35.6,1.2c-.6-.2-1.189-.4-1.786-.6A.415.415,0,0,0,33.575.59q-2.724.9-5.444,1.812l-.111.041c.065.031.1.053.145.067q2.7.9,5.394,1.794a.35.35,0,0,0,.206,0q2.723-.9,5.445-1.813c.027-.009.053-.02.129-.049m-9.4,1.23v.217c0,1.229,0,2.458,0,3.687a.26.26,0,0,0,.2.287,8.113,8.113,0,0,0,2.677.5c.748.022,1.5.008,2.248-.038a6.917,6.917,0,0,0,2.117-.452c.257-.1.265-.118.2-.424H36.219V6.909h.2c.278,0,.557,0,.835,0,.047,0,.128-.056.132-.093a4.283,4.283,0,0,0,.006-.452h-.667V5.818c.173,0,.336-.008.5,0,.138.009.175-.042.174-.176-.006-.605,0-1.211,0-1.816a1.4,1.4,0,0,0-.016-.144l-.186.061c-1.126.375-2.252.753-3.379,1.123a.471.471,0,0,1-.275.006c-.745-.242-1.487-.5-2.231-.744-.45-.15-.9-.3-1.378-.455M40.283,7.3c0-.325.022-.628-.007-.925a.4.4,0,0,0-.448-.335.409.409,0,0,0-.414.338c-.021.3-.006.611-.006.923Z" transform="translate(-24.368 -0.001)" fill="#fff"/>
    <rect id="Rectangle_85712" data-name="Rectangle 85712" width="0.523" height="0.522" transform="translate(3.2 15.873)" fill="#fff"/>
    <rect id="Rectangle_85713" data-name="Rectangle 85713" width="0.526" height="0.523" transform="translate(4.292 15.868)" fill="#fff"/>
    <rect id="Rectangle_85714" data-name="Rectangle 85714" width="0.528" height="0.516" transform="translate(10.756 6.924)" fill="#fff"/>
  </g>
</svg>
