<svg xmlns="http://www.w3.org/2000/svg" xmlns:xlink="http://www.w3.org/1999/xlink" width="453.148" height="365.447" viewBox="0 0 453.148 365.447">
  <defs>
    <clipPath id="clip-path">
      <rect id="Rectangle_90" data-name="Rectangle 90" width="369.287" height="365.447" fill="none"/>
    </clipPath>
  </defs>
  <g id="Group_83" data-name="Group 83" transform="translate(-577 -2875)">
    <g id="Group_82" data-name="Group 82" transform="translate(532.969 -61.846)">
      <path id="Path_164" data-name="Path 164" d="M136.658,223.044l.03,1.374H385.6l3.9-1.374h0V196.478h-1.14v-2.293h-7.075v4.559h6.579v1.374h-6.579v1.373h6.579v1.373h-6.579v1.373h6.579v1.374h-6.579v1.373h6.579v1.373h-6.579v1.373h6.579V211.1h-6.579v1.374h6.579v1.373h-6.579v1.373h6.579v1.373h-6.579v6.452h-1.374V184.119H365.019v38.925h-1.373v-6.871h-3.183V214.8h3.183v-1.373h-3.183v-1.373h3.183v-1.373h-3.183v-1.374h3.183v-1.373h-3.183v-1.373h3.183V205.19h-3.183v-1.374h3.183v-1.373h-3.183v-1.373h3.183V199.7h-3.183v-1.374h3.183v-1.373h-3.183v-1.373h3.183v-1.373h-3.183v-1.374h3.183V191.46h-3.183v-1.373h3.183v-1.373h-3.183v-1.374h3.183v-1.373h-3.183V184.6h3.183v-1.85h8.45v-7.727H359.472v7.727h-1.135v40.3h-1.375V190.986h-6.076v3.584h.638v1.373h-.638V197.6h1.063v1.373h-1.063v1.647h3.494V202h-3.494v1.661h3.494v1.373h-3.494v1.648h.638v1.373h-.638v1.661h3.494v1.373h-3.494v1.648h.638v1.373h-.638v1.661h3.494v1.373h-3.494v5.9h-2.671v-44.36l-14.9,5.435v38.925h-1.373v-6.871h-5.322V214.8h5.322v-1.373h-5.322v-1.373h5.322v-1.373h-5.322v-1.374h5.322v-1.373h-5.322v-1.373h5.322V205.19h-5.322v-1.374h5.322v-1.373h-5.322v-1.373h5.322V199.7h-5.322v-1.374h5.322v-1.373h-5.322v-1.373h5.322v-1.373h-5.322v-1.374h5.322V191.46h-5.322v-1.373h5.322v-1.373h-5.322v-1.374h5.322v-1.373h-5.322V184.6h5.322v-1.438l5.816-2.122v-3.725H326.126v5.435H324.5v40.3h-2.672V186.922l-14.9,5.437v30.685h-3.97V154.355l-17.588-.1v68.784h1.319V168.03h-14.9v55.015h-1.368V196.478h-1.139v-2.293H256.664v2.293h-1.14v26.566h-1.37v-40.3h-1.137v-2.292H240.394v2.292h-1.137v40.3h-3.712v-40.3h-14.9v40.3h-1.168v-40.3h-1.63v-5.435h-1.633v-5.435h-1.63v-5.435h-5.111v5.435h-1.631v5.435h-1.63v5.435h-1.63v10.066h6.189v.021h6.578v1.374h-6.578v.9h1.139v.475h5.438v1.373h-5.438v1.373h5.438V199.7h-5.438v1.373h5.438v1.373h-5.438v1.373h5.438v1.374h-5.438v1.373h5.438v1.373h-5.438v1.373h5.438v1.374h-5.438v1.373h5.438v1.373h-5.438V214.8h5.438v1.374h-5.438v6.871h-1.373V196.478H209.4v-2.293H196.786v2.293h-1.139v26.566h-1.373v-40.3h-5.953v2.739h3.365v1.374h-3.365v1.654h3.365v1.374h-3.365v1.655h3.365v1.373h-3.365v1.655h.507v1.373h-.507V197.6h.936v1.373h-.936v1.655h3.365V202h-3.365v1.654h3.365v1.374h-3.365v1.655h.507v1.373h-.507v1.655h3.365v1.373h-3.365v1.655h.507v1.373h-.507v1.655h3.365v1.373h-3.365v5.9h-1.373V177.311l-8.125,2.964v2.471h1.134v1.784H181.1V185.9h-1.147v1.373h1.188v1.374h-1.188v1.373h4.8v1.373h-4.8v1.373H181.1v1.374h-1.147v1.373h4.8v1.373h-4.8v1.373h4.8v1.373h-4.8v1.374h4.8v1.373h-4.8v1.373h4.8v1.373h-4.8V206.5H181.1v1.373h-1.147v1.373h4.8v1.374h-4.8v1.373h4.8v1.373h-4.8v1.373H181.1v1.373h-1.147v6.937h-1.373V184.119H177.45v-7.727H164.827v7.727h-1.136v38.925h-4.965V192.359l-14.9-5.436v36.12h-7.173Zm240.67-31.784h-4.862v-1.373h4.862Zm-9.722-4.4h9.722v1.373h-9.722Zm0,6.056h9.722v1.373h-9.722Zm9.611,4.4h-1.373v-1.373h1.373Zm-2.746,0H373.1v-1.373h1.373Zm-2.745,0h-1.373v-1.373h1.373Zm-4.119-1.373h1.373v1.373h-1.373Zm0,3.028H374.9v1.373h-7.291Zm0,3.029h9.722v1.373h-9.722Zm0,3.028h9.722V206.4h-9.722Zm9.611,4.4h-1.373v-1.373h1.373Zm-2.746,0H373.1v-1.373h1.373Zm-2.745,0h-1.373v-1.373h1.373Zm-4.119-1.373h1.373v1.373h-1.373Zm0,3.028h9.722v1.373h-9.722Zm9.611,4.4h-1.373v-1.373h1.373Zm-2.746,0H373.1v-1.373h1.373Zm-2.745,0h-1.373v-1.373h1.373Zm-4.119-1.374h1.373v1.373h-1.373Zm0,3.028h9.722v1.373h-9.722Zm-13.335-21.2H352.9V194.57h1.373Zm0,12.109H352.9v-1.373h1.373Zm0,6.055H352.9v-1.373h1.373Zm-16.017,2h1.373v1.373h-1.373Zm2.745,0h1.373v1.373H341Zm2.746,0h1.373v1.373h-1.373Zm0-30.2h1.373v1.373h-1.373Zm-2.746,0h1.373v1.373H341Zm-2.745,0h1.373v1.373h-1.373Zm-2.746,0h1.373v1.373h-1.373Zm0,2.746h6.905v1.373h-6.905Zm9.611,6.865h-1.373v-1.373h1.373Zm-2.745,0H341v-1.373h1.373Zm-2.746,0h-1.373v-1.373h1.373Zm-4.119-1.373h1.373v1.373h-1.373Zm0,5.491h10.518V201H335.507Zm0,5.492h10.518V206.5H335.507Zm9.611,4.119h-1.373V207.87h1.373Zm-2.745,0H341V207.87h1.373Zm-2.746,0h-1.373V207.87h1.373Zm-4.119-1.373h1.373v1.373h-1.373Zm0,5.492h10.518v1.373H335.507Zm0,2.745h1.373v1.373h-1.373ZM293,191.779h1.373v1.373H293Zm2.745,0h1.373v1.373h-1.373Zm2.746,0h1.373v1.373h-1.373Zm2.279-12.357H293.7v-1.373h7.063Zm-2.279-17.848h1.373v1.373h-1.373Zm-2.746,0h1.373v1.373h-1.373Zm-2.745,0h1.373v1.373H293Zm-2.746,0h1.373v1.373H290.25Zm0,2.746h6.905v1.373H290.25Zm0,2.745h10.517v1.373H290.25Zm9.611,4.119h-1.373v-1.373h1.373Zm-2.745,0h-1.373v-1.373h1.373Zm-2.746,0H293v-1.373h1.373Zm-4.119-1.373h1.373v1.373H290.25Zm0,2.745h10.517v1.373H290.25Zm0,2.746h10.517v1.373H290.25Zm0,5.492h10.517v1.373H290.25Zm9.611,4.118h-1.373v-1.373h1.373Zm-2.745,0h-1.373v-1.373h1.373Zm-2.746,0H293v-1.373h1.373Zm-4.119-1.373h1.373v1.373H290.25Zm0,2.746h10.517v1.373H290.25Zm0,2.745h10.517v1.373H290.25Zm0,2.746h1.373v1.373H290.25ZM293,198.73h1.373V200.1H293Zm2.745,0h1.373V200.1h-1.373Zm2.746,0h1.373V200.1h-1.373Zm-8.238,0h1.373V200.1H290.25ZM293,202.441h1.373v1.373H293Zm2.745,0h1.373v1.373h-1.373Zm2.746,0h1.373v1.373h-1.373Zm-8.238,0h1.373v1.373H290.25ZM293,206.693h1.373v1.373H293Zm2.745,0h1.373v1.373h-1.373Zm2.746,0h1.373v1.373h-1.373Zm-8.238,0h1.373v1.373H290.25ZM293,210.2h1.373v1.373H293Zm2.745,0h1.373v1.373h-1.373Zm2.746,0h1.373v1.373h-1.373Zm-8.238,0h1.373v1.373H290.25ZM276.976,198.73h1.373V200.1h-1.373Zm2.746,0H281.1V200.1h-1.373Zm2.745,0h1.373V200.1h-1.373Zm-8.237,0H275.6V200.1h-1.373Zm2.745,3.711h1.373v1.373h-1.373Zm2.746,0H281.1v1.373h-1.373Zm2.745,0h1.373v1.373h-1.373Zm-8.237,0H275.6v1.373h-1.373Zm2.745,4.252h1.373v1.373h-1.373Zm2.746,0H281.1v1.373h-1.373Zm2.745,0h1.373v1.373h-1.373Zm-8.237,0H275.6v1.373h-1.373Zm2.745,3.509h1.373v1.373h-1.373Zm2.746,0H281.1v1.373h-1.373Zm2.745,0h1.373v1.373h-1.373Zm-8.237,0H275.6v1.373h-1.373Zm8.393-38.588H284v1.373h-1.373Zm-2.745,0h1.373v1.373h-1.373Zm-2.746,0H278.5v1.373h-1.373Zm-2.745,0h1.373v1.373h-1.373Zm0,3.033h7.291v1.373h-7.291Zm0,3.02h9.721v1.373h-9.721Zm0,3.034h9.721v1.373h-9.721ZM284,185.1h-1.373v-1.373H284Zm-2.746,0h-1.373v-1.373h1.373Zm-2.745,0h-1.373v-1.373h1.373Zm-4.119-1.373h1.373V185.1h-1.373Zm0,3.034h9.721v1.373h-9.721ZM284,191.151h-1.373v-1.373H284Zm-2.746,0h-1.373v-1.373h1.373Zm-2.745,0h-1.373v-1.373h1.373Zm-4.119-1.373h1.373v1.373h-1.373Zm0,3.034h9.721v1.373h-9.721Zm-17.226,5.932h11.627v1.374H257.16Zm0,2.747h11.627v1.373H257.16Zm0,2.745h11.627v1.373H257.16Zm0,2.746h11.627v1.373H257.16Zm0,2.745h11.627V211.1H257.16Zm0,2.746h11.627v1.373H257.16Zm0,2.745h11.627v1.373H257.16Zm-16.272-30.212h11.636v1.373H240.888Zm0,2.746h11.636v1.372H240.888Zm0,2.745h11.636v1.373H240.888Zm0,2.746h11.636v1.373H240.888Zm0,2.745h11.636v1.373H240.888Zm0,2.746h11.636v1.373H240.888Zm0,2.745h11.636v1.373H240.888Zm0,2.746h11.636V205.6H240.888Zm0,2.745h11.636v1.373H240.888Zm0,2.746h11.636v1.373H240.888Zm0,2.745h11.636v1.373H240.888Zm0,2.746h11.636v1.373H240.888Zm-7.93-25.324H228.1v-1.373h4.859Zm-9.721-4.4h9.721v1.373h-9.721Zm0,6.057h9.721v1.373h-9.721Zm9.611,4.4h-1.373v-1.373h1.373Zm-2.746,0h-1.373v-1.373H230.1Zm-2.745,0h-1.373v-1.373h1.373Zm-4.119-1.373h1.373v1.373h-1.373Zm0,3.029h7.291v1.373h-7.291Zm0,3.029h9.721V202h-9.721Zm0,3.027h9.721v1.373h-9.721Zm9.611,4.4h-1.373v-1.373h1.373Zm-2.746,0h-1.373v-1.373H230.1Zm-2.745,0h-1.373v-1.373h1.373Zm-4.119-1.373h1.373v1.373h-1.373Zm0,3.029h9.721v1.373h-9.721Zm9.611,4.4h-1.373V212.74h1.373Zm-2.746,0h-1.373V212.74H230.1Zm-2.745,0h-1.373V212.74h1.373Zm-4.119-1.373h1.373v1.373h-1.373Zm0,3.027h9.721v1.373h-9.721ZM206.713,184.6h10.641v1.373H206.713Zm0,2.745h10.641v1.373H206.713Zm0,2.746h10.641v1.373H206.713Zm-9.434,8.655h11.63v1.373h-11.63Zm0,2.746h11.63v1.373h-11.63Zm0,2.745h11.63v1.373h-11.63Zm0,2.746h11.63v1.373h-11.63Zm0,2.745h11.63V211.1h-11.63Zm0,2.746h11.63v1.373h-11.63Zm0,2.745h11.63v1.373h-11.63Zm-5.706-19.275H190.2V194.57h1.373Zm0,12.113H190.2v-1.373h1.373Zm0,6.056H190.2v-1.373h1.373ZM183.85,185.9h-1.373V184.53h1.373Zm0,8.238h-1.373v-1.373h1.373Zm0,13.729h-1.373V206.5h1.373Zm-1.373,6.865h1.373v1.373h-1.373Zm-16.659-28.766h10.639v1.373H165.818Zm0,2.746h10.639v1.373H165.818Zm0,2.745h10.639v1.373H165.818Zm0,2.746h10.639v1.373H165.818Zm0,2.745h10.639v1.373H165.818Zm0,2.746h10.639v1.373H165.818Zm0,2.745h10.639v1.373H165.818Zm0,2.746h10.639v1.373H165.818Zm0,2.745h10.639v1.373H165.818Zm0,2.746h10.639v1.373H165.818Zm0,2.745h10.639V214.8H165.818Zm0,2.746h10.639v1.373H165.818Zm-18.9-1.434h1.373v1.373H146.92Zm2.745,0h1.373v1.373h-1.373Zm2.746,0h1.373v1.373h-1.373Zm2.745,0h1.373v1.373h-1.373Zm1.373-6.865h-1.373V206.5h1.373Zm-10.517-12.356H156.53v1.373H146.013Zm0,2.746H156.53v1.373H146.013Zm0,2.745h7.071v1.373h-7.071Zm0,2.746H156.53v1.373H146.013Zm7.772,4.118h-1.373V206.5h1.373Zm-2.746,0h-1.373V206.5h1.373Zm-2.745,0H146.92V206.5h1.373Zm-2.28,1.374H156.53v1.373H146.013Zm0,2.745H156.53v1.373H146.013Zm165.857,2.745h1.373v1.373H311.87Zm2.746,0h1.373v1.373h-1.373Zm2.745,0h1.373v1.373h-1.373Zm2.279-12.356h-7.07V201.01h7.07Zm-10.517-6.865h10.517v1.373H309.124Zm0,2.746h10.517v1.373H309.124Zm0,5.492h10.517v1.373H309.124Zm9.611,4.119h-1.373V206.5h1.373Zm-2.745,0h-1.373V206.5h1.373Zm-2.746,0H311.87V206.5h1.373Zm-4.119-1.374H310.5v1.373h-1.373Zm0,2.746h10.517v1.373H309.124Zm0,2.745h10.517v1.373H309.124Zm0,2.746H310.5v1.373h-1.373Z" transform="translate(25.432 2929.586)" fill="#ab6b3f"/>
      <rect id="Rectangle_72" data-name="Rectangle 72" width="6.758" height="32.761" transform="translate(375.718 3120.417)" fill="#ab6b3f"/>
      <rect id="Rectangle_73" data-name="Rectangle 73" width="6.758" height="41.086" transform="translate(213.056 3112.093)" fill="#ab6b3f"/>
      <rect id="Rectangle_74" data-name="Rectangle 74" width="12.506" height="33.337" transform="translate(406.647 3120.417)" fill="#ab6b3f"/>
      <rect id="Rectangle_75" data-name="Rectangle 75" width="12.506" height="32.512" transform="translate(155.78 3121.241)" fill="#ab6b3f"/>
      <rect id="Rectangle_76" data-name="Rectangle 76" width="13.388" height="16.815" transform="translate(416.457 3136.938)" fill="#ab6b3f"/>
      <rect id="Rectangle_77" data-name="Rectangle 77" width="12.17" height="25.046" transform="translate(142.294 3128.707)" fill="#ab6b3f"/>
      <rect id="Rectangle_78" data-name="Rectangle 78" width="7.685" height="8.083" transform="translate(432.494 3145.67)" fill="#ab6b3f"/>
      <rect id="Rectangle_79" data-name="Rectangle 79" width="4.439" height="6.835" transform="translate(133.784 3146.918)" fill="#ab6b3f"/>
      <path id="Path_165" data-name="Path 165" d="M0,235c149.886-1.626,303.263-1.639,453.148,0C303.262,236.639,149.886,236.626,0,235" transform="translate(44.031 2918.763)" fill="#ab6b3f"/>
      <path id="Path_166" data-name="Path 166" d="M466.319,234.816l-.121-2.238h-.332l-.141,2.238Z" transform="translate(-19.357 2918.927)" fill="#58120d"/>
      <path id="Path_167" data-name="Path 167" d="M466.043,234.9l.01-1.656a.045.045,0,1,0-.089,0l-.083,1.656Z" transform="translate(-19.378 2918.843)" fill="#58120d"/>
      <path id="Path_168" data-name="Path 168" d="M468.557,230.469a.6.6,0,0,0-.4-.563.712.712,0,0,0-.454-.925.432.432,0,0,0,.007-.067.465.465,0,0,0-.464-.464h-.059a.391.391,0,0,0,.059-.2.4.4,0,0,0-.4-.4h-1.74a.4.4,0,0,0-.4.4.391.391,0,0,0,.059.2h-.413a.464.464,0,0,0-.464.464.444.444,0,0,0,.01.1.72.72,0,0,0-.213,1.159h-.056a.341.341,0,1,0,0,.682h.1a.406.406,0,0,0,.277.651.444.444,0,0,0-.006.06.519.519,0,0,0,.518.518h0a.313.313,0,0,0,.312.3h2.366a.306.306,0,0,0,.27-.464h.194a.286.286,0,0,0,.287-.286.282.282,0,0,0-.128-.232h.142a.232.232,0,0,0,.232-.232.228.228,0,0,0-.046-.132.6.6,0,0,0,.4-.564" transform="translate(-19.026 2919.57)" fill="#58120d"/>
      <path id="Path_169" data-name="Path 169" d="M467.333,230.469a.6.6,0,0,0-.4-.563.712.712,0,0,0-.454-.925.439.439,0,0,0,.007-.067.465.465,0,0,0-.464-.464h-.059a.391.391,0,0,0,.059-.2.4.4,0,0,0-.4-.4h-.847a.4.4,0,0,0-.4.4.391.391,0,0,0,.059.2h-.414a.464.464,0,0,0-.463.464.5.5,0,0,0,.009.1.721.721,0,0,0-.213,1.159h-.057a.341.341,0,1,0,0,.682h.1a.406.406,0,0,0,.277.651.449.449,0,0,0-.006.06.519.519,0,0,0,.518.518h0a.312.312,0,0,0,.311.3h1.474a.307.307,0,0,0,.27-.464h.194a.286.286,0,0,0,.287-.286.283.283,0,0,0-.127-.232h.141a.232.232,0,0,0,.232-.232.228.228,0,0,0-.046-.132.6.6,0,0,0,.4-.564" transform="translate(-18.981 2919.57)" fill="#58120d"/>
      <path id="Path_170" data-name="Path 170" d="M465.487,232.263a.367.367,0,0,0-.267-.351.249.249,0,0,0,.178-.19h.529a.372.372,0,0,0,0-.744h-.66a.35.35,0,0,0,.017-.085.372.372,0,0,0-.371-.372h-1.556l.007.012h-.056a.341.341,0,0,0,0,.682h.1a.405.405,0,0,0,.277.65.464.464,0,0,0-.006.06.518.518,0,0,0,.518.518h0a.313.313,0,0,0,.311.3h1.474a.314.314,0,0,0,.314-.314c0-.005,0-.009,0-.015h-.839a.36.36,0,0,0,.035-.152" transform="translate(-18.981 2919.206)" fill="#58120d"/>
      <path id="Path_171" data-name="Path 171" d="M466.725,228.981a.428.428,0,0,0,.007-.067.463.463,0,0,0-.464-.464h-.059a.394.394,0,0,0-.337-.6h-.4a.3.3,0,0,0-.022.1.312.312,0,0,0,.227.3.213.213,0,0,0-.152.162h-.448a.316.316,0,0,0,0,.632h.561a.293.293,0,0,0-.015.073.316.316,0,0,0,.316.316h1.241a.723.723,0,0,0-.455-.446" transform="translate(-19.225 2919.57)" fill="#58120d"/>
      <path id="Path_172" data-name="Path 172" d="M97.865,234.816l-.121-2.238h-.332l-.141,2.238Z" transform="translate(30.792 2918.927)" fill="#58120d"/>
      <path id="Path_173" data-name="Path 173" d="M97.589,234.9l.01-1.656a.045.045,0,1,0-.089,0l-.083,1.656Z" transform="translate(30.771 2918.843)" fill="#58120d"/>
      <path id="Path_174" data-name="Path 174" d="M100.1,230.469a.6.6,0,0,0-.4-.563.712.712,0,0,0-.454-.925.435.435,0,0,0,.007-.067.465.465,0,0,0-.464-.464h-.059a.391.391,0,0,0,.059-.2.4.4,0,0,0-.4-.4h-1.74a.4.4,0,0,0-.4.4.391.391,0,0,0,.059.2h-.413a.464.464,0,0,0-.464.464.5.5,0,0,0,.01.1.721.721,0,0,0-.213,1.159h-.056a.341.341,0,1,0,0,.682h.1a.406.406,0,0,0,.277.651.452.452,0,0,0-.006.06.519.519,0,0,0,.518.518h0a.312.312,0,0,0,.312.3h2.366a.307.307,0,0,0,.27-.464h.194a.286.286,0,0,0,.287-.286.283.283,0,0,0-.127-.232h.141a.232.232,0,0,0,.232-.232.228.228,0,0,0-.046-.132.6.6,0,0,0,.4-.564" transform="translate(31.123 2919.57)" fill="#58120d"/>
      <path id="Path_175" data-name="Path 175" d="M98.879,230.469a.6.6,0,0,0-.4-.563.712.712,0,0,0-.454-.925.434.434,0,0,0,.007-.067.465.465,0,0,0-.464-.464h-.059a.391.391,0,0,0,.059-.2.4.4,0,0,0-.4-.4h-.847a.4.4,0,0,0-.4.4.391.391,0,0,0,.059.2h-.413a.464.464,0,0,0-.464.464.5.5,0,0,0,.01.1.721.721,0,0,0-.213,1.159h-.057a.341.341,0,0,0,0,.682h.1a.406.406,0,0,0,.277.651.45.45,0,0,0-.006.06.519.519,0,0,0,.518.518h0a.312.312,0,0,0,.311.3h1.474a.307.307,0,0,0,.27-.464h.193a.286.286,0,0,0,.287-.286.282.282,0,0,0-.128-.232h.142a.232.232,0,0,0,.232-.232.228.228,0,0,0-.046-.132.6.6,0,0,0,.4-.564" transform="translate(31.167 2919.57)" fill="#58120d"/>
      <path id="Path_176" data-name="Path 176" d="M97.033,232.263a.367.367,0,0,0-.267-.351.249.249,0,0,0,.178-.19h.529a.372.372,0,0,0,0-.744h-.66a.351.351,0,0,0,.017-.085.372.372,0,0,0-.371-.372H94.9l.007.012h-.056a.341.341,0,0,0,0,.682h.1a.405.405,0,0,0,.277.65.466.466,0,0,0-.006.06.518.518,0,0,0,.518.518h0a.313.313,0,0,0,.311.3h1.474a.314.314,0,0,0,.314-.314c0-.005,0-.009,0-.015H97a.36.36,0,0,0,.035-.152" transform="translate(31.167 2919.206)" fill="#58120d"/>
      <path id="Path_177" data-name="Path 177" d="M98.27,228.981a.423.423,0,0,0,.007-.067.463.463,0,0,0-.464-.464h-.059a.394.394,0,0,0-.337-.6h-.4a.3.3,0,0,0-.022.1.312.312,0,0,0,.227.3.213.213,0,0,0-.152.162h-.448a.316.316,0,1,0,0,.632h.561a.293.293,0,0,0-.015.073.316.316,0,0,0,.316.316h1.241a.723.723,0,0,0-.455-.446" transform="translate(30.924 2919.57)" fill="#58120d"/>
      <path id="Path_178" data-name="Path 178" d="M331.96,235.107l-.2-3.678h-.545l-.232,3.678Z" transform="translate(-1.017 2919.083)" fill="#58120d"/>
      <path id="Path_179" data-name="Path 179" d="M331.506,235.244l.017-2.72a.074.074,0,1,0-.147,0l-.136,2.72Z" transform="translate(-1.053 2918.946)" fill="#58120d"/>
      <path id="Path_180" data-name="Path 180" d="M335.638,227.966a.983.983,0,0,0-.656-.925,1.17,1.17,0,0,0-.746-1.521.742.742,0,0,0-.752-.872h-.1a.647.647,0,0,0-.554-.987h-2.858a.647.647,0,0,0-.555.987h-.679a.762.762,0,0,0-.762.762.788.788,0,0,0,.016.158,1.183,1.183,0,0,0-.35,1.9h-.092a.561.561,0,0,0,0,1.121h.16a.664.664,0,0,0-.138.4.671.671,0,0,0,.593.664.749.749,0,0,0-.01.1.853.853,0,0,0,.853.852h0a.513.513,0,0,0,.511.493h3.888a.516.516,0,0,0,.516-.516.5.5,0,0,0-.071-.247h.318a.471.471,0,0,0,.471-.471.464.464,0,0,0-.209-.381h.232a.381.381,0,0,0,.381-.381.366.366,0,0,0-.076-.217.985.985,0,0,0,.659-.927" transform="translate(-0.475 2920.14)" fill="#58120d"/>
      <path id="Path_181" data-name="Path 181" d="M333.627,227.966a.983.983,0,0,0-.656-.925,1.17,1.17,0,0,0-.746-1.521.742.742,0,0,0-.752-.872h-.1a.647.647,0,0,0-.554-.987h-1.391a.647.647,0,0,0-.554.987H328.2a.762.762,0,0,0-.762.762.791.791,0,0,0,.016.158,1.183,1.183,0,0,0-.35,1.9h-.093a.561.561,0,0,0,0,1.121h.161a.666.666,0,0,0,.455,1.068.754.754,0,0,0-.01.1.852.852,0,0,0,.852.852h.005a.513.513,0,0,0,.511.493h2.422a.516.516,0,0,0,.515-.516.5.5,0,0,0-.071-.247h.318a.471.471,0,0,0,.471-.471.464.464,0,0,0-.209-.381h.232a.381.381,0,0,0,.381-.381.372.372,0,0,0-.076-.217.985.985,0,0,0,.659-.927" transform="translate(-0.401 2920.14)" fill="#58120d"/>
      <path id="Path_182" data-name="Path 182" d="M330.594,230.911a.6.6,0,0,0-.439-.576.408.408,0,0,0,.293-.313h.868a.611.611,0,0,0,0-1.222h-1.083a.571.571,0,0,0-.583-.75h-2.557c.006.006.008.014.013.019h-.092a.561.561,0,1,0,0,1.121h.16a.663.663,0,0,0-.137.4.671.671,0,0,0,.593.665.884.884,0,0,0-.009.1.852.852,0,0,0,.852.852h0a.513.513,0,0,0,.511.493h2.421a.516.516,0,0,0,.516-.516c0-.009-.007-.016-.007-.025h-1.379a.6.6,0,0,0,.056-.25" transform="translate(-0.401 2919.543)" fill="#58120d"/>
      <path id="Path_183" data-name="Path 183" d="M332.626,225.518a.742.742,0,0,0-.752-.872h-.1a.647.647,0,0,0-.554-.987h-.658a.484.484,0,0,0-.035.157.515.515,0,0,0,.372.491.349.349,0,0,0-.249.265h-.738a.52.52,0,1,0,0,1.039h.921a.486.486,0,0,0-.023.118.519.519,0,0,0,.519.519h2.041a1.194,1.194,0,0,0-.749-.732" transform="translate(-0.802 2920.14)" fill="#58120d"/>
      <path id="Path_184" data-name="Path 184" d="M320.12,235.107l-.2-3.678h-.545l-.232,3.678Z" transform="translate(0.594 2919.083)" fill="#58120d"/>
      <path id="Path_185" data-name="Path 185" d="M319.666,235.244l.017-2.72a.074.074,0,1,0-.147,0l-.136,2.72Z" transform="translate(0.559 2918.946)" fill="#58120d"/>
      <path id="Path_186" data-name="Path 186" d="M323.8,227.966a.983.983,0,0,0-.656-.925,1.17,1.17,0,0,0-.746-1.521.742.742,0,0,0-.752-.872h-.1a.647.647,0,0,0-.554-.987h-2.858a.647.647,0,0,0-.555.987H316.9a.762.762,0,0,0-.762.762.791.791,0,0,0,.016.158,1.183,1.183,0,0,0-.35,1.9h-.093a.561.561,0,0,0,0,1.121h.161a.664.664,0,0,0-.138.4.671.671,0,0,0,.594.664.749.749,0,0,0-.01.1.853.853,0,0,0,.853.852h0a.513.513,0,0,0,.511.493h3.889a.516.516,0,0,0,.516-.516.494.494,0,0,0-.072-.247h.319a.471.471,0,0,0,.471-.471.464.464,0,0,0-.209-.381h.232a.381.381,0,0,0,.381-.381.367.367,0,0,0-.076-.217.985.985,0,0,0,.659-.927" transform="translate(1.137 2920.14)" fill="#58120d"/>
      <path id="Path_187" data-name="Path 187" d="M321.786,227.966a.983.983,0,0,0-.656-.925,1.17,1.17,0,0,0-.746-1.521.742.742,0,0,0-.752-.872h-.1a.647.647,0,0,0-.554-.987h-1.391a.647.647,0,0,0-.554.987h-.679a.762.762,0,0,0-.762.762.791.791,0,0,0,.016.158,1.183,1.183,0,0,0-.35,1.9h-.093a.561.561,0,1,0,0,1.121h.161a.666.666,0,0,0,.454,1.068.921.921,0,0,0-.009.1.852.852,0,0,0,.852.852h0a.514.514,0,0,0,.511.493h2.422a.516.516,0,0,0,.515-.516.5.5,0,0,0-.071-.247h.318a.471.471,0,0,0,.471-.471.464.464,0,0,0-.209-.381h.232a.381.381,0,0,0,.381-.381.372.372,0,0,0-.076-.217.985.985,0,0,0,.659-.927" transform="translate(1.211 2920.14)" fill="#58120d"/>
      <path id="Path_188" data-name="Path 188" d="M318.753,230.911a.6.6,0,0,0-.439-.576.408.408,0,0,0,.293-.313h.868a.611.611,0,0,0,0-1.222h-1.083a.57.57,0,0,0,.029-.138.612.612,0,0,0-.611-.612h-2.558c.005.006.008.014.013.019h-.092a.561.561,0,1,0,0,1.121h.16a.663.663,0,0,0-.137.4.671.671,0,0,0,.593.665.884.884,0,0,0-.009.1.852.852,0,0,0,.852.852h0a.513.513,0,0,0,.511.493h2.421a.516.516,0,0,0,.516-.516c0-.009-.007-.016-.007-.025H318.7a.6.6,0,0,0,.056-.25" transform="translate(1.211 2919.543)" fill="#58120d"/>
      <path id="Path_189" data-name="Path 189" d="M320.786,225.518a.742.742,0,0,0-.752-.872h-.1a.647.647,0,0,0-.554-.987h-.658a.485.485,0,0,0-.035.157.515.515,0,0,0,.372.491.349.349,0,0,0-.249.265h-.738a.52.52,0,0,0,0,1.039H319a.531.531,0,0,0-.023.118.519.519,0,0,0,.519.519h2.041a1.194,1.194,0,0,0-.749-.732" transform="translate(0.81 2920.14)" fill="#58120d"/>
      <path id="Path_190" data-name="Path 190" d="M472.981,223c.032.132.346.169.7.083s.615-.263.582-.4-.345-.169-.7-.083-.615.263-.583.4" transform="translate(-20.343 2920.29)" fill="#58120d"/>
      <path id="Path_191" data-name="Path 191" d="M472.687,222.667c.01,0,.059,0,.069,0l-.039.16c-.981.27-1.273,1.253-1.273,2.608v7.932h-.422V225.4c0-1.511.531-2.643,1.664-2.737" transform="translate(-20.078 2920.275)" fill="#58120d"/>
      <path id="Path_192" data-name="Path 192" d="M472.656,222.785a.336.336,0,0,0,.4.253l1.008-.228a.336.336,0,1,0-.148-.656l-1.008.229a.336.336,0,0,0-.254.4" transform="translate(-20.299 2920.346)" fill="#58120d"/>
      <path id="Path_193" data-name="Path 193" d="M470.228,235.24c0-.009-.005-.017-.005-.027a.268.268,0,0,1,.268-.269h1.163a.268.268,0,0,1,.269.269c0,.01,0,.017-.005.027Z" transform="translate(-19.969 2918.604)" fill="#58120d"/>
      <path id="Path_194" data-name="Path 194" d="M425.407,223c.032.132.346.169.7.083s.615-.263.582-.4-.345-.169-.7-.083-.615.263-.583.4" transform="translate(-13.869 2920.29)" fill="#58120d"/>
      <path id="Path_195" data-name="Path 195" d="M425.113,222.667c.01,0,.059,0,.069,0l-.039.16c-.981.27-1.273,1.253-1.273,2.608v7.932h-.422V225.4c0-1.511.531-2.643,1.664-2.737" transform="translate(-13.603 2920.275)" fill="#58120d"/>
      <path id="Path_196" data-name="Path 196" d="M425.082,222.785a.336.336,0,0,0,.4.253l1.008-.228a.336.336,0,0,0-.148-.656l-1.009.229a.335.335,0,0,0-.253.4" transform="translate(-13.824 2920.346)" fill="#58120d"/>
      <path id="Path_197" data-name="Path 197" d="M422.653,235.24c0-.009-.005-.017-.005-.027a.268.268,0,0,1,.268-.269h1.163a.268.268,0,0,1,.269.269c0,.01,0,.017-.005.027Z" transform="translate(-13.494 2918.604)" fill="#58120d"/>
      <path id="Path_198" data-name="Path 198" d="M381.192,223c.032.132.346.169.7.083s.615-.263.582-.4-.345-.169-.7-.083-.615.263-.583.4" transform="translate(-7.851 2920.29)" fill="#58120d"/>
      <path id="Path_199" data-name="Path 199" d="M380.9,222.667c.01,0,.059,0,.069,0l-.039.16c-.981.27-1.273,1.253-1.273,2.608v7.932h-.422V225.4c0-1.511.531-2.643,1.664-2.737" transform="translate(-7.584 2920.275)" fill="#58120d"/>
      <path id="Path_200" data-name="Path 200" d="M380.867,222.785a.335.335,0,0,0,.4.253l1.008-.228a.336.336,0,1,0-.148-.656l-1.009.229a.336.336,0,0,0-.253.4" transform="translate(-7.806 2920.346)" fill="#58120d"/>
      <path id="Path_201" data-name="Path 201" d="M378.438,235.24c0-.009-.005-.017-.005-.027a.268.268,0,0,1,.268-.269h1.163a.268.268,0,0,1,.269.269c0,.01,0,.017-.005.027Z" transform="translate(-7.476 2918.604)" fill="#58120d"/>
      <path id="Path_202" data-name="Path 202" d="M88.929,223c-.032.132-.346.169-.7.083s-.615-.263-.582-.4.345-.169.7-.083.615.263.583.4" transform="translate(32.102 2920.29)" fill="#58120d"/>
      <path id="Path_203" data-name="Path 203" d="M89.151,222.667c-.01,0-.059,0-.069,0l.039.16c.981.27,1.273,1.253,1.273,2.608v7.932h.422V225.4c0-1.511-.532-2.643-1.665-2.737" transform="translate(31.907 2920.275)" fill="#58120d"/>
      <path id="Path_204" data-name="Path 204" d="M89.191,222.785a.336.336,0,0,1-.4.253l-1.008-.228a.336.336,0,1,1,.148-.656l1.009.229a.336.336,0,0,1,.253.4" transform="translate(32.12 2920.346)" fill="#58120d"/>
      <path id="Path_205" data-name="Path 205" d="M91.616,235.24c0-.009.005-.017.005-.027a.268.268,0,0,0-.268-.269H90.191a.268.268,0,0,0-.269.269c0,.01,0,.017.005.027Z" transform="translate(31.792 2918.604)" fill="#58120d"/>
      <path id="Path_206" data-name="Path 206" d="M136.5,223c-.032.132-.346.169-.7.083s-.615-.263-.582-.4.345-.169.7-.083.615.263.583.4" transform="translate(25.627 2920.29)" fill="#58120d"/>
      <path id="Path_207" data-name="Path 207" d="M136.726,222.667c-.01,0-.059,0-.069,0l.039.16c.981.27,1.273,1.253,1.273,2.608v7.932h.422V225.4c0-1.511-.531-2.643-1.664-2.737" transform="translate(25.432 2920.275)" fill="#58120d"/>
      <path id="Path_208" data-name="Path 208" d="M136.766,222.785a.336.336,0,0,1-.4.253l-1.008-.228a.336.336,0,1,1,.148-.656l1.009.229a.335.335,0,0,1,.253.4" transform="translate(25.644 2920.346)" fill="#58120d"/>
      <path id="Path_209" data-name="Path 209" d="M139.19,235.24c0-.009.005-.017.005-.027a.268.268,0,0,0-.268-.269h-1.163a.268.268,0,0,0-.269.269c0,.01,0,.017.005.027Z" transform="translate(25.317 2918.604)" fill="#58120d"/>
      <path id="Path_210" data-name="Path 210" d="M180.718,223c-.032.132-.346.169-.7.083s-.615-.263-.582-.4.345-.169.7-.083.615.263.583.4" transform="translate(19.61 2920.29)" fill="#58120d"/>
      <path id="Path_211" data-name="Path 211" d="M180.941,222.667c-.01,0-.059,0-.069,0l.039.16c.981.27,1.272,1.253,1.272,2.608v7.932h.422V225.4c0-1.511-.531-2.643-1.664-2.737" transform="translate(19.413 2920.275)" fill="#58120d"/>
      <path id="Path_212" data-name="Path 212" d="M180.981,222.785a.336.336,0,0,1-.4.253l-1.009-.228a.336.336,0,0,1,.149-.656l1.009.229a.336.336,0,0,1,.253.4" transform="translate(19.626 2920.346)" fill="#58120d"/>
      <path id="Path_213" data-name="Path 213" d="M183.406,235.24c0-.009,0-.017,0-.027a.268.268,0,0,0-.268-.269h-1.162a.268.268,0,0,0-.269.269c0,.01,0,.017,0,.027Z" transform="translate(19.299 2918.604)" fill="#58120d"/>
    </g>
    <g id="Group_81" data-name="Group 81" transform="translate(628 2875)">
      <g id="Group_80" data-name="Group 80" clip-path="url(#clip-path)">
        <path id="Path_274" data-name="Path 274" d="M239.889,5.068A184.23,184.23,0,0,1,323.7,60.048" fill="none" stroke="#131212" stroke-width="0.937"/>
        <path id="Path_275" data-name="Path 275" d="M48.069,57.258a183.9,183.9,0,0,1,99.08-56.8" fill="none" stroke="#131212" stroke-width="0.937"/>
        <path id="Path_276" data-name="Path 276" d="M32.938,285.258A184.639,184.639,0,0,1,4.918,140.389" fill="none" stroke="#131212" stroke-width="0.937"/>
        <path id="Path_277" data-name="Path 277" d="M271.358,343.328a184.533,184.533,0,0,1-167.65,2.96" fill="none" stroke="#131212" stroke-width="0.937"/>
        <path id="Path_278" data-name="Path 278" d="M365.019,143.4a185.162,185.162,0,0,1,3.8,37.411,183.313,183.313,0,0,1-29.56,100.11" fill="none" stroke="#131212" stroke-width="0.937"/>
      </g>
    </g>
  </g>
</svg>
