<svg xmlns="http://www.w3.org/2000/svg" xmlns:xlink="http://www.w3.org/1999/xlink" width="54.589" height="44.475" viewBox="0 0 54.589 44.475">
  <defs>
    <clipPath id="clip-path">
      <rect id="Rectangle_85796" data-name="Rectangle 85796" width="54.589" height="44.475" fill="#ffe8b5"/>
    </clipPath>
  </defs>
  <g id="Group_137020" data-name="Group 137020" clip-path="url(#clip-path)">
    <path id="Path_245853" data-name="Path 245853" d="M13.577,30.411A28.283,28.283,0,0,1,16.354,31.8a5.574,5.574,0,0,1,2.24,3.026.457.457,0,0,0,.524.375c1.137-.018,2.275,0,3.412-.009a3.638,3.638,0,0,1,2.494.9c.577.5,1.142,1.016,1.7,1.538a.777.777,0,0,1,.117,1.209.812.812,0,0,1-1.19-.034c-.495-.433-.984-.873-1.461-1.324a2.446,2.446,0,0,0-1.78-.7q-5.011.022-10.024,0a2.214,2.214,0,0,0-1.676.67q-2.5,2.555-4.994,5.109c-.069.07-.128.149-.237.277H30.13a17.638,17.638,0,0,1-1.364-1.259,1.275,1.275,0,0,1-.344-.871.766.766,0,0,1,1.324-.367c.792.686,1.576,1.383,2.338,2.1a1.513,1.513,0,0,0,1.133.431q10.077-.021,20.154-.009a4.032,4.032,0,0,1,.48,0,.794.794,0,0,1,.05,1.579,2.429,2.429,0,0,1-.479.013H1.173c-.124,0-.249.007-.373,0a.8.8,0,0,1-.057-1.59c.087-.014.176-.013.323-.022V41.479q0-2.266,0-4.532a6.3,6.3,0,0,1,6.344-6.424c.336-.005.673,0,1.074,0,.01-.219.025-.406.025-.592q0-3.146,0-6.292c0-.675.287-1.036.8-1.027s.8.375.8,1.048c0,2.256,0,4.513,0,6.816H11.9V15.834H10.11v2.554c0,.391.01.782,0,1.173-.021.593-.317.919-.811.919s-.779-.313-.784-.925c-.007-1.031,0-2.062,0-3.093v-.639c-.819-.068-1.82.185-2.215-.7a10.567,10.567,0,0,1-.466-2.4c-1.082-.375-1.37-.788-1.371-2.085,0-1-.006-1.991,0-2.986A1.646,1.646,0,0,1,6.244,5.86c.353,0,.706,0,1.146,0-.139-.827-.262-1.6-.4-2.379a1.9,1.9,0,0,1,1.87-2.306c.441-.008.882,0,1.315,0,.139-.889.395-1.208.908-1.17.485.036.716.363.775,1.17.409,0,.826,0,1.242,0a1.89,1.89,0,0,1,1.958,2.27c-.114.735-.242,1.469-.362,2.2a1.692,1.692,0,0,0,0,.214c.433,0,.856-.009,1.278,0a1.638,1.638,0,0,1,1.622,1.632c.014,1.1.006,2.2,0,3.306a1.725,1.725,0,0,1-1.5,1.94c0,.425,0,.866,0,1.307A1.6,1.6,0,0,1,14.34,15.8c-.244,0-.488,0-.763,0ZM2.662,43.015a3.919,3.919,0,0,0,.818-.466q3.057-3.089,6.086-6.2a3.692,3.692,0,0,1,2.768-1.15c1.4.006,2.808,0,4.213,0,.142,0,.285-.024.482-.042a4.442,4.442,0,0,0-3.73-2.919,48.18,48.18,0,0,0-6.229-.06A4.472,4.472,0,0,0,2.716,36.24a20.779,20.779,0,0,0-.052,2.768c-.006,1.277,0,2.554,0,4.007M6.081,11.07h9.878V7.5H6.081Zm6.931-5.21c.16-.9.316-1.774.465-2.644.056-.33-.125-.447-.428-.446q-2.022,0-4.043,0c-.373,0-.5.166-.43.54.141.729.24,1.467.4,2.191a.551.551,0,0,0,.392.343c1.187.027,2.374.016,3.645.016m-5.427,8.3h6.876V12.75H7.585Z" transform="translate(0 0)" fill="#ffe8b5"/>
    <path id="Path_245854" data-name="Path 245854" d="M115.342,73.823a6.557,6.557,0,0,0-3.61.142q-2.459.854-4.916,1.715a.841.841,0,0,1-1.088-.264.77.77,0,0,1,.334-1.161c2.074-.715,4.138-1.475,6.25-2.062a6.86,6.86,0,0,1,4.531.451c.751.316,1.5.65,2.234.994a2.462,2.462,0,0,1-.383,4.7c-3.048.871-6.1,1.72-9.152,2.58-.166.047-.329.106-.5.162.06.292.137.549.163.811a1.606,1.606,0,0,1-1.149,1.664c-1.134.348-2.275.677-3.422.979a1.623,1.623,0,0,1-2.092-1.209c-.037-.117-.082-.231-.142-.4-.911.258-1.83.451-2.7.778a21.6,21.6,0,0,1-7.821.939c-1.262,0-2.523.013-3.786.014a1.994,1.994,0,0,1-.7-3.9c.313-.117.63-.223,1.019-.36-.113-.2-.2-.358-.3-.513-.865-1.385-1.735-2.766-2.6-4.153-.524-.844-.286-1.45.666-1.728.255-.074.512-.142.766-.219a2.9,2.9,0,0,1,2.963.655c1.269,1.139,2.574,2.24,3.831,3.392a1.108,1.108,0,0,0,1.306.272c2.311-.846,4.642-1.638,6.969-2.442a1.606,1.606,0,0,1,.664-.135.742.742,0,0,1,.682.71.783.783,0,0,1-.589.846q-1.5.532-3.007,1.057L88.127,82.2c-.067.023-.157.029-.2.076-.122.147-.224.309-.334.465.158.107.317.308.474.307,2.737-.016,5.476.006,8.208-.126a13.839,13.839,0,0,0,2.874-.737c.854-.235,1.708-.467,2.552-.735a.819.819,0,0,0,.465-.4,1.715,1.715,0,0,1,1.165-1.075c1.088-.316,2.177-.628,3.265-.945a1.743,1.743,0,0,1,1.694.342.588.588,0,0,0,.459.1c3.173-.883,6.341-1.786,9.514-2.67a.889.889,0,0,0,.763-.833.923.923,0,0,0-.639-.889,1.313,1.313,0,0,0-1.062-.1c-.656.215-1.326.384-1.993.565-.62.168-1.044-.008-1.177-.475-.147-.515.105-.871.75-1.068.112-.034.219-.085.433-.17M92.6,78.941c-1.327-1.163-2.58-2.254-3.823-3.356a1.3,1.3,0,0,0-1.569-.165l2.77,4.434,2.622-.913m11.521,4.073,3.5-1-.435-1.487-3.487,1,.425,1.484" transform="translate(-67.032 -56.61)" fill="#ffe8b5"/>
    <path id="Path_245855" data-name="Path 245855" d="M56.33,190.779c-.142,0-.284.009-.425,0a.793.793,0,0,1-.054-1.581,4.234,4.234,0,0,1,.8-.009.818.818,0,0,1,.855.827.8.8,0,0,1-.853.767c-.106,0-.213,0-.319,0Z" transform="translate(-43.357 -148.763)" fill="#ffe8b5"/>
    <path id="Path_245856" data-name="Path 245856" d="M70.512,179.142c-.794,0-1.143-.232-1.164-.774s.292-.793.932-.828c1.133-.062,1.366.23,1.409.783s-.373.82-1.176.819" transform="translate(-54.533 -139.608)" fill="#ffe8b5"/>
    <path id="Path_245857" data-name="Path 245857" d="M41.036,190.807c-.867,0-1.246-.289-1.178-.9.061-.544.458-.735,1.444-.7a.831.831,0,0,1,.9.776c.021.54-.379.821-1.17.821" transform="translate(-31.338 -148.787)" fill="#ffe8b5"/>
    <path id="Path_245858" data-name="Path 245858" d="M70.476,190.8c-.75,0-1.074-.2-1.133-.682a.8.8,0,0,1,.853-.916c1.032-.052,1.506.209,1.492.822-.013.538-.384.776-1.212.776" transform="translate(-54.525 -148.781)" fill="#ffe8b5"/>
    <path id="Path_245859" data-name="Path 245859" d="M84.594,190.81h-.213c-.612-.007-.986-.313-.982-.8s.379-.789.993-.8c.177,0,.355-.008.532,0a.8.8,0,1,1-.01,1.594c-.106,0-.212,0-.319,0" transform="translate(-65.583 -148.791)" fill="#ffe8b5"/>
    <path id="Path_245860" data-name="Path 245860" d="M98.85,190.779c-.142,0-.284.009-.425,0a.744.744,0,0,1-.755-.738.772.772,0,0,1,.7-.844,4.692,4.692,0,0,1,.9,0,.819.819,0,0,1,.748.822.8.8,0,0,1-.8.763c-.123.008-.248,0-.372,0" transform="translate(-76.803 -148.762)" fill="#ffe8b5"/>
    <path id="Path_245861" data-name="Path 245861" d="M114.552,190.769c-.142,0-.285.01-.425,0a.753.753,0,0,1-.755-.744.74.74,0,0,1,.664-.827,3.7,3.7,0,0,1,.954-.011.794.794,0,0,1-.065,1.584c-.123.008-.248,0-.372,0" transform="translate(-89.152 -148.751)" fill="#ffe8b5"/>
    <path id="Path_245862" data-name="Path 245862" d="M56.456,179.15c-.253-.063-.581-.051-.74-.208a1.067,1.067,0,0,1-.331-.8,1.055,1.055,0,0,1,.611-.6,2.212,2.212,0,0,1,.892-.032.787.787,0,0,1,.8.752.819.819,0,0,1-.747.821,3.314,3.314,0,0,1-.476,0l-.012.063" transform="translate(-43.548 -139.568)" fill="#ffe8b5"/>
    <path id="Path_245863" data-name="Path 245863" d="M98.813,177.631c.812-.017,1.206.233,1.218.756.012.541-.425.837-1.238.825a2.253,2.253,0,0,1-.575-.067.709.709,0,0,1-.54-.8.7.7,0,0,1,.659-.707,3.854,3.854,0,0,1,.477,0" transform="translate(-76.81 -139.681)" fill="#ffe8b5"/>
    <path id="Path_245864" data-name="Path 245864" d="M84.586,177.582c.859,0,1.208.253,1.17.85-.036.553-.405.767-1.293.749-.655-.013-1.045-.3-1.06-.793-.016-.527.394-.806,1.183-.806" transform="translate(-65.586 -139.648)" fill="#ffe8b5"/>
    <path id="Path_245865" data-name="Path 245865" d="M166.405,100.676a.774.774,0,0,1-.751.8.8.8,0,0,1-.837-.78.842.842,0,0,1,.822-.811.8.8,0,0,1,.767.794" transform="translate(-129.609 -78.546)" fill="#ffe8b5"/>
    <path id="Path_245866" data-name="Path 245866" d="M189.451,93.932a.8.8,0,0,1-.791-.768.77.77,0,0,1,.777-.822.8.8,0,0,1,.809.753.844.844,0,0,1-.795.838" transform="translate(-148.359 -72.616)" fill="#ffe8b5"/>
    <path id="Path_245867" data-name="Path 245867" d="M177.515,96.171a.79.79,0,0,1,.806.8.8.8,0,0,1-1.593-.035.784.784,0,0,1,.787-.765" transform="translate(-138.976 -75.627)" fill="#ffe8b5"/>
    <path id="Path_245868" data-name="Path 245868" d="M153.8,103.8a.749.749,0,0,1,.8.788.812.812,0,0,1-.762.8.823.823,0,0,1-.808-.813.758.758,0,0,1,.769-.774" transform="translate(-120.338 -81.628)" fill="#ffe8b5"/>
    <path id="Path_245869" data-name="Path 245869" d="M142.788,108.337a.8.8,0,0,1-.848.759.74.74,0,0,1-.734-.8.78.78,0,0,1,.773-.78.839.839,0,0,1,.81.819" transform="translate(-111.041 -84.55)" fill="#ffe8b5"/>
    <path id="Path_245870" data-name="Path 245870" d="M201.289,90.033a.755.755,0,0,1-.755-.835.806.806,0,0,1,.8-.753.82.82,0,0,1,.762.8.764.764,0,0,1-.81.786" transform="translate(-157.695 -69.552)" fill="#ffe8b5"/>
    <path id="Path_245871" data-name="Path 245871" d="M60.964,40.562a.8.8,0,0,1,.882-.725.75.75,0,0,1,.7.828.776.776,0,0,1-.86.737.834.834,0,0,1-.727-.841" transform="translate(-47.94 -31.325)" fill="#ffe8b5"/>
    <path id="Path_245872" data-name="Path 245872" d="M36.407,40.609a.811.811,0,0,1-.823.793.776.776,0,0,1-.751-.8.743.743,0,0,1,.807-.778.775.775,0,0,1,.767.782" transform="translate(-27.392 -31.319)" fill="#ffe8b5"/>
    <path id="Path_245873" data-name="Path 245873" d="M48.247,40.555a.783.783,0,0,1,1.563.11.783.783,0,1,1-1.563-.11" transform="translate(-37.939 -31.322)" fill="#ffe8b5"/>
  </g>
</svg>
