<svg id="Group_137022" data-name="Group 137022" xmlns="http://www.w3.org/2000/svg" xmlns:xlink="http://www.w3.org/1999/xlink" width="40.901" height="40.904" viewBox="0 0 40.901 40.904">
  <defs>
    <clipPath id="clip-path">
      <rect id="Rectangle_85800" data-name="Rectangle 85800" width="40.901" height="40.904" fill="#ffe8b5"/>
    </clipPath>
  </defs>
  <g id="Group_137021" data-name="Group 137021" clip-path="url(#clip-path)">
    <path id="Path_245874" data-name="Path 245874" d="M38.421,146.545v-1.987c-.135-.008-.263-.021-.39-.021q-16.071,0-32.143,0a2.167,2.167,0,0,0-2.236,1.821,2.2,2.2,0,0,0,2.076,2.578c.146.006.293,0,.44,0H34.059v1.2H5.95a3.4,3.4,0,0,1-.382-6.794c.213-.008.426-.006.64-.006H39.693v-1.2H15.207v-1.2H35.856v-1.212H8.641a2.213,2.213,0,0,1-2.364-1.92,2.186,2.186,0,0,1,1.862-2.461c.54-.048,1.088-.008,1.659-.008v1.19c-.446,0-.882,0-1.318,0a.992.992,0,0,0-1.026.913,1.018,1.018,0,0,0,.876,1.067,2.7,2.7,0,0,0,.439.018h25.8v-1.98H11.057v-1.217H35.852v-1.184H27.53v-1.2h9.523v3.559H35.827v2.005H37.07v2.4H40.9v3.6H39.666v4.4H40.9v3.614h-.411q-17.351,0-34.7,0a5.8,5.8,0,0,1-.9-11.526c.131-.02.26-.053.44-.09-.157-.174-.306-.318-.431-.48a4.42,4.42,0,0,1-.643-4.763,4.25,4.25,0,0,1,4.028-2.727c5.916-.043,11.833-.018,17.75-.019.076,0,.152.011.246.019v1.18h-.518c-5.717,0-11.434.018-17.151-.011a3.487,3.487,0,0,0-3.415,2.434,3.408,3.408,0,0,0,3.279,4.377c1.679.016,3.358,0,5.037,0h.45v1.2H13.5q-3.778,0-7.556,0A4.6,4.6,0,0,0,5,151.257a7.6,7.6,0,0,0,1.072.08q16.571.006,33.142,0h.472v-1.187H35.325V148.94h3.093V147.75H11.844v-1.205Z" transform="translate(0 -111.633)" fill="#ffe8b5"/>
    <path id="Path_245875" data-name="Path 245875" d="M55.018,5.381,52.163,4.42l.378-1.138,6.175,2.06c0,.027,0,.055.007.082-.557.187-1.111.387-1.674.555a.365.365,0,0,0-.3.423q.014,2.719,0,5.439a.376.376,0,0,0,.252.422,2.067,2.067,0,0,1,1.332,1.882c.051,1.023.012,2.05.012,3.11h-4.4v-.674c0-.76,0-1.52,0-2.28a2.165,2.165,0,0,1,1.325-2.055.516.516,0,0,0,.263-.359c.017-1.733.011-3.466.01-5.2a1.678,1.678,0,0,0-.027-.189c-1.012.334-2,.661-2.995.99-.58.192-.58.193-.58.817,0,3-.011,6,.013,9a.772.772,0,0,1-.494.8,13.445,13.445,0,0,1-3.951,1.2,31.828,31.828,0,0,1-8.243.23,18.518,18.518,0,0,1-5.116-1.154,1.412,1.412,0,0,1-1.068-1.567c.074-2.878.021-5.758.035-8.638a.547.547,0,0,0-.449-.644c-2.047-.657-4.082-1.354-6.121-2.037L26.281,5.4c.187-.076.3-.127.411-.165Q34.453,2.641,42.216.057a.905.905,0,0,1,.528-.029Q46.927,1.4,51.1,2.806c.086.029.168.069.285.118L51.014,4.04c-1.429-.475-2.824-.938-4.219-1.4-1.31-.437-2.618-.882-3.931-1.31a.913.913,0,0,0-.53-.027Q36.339,3.281,30.351,5.287c-.06.02-.119.043-.244.089.144.067.228.118.319.148Q36.36,7.5,42.3,9.472a.771.771,0,0,0,.453.008q5.994-1.986,11.983-3.99c.059-.02.116-.044.285-.109m-20.7,2.708v.478c0,2.705.008,5.411-.009,8.116a.573.573,0,0,0,.441.632,17.856,17.856,0,0,0,5.891,1.1c1.647.048,3.3.017,4.947-.084a15.224,15.224,0,0,0,4.659-1c.567-.223.584-.261.435-.933H48.154V15.2H48.6c.613,0,1.226.009,1.838-.01.1,0,.282-.123.291-.2a9.425,9.425,0,0,0,.014-1H49.277V12.8c.38,0,.739-.018,1.094.005.3.02.386-.092.383-.387-.014-1.332-.005-2.665-.008-4a3.072,3.072,0,0,0-.035-.318l-.409.134c-2.478.826-4.956,1.656-7.437,2.472a1.036,1.036,0,0,1-.6.014c-1.641-.534-3.274-1.09-4.91-1.637-.991-.331-1.983-.656-3.032-1M57.1,16.067c0-.714.049-1.381-.016-2.037a.88.88,0,0,0-.986-.738.9.9,0,0,0-.912.743c-.047.669-.012,1.344-.012,2.032Z" transform="translate(-22.071 0)" fill="#ffe8b5"/>
    <rect id="Rectangle_85797" data-name="Rectangle 85797" width="1.15" height="1.148" transform="translate(7.043 34.936)" fill="#ffe8b5"/>
    <rect id="Rectangle_85798" data-name="Rectangle 85798" width="1.158" height="1.15" transform="translate(9.447 34.925)" fill="#ffe8b5"/>
    <rect id="Rectangle_85799" data-name="Rectangle 85799" width="1.163" height="1.136" transform="translate(23.673 15.24)" fill="#ffe8b5"/>
  </g>
</svg>
