<svg id="Group_137037" data-name="Group 137037" xmlns="http://www.w3.org/2000/svg" xmlns:xlink="http://www.w3.org/1999/xlink" width="28.389" height="40.533" viewBox="0 0 28.389 40.533">
  <defs>
    <clipPath id="clip-path">
      <rect id="Rectangle_85804" data-name="Rectangle 85804" width="28.389" height="40.533" fill="#ffe8b5"/>
    </clipPath>
  </defs>
  <g id="Group_137030" data-name="Group 137030" clip-path="url(#clip-path)">
    <path id="Path_245915" data-name="Path 245915" d="M22.765,31.131c.5,1.246.976,2.414,1.452,3.581q.956,2.346,1.916,4.69c.027.066.055.131.079.2.155.421.04.754-.306.889-.325.127-.624-.028-.8-.431-.249-.588-.5-1.176-.724-1.773a.413.413,0,0,0-.455-.323q-9.736.012-19.473,0A.412.412,0,0,0,4,38.284c-.218.585-.463,1.16-.7,1.736-.181.432-.482.6-.816.469-.357-.14-.468-.477-.286-.926Q3.8,35.6,5.418,31.636c.058-.142.112-.286.181-.463-.567-.04-1.1-.042-1.624-.12a4.591,4.591,0,0,1-3.96-4.535q-.029-10.144,0-20.288A4.638,4.638,0,0,1,3.783,1.682C5.917,1.216,8.054.754,10.2.362A22.233,22.233,0,0,1,18.016.33c2.277.393,4.536.9,6.789,1.418a4.572,4.572,0,0,1,3.57,4.483q.024,10.122,0,20.245a4.655,4.655,0,0,1-4.722,4.657c-.269,0-.539,0-.888,0M1.2,16.4c0,3.345-.01,6.691,0,10.036a3.463,3.463,0,0,0,3.493,3.5q9.5.014,19,0a3.454,3.454,0,0,0,3.482-3.465q.02-10.078,0-20.157a3.465,3.465,0,0,0-2.84-3.458c-1.664-.359-3.327-.724-4.993-1.076a23.305,23.305,0,0,0-9.066-.216C8.263,1.929,6.263,2.423,4.24,2.8A3.7,3.7,0,0,0,1.182,6.619c.067,3.259.018,6.519.019,9.779M4.636,36.747H23.753c-.361-.889-.719-1.736-1.045-2.6a.5.5,0,0,0-.56-.368c-2.945.011-5.89.007-8.835.007-2.362,0-4.724,0-7.086.008-.156,0-.4.07-.451.177-.4.906-.758,1.828-1.14,2.772M22.052,32.58c-.163-.406-.327-.779-.461-1.164a.386.386,0,0,0-.442-.289c-1.024.013-2.049.005-3.074.005q-5.379,0-10.758.007c-.156,0-.4.064-.453.173-.206.4-.351.825-.53,1.267Z" transform="translate(0 0)" fill="#ffe8b5"/>
    <path id="Path_245916" data-name="Path 245916" d="M29.106,45.671H18.9c-.75,0-.908-.153-.908-.885q0-4.186,0-8.372c0-.675.155-.833.821-.834q10.293,0,20.585,0c.665,0,.823.161.823.832q0,4.207,0,8.415c0,.675-.175.844-.864.844H29.106M39,36.813H19.21v7.642H39Z" transform="translate(-14.911 -29.491)" fill="#ffe8b5"/>
    <path id="Path_245917" data-name="Path 245917" d="M111.834,120.937a3.325,3.325,0,1,1-3.18-3.4,3.326,3.326,0,0,1,3.18,3.4m-3.311-2.205a2.136,2.136,0,1,0,2.114,2.159,2.129,2.129,0,0,0-2.114-2.159" transform="translate(-87.184 -97.423)" fill="#ffe8b5"/>
    <path id="Path_245918" data-name="Path 245918" d="M28.462,120.941a3.325,3.325,0,1,1-3.173-3.4,3.324,3.324,0,0,1,3.173,3.4m-5.446-.071a2.125,2.125,0,1,0,2.086-2.14,2.134,2.134,0,0,0-2.086,2.14" transform="translate(-18.079 -97.422)" fill="#ffe8b5"/>
    <path id="Path_245919" data-name="Path 245919" d="M63.5,18.18q1.62,0,3.241,0c.49,0,.773.219.776.591s-.281.6-.766.6q-3.241,0-6.482,0c-.492,0-.772-.217-.776-.592s.279-.6.766-.6q1.62,0,3.241,0" transform="translate(-49.316 -15.068)" fill="#ffe8b5"/>
  </g>
</svg>
