<svg xmlns="http://www.w3.org/2000/svg" width="43.815" height="40.356" viewBox="0 0 43.815 40.356">
  <g id="Group_137023" data-name="Group 137023" transform="translate(0 0.001)">
    <path id="Path_245876" data-name="Path 245876" d="M17.82,32.874h8.171v6.115H17.82ZM4.12,21.923H9.551V39H4.12Zm30.16,0h5.431V39H34.28ZM10.98,6.157h5.442v4.738H27.376V6.165h5.472V39H27.405V31.515H16.451v7.47H10.98Zm6.845-4.788H26V9.54H17.825ZM16.42,0V4.772H9.561V20.536H2.718V39.042H0v1.314H43.815V39.009H41.077V20.5H34.233V4.739H27.375V0Z" fill="#ffe8b5"/>
    <path id="Path_245877" data-name="Path 245877" d="M87.974,83.786H93.4v5.425H87.974Zm1.369,4.056h2.688V85.153H89.343Z" transform="translate(-72.881 -69.412)" fill="#ffe8b5"/>
    <path id="Path_245878" data-name="Path 245878" d="M135.835,83.852h5.433v5.425h-5.433Zm4.074,1.37h-2.7v2.686h2.7Z" transform="translate(-112.531 -69.467)" fill="#ffe8b5"/>
    <path id="Path_245879" data-name="Path 245879" d="M93.42,137.2H87.994V131.77H93.42Zm-1.381-4.066H89.354v2.7h2.684Z" transform="translate(-72.897 -109.164)" fill="#ffe8b5"/>
    <path id="Path_245880" data-name="Path 245880" d="M135.769,131.794h5.441v5.418h-5.441Zm1.392,4.055h2.686v-2.7h-2.686Z" transform="translate(-112.476 -109.184)" fill="#ffe8b5"/>
    <path id="Path_245881" data-name="Path 245881" d="M113.911,15.9h1.359v2.031h2.048v1.359h-2.032v2.048h-1.359V19.311h-2.048V17.953h2.032Z" transform="translate(-92.685 -13.177)" fill="#ffe8b5"/>
  </g>
</svg>
