<svg id="Group_137025" data-name="Group 137025" xmlns="http://www.w3.org/2000/svg" xmlns:xlink="http://www.w3.org/1999/xlink" width="40.084" height="40.149" viewBox="0 0 40.084 40.149">
  <defs>
    <clipPath id="clip-path">
      <rect id="Rectangle_85801" data-name="Rectangle 85801" width="40.084" height="40.149" fill="#ffe8b5"/>
    </clipPath>
  </defs>
  <g id="Group_137024" data-name="Group 137024" clip-path="url(#clip-path)">
    <path id="Path_245882" data-name="Path 245882" d="M6.506,8c.066-.435.112-.811.181-1.182A1.414,1.414,0,0,1,8.064,5.651q4.762-.01,9.524,0A1.438,1.438,0,0,1,19,6.927c.048.348.1.7.153,1.073.462,0,.906.018,1.347,0a3.8,3.8,0,0,1,3.939,3.932c-.053,4.351-.015,8.7-.015,13.055,0,1.372-.05,2.746.012,4.116a3.9,3.9,0,0,1-2.722,4.081l2.74,4.249.074-.022c.007-.123.019-.246.019-.369,0-1.516,0-3.032,0-4.548,0-.607.187-.792.8-.8.509,0,1.019-.008,1.529,0,.459.009.705.24.691.62s-.232.547-.7.553c-.362,0-.725,0-1.113,0V38.95H38.888V32.871H29.682c-.131,0-.262,0-.392-.007a.517.517,0,0,1-.519-.49.524.524,0,0,1,.4-.627,1.894,1.894,0,0,1,.5-.05q4.351,0,8.7,0h.5V4.644H34.872V8.385c.2.014.383.018.561.04a1.953,1.953,0,0,1,1.855,1.886,19.567,19.567,0,0,1-.021,2.739,1.915,1.915,0,0,1-1.928,1.758q-3.214.031-6.428,0a1.949,1.949,0,0,1-1.932-1.887c-.039-.808-.031-1.62-.014-2.43a2.012,2.012,0,0,1,2.04-2.08c.116-.006.233,0,.38,0V4.623c-.562,0-1.131.006-1.7,0a2.3,2.3,0,0,1-2.219-1.711,2.292,2.292,0,0,1,2.178-2.9Q33.5-.009,39.364,0c.531,0,.719.211.719.787q0,9.37,0,18.739,0,9.879,0,19.759c0,.69-.165.857-.847.857H20.854c-.58,0-.7-.084-.9-.611-.142-.376-.193-.891-.468-1.084s-.777-.073-1.179-.073c-3.92,0-7.839,0-11.759-.008-.321,0-.5.071-.583.406a8.634,8.634,0,0,1-.313.883.671.671,0,0,1-.709.491c-1.424-.009-2.848.01-4.272-.018A.853.853,0,0,1,.045,39.8a.787.787,0,0,1,.08-.67c1.184-1.875,2.393-3.735,3.594-5.6.07-.109.139-.219.224-.352-.095-.04-.174-.077-.256-.108a3.713,3.713,0,0,1-2.462-3.528q-.031-5.684.006-11.369a1,1,0,0,1,.321-.652.563.563,0,0,1,.559.019,1.074,1.074,0,0,1,.271.675c.019,2.378.011,4.757.011,7.135,0,1.333,0,2.666,0,4a2.592,2.592,0,0,0,2.766,2.772c1.1,0,2.192,0,3.32,0C8.591,31.5,8.7,30.9,8.8,30.3a1.681,1.681,0,0,1,1.724-1.449q2.293-.007,4.586,0a1.706,1.706,0,0,1,1.759,1.508c.083.488.149.98.253,1.463.024.113.169.286.261.287,1.162.014,2.329.062,3.486-.019a2.459,2.459,0,0,0,2.368-2.61q.011-5.194,0-10.389c0-2.391-.039-4.784.014-7.174a2.677,2.677,0,0,0-2.779-2.761c-5.1.039-10.191.015-15.286.015a2.587,2.587,0,0,0-2.8,2.81c0,1.2,0,2.4,0,3.607,0,.425-.206.643-.566.648a.568.568,0,0,1-.6-.628c0-1.463-.038-2.93.066-4.386A3.641,3.641,0,0,1,4.811,8c.559-.01,1.119,0,1.7,0m25.606,5.64c1.005,0,2.011,0,3.016,0a.884.884,0,0,0,1.009-.973q.021-1.058,0-2.116a.865.865,0,0,0-.945-.962q-3.056-.017-6.111,0a.854.854,0,0,0-.941.955q-.017,1.058,0,2.116a.873.873,0,0,0,1,.98c.992,0,1.985,0,2.977,0m6.77-10.193V1.176H28.246c-.2,0-.392-.007-.587,0a1.1,1.1,0,0,0-1.084,1.149,1.132,1.132,0,0,0,1.276,1.12q5.344,0,10.689,0ZM18.225,34.785c-.156-.431-.283-.839-.455-1.227a.485.485,0,0,0-.354-.245q-4.579-.02-9.159-.007c-.1,0-.277.029-.3.093-.188.446-.346.9-.524,1.386ZM6.564,37.171H19.092c-.1-.294-.208-.545-.278-.806a.467.467,0,0,0-.548-.394c-2.324.018-4.647.009-6.971.009-1.331,0-2.663,0-3.995.008a.472.472,0,0,0-.362.18,10.126,10.126,0,0,0-.373,1m-4.925,1.8c.94,0,1.822-.008,2.7.006a.366.366,0,0,0,.416-.3c.482-1.36.982-2.714,1.475-4.07l.477-1.31c-.386,0-.712.02-1.034-.006a.6.6,0,0,0-.627.337C4,35.294,2.923,36.942,1.858,38.6c-.067.1-.125.215-.218.376m17.3-5.668c.69,1.889,1.347,3.693,2.013,5.495a.3.3,0,0,0,.213.165c.933.011,1.867.007,2.8.007,0-.059.009-.089,0-.106q-1.731-2.694-3.469-5.384a.405.405,0,0,0-.272-.17c-.4-.019-.8-.008-1.28-.008M9.688,32.1h6.283c-.105-.592-.174-1.161-.324-1.707a.642.642,0,0,0-.49-.346c-1.551-.027-3.1-.017-4.655-.014a.488.488,0,0,0-.524.428c-.1.534-.19,1.07-.29,1.639M17.938,7.981c-.023-.225-.055-.429-.063-.635-.017-.411-.212-.544-.627-.534-1.162.028-2.325.01-3.487.01-1.816,0-3.631,0-5.447,0-.241,0-.454.015-.5.31-.04.278-.071.558-.108.853ZM33.656,4.655H30.621V8.381h3.035Z" transform="translate(0 0)" fill="#ffe8b5"/>
    <path id="Path_245883" data-name="Path 245883" d="M23.9,91.231c-.809,0-1.618,0-2.427,0a2.124,2.124,0,0,1-2.243-2.2q-.029-2.33,0-4.66A2.076,2.076,0,0,1,21.4,82.2q2.506-.026,5.012,0a2.029,2.029,0,0,1,2.148,2.06q.065,2.445,0,4.894a2.073,2.073,0,0,1-2.191,2.072c-.822.007-1.644,0-2.467,0m.021-7.857c-.81,0-1.62-.005-2.43,0a.956.956,0,0,0-1.088,1.08q-.012,2.254,0,4.507a.972.972,0,0,0,1.09,1.09q2.41.007,4.82,0A.955.955,0,0,0,27.393,89q.02-2.293,0-4.586a.923.923,0,0,0-1.044-1.037c-.81-.009-1.62,0-2.43,0" transform="translate(-16.196 -69.282)" fill="#ffe8b5"/>
    <path id="Path_245884" data-name="Path 245884" d="M89.206,82.218c.809,0,1.619-.007,2.428,0A2.079,2.079,0,0,1,93.87,84.47q.005,2.272,0,4.543a2.109,2.109,0,0,1-2.228,2.235q-2.428.009-4.856,0a2.136,2.136,0,0,1-2.25-2.267q0-2.272,0-4.543A2.094,2.094,0,0,1,86.7,82.221c.835-.016,1.671,0,2.506,0m.016,1.176c-.823,0-1.646-.008-2.469,0a.938.938,0,0,0-1.04,1.045q-.008,2.273,0,4.547a.976.976,0,0,0,1.094,1.085q2.41.007,4.82,0a.953.953,0,0,0,1.067-1.06q.006-2.274,0-4.547c0-.742-.326-1.064-1.082-1.07-.8-.007-1.594,0-2.391,0" transform="translate(-71.258 -69.301)" fill="#ffe8b5"/>
    <path id="Path_245885" data-name="Path 245885" d="M61.747,64.4c-.7,0-1.408,0-2.113,0a1.488,1.488,0,1,1,.005-2.97q2.113-.006,4.225,0a1.491,1.491,0,1,1-.005,2.97c-.7,0-1.409,0-2.113,0m.005-1.8q-1.037,0-2.074,0c-.224,0-.447.028-.448.309s.22.313.445.312q2.074,0,4.147,0c.241,0,.483-.034.471-.329-.01-.265-.242-.3-.468-.294-.691,0-1.383,0-2.074,0" transform="translate(-48.93 -51.78)" fill="#ffe8b5"/>
    <path id="Path_245886" data-name="Path 245886" d="M115.807,160.56a2.392,2.392,0,1,1,.023-4.784,2.392,2.392,0,0,1-.023,4.784m0-1.175a1.217,1.217,0,1,0,0-2.434,1.217,1.217,0,0,0,0,2.434" transform="translate(-95.61 -131.311)" fill="#ffe8b5"/>
    <path id="Path_245887" data-name="Path 245887" d="M19.567,158.161a2.371,2.371,0,0,1,2.383-2.385,2.392,2.392,0,1,1-.015,4.784,2.369,2.369,0,0,1-2.368-2.4m2.384-1.21a1.217,1.217,0,0,0,.006,2.434,1.217,1.217,0,1,0-.006-2.434" transform="translate(-16.494 -131.311)" fill="#ffe8b5"/>
    <path id="Path_245888" data-name="Path 245888" d="M59.023,150.971q-1.744,0-3.487,0c-.466,0-.729-.208-.738-.572s.27-.6.751-.6q3.467,0,6.934,0c.494,0,.753.209.75.6s-.26.578-.763.579q-1.724,0-3.447,0" transform="translate(-46.192 -126.271)" fill="#ffe8b5"/>
    <path id="Path_245889" data-name="Path 245889" d="M59.006,162.009c-1.162,0-2.324,0-3.486,0-.467,0-.723-.215-.719-.584,0-.353.286-.588.733-.589q3.486-.005,6.972,0c.489,0,.743.228.729.621-.013.371-.251.551-.743.552q-1.743,0-3.486,0" transform="translate(-46.194 -135.574)" fill="#ffe8b5"/>
    <path id="Path_245890" data-name="Path 245890" d="M128.387,62.888a1.4,1.4,0,0,1-1.4,1.379A1.407,1.407,0,1,1,127,61.453a1.4,1.4,0,0,1,1.388,1.436m-1.086-.015c-.14-.11-.226-.227-.3-.22a.209.209,0,0,0-.011.417c.072.012.165-.1.31-.2" transform="translate(-105.859 -51.802)" fill="#ffe8b5"/>
    <path id="Path_245891" data-name="Path 245891" d="M22.689,62.874A1.393,1.393,0,0,1,21.3,64.266a1.408,1.408,0,1,1,1.385-1.392m-1.083-.022c-.152-.1-.237-.2-.321-.2-.065,0-.19.136-.18.192a.32.32,0,0,0,.193.225c.069.012.161-.107.308-.216" transform="translate(-16.773 -51.8)" fill="#ffe8b5"/>
  </g>
</svg>
