<svg id="Group_137036" data-name="Group 137036" xmlns="http://www.w3.org/2000/svg" xmlns:xlink="http://www.w3.org/1999/xlink" width="38.461" height="40.365" viewBox="0 0 38.461 40.365">
  <defs>
    <clipPath id="clip-path">
      <rect id="Rectangle_85803" data-name="Rectangle 85803" width="38.461" height="40.365" fill="#ffe8b5"/>
    </clipPath>
  </defs>
  <g id="Group_137028" data-name="Group 137028" clip-path="url(#clip-path)">
    <path id="Path_245903" data-name="Path 245903" d="M31.177,39.172c.732,0,1.4.035,2.062-.011a1.318,1.318,0,0,0,1.095-.8,29.726,29.726,0,0,0,2.551-7.365,17.858,17.858,0,0,0,.334-4.658,10.967,10.967,0,0,0-5-8.75,20.567,20.567,0,0,0-5.465-2.451,24.308,24.308,0,0,1-6.049-2.69,7.342,7.342,0,0,1-2.021-1.853A3.566,3.566,0,0,1,18.1,7.415a3.005,3.005,0,0,0-.31,3.02,5.968,5.968,0,0,0,2.134,2.32,25.1,25.1,0,0,0,6.237,2.937A16.247,16.247,0,0,1,32.919,19.8a10.034,10.034,0,0,1,2.62,5.691c.007.052.007.1.009.157.014.423-.168.67-.515.7-.368.033-.618-.2-.664-.614a8.941,8.941,0,0,0-.847-2.969,10.4,10.4,0,0,0-4.048-4.242,24.2,24.2,0,0,0-4.624-2.051,21.232,21.232,0,0,1-6.255-3.237,6.306,6.306,0,0,1-1.908-2.369,4.193,4.193,0,0,1,.21-3.786,10.507,10.507,0,0,1,3.352-3.6c1.115-.8,2.292-1.519,3.459-2.285a6.293,6.293,0,0,0-2.892.314,43.346,43.346,0,0,0-9.279,5.807,12.89,12.89,0,0,0-2.58,2.853A4.5,4.5,0,0,0,9.9,16.584c.939.791,2,1.435,3,2.153a11.556,11.556,0,0,1,2.711,2.613,6.988,6.988,0,0,1,.581,7.442,16.713,16.713,0,0,1-3.3,4.622A40.362,40.362,0,0,1,6.32,38.792a1.751,1.751,0,0,0-.448.389H18.489a2.621,2.621,0,0,1,.354.005.565.565,0,0,1,.543.569.581.581,0,0,1-.549.6,2.671,2.671,0,0,1-.276,0H1.458a1.243,1.243,0,0,1-1.4-.947,1.3,1.3,0,0,1,.679-1.559A57.486,57.486,0,0,0,7.61,33.061a19,19,0,0,0,4.354-4.783,6.647,6.647,0,0,0,.887-2.337,4.633,4.633,0,0,0-1.232-3.876,10.777,10.777,0,0,0-2.574-2.119,11.711,11.711,0,0,1-3.066-2.563,5.124,5.124,0,0,1-.63-5.881A12.407,12.407,0,0,1,8.626,7.617a32.108,32.108,0,0,1,4.89-3.363q3.21-1.829,6.432-3.638A5.009,5.009,0,0,1,22.517,0c1.313.017,2.627,0,3.941.005a.892.892,0,0,1,.967.635.933.933,0,0,1-.549,1.132c-1.535.877-3.086,1.729-4.588,2.661a8.776,8.776,0,0,0-2.454,2.253,2.6,2.6,0,0,0,.26,3.745,9.9,9.9,0,0,0,3.429,2.186c1.821.729,3.681,1.36,5.52,2.044a15.4,15.4,0,0,1,6.413,4.207,11.911,11.911,0,0,1,2.851,6.364,21.036,21.036,0,0,1-1.462,10.249c-.411,1.117-.9,2.209-1.4,3.287a2.6,2.6,0,0,1-2.536,1.6c-3.691-.009-7.383,0-11.074,0a1.8,1.8,0,0,1-.354-.009.587.587,0,0,1,.007-1.163,2.066,2.066,0,0,1,.354-.008c2.522,0,5.044,0,7.567-.009a.619.619,0,0,0,.452-.2A27.4,27.4,0,0,0,34,30.211c.123-.495.2-1,.293-1.5.018-.09.034-.181.057-.27a.563.563,0,0,1,.653-.48.546.546,0,0,1,.486.682c-.266,1.213-.492,2.442-.865,3.622a27.861,27.861,0,0,1-3.2,6.51c-.07.11-.138.221-.25.4M7.268,10.7l-.031-.026c-.238.375-.5.738-.71,1.127a4.027,4.027,0,0,0,.433,4.927A10.937,10.937,0,0,0,9.761,19a11.607,11.607,0,0,1,2.822,2.37,5.774,5.774,0,0,1,1.459,4.54,8.306,8.306,0,0,1-1.548,3.737,24.34,24.34,0,0,1-5.959,5.737c-1.648,1.188-3.371,2.27-5.058,3.4a2.968,2.968,0,0,0-.318.285l.07.105c.734,0,1.468.006,2.2-.006a.7.7,0,0,0,.316-.134,45.646,45.646,0,0,0,7.524-5.62,16,16,0,0,0,3.888-5.147,6.034,6.034,0,0,0-.9-6.7,12.682,12.682,0,0,0-3.2-2.652A11.822,11.822,0,0,1,8.4,16.783a5.294,5.294,0,0,1-1.536-4.414c.081-.563.265-1.111.4-1.666" transform="translate(0 0)" fill="#ffe8b5"/>
    <path id="Path_245904" data-name="Path 245904" d="M106.927,107.346c-.009.5-.4.8-.763.648a5.913,5.913,0,0,1-1.034-.546.517.517,0,0,1-.142-.76.522.522,0,0,1,.706-.238,7.038,7.038,0,0,1,.962.514,1.156,1.156,0,0,1,.272.381" transform="translate(-88.325 -89.598)" fill="#ffe8b5"/>
    <path id="Path_245905" data-name="Path 245905" d="M129.434,117.911a3,3,0,0,1,1.39.886.647.647,0,0,1-.071.623.748.748,0,0,1-.649.161,2.817,2.817,0,0,1-.961-.589.8.8,0,0,1-.153-.658c.037-.165.286-.282.445-.423" transform="translate(-108.615 -99.298)" fill="#ffe8b5"/>
    <path id="Path_245906" data-name="Path 245906" d="M74.306,68.879c.024.4-.14.649-.463.7a.579.579,0,0,1-.693-.529,4.955,4.955,0,0,1-.093-.934.6.6,0,0,1,.583-.659c.335-.008.562.24.593.639.02.261.048.521.073.781" transform="translate(-61.525 -56.809)" fill="#ffe8b5"/>
    <path id="Path_245907" data-name="Path 245907" d="M151.232,136.332c-.065.077-.17.31-.339.373a.694.694,0,0,1-.6-.077,3.861,3.861,0,0,1-.726-.964.643.643,0,0,1,.08-.6.823.823,0,0,1,.62-.177,2.173,2.173,0,0,1,.97,1.44" transform="translate(-125.919 -113.593)" fill="#ffe8b5"/>
    <path id="Path_245908" data-name="Path 245908" d="M159.622,159.518c0-.183-.013-.367,0-.548a.54.54,0,0,1,.54-.522.5.5,0,0,1,.575.422,6.254,6.254,0,0,1-.012,1.322c-.032.275-.285.391-.563.381a.5.5,0,0,1-.529-.431,3.907,3.907,0,0,1-.006-.623h-.008" transform="translate(-134.42 -133.434)" fill="#ffe8b5"/>
    <path id="Path_245909" data-name="Path 245909" d="M81.375,43.755c.124.094.345.184.421.342a.712.712,0,0,1-.006.58,5.273,5.273,0,0,1-.679.858.548.548,0,0,1-.718.087.468.468,0,0,1-.239-.635,10.027,10.027,0,0,1,.921-1.138c.042-.049.144-.048.3-.095" transform="translate(-67.455 -36.848)" fill="#ffe8b5"/>
    <path id="Path_245910" data-name="Path 245910" d="M137.062,206.756a2.257,2.257,0,0,1-.2.414c-.215.263-.439.522-.678.762a.577.577,0,0,1-.814.024.561.561,0,0,1-.062-.784,3.9,3.9,0,0,1,.711-.78.789.789,0,0,1,.638-.091c.17.058.277.3.407.455" transform="translate(-113.836 -173.709)" fill="#ffe8b5"/>
    <path id="Path_245911" data-name="Path 245911" d="M152.046,183.987a.592.592,0,0,1,.631.786,6.021,6.021,0,0,1-.529,1,.532.532,0,0,1-.7.189.489.489,0,0,1-.326-.634,7.532,7.532,0,0,1,.613-1.171c.063-.1.239-.138.307-.174" transform="translate(-127.242 -154.944)" fill="#ffe8b5"/>
    <path id="Path_245912" data-name="Path 245912" d="M85.945,92.1c-.082.108-.172.337-.328.4a.751.751,0,0,1-.613-.03,3.092,3.092,0,0,1-.815-.779.828.828,0,0,1-.007-.675.435.435,0,0,1,.634-.209,9.821,9.821,0,0,1,1.058.97c.047.045.036.149.072.321" transform="translate(-70.835 -76.415)" fill="#ffe8b5"/>
    <path id="Path_245913" data-name="Path 245913" d="M101.054,29.945c0,.337-.625.857-1,.839a.633.633,0,0,1-.571-.6c0-.358.595-.836,1.018-.823a.548.548,0,0,1,.555.583" transform="translate(-83.778 -24.727)" fill="#ffe8b5"/>
    <path id="Path_245914" data-name="Path 245914" d="M119.03,224.644a.579.579,0,0,1,.559.694,1.225,1.225,0,0,1-1,.75.566.566,0,0,1-.515-.689,1.256,1.256,0,0,1,.96-.755" transform="translate(-99.421 -189.183)" fill="#ffe8b5"/>
  </g>
</svg>
