<svg xmlns="http://www.w3.org/2000/svg" width="43.645" height="40.2" viewBox="0 0 43.645 40.2">
  <g id="Group_137038" data-name="Group 137038" transform="translate(0 0.001)">
    <path id="Path_245897" data-name="Path 245897" d="M17.751,32.746H25.89v6.091H17.751ZM4.1,21.838h5.41v17.01H4.1Zm30.043,0h5.41v17.01h-5.41Zm-23.21-15.7h5.421v4.719H27.27V6.141h5.45V38.848H27.3V31.392H16.388v7.441H10.937Zm6.818-4.769h8.139V9.5H17.755ZM16.356,0V4.753H9.524v15.7H2.708V38.89H0V40.2H43.645V38.858H40.917V20.425H34.1V4.721H27.268V0Z" transform="translate(0 0)" fill="#ffe8b5"/>
    <path id="Path_245898" data-name="Path 245898" d="M87.974,83.786h5.4v5.4h-5.4Zm1.364,4.04h2.677V85.147H89.338Z" transform="translate(-72.939 -69.468)" fill="#ffe8b5"/>
    <path id="Path_245899" data-name="Path 245899" d="M135.835,83.852h5.412v5.4h-5.412Zm4.059,1.364H137.2v2.675h2.694Z" transform="translate(-112.621 -69.523)" fill="#ffe8b5"/>
    <path id="Path_245900" data-name="Path 245900" d="M93.4,137.175h-5.4v-5.4h5.4Zm-1.376-4.051H89.348v2.694h2.674Z" transform="translate(-72.956 -109.252)" fill="#ffe8b5"/>
    <path id="Path_245901" data-name="Path 245901" d="M135.769,131.794h5.42v5.4h-5.42Zm1.387,4.04h2.675V133.14h-2.675Z" transform="translate(-112.566 -109.272)" fill="#ffe8b5"/>
    <path id="Path_245902" data-name="Path 245902" d="M113.9,15.9h1.353v2.023h2.04v1.354h-2.024v2.04h-1.354V19.3h-2.04V17.945H113.9Z" transform="translate(-92.759 -13.188)" fill="#ffe8b5"/>
  </g>
</svg>
