<svg xmlns="http://www.w3.org/2000/svg" xmlns:xlink="http://www.w3.org/1999/xlink" width="49.641" height="40.214" viewBox="0 0 49.641 40.214">
  <defs>
    <clipPath id="clip-path">
      <rect id="Rectangle_85802" data-name="Rectangle 85802" width="49.641" height="40.214" fill="#ffe8b5"/>
    </clipPath>
  </defs>
  <g id="Group_137026" data-name="Group 137026" clip-path="url(#clip-path)">
    <path id="Path_245892" data-name="Path 245892" d="M41.05,8.51a3.216,3.216,0,0,1,.525.908c.081.408-.28.607-.65.718v1.9h.529q2.179,0,4.358,0a1.32,1.32,0,0,1,1.481,1.447q.005,5.931,0,11.863c0,.568-.271.9-.714.905s-.729-.347-.736-.9c-.01-.791-.01-1.581-.016-2.372,0-.014-.014-.027-.038-.071H22.022V36.023h4.893v-.585q0-4.939,0-9.878c0-1.107.305-1.413,1.4-1.413H39.552c1.024,0,1.355.333,1.355,1.364q0,4.939,0,9.878v.62h4.936v-.516q0-3.2,0-6.391c0-.428.122-.776.578-.885.5-.119.873.229.874.809q.007,3.123,0,6.246v.748c.147.013.254.029.362.031a1.816,1.816,0,0,1,1.764,1.128,2.141,2.141,0,0,1-.241,2.283,2.048,2.048,0,0,1-1.751.753q-6.173-.007-12.347,0-4.116,0-8.231,0a1.936,1.936,0,0,1-.525-.049A.661.661,0,0,1,25.8,39.4a.668.668,0,0,1,.675-.634c.161-.01.323,0,.484,0H47.345c.648,0,.925-.241.8-.769-.047-.19-.309-.338-.493-.477-.062-.047-.188-.009-.285-.009H2.284c-.65,0-.85.183-.806.718A.531.531,0,0,0,2,38.752a3.742,3.742,0,0,0,.435.006H22.578c.145,0,.291,0,.436,0,.5.01.815.269.835.68.022.438-.3.74-.811.771-.064,0-.129,0-.194,0q-10.338,0-20.675,0A2.063,2.063,0,0,1,.122,37.4,1.9,1.9,0,0,1,1.93,36.053c.354-.007.708,0,1.117,0,.012-.241.031-.458.031-.676q0-10.531,0-21.063a2.381,2.381,0,0,1,1.928-2.73q.57-.2,1.141-.392Q22.386,5.667,38.625.153a2.514,2.514,0,0,1,1.167-.13A1.328,1.328,0,0,1,40.9,1.4c.011,1.275.008,2.55,0,3.825a.491.491,0,0,0,.315.556.678.678,0,0,1,.009,1.234c-.323.142-.329.332-.323.6.008.322,0,.644,0,.967l.143-.071M6.808,36.022v-.617q0-6.173,0-12.346a1.465,1.465,0,0,1,1.645-1.632c2.679,0,5.359.034,8.037-.017a1.606,1.606,0,0,1,1.776,1.765c-.04,4.1-.016,8.2-.016,12.3v.54h2.28v-.659q0-10.87,0-21.739c0-1.125.46-1.576,1.585-1.576h17.31V10.1h-.546c-1.6,0-3.2.014-4.793-.014a1.106,1.106,0,0,1-.743-.315.724.724,0,0,1-.05-.7,1.09,1.09,0,0,1,.741-.407c1.629-.036,3.26-.018,4.89-.018h.5V7.126h-.543q-2.4,0-4.793,0c-.359,0-.68-.059-.838-.435-.227-.538.149-1.011.832-1.016,1.356-.01,2.711,0,4.067,0h1.264V1.432c-.149.046-.256.076-.361.112Q22.3,7.24,5.535,12.939c-.953.324-1,.4-1,1.426q0,10.507,0,21.013v.645Zm15.22-14.629H45.8V13.5H22.029ZM34.672,36.013h4.752V25.621H34.672ZM33.132,25.63h-4.72V36.036h4.72ZM8.276,25.049h8.489v-2.14H8.276Zm0,7.3h8.49V30.2H8.275Zm.007,3.663h8.481V33.863H8.282Zm0-7.329h8.471V26.559H8.286Z" transform="translate(0 0)" fill="#ffe8b5"/>
    <path id="Path_245893" data-name="Path 245893" d="M134.309,78.1c.3-.52.563-.983.839-1.436a.873.873,0,0,1,1.055-.451c.424.138.4.493.4.835q0,2.008,0,4.016c0,.491-.168.675-.6.676s-.588-.163-.59-.678a17.8,17.8,0,0,0-.11-2.355c-.163.275-.325.551-.49.826-.37.616-.685.616-1.029,0a3.409,3.409,0,0,0-.59-.834c0,.8,0,1.593,0,2.39,0,.51-.352.789-.815.608a.671.671,0,0,1-.375-.468c-.029-1.467-.034-2.935,0-4.4a.828.828,0,0,1,.421-.6.716.716,0,0,1,.929.3c.282.45.541.914.811,1.371.031.052.07.1.144.2" transform="translate(-106.369 -61.385)" fill="#ffe8b5"/>
    <path id="Path_245894" data-name="Path 245894" d="M161.182,80.456h-.849c-.74,0-.75,0-.944.71-.106.39-.317.53-.71.412s-.569-.326-.438-.75c.438-1.409.876-2.819,1.294-4.234a.759.759,0,0,1,.823-.584.779.779,0,0,1,.866.6c.42,1.415.84,2.83,1.293,4.234.15.466-.088.617-.44.734-.389.13-.615-.018-.7-.415-.047-.219-.118-.432-.193-.7m-1.345-.975h1.077l-.485-1.792-.1-.012-.5,1.8" transform="translate(-127.502 -61.261)" fill="#ffe8b5"/>
    <path id="Path_245895" data-name="Path 245895" d="M203.52,80.764c.54,0,1.02.015,1.5,0,.392-.016.574.163.573.536s-.191.538-.581.526c-.676-.021-1.353,0-2.029-.008-.533-.006-.662-.135-.663-.654,0-1.434.011-2.868-.008-4.3-.006-.458.223-.6.615-.608s.608.17.6.616c-.02,1.271-.007,2.543-.007,3.9" transform="translate(-163.054 -61.455)" fill="#ffe8b5"/>
    <path id="Path_245896" data-name="Path 245896" d="M184.312,80.769c.555,0,1.038.01,1.52,0,.374-.011.531.165.532.522s-.129.544-.515.537c-.71-.013-1.42-.006-2.13,0-.416,0-.606-.177-.6-.618q.026-2.178,0-4.356c-.006-.429.186-.591.569-.59s.64.117.633.589c-.02,1.287-.007,2.575-.007,3.923" transform="translate(-147.585 -61.46)" fill="#ffe8b5"/>
  </g>
</svg>
