<svg xmlns="http://www.w3.org/2000/svg" xmlns:xlink="http://www.w3.org/1999/xlink" width="516.6190185546875" height="263.77301025390625" viewBox="0 0 516.619 263.773">
  <defs>
    <clipPath id="clip-path">
      <rect id="Rectangle_71420" data-name="Rectangle 71420" width="516.619" height="263.773" fill="none" class="svg-elem-1"></rect>
    </clipPath>
    <clipPath id="clip-path-3">
      <rect id="Rectangle_71418" data-name="Rectangle 71418" width="486.103" height="50.317" fill="none" class="svg-elem-2"></rect>
    </clipPath>
    <clipPath id="clip-path-4">
      <path id="Path_88579" data-name="Path 88579" d="M489.08,70.107c0,13.9-108.82,25.157-243.052,25.157S2.975,84,2.975,70.107s108.82-25.162,243.052-25.162S489.08,56.21,489.08,70.107" transform="translate(-2.975 -44.945)" fill="none" class="svg-elem-3"></path>
    </clipPath>
    <radialGradient id="radial-gradient" cx="0.5" cy="0.5" r="4.83" gradientUnits="objectBoundingBox">
      <stop offset="0" stop-color="#a7a9ac"></stop>
      <stop offset="0.158" stop-color="#c1c2c4"></stop>
      <stop offset="0.362" stop-color="#dcddde"></stop>
      <stop offset="0.569" stop-color="#efeff0"></stop>
      <stop offset="0.78" stop-color="#fbfbfb"></stop>
      <stop offset="1" stop-color="#fff"></stop>
    </radialGradient>
    <linearGradient id="banner">
      <stop offset="0" stop-color="#000">
        <animate dur="5s" attributeName="offset" fill="freeze" from="0" to="1"></animate>
      </stop>
      <stop offset="0" stop-color="transparent">
        <animate dur="5s" attributeName="offset" fill="freeze" from="0" to="1"></animate>
      </stop>
    </linearGradient>
  </defs>
  <g id="Group_117235" data-name="Group 117235" style="mix-blend-mode: multiply;isolation: isolate">
    <g id="Group_117234" data-name="Group 117234" clip-path="url(#clip-path)">
      <g id="Group_117233" data-name="Group 117233" transform="translate(0 0)">
        <g id="Group_117232" data-name="Group 117232" clip-path="url(#clip-path)">
          <path id="Path_88522" class="note1 svg-elem-4" data-name="Path 88522" d="M81.031,89.24c-1.876-6.345-8.6-10.154-13.4-14.139-1.961-1.629-1.961-1.5-1.073-3.79a21.743,21.743,0,0,0,1.173-4.255,16.937,16.937,0,0,0-.6-8.164c-3.847-11.317-18.6-15.369-26.867-6.354-1.938-1.624-3.909-3.2-5.865-4.792-.8-.655-3.258-1.952-3.12-3.158a40.253,40.253,0,0,0-.152-10.444,31.819,31.819,0,0,0-11.84-20.887c-3.168-2.408-6.8-4.949-10.662-6.074C4.854,6.09,4.151,9.538,4.184,12.62c.1,8.3,5.333,16.223,10.98,21.9,1.833,1.847,7.361,4.835,7,7.537-.522,3.923-1,7.87-1.164,11.826-.29,7.328.418,15.05,4.953,21.1,9.446,12.609,29,13.906,38.521.622,5.034,4.037,13.592,8.61,14.5,15.668A10.216,10.216,0,0,1,76.3,99.213c-1.567,1.79-5.319,4.65-7.708,2.645a6.481,6.481,0,0,0-3.068-11.9c-6.241-.589-8.857,6.616-5.9,11.374,6.991,11.232,24.663-1.05,21.4-12.1M22.8,37.321a.708.708,0,0,1-.209.594A28.663,28.663,0,0,1,12.6,25.305c-1.183-2.949-3.082-10.852,1.966-11.588,4.137-.6,6.711,5.561,7.646,8.629A32.7,32.7,0,0,1,22.8,37.321M62.02,75.039A20.126,20.126,0,0,1,45.479,82.79C31.345,82,28.149,66.443,29.592,55.021c.309-2.455.769-4.892,1.23-7.323,1.7,1.344,3.353,2.74,5.015,4.122,1.263,1.05,3.362,1.8,2.56,3.472a16.368,16.368,0,0,0-1.449,8.891A12.82,12.82,0,0,0,48.333,75.5c.722.081,7.841-.119,6.483-1.909-.56-.736-5.338.2-6.544-.2-5.737-1.938-6.5-9.66-3.372-14.077q4.695,3.9,9.423,7.8,2.622,2.173,5.234,4.341c1.282,1.073,3.681,1.985,2.465,3.586M64.034,72.1q-8.727-7.2-17.472-14.371c-.613-.674,5.6-2.679,6.321-2.736a11.5,11.5,0,0,1,7.48,2.128c4.745,3.4,5.96,9.783,3.671,14.979" transform="translate(15.682 26.153)" fill="url(#banner)"></path>
          <path id="Path_88523" data-name="Path 88523" d="M95.845,21.363l1.021-.128c.195,1.553.394,3.106.589,4.664.579-.147,1.069-.342,1.639-.489.1.836.209,1.681.318,2.527-.556.161-1.092.337-1.638.5Q98,30.213,98.224,32c.513-.109,1.116-.37,1.643-.475.1.86.214,1.724.323,2.588-.541.171-1.078.347-1.634.508.195,1.558.394,3.12.589,4.678-.347.033-.746.119-1.064.119-.185-1.491-.375-2.983-.56-4.479-.779.237-1.544.475-2.3.722.2,1.624.413,3.244.617,4.863a7.315,7.315,0,0,1-1.069.142c-.195-1.563-.389-3.116-.589-4.669-.546.152-1.116.37-1.634.494q-.164-1.3-.328-2.588c.541-.171,1.083-.351,1.634-.513-.147-1.192-.3-2.379-.451-3.571-.57.152-1.059.347-1.634.494-.109-.841-.214-1.676-.323-2.512.527-.19,1.107-.342,1.639-.522-.209-1.624-.413-3.244-.617-4.868a7.242,7.242,0,0,1,1.064-.138c.2,1.558.394,3.116.594,4.669.769-.237,1.534-.48,2.289-.717-.2-1.6-.408-3.206-.608-4.806,0-.029.009-.043.038-.052m-1.4,8.116c.147,1.183.294,2.37.451,3.557.784-.223,1.506-.48,2.289-.7-.128-1.035-.266-2.137-.394-3.149-.024-.161,0-.323-.095-.418-.75.237-1.525.465-2.251.712" transform="translate(342.858 79.615)" fill-rule="evenodd" class="svg-elem-5" fill="url(#banner)"></path>
          <path id="Path_88524" data-name="Path 88524" d="M87.678,29.033a2.22,2.22,0,0,1,.18-.484,2.9,2.9,0,0,1,.489-.309A9.014,9.014,0,0,0,91.249,25a9.814,9.814,0,0,0,.879-4.018A32.925,32.925,0,0,0,91.943,17a4.92,4.92,0,0,1,.465-2.85l.551-.594-.546-.513L77.325,29.337c-.161-1.468-1.634-2.921-3.714-3.5-2.5-.7-4.915.119-5.4,1.833s1.154,3.685,3.652,4.384c2.218.627,4.369.052,5.162-1.287l8.558-9.237c.294,1.13.613,2.175.912,3.286.451,1.681.921,3.548-.157,5.3a8.74,8.74,0,0,1-4.526,3.552c-.2.066-.38.081-.332.209.157.394.717.1.945.019a9.5,9.5,0,0,0,2.8-1.544,7.807,7.807,0,0,0,2.455-3.32m.413-1.335c-.1.014,0-.176.01-.266a22.909,22.909,0,0,0-.066-5.067,8.057,8.057,0,0,1,.955-4.521l.765-.822a16.905,16.905,0,0,1,.907,5.248A6.663,6.663,0,0,1,88.091,27.7" transform="translate(255.408 48.916)" class="svg-elem-6" fill="url(#banner)"></path>
          <path id="Path_88525" data-name="Path 88525" d="M27.071,21.565a2.882,2.882,0,0,1,.228.722,4.115,4.115,0,0,1-.3.788,13.277,13.277,0,0,0-.484,6.369,14.388,14.388,0,0,0,2.56,5.466,47.948,47.948,0,0,0,3.771,4.474,7.2,7.2,0,0,1,1.995,3.738l-.109,1.187,1.088.1,3.044-32.437c1.5,1.558,4.517,1.933,7.461.765,3.538-1.411,5.623-4.526,4.654-6.958s-4.626-3.263-8.164-1.852c-3.139,1.249-5.134,3.837-4.868,6.108l-1.729,18.4c-1.349-1.045-2.65-1.99-3.989-3.011-2.033-1.558-4.241-3.31-4.555-6.326a12.851,12.851,0,0,1,2.1-8.178c.171-.256.37-.432.2-.541-.532-.318-.926.527-1.116.826a14,14,0,0,0-1.89,4.308,11.5,11.5,0,0,0,.1,6.055m.708,1.919c.119-.114.166.2.233.313a33.508,33.508,0,0,0,4.6,5.851,11.764,11.764,0,0,1,2.916,6.117L35.382,37.4a25.056,25.056,0,0,1-5.747-5.3,9.815,9.815,0,0,1-1.857-8.625" transform="translate(98.675 12.14)" class="svg-elem-7" fill="url(#banner)"></path>
          <path id="Path_88526" data-name="Path 88526" d="M87.611,23.3l-10,16.675.361.218,9.631-16.062a2.707,2.707,0,0,0,2.474,1.51c1.472.1,2.726-.641,2.788-1.648s-1.064-1.914-2.541-2.014a2.589,2.589,0,0,0-2.717,1.32" transform="translate(290.994 82.364)" class="svg-elem-8" fill="url(#banner)"></path>
          <path id="Path_88527" data-name="Path 88527" d="M84.063,21.547l-10,16.679.366.218,9.631-16.067a2.694,2.694,0,0,0,2.479,1.51c1.468.1,2.717-.641,2.783-1.648s-1.069-1.914-2.541-2.009a2.587,2.587,0,0,0-2.717,1.316" transform="translate(277.673 75.817)" class="svg-elem-9" fill="url(#banner)"></path>
          <path id="Path_88528" data-name="Path 88528" d="M82.409,24.006,76.415,34l.37.214,5.618-9.38a2.717,2.717,0,0,0,2.484,1.51c1.463.1,2.717-.641,2.783-1.648s-1.064-1.914-2.541-2.014a2.59,2.59,0,0,0-2.721,1.32" transform="translate(286.499 85.018)" class="svg-elem-10" fill="url(#banner)"></path>
          <path id="Path_88529" data-name="Path 88529" d="M79.974,23.7l-4.849,8.083.366.218,4.479-7.471a2.707,2.707,0,0,0,2.474,1.51c1.472.1,2.721-.641,2.788-1.653s-1.069-1.914-2.541-2.009a2.583,2.583,0,0,0-2.717,1.32" transform="translate(281.662 83.882)" class="svg-elem-11" fill="url(#banner)"></path>
          <rect id="Rectangle_71404" data-name="Rectangle 71404" width="1.394" height="18.861" transform="translate(351.995 114.233) rotate(-63.964)" class="svg-elem-12" fill="url(#banner)"></rect>
          <rect id="Rectangle_71405" data-name="Rectangle 71405" width="1.394" height="7.067" transform="translate(364.115 117.094) rotate(-64.83)" class="svg-elem-13" fill="url(#banner)"></rect>
          <rect id="Rectangle_71406" data-name="Rectangle 71406" width="0.56" height="7.784" transform="matrix(0.345, -0.938, 0.938, 0.345, 377.05, 104.67)" class="svg-elem-14" fill="url(#banner)"></rect>
          <path id="Path_88530" data-name="Path 88530" d="M54.428,32.1l-.7,33.036,1.007.019L55.4,33.819c1.477,1.335,4.279,1.477,6.905.2,3.158-1.529,4.868-4.536,3.814-6.706s-4.469-2.688-7.627-1.154c-2.8,1.354-4.46,3.866-4.065,5.937" transform="translate(201.447 94.786)" class="svg-elem-15" fill="url(#banner)"></path>
          <rect id="Rectangle_71407" data-name="Rectangle 71407" width="18.539" height="1.327" transform="matrix(0.986, -0.165, 0.165, 0.986, 252.762, 130.256)" class="svg-elem-16" fill="url(#banner)"></rect>
          <rect id="Rectangle_71408" data-name="Rectangle 71408" width="18.537" height="1.327" transform="translate(252.644 135.84) rotate(-9.513)" class="svg-elem-17" fill="url(#banner)"></rect>
          <path id="Path_88531" data-name="Path 88531" d="M59.948,52.473,29.833,25.725l-.817.926L57.583,52.017c-2.4.318-4.754,2.8-5.642,6.25-1.078,4.141.361,8.1,3.21,8.834s6.027-2.018,7.1-6.165c.95-3.671-.076-7.2-2.3-8.463" transform="translate(108.788 96.449)" class="svg-elem-18" fill="url(#banner)"></path>
          <path id="Path_88532" data-name="Path 88532" d="M32.652,49.4l11.6-19.386,1.392.826L34.034,50.232Z" transform="translate(122.419 112.533)" class="svg-elem-19" fill="url(#banner)"></path>
          <rect id="Rectangle_71409" data-name="Rectangle 71409" width="22.597" height="1.617" transform="translate(149.981 157.412) rotate(-59.106)" class="svg-elem-20" fill="url(#banner)"></rect>
          <path id="Path_88533" data-name="Path 88533" d="M53.551,56.979,43.734,22.856l-1.088.313,9.294,32.295c-2.018-.94-5.063-.157-7.452,2.071-2.864,2.693-3.695,6.468-1.847,8.439s5.675,1.392,8.539-1.3c2.546-2.379,3.481-5.614,2.37-7.694" transform="translate(156.186 85.693)" class="svg-elem-21" fill="url(#banner)"></path>
          <path id="Path_88534" data-name="Path 88534" d="M118.615,20.943,104.1,6.311l-.361.356L117.656,20.7a3.231,3.231,0,0,0-2.484,2.427c-.556,1.676-.062,3.343,1.088,3.719s2.536-.67,3.082-2.351c.489-1.487.161-2.968-.727-3.548" transform="translate(388.932 23.661)" class="svg-elem-22" fill="url(#banner)"></path>
          <path id="Path_88535" data-name="Path 88535" d="M114.878,14.371l-9.261-9.337-.361.356,8.658,8.729a3.249,3.249,0,0,0-2.489,2.427c-.546,1.681-.057,3.343,1.1,3.719s2.531-.67,3.082-2.351c.489-1.487.162-2.968-.727-3.543" transform="translate(394.631 18.874)" class="svg-elem-23" fill="url(#banner)"></path>
          <path id="Path_88536" data-name="Path 88536" d="M117,13.307,106.694,2.92l-.361.361,9.7,9.774a3.25,3.25,0,0,0-2.489,2.427c-.551,1.676-.057,3.343,1.092,3.723s2.536-.674,3.082-2.356c.489-1.487.161-2.964-.727-3.543" transform="translate(398.669 10.948)" class="svg-elem-24" fill="url(#banner)"></path>
          <path id="Path_88537" data-name="Path 88537" d="M105.534,20.887,103.6,18.925,116.733,2.892l1.781,1.871Z" transform="translate(388.428 10.842)" class="svg-elem-25" fill="url(#banner)"></path>
          <path id="Path_88538" data-name="Path 88538" d="M62.118,60.743,46.55,18.161l-1.05.385L60.427,59.361c-2.056-.784-5.006.195-7.2,2.56-2.641,2.85-3.191,6.63-1.235,8.439s5.685.978,8.325-1.866c2.341-2.527,3.035-5.785,1.8-7.751" transform="translate(170.591 68.09)" class="svg-elem-26" fill="url(#banner)"></path>
          <path id="Path_88539" data-name="Path 88539" d="M61.818,42.6,51.883,15.431l-1.05.385,9.294,25.4c-2.061-.784-5.006.195-7.2,2.56-2.641,2.85-3.191,6.63-1.235,8.439s5.68.978,8.325-1.866c2.337-2.527,3.035-5.785,1.8-7.751" transform="translate(189.417 57.855)" class="svg-elem-27" fill="url(#banner)"></path>
          <path id="Path_88540" data-name="Path 88540" d="M47.46,34.849,45.4,29.16l25.1-14.172,1.833,5.381Z" transform="translate(170.212 56.193)" class="svg-elem-28" fill="url(#banner)"></path>
          <path id="Path_88541" data-name="Path 88541" d="M93.787,40,87.209,19.128l-.513.166L93,39.289a3.452,3.452,0,0,0-3.524,1.083c-1.339,1.311-1.686,3.12-.779,4.042s2.717.6,4.051-.722c1.183-1.168,1.591-2.721,1.035-3.695" transform="translate(325.045 71.716)" class="svg-elem-29" fill="url(#banner)"></path>
          <path id="Path_88542" data-name="Path 88542" d="M94.614,31.235l-4.2-13.312-.513.161,3.928,12.448a3.439,3.439,0,0,0-3.524,1.078c-1.339,1.311-1.686,3.125-.779,4.042s2.717.594,4.051-.722c1.183-1.164,1.591-2.721,1.035-3.695" transform="translate(333.768 67.198)" class="svg-elem-30" fill="url(#banner)"></path>
          <path id="Path_88543" data-name="Path 88543" d="M87.527,26.782l-.874-2.788,12.41-6.288.769,2.636Z" transform="translate(324.883 66.385)" class="svg-elem-31" fill="url(#banner)"></path>
          <path id="Path_88544" data-name="Path 88544" d="M45.194,40.247l10.482,37.41.917-.261L46.548,41.534c1.71.807,4.289.171,6.321-1.71,2.441-2.256,3.168-5.447,1.615-7.129s-4.792-1.211-7.238,1.045c-2.166,2-2.978,4.74-2.052,6.506" transform="translate(168.028 118.81)" class="svg-elem-32" fill="url(#banner)"></path>
          <path id="Path_88545" data-name="Path 88545" d="M41.375,44.635,48.062,68.5l.926-.256-6.26-22.317c1.71.807,4.289.171,6.321-1.71,2.441-2.256,3.168-5.447,1.615-7.129s-4.792-1.211-7.233,1.045c-2.17,2-2.983,4.74-2.056,6.506" transform="translate(153.71 135.257)" class="svg-elem-33" fill="url(#banner)"></path>
          <path id="Path_88546" data-name="Path 88546" d="M64.656,40.452l1.387,5L43.66,55.892l-1.211-4.716Z" transform="translate(159.151 151.665)" class="svg-elem-34" fill="url(#banner)"></path>
          <path id="Path_88547" data-name="Path 88547" d="M64.16,38.927l1.387,5L43.164,54.371l-1.211-4.721Z" transform="translate(157.291 145.946)" class="svg-elem-35" fill="url(#banner)"></path>
          <path id="Path_88548" data-name="Path 88548" d="M104.863,18.066l19.581,14.025.309-.427L105.889,18.157a3.36,3.36,0,0,0,2.118-2.907c.271-1.8-.518-3.419-1.757-3.6s-2.474,1.13-2.74,2.935c-.242,1.6.351,3.049,1.354,3.486" transform="translate(387.881 43.593)" class="svg-elem-36" fill="url(#banner)"></path>
          <path id="Path_88549" data-name="Path 88549" d="M102.217,22.077,121.8,36.1l.3-.427L103.243,22.168a3.349,3.349,0,0,0,2.113-2.907c.275-1.809-.513-3.424-1.757-3.609s-2.47,1.13-2.736,2.94c-.242,1.6.351,3.049,1.354,3.486" transform="translate(377.96 58.617)" class="svg-elem-37" fill="url(#banner)"></path>
          <path id="Path_88550" data-name="Path 88550" d="M105.445,20.512l11.735,8.406.3-.427L106.471,20.6a3.341,3.341,0,0,0,2.113-2.9c.275-1.809-.513-3.424-1.757-3.609s-2.465,1.13-2.736,2.935c-.242,1.6.351,3.049,1.354,3.491" transform="translate(390.063 52.749)" class="svg-elem-38" fill="url(#banner)"></path>
          <path id="Path_88551" data-name="Path 88551" d="M104.8,22.331l9.494,6.8.309-.427-8.777-6.278a3.362,3.362,0,0,0,2.113-2.911c.275-1.8-.513-3.415-1.757-3.6s-2.47,1.13-2.736,2.935c-.242,1.6.351,3.049,1.354,3.491" transform="translate(387.63 59.565)" class="svg-elem-39" fill="url(#banner)"></path>
          <path id="Path_88552" data-name="Path 88552" d="M116.653,15.527l2.251,1.624L107.093,37.326l-2.08-1.567Z" transform="translate(393.719 58.216)" class="svg-elem-40" fill="url(#banner)"></path>
          <path id="Path_88553" data-name="Path 88553" d="M115.956,15.041l2.251,1.624L106.4,36.845l-2.08-1.567Z" transform="translate(391.105 56.392)" class="svg-elem-41" fill="url(#banner)"></path>
          <path id="Path_88554" data-name="Path 88554" d="M72.461,24.69,65.8,61.255l1.073.195,6.336-34.755c1.349,1.676,4.317,2.313,7.342,1.406,3.643-1.1,5.979-4.013,5.229-6.511s-4.317-3.643-7.955-2.546c-3.225.974-5.428,3.367-5.362,5.647" transform="translate(246.693 69.834)" class="svg-elem-42" fill="url(#banner)"></path>
          <path id="Path_88555" data-name="Path 88555" d="M77.515,20.042c.332,1.054-1.605,2.6-4.327,3.462s-5.205.7-5.533-.351,1.605-2.607,4.327-3.462,5.2-.7,5.533.351" transform="translate(253.518 71.737)" fill="#fff" class="svg-elem-43"></path>
          <path id="Path_88556" data-name="Path 88556" d="M102.741,38.006,97.213,17.195l-.508.142L102,37.28a3.378,3.378,0,0,0-3.514.9c-1.373,1.235-1.8,3-.95,3.942s2.645.708,4.018-.527c1.216-1.092,1.686-2.6,1.187-3.586" transform="translate(362.571 64.468)" class="svg-elem-44"></path>
          <path id="Path_88557" data-name="Path 88557" d="M104.532,29.4,101,16.124l-.513.133,3.3,12.415a3.391,3.391,0,0,0-3.514.9c-1.373,1.235-1.8,3-.95,3.937s2.645.712,4.018-.522c1.216-1.1,1.686-2.607,1.187-3.59" transform="translate(370.768 60.453)" class="svg-elem-45"></path>
          <path id="Path_88558" data-name="Path 88558" d="M97.4,24.306l-.731-2.783,12.481-5.614.632,2.617Z" transform="translate(362.433 59.649)" class="svg-elem-46"></path>
          <path id="Path_88559" data-name="Path 88559" d="M94.642,27.293l5.314,20,.589-.157L95.5,28.129a3.893,3.893,0,0,0,4.027-1.035c1.572-1.415,2.061-3.443,1.092-4.521s-3.04-.812-4.612.6c-1.4,1.254-1.933,2.987-1.363,4.118" transform="translate(353.996 82.139)" class="svg-elem-47"></path>
          <path id="Path_88560" data-name="Path 88560" d="M99.033,22.287c.418.456-.19,1.691-1.358,2.774s-2.455,1.586-2.873,1.13.19-1.686,1.363-2.769,2.451-1.586,2.869-1.135" transform="translate(354.939 82.942)" fill="#fff" class="svg-elem-48"></path>
          <path id="Path_88561" data-name="Path 88561" d="M108.379,22.13a11.783,11.783,0,0,0-1.7-.788,9.694,9.694,0,0,0-5.922-.266,10.039,10.039,0,0,0-4.536,2.831,10.227,10.227,0,0,0-1.767,2.641,11.231,11.231,0,0,1,6.535-4.626,12.106,12.106,0,0,1,5.6-.266,9.467,9.467,0,0,1,1.771.527c.209.081.613.29.617.285s-.394-.228-.6-.337" transform="translate(354.132 77.737)" class="svg-elem-49"></path>
          <path id="Path_88562" data-name="Path 88562" d="M35.812,20.079,58.466,39.632l.6-.693L37.574,20.392c1.781-.256,3.5-2.132,4.127-4.7.755-3.087-.351-6.008-2.479-6.53s-4.455,1.567-5.205,4.659c-.67,2.736.128,5.343,1.8,6.26" transform="translate(126.65 34.053)" class="svg-elem-50"></path>
          <path id="Path_88563" data-name="Path 88563" d="M33.694,31.16,49.081,44.444l.6-.7L35.456,31.474c1.786-.256,3.5-2.132,4.127-4.7.75-3.082-.356-6.008-2.479-6.525s-4.455,1.563-5.21,4.654c-.67,2.74.128,5.348,1.8,6.26" transform="translate(118.691 75.612)" class="svg-elem-51"></path>
          <path id="Path_88564" data-name="Path 88564" d="M29.129,30.329l31.73,27.389.6-.693L30.891,30.638c1.781-.256,3.5-2.132,4.127-4.7.755-3.087-.356-6.017-2.479-6.53s-4.455,1.563-5.205,4.654c-.674,2.74.123,5.348,1.8,6.264" transform="translate(101.584 72.478)" class="svg-elem-52"></path>
          <path id="Path_88565" data-name="Path 88565" d="M34.152,23.429l31.73,27.394.6-.7L35.914,23.737c1.781-.256,3.5-2.132,4.127-4.7.755-3.087-.356-6.013-2.479-6.535s-4.455,1.567-5.21,4.659c-.67,2.74.128,5.348,1.8,6.264" transform="translate(120.408 46.594)" class="svg-elem-53"></path>
          <path id="Path_88566" data-name="Path 88566" d="M34.9,28.024,53.921,44.437l.6-.693L36.662,28.333c1.781-.256,3.5-2.132,4.127-4.7.755-3.087-.356-6.013-2.479-6.53s-4.455,1.563-5.21,4.654c-.665,2.74.133,5.348,1.8,6.264" transform="translate(123.222 63.836)" class="svg-elem-54"></path>
          <rect id="Rectangle_71410" data-name="Rectangle 71410" width="40.662" height="2.998" transform="translate(160.515 127.947) rotate(-54.11)" class="svg-elem-55"></rect>
          <rect id="Rectangle_71411" data-name="Rectangle 71411" width="15.235" height="2.997" transform="translate(171.037 103.3) rotate(-54.977)" class="svg-elem-56"></rect>
          <rect id="Rectangle_71412" data-name="Rectangle 71412" width="16.788" height="1.204" transform="matrix(0.501, -0.865, 0.865, 0.501, 150.834, 72.361)" class="svg-elem-57"></rect>
          <rect id="Rectangle_71413" data-name="Rectangle 71413" width="16.793" height="1.203" transform="matrix(0.501, -0.865, 0.865, 0.501, 163.018, 58.253)" class="svg-elem-58"></rect>
          <rect id="Rectangle_71414" data-name="Rectangle 71414" width="16.79" height="1.203" transform="translate(166.849 61.56) rotate(-59.931)" class="svg-elem-59"></rect>
          <path id="Path_88567" data-name="Path 88567" d="M112.26,8.671a1.231,1.231,0,0,1-.342.014c-.1-.024-.209-.152-.309-.218a6.061,6.061,0,0,0-2.745-.95,6.565,6.565,0,0,0-2.693.5,22.508,22.508,0,0,0-2.4,1.135,3.288,3.288,0,0,1-1.866.451l-.508-.185-.171.461,13.887,5.077a3.171,3.171,0,0,0-1.2,3.187c.214,1.714,1.339,2.987,2.517,2.84s1.966-1.653,1.752-3.367a3.038,3.038,0,0,0-2.118-2.84L108.194,11.9c.613-.47,1.178-.936,1.781-1.406a4.278,4.278,0,0,1,3.3-1.268,5.821,5.821,0,0,1,3.348,1.866c.1.1.147.209.214.147.2-.2-.119-.465-.233-.584a6.322,6.322,0,0,0-1.672-1.325,5.25,5.25,0,0,0-2.669-.655m-.921.09c.038.066-.109.052-.166.066a15.166,15.166,0,0,0-3.1,1.344,5.324,5.324,0,0,1-3.016.579l-.7-.256a11.378,11.378,0,0,1,2.983-1.909,4.447,4.447,0,0,1,4,.176" transform="translate(379.525 28.155)" class="svg-elem-60"></path>
          <path id="Path_88568" data-name="Path 88568" d="M30.637,51.439,19.03,2.84l-1.2.285L28.96,49.71c-2.151-1.121-5.5-.427-8.207,1.885-3.253,2.778-4.341,6.848-2.432,9.081s6.1,1.8,9.351-.983c2.888-2.465,4.065-5.941,2.964-8.254" transform="translate(65.165 10.648)" class="svg-elem-61"></path>
          <path id="Path_88569" data-name="Path 88569" d="M35.671,31.5,28.262.5l-1.2.285,6.929,28.985c-2.151-1.121-5.5-.423-8.207,1.885-3.253,2.783-4.341,6.848-2.432,9.085s6.1,1.8,9.351-.983c2.888-2.47,4.065-5.946,2.964-8.259" transform="translate(84.039 1.882)" class="svg-elem-62"></path>
          <path id="Path_88570" data-name="Path 88570" d="M18.93,18.8,17.4,12.31,46.68,0,48,6.127Z" transform="translate(65.239 0)" class="svg-elem-63"></path>
          <rect id="Rectangle_71415" data-name="Rectangle 71415" width="8.047" height="4.41" transform="translate(281.541 68.762) rotate(-8.006)" class="svg-elem-64"></rect>
          <path id="Path_88571" data-name="Path 88571" d="M64.9,44.9,60.49,13.583l-.874.123,4.2,29.844c-1.453-.94-3.885-.674-5.97.793-2.508,1.757-3.557,4.583-2.346,6.307s4.222,1.686,6.73-.071c2.223-1.562,3.3-3.961,2.669-5.68" transform="translate(206.209 50.926)" class="svg-elem-65"></path>
          <path id="Path_88572" data-name="Path 88572" d="M72.787,44.6l-4.54-32.224-.874.119,4.341,30.761c-1.458-.94-3.9-.674-5.979.793-2.508,1.757-3.557,4.583-2.351,6.3s4.227,1.691,6.739-.071c2.213-1.558,3.3-3.956,2.664-5.68" transform="translate(235.767 46.386)" class="svg-elem-66"></path>
          <path id="Path_88573" data-name="Path 88573" d="M69.35,34.677,66.287,12.925l-.879.123,2.864,20.284c-1.458-.945-3.894-.679-5.975.788-2.508,1.762-3.557,4.583-2.346,6.307s4.222,1.686,6.73-.071c2.218-1.563,3.3-3.961,2.669-5.68" transform="translate(222.886 48.459)" class="svg-elem-67"></path>
          <rect id="Rectangle_71416" data-name="Rectangle 71416" width="38.684" height="4.407" transform="matrix(0.99, -0.139, 0.139, 0.99, 265.763, 64.194)" class="svg-elem-68"></rect>
          <path id="Path_88574" data-name="Path 88574" d="M13.4,100.5c10.054-21.9,31.2-35.615,50.693-46.167a236.827,236.827,0,0,1,36.356-16.3c12.225-4.156,26.092-7.694,38.877-5.647,6.117.983,12.087,4.26,14.784,10.51,2.289,5.3,1.444,11.712.114,17.207-2.907,12.039-9.242,22.944-15.036,33.587-5.922,10.895-11.854,22.018-14.651,34.361-1.667,7.347-2.5,16.1.142,23.271,3.776,10.263,14.856,9.252,23.072,6.673,13.113-4.122,25.285-12.272,36.65-20.332,9.712-6.891,19.092-14.352,28.206-22.15,17.563-15.022,34.983-30.775,55.96-39.827,12.737-5.49,26.843-8.254,40.43-6.544a33.359,33.359,0,0,1,17.145,6.839c4.3,3.41,7.846,7.822,11.583,11.9,7.409,8.083,16.038,13.483,26.6,15.145,10.871,1.719,22.141-.684,32.418-4.773,35.919-14.281,62.229-52.451,67.6-92.872.038-.294-.385-.309-.423-.014a124.134,124.134,0,0,1-32.741,68.522c-16.29,17.192-39.21,30.191-62.263,29.137-11.954-.546-22.07-6.046-30.428-14.979-3.533-3.776-6.834-7.8-10.662-11.232a31.337,31.337,0,0,0-13.991-7.266c-24.915-5.927-50.812,6.008-71.353,20.849-13.374,9.655-25.489,21.129-38.312,31.592a309.062,309.062,0,0,1-34.584,24.938,115.621,115.621,0,0,1-18.826,9.536c-5.01,1.909-10.486,3.434-15.8,2.736-15.392-2.009-11.892-25.2-8.686-36.113,3.7-12.581,10.472-23.884,16.58-35.235C148.09,78.1,153.67,67.577,155.432,56.35c.76-4.835.746-9.755-1.187-14.234-2.042-4.73-6.407-7.637-10.852-9.195-5.2-1.819-10.914-1.71-16.323-1.244a108.1,108.1,0,0,0-19.51,3.676C88.1,40.72,69.1,50.166,51.666,61,36.4,70.488,21.052,82.8,13.04,100.256c-.123.266.233.513.356.242" transform="translate(48.795 19.282)" fill="url(#banner)" class="svg-elem-69"></path>
          <path id="Path_88575" data-name="Path 88575" d="M10.08,83.515C21.027,62,43.016,49.1,63.224,39.3A242.848,242.848,0,0,1,100.8,24.4c12.6-3.69,26.843-6.692,39.8-4.146,6.207,1.221,12.191,4.721,14.737,11.075,2.166,5.386,1.1,11.764-.427,17.211-3.353,11.921-10.163,22.583-16.4,33.007-6.383,10.662-12.785,21.557-16.038,33.791-1.933,7.276-3.054,16-.594,23.276,3.519,10.406,14.841,9.817,23.3,7.551,13.5-3.609,26.164-11.294,38.008-18.912,10.121-6.516,19.918-13.616,29.46-21.063,18.375-14.343,36.636-29.422,58.311-37.662,13.155-5.006,27.622-7.228,41.413-4.991a34.641,34.641,0,0,1,17.259,7.5c4.274,3.576,7.746,8.126,11.422,12.343,7.3,8.363,15.924,14.1,26.629,16.171,11.028,2.132,22.592.166,33.2-3.524,37.068-12.9,65.108-50.048,71.87-90.264.047-.294-.385-.318-.432-.033a122.41,122.41,0,0,1-35.558,67.254c-17.164,16.565-40.934,28.681-64.4,26.738-12.163-1-22.3-6.9-30.533-16.147-3.486-3.913-6.715-8.059-10.51-11.64a32.338,32.338,0,0,0-14.025-7.8c-25.2-6.891-51.99,4.046-73.395,18.095-13.939,9.138-26.658,20.151-40.06,30.115a312.62,312.62,0,0,1-36.052,23.6,117.981,117.981,0,0,1-19.491,8.81c-5.167,1.714-10.8,3.025-16.19,2.132-15.625-2.607-11.322-25.665-7.7-36.455C128.574,98,135.84,86.958,142.428,75.845,148.084,66.3,154.106,56,156.262,44.837c.931-4.8,1.073-9.722-.75-14.276-1.933-4.811-6.288-7.884-10.771-9.612-5.238-2.023-11.07-2.128-16.6-1.876a112.005,112.005,0,0,0-20,2.93c-20,4.616-39.675,13.331-57.789,23.49-15.862,8.9-31.9,20.616-40.625,37.761-.133.261.223.522.356.261" transform="translate(36.348 20.736)" fill="url(#banner)" class="svg-elem-70"></path>
          <path id="Path_88576" data-name="Path 88576" d="M6.8,66.049c11.849-21.1,34.674-33.145,55.58-42.164a249.957,249.957,0,0,1,38.778-13.455c12.956-3.2,27.574-5.652,40.706-2.612,6.288,1.458,12.267,5.191,14.666,11.64,2.028,5.471.741,11.816-.993,17.2-3.795,11.8-11.075,22.188-17.772,32.371-6.848,10.415-13.721,21.063-17.425,33.169-2.2,7.209-3.628,15.891-1.354,23.257,3.253,10.539,14.818,10.387,23.509,8.449,13.877-3.092,27.028-10.282,39.343-17.449,10.524-6.127,20.74-12.847,30.7-19.923,19.192-13.635,38.288-28.011,60.643-35.415,13.569-4.493,28.382-6.16,42.373-3.4a35.9,35.9,0,0,1,17.349,8.164c4.241,3.742,7.632,8.42,11.246,12.78,7.171,8.648,15.777,14.713,26.624,17.2,11.17,2.56,23.02,1.035,33.948-2.242,38.193-11.474,67.962-47.54,76.14-87.486.062-.294-.38-.342-.437-.052a120.954,120.954,0,0,1-38.393,65.882c-18.019,15.9-42.639,27.094-66.494,24.254-12.367-1.472-22.511-7.756-30.614-17.33-3.415-4.042-6.578-8.311-10.33-12.039A33.462,33.462,0,0,0,320.549,58.5c-25.47-7.86-53.116,2.047-75.39,15.264-14.495,8.61-27.812,19.12-41.793,28.576a317.943,317.943,0,0,1-37.5,22.212,121.414,121.414,0,0,1-20.151,8.055c-5.324,1.515-11.1,2.612-16.57,1.506-15.844-3.21-10.719-26.1-6.682-36.74,4.65-12.277,12.41-23.043,19.477-33.9,6.07-9.323,12.543-19.391,15.093-30.466,1.1-4.773,1.406-9.684-.309-14.309-1.814-4.882-6.16-8.121-10.672-10.026-5.276-2.223-11.218-2.555-16.86-2.512a115.678,115.678,0,0,0-20.479,2.156C88.182,12.16,67.851,20.115,49.063,29.58,32.611,37.863,15.889,48.966,6.448,65.774c-.138.256.214.532.356.275" transform="translate(24.057 22.068)" fill="url(#banner)" class="svg-elem-71"></path>
          <path id="Path_88577" data-name="Path 88577" d="M3.572,58.618c12.752-20.64,36.4-31.806,58-40.022A256.521,256.521,0,0,1,101.53,6.637c13.3-2.7,28.287-4.588,41.57-1.04,6.359,1.7,12.339,5.661,14.575,12.206,1.895,5.542.38,11.835-1.558,17.154-4.251,11.65-12,21.761-19.154,31.682-7.314,10.154-14.656,20.541-18.821,32.5-2.474,7.119-4.2,15.749-2.123,23.2,2.978,10.672,14.77,10.961,23.689,9.361,14.243-2.555,27.883-9.247,40.663-15.934C191.3,110.043,201.92,103.712,212.3,97.02c20-12.894,39.922-26.534,62.942-33.079,13.977-3.97,29.132-5.058,43.3-1.757a37.19,37.19,0,0,1,17.425,8.829c4.2,3.909,7.509,8.715,11.052,13.217,7.034,8.919,15.611,15.316,26.591,18.223,11.3,2.983,23.428,1.919,34.67-.94,39.3-10,70.792-44.918,80.4-84.546.071-.29-.38-.351-.451-.066a119.54,119.54,0,0,1-41.238,64.4c-18.874,15.212-44.32,25.456-68.551,21.695-12.552-1.952-22.692-8.629-30.642-18.508-3.358-4.179-6.44-8.563-10.149-12.438A34.415,34.415,0,0,0,323.6,63.158c-25.7-8.838-54.2,0-77.323,12.362-15.05,8.045-28.961,18.042-43.513,26.957a323.1,323.1,0,0,1-38.93,20.768,124.419,124.419,0,0,1-20.8,7.281c-5.476,1.311-11.4,2.185-16.941.864-16.038-3.814-10.083-26.506-5.633-37,5.134-12.1,13.383-22.554,20.939-33.14,6.483-9.085,13.4-18.907,16.356-29.882,1.273-4.726,1.743-9.631.142-14.319-1.7-4.953-6.013-8.363-10.553-10.434-5.31-2.427-11.355-2.987-17.107-3.163A119.816,119.816,0,0,0,109.3,4.813C88.242,7.867,67.269,15.039,47.816,23.777c-17.036,7.651-34.432,18.109-44.6,34.551-.152.252.195.541.351.29" transform="translate(11.934 12.763)" fill="url(#banner)" class="svg-elem-72"></path>
          <path id="Path_88578" data-name="Path 88578" d="M.393,51.263c13.659-20.142,38.117-30.4,60.4-37.78A263.419,263.419,0,0,1,101.9,3.068c13.649-2.189,28.975-3.5,42.406.556,6.426,1.942,12.4,6.141,14.466,12.766,1.752,5.618,0,11.849-2.142,17.093-4.7,11.484-12.927,21.3-20.531,30.951C128.319,74.3,120.5,84.4,115.871,96.2c-2.75,7.029-4.787,15.587-2.9,23.115,2.693,10.786,14.7,11.526,23.846,10.268,14.6-2.009,28.714-8.164,41.955-14.362,11.313-5.3,22.345-11.218,33.14-17.51,20.8-12.12,41.532-24.991,65.212-30.647,14.371-3.434,29.849-3.942,44.182-.09a38.428,38.428,0,0,1,17.482,9.5c4.156,4.065,7.376,9,10.843,13.64,6.882,9.19,15.421,15.915,26.515,19.239,11.427,3.429,23.822,2.826,35.372.4,40.369-8.482,73.59-42.178,84.655-81.435.081-.285-.37-.37-.451-.085-7.11,25.214-23.034,47.336-44.1,62.8C431.9,105.5,405.633,114.77,381.06,110.078c-12.733-2.436-22.853-9.5-30.637-19.69-3.291-4.3-6.3-8.81-9.95-12.828a35.477,35.477,0,0,0-14.039-9.423c-25.917-9.836-55.243-2.09-79.208,9.375-15.6,7.471-30.1,16.936-45.213,25.285a330.076,330.076,0,0,1-40.34,19.263,127.192,127.192,0,0,1-21.433,6.478c-5.618,1.1-11.688,1.748-17.292.214-16.228-4.436-9.432-26.9-4.559-37.215,5.618-11.892,14.362-22.037,22.4-32.328,6.9-8.838,14.262-18.389,17.629-29.251,1.449-4.683,2.08-9.565.6-14.314-1.567-5.02-5.861-8.591-10.42-10.838-5.333-2.631-11.474-3.429-17.335-3.828a125.253,125.253,0,0,0-21.391.56C88.316,3.785,66.707,10.144,46.6,18.133c-17.61,7-35.676,16.779-46.562,32.832-.161.242.185.546.351.3" transform="translate(0.001 2.792)" fill="url(#banner)" class="svg-elem-73"></path>
          <g id="Group_117231" data-name="Group 117231" transform="translate(14.131 213.456)" style="mix-blend-mode: multiply;isolation: isolate">
            <g id="Group_117230" data-name="Group 117230">
              <g id="Group_117229" data-name="Group 117229" clip-path="url(#clip-path-3)">
                <g id="Group_117228" data-name="Group 117228" transform="translate(-0.002 -0.001)">
                  <g id="Group_117227" data-name="Group 117227" clip-path="url(#clip-path-4)">
                    <rect id="Rectangle_71417" data-name="Rectangle 71417" width="486.105" height="50.318" transform="translate(0 0)" fill="url(#radial-gradient)" class="svg-elem-74"></rect>
                  </g>
                </g>
              </g>
            </g>
          </g>
        </g>
      </g>
    </g>
  </g>
</svg>
