<svg xmlns="http://www.w3.org/2000/svg" width="66.915" height="52.474" viewBox="0 0 66.915 52.474">
  <path id="Path_174114" data-name="Path 174114" d="M28.337-96.278A14.892,14.892,0,0,1,37.7-93.137,20.674,20.674,0,0,1,44.078-84.3,35.616,35.616,0,0,1,46.39-70.863,38.007,38.007,0,0,1,44-57a23.3,23.3,0,0,1-6.6,9.664A14.926,14.926,0,0,1,27.517-43.8a14.83,14.83,0,0,1-9.25-3.141,20.766,20.766,0,0,1-6.453-8.891,35.484,35.484,0,0,1-2.35-13.481,37.867,37.867,0,0,1,2.35-13.722,23.253,23.253,0,0,1,6.6-9.664A14.946,14.946,0,0,1,28.337-96.278Zm-.671,1.739q-4.774,0-7.87,6.571T16.7-69.606a50.482,50.482,0,0,0,1.567,13.964q1.567,5.267,4.215,7.683a8.335,8.335,0,0,0,5.707,2.416q4.849,0,7.907-6.62t3.059-18.409a50.482,50.482,0,0,0-1.567-13.964Q36.021-89.8,33.41-92.171A8.372,8.372,0,0,0,27.666-94.539Zm41.551-1.45v40.877q0,4.639,1.641,6.281t5.52,1.643v2.029q-1.492-.1-4.364-.242t-5.931-.145q-3.432,0-6.6.145t-4.886.242v-2.029a9.4,9.4,0,0,0,5.819-1.595q2.089-1.595,2.089-6.33V-78.5a23.212,23.212,0,0,0-.746-6.861,4.294,4.294,0,0,0-2.648-2.9,16.255,16.255,0,0,0-5.259-.676V-91.06A36.637,36.637,0,0,0,62.8-92.316,16.167,16.167,0,0,0,69.217-95.988Z" transform="translate(-9.464 96.278)" fill="#502b13" opacity="0.2"/>
</svg>
