<svg xmlns="http://www.w3.org/2000/svg" xmlns:xlink="http://www.w3.org/1999/xlink" width="505.89" height="47.25" viewBox="0 0 505.89 47.25">
  <defs>
    <linearGradient id="linear-gradient" y1="0.617" x2="0.99" y2="0.5" gradientUnits="objectBoundingBox">
      <stop offset="0" stop-color="#cea676"/>
      <stop offset="0.094" stop-color="#e2c498"/>
      <stop offset="0.192" stop-color="#7b5b35"/>
      <stop offset="0.355" stop-color="#c6a679"/>
      <stop offset="0.507" stop-color="#fadeb3"/>
      <stop offset="0.65" stop-color="#e2c498"/>
      <stop offset="0.808" stop-color="#7a5424"/>
      <stop offset="0.916" stop-color="#7a5424"/>
      <stop offset="1" stop-color="#e2c498"/>
    </linearGradient>
  </defs>
  <path id="Path_63411" data-name="Path 63411" d="M24.78.49c15.19,0,21.07-10.85,21.07-24.22,0-13.72-6.37-23.03-21.07-23.03-15.12,0-21,10.78-21,23.03C3.78-9.73,9.1.49,24.78.49Zm.07-.91c-11.69,0-13.58-9.66-13.58-22.54,0-12.39,1.89-22.89,13.58-22.89,11.62,0,13.51,9.87,13.51,22.89C38.36-11.06,36.26-.42,24.85-.42ZM55.02,0H74.97V-1.05H68.11V-45.22h4.41c8.68,0,10.99,4.55,10.99,12.39,0,7.42-2.31,12.74-8.89,12.74a16.7,16.7,0,0,1-2.1-.14v1.05a17.711,17.711,0,0,0,2.59.14c9.59,0,15.75-5.53,15.75-14,0-7.35-4.34-13.23-18.27-13.23H55.02v1.05h6.23V-1.05H55.02ZM98.98,0h19.95V-1.05h-6.86V-45.22h4.41c8.68,0,10.99,4.55,10.99,12.39,0,7.42-2.31,12.74-8.89,12.74a16.7,16.7,0,0,1-2.1-.14v1.05a17.711,17.711,0,0,0,2.59.14c9.59,0,15.75-5.53,15.75-14,0-7.35-4.34-13.23-18.27-13.23H98.98v1.05h6.23V-1.05H98.98Zm66.29.49c15.19,0,21.07-10.85,21.07-24.22,0-13.72-6.37-23.03-21.07-23.03-15.12,0-21,10.78-21,23.03C144.27-9.73,149.59.49,165.27.49Zm.07-.91c-11.69,0-13.58-9.66-13.58-22.54,0-12.39,1.89-22.89,13.58-22.89,11.62,0,13.51,9.87,13.51,22.89C178.85-11.06,176.75-.42,165.34-.42ZM195.51,0h19.25V-1.05H208.6V-22.54h6.23c5.95,0,6.65,7.14,6.93,11.2.28,3.92,1.12,11.69,9.03,11.69,3.64,0,5.74-1.89,5.81-6.16h-1.05c0,2.59-1.19,4.62-3.01,4.62-2.73,0-2.8-3.43-3.01-9.1-.28-7.49-4.9-11.27-11.2-12.74v-.14c9.03-1.68,12.46-5.81,12.46-11.34,0-6.93-4.55-11.76-16.59-11.76H195.51v1.05h6.23V-1.05h-6.23ZM208.6-23.59V-45.22h5.74c6.72,0,9.03,3.92,9.03,11.13,0,7-2.1,10.5-8.68,10.5ZM251.79,0h19.32V-1.05h-6.23V-45.22h9.73c3.29,0,4.34,1.4,4.76,6.51l.49,5.53h1.05s-.28-6.3-.28-8.68v-4.41H242.27v4.41c0,2.38-.42,8.68-.42,8.68h1.05l.63-5.53c.56-5.11,1.47-6.51,4.76-6.51h9.73V-1.05h-6.23Zm42.49-19.46c0,12.6,4.41,19.95,19.6,19.95,11.48,0,15.82-8.05,15.82-18.2V-41.02c0-2.66,1.05-4.2,4.13-4.2H336v-1.05H322.35v1.05h2.1c3.08,0,4.2,1.54,4.2,4.2v23.17c0,10.99-4.76,17.29-14.77,17.29-9.59,0-12.67-5.46-12.67-18.9V-45.22h6.23v-1.05H288.05v1.05h6.23ZM343.7,0h13.65V-1.05h-2.17c-3.08,0-4.13-1.54-4.13-4.2V-40.6L381.64.35h1.05V-41.02c0-2.66,1.05-4.2,4.13-4.2h2.17v-1.05H375.34v1.05h2.1c3.08,0,4.2,1.54,4.2,4.2v29.96L355.25-46.27H343v1.05h1.26c3.43,0,4.27,1.26,5.74,3.22V-5.25c0,2.66-1.12,4.2-4.2,4.2h-2.1Zm53.34,0h19.32V-1.05h-6.23V-45.22h6.23v-1.05H397.04v1.05h6.23V-1.05h-6.23Zm37.1,0h19.32V-1.05h-6.23V-45.22h9.73c3.29,0,4.34,1.4,4.76,6.51l.49,5.53h1.05s-.28-6.3-.28-8.68v-4.41H424.62v4.41c0,2.38-.42,8.68-.42,8.68h1.05l.63-5.53c.56-5.11,1.47-6.51,4.76-6.51h9.73V-1.05h-6.23Zm45.85,0h19.32V-1.05h-6.23V-20.93l10.64-20.16c1.68-3.15,2.87-4.13,5.04-4.13h.91v-1.05H496.72v1.05h3.15c3.22,0,3.99,1.68,2.8,3.92L492.38-21.91,479.36-45.22h5.11v-1.05H466.9v1.05h4.76l14.56,25.83V-1.05h-6.23Z" transform="translate(-3.78 46.76)" fill="url(#linear-gradient)"/>
</svg>
