<svg id="Group_117245" data-name="Group 117245" xmlns="http://www.w3.org/2000/svg" xmlns:xlink="http://www.w3.org/1999/xlink" width="72.777" height="95.067" viewBox="0 0 72.777 95.067">
  <defs>
    <clipPath id="clip-path">
      <rect id="Rectangle_71427" data-name="Rectangle 71427" width="72.777" height="95.067" fill="#502b13"/>
    </clipPath>
  </defs>
  <g id="Group_117244" data-name="Group 117244" clip-path="url(#clip-path)">
    <path id="Path_91099" data-name="Path 91099" d="M31.7,251.391a2.77,2.77,0,0,0,.219-1.346H31.3a2.8,2.8,0,0,1-.221,1.346,6.7,6.7,0,0,1-.2,5.57,6.868,6.868,0,0,1-5.751,4.1q.177.008.362.008l.175,0a6.866,6.866,0,0,0,5.832-4.1,6.713,6.713,0,0,0,.2-5.57m-6.166-34.17-.046,0h-.049c-.121,0-.242,0-.36.011,3.37.227,7.207,3.229,7.207,8.854v23.961H32.9V226.085c0-5.714-3.963-8.722-7.37-8.863" transform="translate(-20.359 -176.342)" fill="#502b13"/>
    <path id="Path_91100" data-name="Path 91100" d="M69.785,250.2l-1.084.644c-.026-.207-.06-.408-.1-.607l.886-.526c.1.17.2.334.3.489" transform="translate(-55.69 -202.716)" fill="#502b13"/>
    <path id="Path_91101" data-name="Path 91101" d="M72.993,261.384l-3.278,2.188v-.693l2.683-1.789a5.407,5.407,0,0,0,.6.293" transform="translate(-56.596 -211.957)" fill="#502b13"/>
    <path id="Path_91102" data-name="Path 91102" d="M76.332,265.144l-6.617,4.414v-.693l5.582-3.724c.17.009.345.011.529.011.164,0,.331,0,.506-.009" transform="translate(-56.596 -215.245)" fill="#502b13"/>
    <path id="Path_91103" data-name="Path 91103" d="M80.157,263.369a4.361,4.361,0,0,0-.555.477c-.115.115-.224.239-.328.365l-9.559,6.381V269.9L79.9,263.1l.147-.017a.155.155,0,0,1,.107.282" transform="translate(-56.596 -213.577)" fill="#502b13"/>
    <path id="Path_91104" data-name="Path 91104" d="M78.2,282.317c-.043.242-.078.495-.1.756l-8.391,5.6v-.69Z" transform="translate(-56.596 -229.189)" fill="#502b13"/>
    <path id="Path_91105" data-name="Path 91105" d="M79.576,296.254v.693l-6.64,4.429-.851.569c-.06-.046-.121-.086-.181-.127l-.339-.218.857-.569Z" transform="translate(-58.097 -240.503)" fill="#502b13"/>
    <path id="Path_91106" data-name="Path 91106" d="M87.367,309.732v.69l-4.955,3.307-.814.543c-.063-.066-.129-.129-.2-.19s-.161-.144-.241-.21l.828-.552Z" transform="translate(-65.888 -251.445)" fill="#502b13"/>
    <path id="Path_91107" data-name="Path 91107" d="M93.792,323.21v.69l-3.575,2.384-.788.529q-.172-.237-.354-.457l.794-.529Z" transform="translate(-72.313 -262.387)" fill="#502b13"/>
    <path id="Path_91108" data-name="Path 91108" d="M71.158,362.83l-1.449.969v-.693l1.116-.745a3.574,3.574,0,0,1,.334.469" transform="translate(-56.591 -294.17)" fill="#502b13"/>
    <path id="Path_91109" data-name="Path 91109" d="M98.854,336.689v.69l-2.493,1.665-.788.526c-.029-.063-.06-.124-.092-.187-.055-.112-.112-.221-.17-.331l.785-.523Z" transform="translate(-77.375 -273.329)" fill="#502b13"/>
    <path id="Path_91110" data-name="Path 91110" d="M71.656,373.633l-1.947,1.3v-.693l1.933-1.288c.006.084.008.164.008.247,0,.132,0,.279.006.434" transform="translate(-56.591 -302.767)" fill="#502b13"/>
    <path id="Path_91111" data-name="Path 91111" d="M102.489,350.167v.69l-1.737,1.159-.8.532c-.046-.2-.1-.391-.167-.581l.791-.526Z" transform="translate(-81.01 -284.271)" fill="#502b13"/>
    <path id="Path_91112" data-name="Path 91112" d="M68.371,380.956c0,.075.006.147.009.218l-1.277.851-3.422,2.283c-.034-.118-.078-.233-.124-.348.035-.1.066-.213.092-.319l.661-.443.405-.27,2.163-1.444,1.432-.955c.026.141.046.285.06.426" transform="translate(-51.597 -308.92)" fill="#502b13"/>
    <path id="Path_91113" data-name="Path 91113" d="M104.524,363.645v.69l-1.343.894-.831.555c-.011-.219-.032-.434-.055-.653l.817-.544Z" transform="translate(-83.045 -295.212)" fill="#502b13"/>
    <path id="Path_91114" data-name="Path 91114" d="M69.16,399.384l.753-.5c-.037.265-.081.523-.132.779l-.791.529-3.37,2.246a7.167,7.167,0,0,0,.072-.739Z" transform="translate(-53.271 -323.82)" fill="#502b13"/>
    <path id="Path_91115" data-name="Path 91115" d="M103.432,381.738v.693l-1.57,1.047-.912.607c.063-.262.112-.526.155-.794l.886-.592Z" transform="translate(-81.953 -309.9)" fill="#502b13"/>
    <path id="Path_91116" data-name="Path 91116" d="M47.786,424.159a12,12,0,0,1-.731,1.176v0l-.725.483-4.992,3.33a4.768,4.768,0,0,1-.489.029c-.2,0-.382-.009-.566-.017l.034-.023a7.341,7.341,0,0,0,2.407-1.6l4.233-2.824Z" transform="translate(-32.702 -344.338)" fill="#502b13"/>
    <path id="Path_91117" data-name="Path 91117" d="M95.452,400.587l-4.06,2.709-1,.667c.2-.351.385-.707.564-1.067l.995-.664,3.324-2.217c.055.2.112.385.178.572" transform="translate(-73.381 -324.738)" fill="#502b13"/>
    <path id="Path_91118" data-name="Path 91118" d="M99.932,414.144l-3.69,2.462a11.926,11.926,0,0,0-1.771.492l5.173-3.451c.092.17.187.334.288.5" transform="translate(-76.693 -335.804)" fill="#502b13"/>
    <path id="Path_91119" data-name="Path 91119" d="M123.7,425.954l-1.432.958a3.758,3.758,0,0,0-.552-.325l1.6-1.067c.124.149.253.293.385.434" transform="translate(-98.812 -345.443)" fill="#502b13"/>
    <path id="Path_91120" data-name="Path 91120" d="M38.9,368.367a.464.464,0,1,1-.464-.464.464.464,0,0,1,.464.464" transform="translate(-30.828 -298.67)" fill="#502b13"/>
    <path id="Path_91121" data-name="Path 91121" d="M61.9,348.967l-1.685.733c.014-.014-.231.1-.128,0l-.026-.053c.066-.063.4-.315.47-.378a27.059,27.059,0,0,0,2.125-2.292c.052-.063.1-.126.152-.19l0,0c.345-.434.673-.88.978-1.343.037-.055.075-.112.112-.17a13.5,13.5,0,0,0,1.751-4.1c.06-.265.115-.529.155-.8.008-.046.017-.092.023-.138A15.325,15.325,0,0,0,66,337.545v-.009c-.009-.221-.023-.443-.043-.661a8.984,8.984,0,0,0-.314-1.636c-.029-.095-.057-.193-.089-.288s-.063-.187-.1-.279a7.131,7.131,0,0,0-.693-1.38,5.414,5.414,0,0,0-.331-.475,6.985,6.985,0,0,0-1.064-1.133c-.152-.135-.311-.259-.472-.377s-.325-.227-.495-.331a8.019,8.019,0,0,0-1.435-.641v-2.907c7.163,3.9,8.46,13.772.935,21.539" transform="translate(-48.76 -265.811)" fill="#502b13"/>
    <path id="Path_91122" data-name="Path 91122" d="M74.2,329.068c-.014.124-.032.25-.049.374-.037.262-.081.521-.129.779-.075.371-.158.742-.262,1.1a16.7,16.7,0,0,1-1.078,2.812c-.172.362-.359.716-.558,1.064-.058.1-.115.2-.175.3a23.169,23.169,0,0,1-2.66,3.652l-.224-.181a27.083,27.083,0,0,0,2.059-3.109c.2-.351.385-.707.564-1.067a18.149,18.149,0,0,0,1.352-3.664c.026-.1.052-.207.072-.311.063-.262.112-.526.155-.794a12.694,12.694,0,0,0,.152-2.818c-.012-.219-.032-.434-.055-.653a11.31,11.31,0,0,0-.3-1.642c-.046-.2-.1-.391-.167-.581a9.9,9.9,0,0,0-.581-1.455c-.029-.063-.06-.124-.092-.187-.055-.112-.112-.221-.17-.331a11.234,11.234,0,0,0-.82-1.3q-.172-.237-.354-.457a12.024,12.024,0,0,0-1.053-1.142c-.063-.066-.129-.129-.2-.19s-.161-.144-.242-.21a13.364,13.364,0,0,0-1.285-.986c-.06-.046-.121-.086-.181-.126l-.339-.218-.923-.6v-1.009c.6.331,1.179.664,1.777,1.032a0,0,0,0,1,0,0c.173.109.345.224.515.345a12.329,12.329,0,0,1,1.263,1c.023.02.043.037.063.057.121.112.242.23.36.351a12.748,12.748,0,0,1,1.032,1.156c.118.15.236.3.348.457a11.759,11.759,0,0,1,.817,1.3c.081.144.155.291.227.437.011.026.026.052.037.078a13.012,13.012,0,0,1,.584,1.455c.06.19.121.382.173.575a.652.652,0,0,1,.02.072,13.211,13.211,0,0,1,.3,1.559c.029.213.052.426.069.641,0,.032.006.06.009.092a14.125,14.125,0,0,1-.058,2.315" transform="translate(-54.115 -256.644)" fill="#502b13"/>
    <path id="Path_91123" data-name="Path 91123" d="M31.738,398.572a6.866,6.866,0,0,1-5.832,4.1l-.176,0q-.185,0-.362-.009a6.868,6.868,0,0,0,5.752-4.1,6.7,6.7,0,0,0,.2-5.57,2.8,2.8,0,0,0,.221-1.346h.616A2.763,2.763,0,0,1,31.933,393a6.712,6.712,0,0,1-.2,5.57" transform="translate(-20.594 -317.952)" fill="#502b13"/>
    <path id="Path_91124" data-name="Path 91124" d="M32.9,226.085v23.961h-.618V226.085c0-5.625-3.836-8.627-7.207-8.854.118-.009.239-.011.36-.011h.049l.046,0c3.408.141,7.37,3.149,7.37,8.863" transform="translate(-20.359 -176.342)" fill="#502b13"/>
    <path id="Path_91125" data-name="Path 91125" d="M79.539,172.105l0-.026a6.677,6.677,0,0,0-.35-1.357,4.793,4.793,0,0,0-.681-1.216,15.277,15.277,0,0,0-1.817-1.974,15.416,15.416,0,0,1-1.742-1.853,4.487,4.487,0,0,1-.908-2.234,5.039,5.039,0,0,1,.116-1.255,1.514,1.514,0,0,1,.63-.944,1.888,1.888,0,0,1,2.237.129,1.6,1.6,0,0,1,.09,2.194.8.8,0,0,1-.482.268,1.108,1.108,0,0,1-.576-.062c-.336-.145-.4-.621-.381-1.041v0a.144.144,0,0,0-.287-.014,2.238,2.238,0,0,0,.056.719.922.922,0,0,0,.477.615,1.4,1.4,0,0,0,.749.1,1.124,1.124,0,0,0,.685-.358,1.94,1.94,0,0,0,.518-1.357,1.979,1.979,0,0,0-.558-1.354,2.018,2.018,0,0,0-1.352-.593,2.7,2.7,0,0,0-.735.065,2.317,2.317,0,0,0-.7.272,2.028,2.028,0,0,0-.882,1.218,5.589,5.589,0,0,0-.176,1.41v.025a4.94,4.94,0,0,0,.278,1.36,6.09,6.09,0,0,0,.622,1.234,11.34,11.34,0,0,0,1.083,1.39,3.842,3.842,0,0,0-.572-.147,2.035,2.035,0,0,0-.679-.013,1.865,1.865,0,0,0-1.191.676,1.619,1.619,0,0,0-.311.642,1.561,1.561,0,0,0,.027.709,1.392,1.392,0,0,0,.35.618,1.1,1.1,0,0,0,.653.315,1.716,1.716,0,0,0,.665-.052,1.02,1.02,0,0,0,.577-.4.832.832,0,0,0,.129-.34.738.738,0,0,0-.026-.372.612.612,0,0,0-.244-.3.829.829,0,0,0-.34-.123.144.144,0,0,0-.047.283l.014,0a.408.408,0,0,1,.325.24.507.507,0,0,1-.091.414.944.944,0,0,1-.9.232.743.743,0,0,1-.566-.637.927.927,0,0,1,.237-.86,1.319,1.319,0,0,1,.827-.443,2.565,2.565,0,0,1,1.021.139,3.844,3.844,0,0,1,1.4.786,11.876,11.876,0,0,1,1.008,1.239,7.513,7.513,0,0,1,1.1,2.148,4.8,4.8,0,0,1,.065,1.242,2.514,2.514,0,0,1-.378,1.154,2.394,2.394,0,0,1-.925.814,4.491,4.491,0,0,1-1.241.4.145.145,0,0,0-.118.158.144.144,0,0,0,.159.127,4.833,4.833,0,0,0,1.365-.335,2.852,2.852,0,0,0,1.169-.872,3.072,3.072,0,0,0,.582-1.361,5.5,5.5,0,0,0,.047-1.446" transform="translate(-58.991 -130.287)" fill="#502b13"/>
    <path id="Path_91126" data-name="Path 91126" d="M51.1,257.21a14.4,14.4,0,0,1-3.7-2.873c-.13-.139-.257-.281-.381-.43a13.061,13.061,0,0,1-1.252-1.719c-.1-.162-.193-.323-.285-.492a11.575,11.575,0,0,1-.87-1.971c-.058-.162-.113-.341-.176-.563a11.231,11.231,0,0,1-.406-2.519l0-17.985c0-.277.008-.559.031-.839.019-.238.051-.487.1-.742a5.3,5.3,0,0,1,1.04-2.427,4.619,4.619,0,0,1,.319-.355,4.23,4.23,0,0,1,.537-.461.3.3,0,0,0-.207-.541l-.148.017c-.21.026-.438.055-.654.084-.617.084-1.276.171-1.956.226l-.2.02c-.269.017-.515.031-.743.04-.369.011-.706.013-1.025,0a6.234,6.234,0,0,1-2.254-.458,5.284,5.284,0,0,1-.581-.286c-.179-.1-.362-.211-.545-.333a4.292,4.292,0,0,1-1.112-1.273c-.1-.153-.2-.315-.3-.483-.265-.451-.525-.946-.814-1.5a20.324,20.324,0,0,0-1.147-2.011l-.017-.022a5.691,5.691,0,0,0-5.373-3.037l-1.375-.034,1.338.318a8.474,8.474,0,0,1,6.236,6.911c.043.21.075.405.1.6a11.586,11.586,0,0,1,.108,1.6v24.392H34.4l-.013.13a3.071,3.071,0,0,1-.071.423c-.025.1-.055.208-.089.307l-.017.05.02.049c.044.111.086.221.12.341a6.662,6.662,0,0,1,.33,2.438,7.011,7.011,0,0,1-.071.725,7.758,7.758,0,0,1-.672,2.2,8.067,8.067,0,0,1-1.613,2.292,7.2,7.2,0,0,1-2.384,1.584l-.506.264.543.026c.185.009.374.015.573.017a4.892,4.892,0,0,0,.5-.03,21.147,21.147,0,0,0,5.739-2.063l.038-.018c1.184-.546,2.3-1.062,3.4-1.447a11.679,11.679,0,0,1,1.749-.486,7.421,7.421,0,0,1,1.335-.13l.29.005h.012l.164.023a4.975,4.975,0,0,1,1.467.433,3.829,3.829,0,0,1,1.948,2.186l.033.1H51.6Zm-3.662-.017a3.965,3.965,0,0,0-1.487-1.917,3.867,3.867,0,0,0-.573-.337,5.257,5.257,0,0,0-1.552-.459l-.184-.024h-.028s-.242-.006-.294-.006a7.731,7.731,0,0,0-1.387.135,11.975,11.975,0,0,0-1.792.5c-1.107.389-2.232.908-3.423,1.457l-.038.018a21,21,0,0,1-5.648,2.038c-.167.017-.3.026-.43.027a7.519,7.519,0,0,0,1.932-1.4A8.35,8.35,0,0,0,34.2,254.85a8.049,8.049,0,0,0,.7-2.286,7.234,7.234,0,0,0,.073-.754,6.94,6.94,0,0,0-.342-2.537c-.031-.106-.069-.209-.109-.313.029-.092.056-.187.079-.281.027-.115.048-.225.063-.332h1.008v-24.68a11.9,11.9,0,0,0-.11-1.637c-.025-.2-.1-.616-.1-.616l.62-.427s.2.338.3.494a4.553,4.553,0,0,0,1.194,1.356c.19.126.38.242.564.345a5.521,5.521,0,0,0,.61.3,6.5,6.5,0,0,0,2.353.48c.324.016.669.015,1.047,0,.231-.009.48-.023.756-.041l.208-.02c.685-.056,1.348-.144,1.968-.228.215-.029.442-.058.65-.083l.074-.009.079.014a4.511,4.511,0,0,0-.572.492,4.913,4.913,0,0,0-.338.377,5.579,5.579,0,0,0-1.1,2.558c-.047.264-.08.523-.1.769-.024.287-.035.578-.032.863V246.6l0,.054a11.512,11.512,0,0,0,.416,2.583c.064.228.122.413.18.579a11.858,11.858,0,0,0,.89,2.016c.093.172.19.338.291.5a13.345,13.345,0,0,0,1.277,1.754c.126.152.257.3.391.44a14.786,14.786,0,0,0,3.291,2.66Z" transform="translate(-22.408 -173.924)" fill="#502b13"/>
    <path id="Path_91127" data-name="Path 91127" d="M50.155,355.6c0-.01,0-.02,0-.03q0-.36-.01-.727c0-.072-.006-.144-.009-.219-.011-.1-.027-.206-.044-.31-.433-4.359-3.094-6.4-6.57-6.206-.719.043-2.936.426-2.318,1.976a.769.769,0,0,0,1.009.175.651.651,0,0,0-.256-1.225,3.671,3.671,0,0,1,2.625-.231c.318.1.651.229.983.373a7.017,7.017,0,0,1,1.864,1.42c.058.06.112.121.167.184a3.555,3.555,0,0,1,.333.469,3.4,3.4,0,0,1,.483,1.524c.006.083.009.164.009.247,0,.132,0,.279.006.434a13.019,13.019,0,0,0,.135,1.343,2.418,2.418,0,0,0,.081.357,3.316,3.316,0,0,0,.224.541,3.071,3.071,0,0,1,.429,2.174c-.011.086-.026.181-.046.285-.04.233-.1.5-.17.808a19.265,19.265,0,0,1-1.464,4c-.19.377-.4.751-.627,1.11a8.164,8.164,0,0,1-2.542,2.683l.213-.078q.419-.3.811-.63A12.871,12.871,0,0,0,47.6,363.76c.04-.055.08-.109.118-.167v0a11.98,11.98,0,0,0,.731-1.176,13.586,13.586,0,0,0,1.426-3.977c.052-.256.095-.515.132-.779a15.778,15.778,0,0,0,.15-2.055Z" transform="translate(-33.363 -282.594)" fill="#502b13"/>
    <rect id="Rectangle_71426" data-name="Rectangle 71426" width="1.828" height="26.285" transform="translate(9.474 12.938)" fill="#502b13"/>
    <path id="Path_91128" data-name="Path 91128" d="M123.373,74.647v27.675a7.054,7.054,0,0,0-.658.576c-.159.159-.318.329-.47.506a1.826,1.826,0,0,0-.47-.389l-.067-.053-.064-.021c-.032-.018-.067-.032-.1-.046V75.2a5.779,5.779,0,0,0,1.107-.555Z" transform="translate(-98.672 -60.6)" fill="#502b13"/>
    <path id="Path_91129" data-name="Path 91129" d="M47.017,293.956v1.721a1.844,1.844,0,0,1-.333-.13c-.6-.307-.943-.881-.77-1.286.144-.339.607-.452,1.1-.3" transform="translate(-37.237 -238.586)" fill="#502b13"/>
    <path id="Path_91130" data-name="Path 91130" d="M28.008,1.932a5.65,5.65,0,0,0-3.855-1.9c-2.4-.23-4.548.76-5.2,2.412a.689.689,0,0,0,1.28.513C20.653,1.9,22.283,1.239,24.023,1.4a4.164,4.164,0,0,1,3.162,1.758c.856,2.33-.926,4.7-3.7,4.7C19.592,7.876,15.914,5.6,12.144,5.7c-7.327.392-10.5,5.5-11,11.585A10.981,10.981,0,0,0,10.4,27.942a9.711,9.711,0,0,0,1.712.152c.039,0,.078,0,.117,0a8.56,8.56,0,0,0,6.935-3.713,8.238,8.238,0,0,0,1.248-2.78,7.377,7.377,0,0,0,.2-1.457q.005-.249,0-.488l-2.394-.683-.4-.113a5.222,5.222,0,0,1,.735,1.68c.011.043.021.085.028.127.728,3.7-4.141,6.012-6.362,6.16-.064,0-.124.007-.18.007a8.841,8.841,0,0,1-1.648-.145A7.963,7.963,0,0,1,3.65,19.108a6.129,6.129,0,0,1,6.334-5.75c.145,0,.283.011.421.021a8.25,8.25,0,0,1,1.828.325c2.875.859,4.24,2.981,8.721,2.8a8.568,8.568,0,0,0,2.85-.534,8.011,8.011,0,0,0,1.828-.944,10.407,10.407,0,0,0,4.215-8.438,6.415,6.415,0,0,0-1.839-4.661m-3.1,12.116A5.785,5.785,0,0,1,23.8,14.6a6.371,6.371,0,0,1-1.319.336C15.4,16.339,8.678,5.482,2.663,18l0,0c.247-9.141,6.182-10.545,8.5-10.722C18.389,6.72,23.177,12.049,28.245,6.1v.021c.011.371.088,5.693-3.335,7.925" transform="translate(-0.93 0)" fill="#502b13"/>
    <path id="Path_91131" data-name="Path 91131" d="M291.42,159.356c-.035-.343-.088-.69-.152-1.036.064.347.113.693.152,1.036m-.152-1.036c-.06-.347-.131-.693-.216-1.04.081.347.156.693.216,1.04m-.813-3.055c.156.442.3.884.421,1.33-.12-.446-.262-.888-.421-1.33" transform="translate(-235.796 -126.046)" fill="#502b13"/>
    <path id="Path_91132" data-name="Path 91132" d="M247.583,108.191l-.824.184-2.652.587-.693.152c-.064-.23-.134-.456-.2-.679l.69-.152,2.21-.488.852-.187c.216.195.421.389.619.584" transform="translate(-197.443 -87.357)" fill="#502b13"/>
    <path id="Path_91133" data-name="Path 91133" d="M252.776,120.892l-.764.166-4.166.923-.69.152q-.069-.345-.148-.69l.693-.155,3.819-.842.775-.173c.166.205.325.41.481.619" transform="translate(-200.525 -97.639)" fill="#502b13"/>
    <path id="Path_91134" data-name="Path 91134" d="M256.66,134.184l-.721.159-5.347,1.181-.689.156c-.035-.233-.071-.467-.113-.7l.693-.152,5.082-1.125.729-.163c.127.212.251.428.368.644" transform="translate(-202.782 -108.41)" fill="#502b13"/>
    <path id="Path_91135" data-name="Path 91135" d="M259.547,147.976l-.7.156-6.242,1.383-.7.152c-.021-.237-.046-.474-.074-.707l.7-.156,6.04-1.333.7-.156c.1.219.184.438.269.661" transform="translate(-204.446 -119.592)" fill="#502b13"/>
    <path id="Path_91136" data-name="Path 91136" d="M261.444,162.207l-.69.152-6.882,1.524-.7.152c-.011-.237-.025-.477-.039-.714l.7-.156,6.747-1.492.693-.152c.064.226.12.456.173.686" transform="translate(-205.498 -131.125)" fill="#502b13"/>
    <path id="Path_91137" data-name="Path 91137" d="M262.3,176.893l-.7.152-7.249,1.606-.711.156c0-.241,0-.485,0-.725l.7-.155,7.189-1.591.7-.156c.028.241.053.477.071.714" transform="translate(-205.909 -143.025)" fill="#502b13"/>
    <path id="Path_91138" data-name="Path 91138" d="M261.936,191.363c0,.244-.018.492-.035.736l-.721.159-7.327,1.62-.718.159c.018-.244.032-.492.043-.736l.714-.159,7.334-1.62Z" transform="translate(-205.498 -155.351)" fill="#502b13"/>
    <path id="Path_91139" data-name="Path 91139" d="M260.505,207.073c-.049.255-.106.509-.166.764l-.771.17-7.055,1.559-.732.163c.032-.247.06-.5.081-.746l.725-.159,7.165-1.584Z" transform="translate(-204.399 -168.105)" fill="#502b13"/>
    <path id="Path_91140" data-name="Path 91140" d="M257.816,223.421c-.1.265-.2.531-.311.792l-.849.191-6.369,1.407-.743.163c.042-.251.085-.5.124-.753l.739-.163,6.585-1.457Z" transform="translate(-202.584 -181.376)" fill="#502b13"/>
    <path id="Path_91141" data-name="Path 91141" d="M253.666,240.484c-.159.283-.329.562-.506.838l-.987.219-5.128,1.135-.771.17c.064-.255.12-.509.177-.764l.76-.17,5.506-1.217Z" transform="translate(-199.93 -195.228)" fill="#502b13"/>
    <path id="Path_91142" data-name="Path 91142" d="M247.322,258.656c-.106.124-.216.247-.325.368-.159.177-.329.357-.506.538l-1.312.29-2.939.651-.813.18c.1-.255.184-.516.269-.785l.8-.177,3.628-.8Z" transform="translate(-195.994 -209.981)" fill="#502b13"/>
    <path id="Path_91143" data-name="Path 91143" d="M242.965,105.594c0-.431-.018-.866-.053-1.3-.018-.237-.042-.474-.071-.714a18.448,18.448,0,0,0-.375-2.072c-.053-.23-.11-.46-.173-.686a19.968,19.968,0,0,0-.672-2.012c-.085-.223-.173-.442-.269-.661A21.143,21.143,0,0,0,240.4,96.2c-.117-.216-.241-.431-.368-.644a22.041,22.041,0,0,0-1.259-1.878c-.156-.209-.315-.414-.481-.619-.247-.308-.5-.608-.767-.9s-.555-.6-.863-.9c-.2-.194-.4-.389-.619-.583a20.735,20.735,0,0,0-6.274-3.925,11.2,11.2,0,0,1,2.521,4.753c.067.223.138.449.2.679.187.661.361,1.351.513,2.047q.08.345.149.69c.106.52.205,1.043.293,1.563.028.17.057.343.081.513.042.233.078.467.113.7q.159,1.045.272,2.1c.028.233.053.47.074.707q.106,1.061.17,2.122c.014.237.028.477.039.714q.053,1.077.057,2.147c0,.241,0,.484,0,.725,0,.722-.021,1.446-.053,2.168-.011.244-.025.492-.042.736-.039.732-.1,1.464-.173,2.193-.021.247-.049.5-.081.746q-.122,1.114-.3,2.221c-.039.251-.081.5-.124.753l-.064.371q-.17.944-.375,1.885c-.056.255-.113.509-.177.764-.187.792-.4,1.567-.644,2.3-.085.269-.173.531-.269.785a9.679,9.679,0,0,1-2.2,3.748,20.809,20.809,0,0,0,7.26-4.869c.177-.18.347-.361.506-.537.11-.12.219-.244.325-.368a21.073,21.073,0,0,0,1.9-2.582c.177-.276.347-.555.506-.838a20.958,20.958,0,0,0,1.185-2.419c.113-.262.216-.527.311-.792a19.978,19.978,0,0,0,.707-2.313c.06-.255.117-.509.166-.764a17.239,17.239,0,0,0,.3-2.221c.018-.244.032-.492.035-.735.007-.135.007-.272.007-.407l0-.191Zm-.764,1.736a16.853,16.853,0,0,1-.329,2.228c-.056.255-.117.509-.184.767a19.79,19.79,0,0,1-.76,2.323c-.1.269-.216.537-.336.8a20.87,20.87,0,0,1-1.284,2.44c-.173.286-.354.566-.545.845A20.812,20.812,0,0,1,237,118.993c-.113.124-.226.248-.346.371-.3.322-.619.636-.944.93a19.658,19.658,0,0,1-3.826,2.787,17.386,17.386,0,0,0,.887-2.136c.088-.251.173-.513.255-.781q.329-1.061.615-2.292c.057-.247.113-.5.166-.764.11-.509.212-1.04.311-1.591.039-.219.078-.438.11-.658.046-.251.085-.5.12-.753.113-.739.212-1.478.29-2.221q.043-.371.074-.743.111-1.093.166-2.193c.018-.244.028-.488.039-.736.032-.722.046-1.443.049-2.164,0-.241,0-.484-.007-.725,0-.714-.025-1.429-.06-2.143-.011-.241-.025-.477-.042-.718-.039-.707-.1-1.411-.17-2.118q-.032-.355-.074-.711c-.078-.7-.17-1.4-.279-2.1-.032-.234-.067-.463-.11-.7-.025-.159-.049-.322-.078-.481-.1-.552-.194-1.082-.3-1.595-.046-.237-.1-.467-.145-.693q-.244-1.087-.513-2.044c-.067-.233-.134-.46-.205-.679a18.363,18.363,0,0,0-1.1-2.815,19.946,19.946,0,0,1,3.31,2.327c.219.187.435.382.647.58.4.378.788.774,1.16,1.188.177.2.354.4.52.6s.332.4.492.612a20.564,20.564,0,0,1,1.294,1.874c.127.212.255.424.375.64a20.391,20.391,0,0,1,.972,1.945c.1.219.191.442.276.661a20.276,20.276,0,0,1,.675,2.008c.064.23.124.456.177.686a17.144,17.144,0,0,1,.368,2.076c.032.237.053.477.067.711.032.385.046.771.046,1.149l0,.233,0,.212c0,.184,0,.371-.011.555-.007.244-.021.488-.046.736" transform="translate(-186.52 -70.424)" fill="#502b13"/>
    <path id="Path_91144" data-name="Path 91144" d="M345.15,475.707a1,1,0,0,0-.186-.021.554.554,0,0,0-.328.494c0,.461.638,1.11,2.057,1.11a3.928,3.928,0,0,0,2.61-.695,1.913,1.913,0,0,0,.61-1.439,4.02,4.02,0,0,0-.284-1.478,2.247,2.247,0,0,1-.631,1.686,2.909,2.909,0,0,1-2.122.88,3,3,0,0,1-1.725-.536" transform="translate(-279.781 -384.539)" fill="#502b13"/>
    <path id="Path_91145" data-name="Path 91145" d="M57.88,130.958c-4.592-3.941-6.028-13.246-13.33-17.118a14.01,14.01,0,0,0-2.951-1.155l-.008-.011a22.836,22.836,0,0,0,16.622-21.26c0-.071,0-.145,0-.219s0-.145,0-.215c0-9.474-7.865-22.109-23.605-22.233-4.191.046-8.8,1.864-11.734,2.214v8.162c0-3.073,6.475-8.488,11.454-8.364,11.521.467,11.567,9.863,11.818,20.221v.007h0V91.4h0v.011c-.251,10.354-.3,19.754-11.818,20.217-3.991.1-7.042-1.7-9.489-3.276A1.752,1.752,0,0,1,26.4,107.6a.55.55,0,0,1,0,1.1s.156.481.909.481,1.45-1.04,1.45-2.932c0-1.75-1.383-3.519-3.9-3.819a4.435,4.435,0,0,1,4.106-4.579,2.1,2.1,0,0,1,2.048,1,1.251,1.251,0,0,1,.078.615,1.082,1.082,0,0,1-1.181,1.11.741.741,0,0,1-.728-.711c.039.152.156.226.364.212a.456.456,0,0,0,.424-.46.6.6,0,0,0-.583-.583.775.775,0,0,0-.767.852,1.293,1.293,0,0,0,1.234,1.33c2.27.177,2.189-1.641,2.189-1.641.035-1.464-1.093-2.8-3.183-2.8a5.949,5.949,0,0,0-4.314,1.825A9.112,9.112,0,0,0,23,100.7a11.347,11.347,0,0,0-.82,1.878c-.148.021-.3.042-.453.06a2.58,2.58,0,0,1-.608-2.479,1.528,1.528,0,0,1,.81-.994.749.749,0,0,1,.682.053.607.607,0,0,1,.106.085.855.855,0,0,1,.106.873.476.476,0,0,1-.106.166.443.443,0,0,1-.431.1c.092.011.156-.039.191-.156a.269.269,0,0,0-.173-.329.356.356,0,0,0-.442.209.464.464,0,0,0,.325.6.707.707,0,0,0,.53.007.786.786,0,0,0,.453-.431,1.112,1.112,0,0,0-.453-1.524.1.1,0,0,0-.028-.018c-.838-.47-1.768.053-2.182,1.217a3.5,3.5,0,0,0,.155,2.748c-2.482.237-5.124.074-5.124-2.719-.035-1.064.219-2.574,1.74-2.574.767.063,1.11.449,1.107,1.093a.855.855,0,0,0-1.429.633c.025.488.343.838,1.093.838a1.529,1.529,0,0,0,1.224-1.715,2.126,2.126,0,0,0-2.33-2.048,3.325,3.325,0,0,0-2.666,1.5c-1.623-2.649-3.862-4.371-8.1-4.342A6.184,6.184,0,0,0,.251,99.18c.021,2.6,1.775,4.272,3.787,4.272a1.686,1.686,0,0,0,1.69-1.255.1.1,0,0,0-.184-.092,1.386,1.386,0,0,1-1.177.573,1.856,1.856,0,0,1-1.687-.82,1.661,1.661,0,0,1-.117-1.418,2.441,2.441,0,0,1,2.514-1.45,5.914,5.914,0,0,1,5.244,5.7,1.5,1.5,0,0,1-.477,1.178l-.18.17a1.31,1.31,0,0,0-.4.937h.983v6.854a14.514,14.514,0,0,1-1.372-.965,5.468,5.468,0,0,1-.774-.764,1.759,1.759,0,0,1-.421-.927.99.99,0,0,1,.1-.481.8.8,0,0,1,.357-.329.983.983,0,0,1,.675-.043.3.3,0,0,0-.042.145.333.333,0,0,0,.665,0,.311.311,0,0,0-.205-.287,1.539,1.539,0,0,0-1.188-.011,1.1,1.1,0,0,0-.46.414,1.313,1.313,0,0,0-.163.6,2.039,2.039,0,0,0,.41,1.118,5.628,5.628,0,0,0,.753.877,16.437,16.437,0,0,0,1.662,1.4v1.181a17.983,17.983,0,0,1-5.937-4.328,5.26,5.26,0,0,1-1.245-3.48c0-.156.014-.311.032-.474a3.527,3.527,0,0,1,.622-1.75,3.025,3.025,0,0,1,1.538-1.033,3.259,3.259,0,0,1,1.885-.018,1.965,1.965,0,0,1,1.475,2.009,1.462,1.462,0,0,1-.9,1.595,1.36,1.36,0,0,1-1.114-.057.776.776,0,0,1-.286-1.2.427.427,0,0,1,.1-.049.037.037,0,0,0,0,.014.551.551,0,1,0,.661-.378,1.032,1.032,0,0,0-1.28.934v.014a1.624,1.624,0,0,0,.088.5,1.1,1.1,0,0,0,.29.435,1.74,1.74,0,0,0,.923.375l.011,0h.011a2.065,2.065,0,0,0,1.061-.272,1.833,1.833,0,0,0,.735-.827,2.507,2.507,0,0,0,.216-1.068,2.419,2.419,0,0,0-1.75-2.6c-3.427-1.231-5.138,1.966-5.312,3.26-.721,5.407,3.554,7.539,8.183,10.054v1.2c-3.784-.389-6.694,1.482-7.147,4.085a4.757,4.757,0,0,0,1.255,4.4,3.183,3.183,0,0,0,1.4.771,3.218,3.218,0,0,0,1.556.011,2.738,2.738,0,0,0,1.326-.75,2.459,2.459,0,0,0,.382-.668c.509-1.2-.2-2.528-1.075-2.528-.813.021-1.174.417-1.156,1.125a.909.909,0,0,0,1.065.919l.145-.333s-.831-.032-.877-.619.52-.661.806-.629a.949.949,0,0,1,.923.8,1.588,1.588,0,0,1-.117,1.167,1.3,1.3,0,0,1-.385.453,2.287,2.287,0,0,1-1.153.414,2.48,2.48,0,0,1-2.118-.849A3.458,3.458,0,0,1,4.24,124.2a3.239,3.239,0,0,1,.159-1.132,3.421,3.421,0,0,1,.548-1.008,4.82,4.82,0,0,1,.838-.838,5.78,5.78,0,0,1,1.04-.64c.184-.1.375-.17.566-.251.195-.064.389-.145.591-.191A6.807,6.807,0,0,1,9.2,119.92c.347-.014.7-.021,1.047-.011v1.061c.117,0,.237-.007.35-.007a7.288,7.288,0,0,1,1.33.117V105.552c0-5.626-3.834-8.629-7.2-8.855H4.71a6,6,0,0,0-1.022.148c.043-.042.088-.085.135-.123a4.117,4.117,0,0,1,1.093-.693,3.581,3.581,0,0,1,1.294-.3h.053c3.37,0,4.855,1.3,6.051,3.246,1.008,1.432,2.139,4.41,3.253,5.156a5.8,5.8,0,0,0,3.664,1.015c.407,0,.814-.021,1.213-.049l.2-.018c.369-.032.726-.072,1.077-.115a5.609,5.609,0,0,1-.3.8,6.08,6.08,0,0,1-.414.719,2.281,2.281,0,0,1-.68.555,1.662,1.662,0,0,1-.546.2.785.785,0,0,1-.5-.1.511.511,0,0,1-.17-.159.454.454,0,0,1-.057-.218.387.387,0,0,1,.239-.376.593.593,0,0,1,.521-.007.221.221,0,0,1,.1.184c0,.06-.074.124-.151.156l-.007,0a.072.072,0,0,0-.044.094.081.081,0,0,0,.1.034.524.524,0,0,0,.173-.1.289.289,0,0,0,.073-.354.374.374,0,0,0-.109-.145.586.586,0,0,0-.362-.115,1.12,1.12,0,0,0-.371.062.659.659,0,0,0-.381.913.754.754,0,0,0,.244.264,1.1,1.1,0,0,0,.73.166,1.344,1.344,0,0,0,.372-.094,2.513,2.513,0,0,0,.3-.144,5.71,5.71,0,0,0-.438.8,2.837,2.837,0,0,0-.2.666,2.125,2.125,0,0,0,0,.682v.012a2.377,2.377,0,0,0,.255.646,1.012,1.012,0,0,0,.622.463,1.441,1.441,0,0,0,.416.038,1.762,1.762,0,0,0,.411-.065,1.325,1.325,0,0,0,.526-.288c0,.1-.009.2-.008.3V128.45l0,.053c.226,4.912,3.756,8.894,7.706,10.637l-.467.658h-4.8a3.514,3.514,0,0,0-3.176-2.723l-.131-.018-.276,0c-1.931,0-4.074.99-6.341,2.04-2.15,1-4.59,2.125-6.426,2.132a14.854,14.854,0,0,1-1.708-.117,7.457,7.457,0,0,1-2.178-.576c-.039-.018-.074-.039-.113-.056.205.025.414.042.629.049a6.868,6.868,0,0,0,5.75-4.1,6.715,6.715,0,0,0,.2-5.573,2.816,2.816,0,0,0,.219-1.344h.983v-6.85c-.265-.11-.538-.216-.8-.3a3.759,3.759,0,0,0-.877-.117v4.965a1.9,1.9,0,0,0-1.856,2.136c.555-.269,1.05.166.824.633-1.057-.375-1.931.4-1.623,1.248a.8.8,0,0,0,.644.477c.438,0,.619-.234.619-.566,1.906,2.511-.308,6.963-3.632,7.094-1.627.021-3.055-.562-3.154-2.012a1.36,1.36,0,0,1,1.489-1.464,1,1,0,0,1,.792.672l-.007.021a1.045,1.045,0,0,0-.506-.135.941.941,0,1,0,0,1.878,1.327,1.327,0,0,0,1-.382A1.618,1.618,0,0,0,5.17,135.7c0-1.779-2.051-1.733-2.083-1.733A3.15,3.15,0,0,0,0,137.135c0,3.922,2.482,6.319,8.13,6.39,4.367,0,9.774-4.247,12.865-4.169,1.043.148,1.319.658,1.3,1.478L21.19,142.1h9.3c4.662,0,4.092-4.169,1.652-4.553a9.97,9.97,0,0,1-7.784-9.147V111.69c2.629.564,6.062,1.689,9.339,1.906.723,10.447,13.478,12.826,12.977,19.893.016,3.139-3.424,4.947-7.2,4.818v2.977c4.492-.032,11.2.023,15.207.023,7.5,0,12.046.649,12.551,3.208a.128.128,0,0,1-.205.121,2.919,2.919,0,0,0-1.783-.584,3.059,3.059,0,0,0-3,3.074c0,1.9,1.731,3.751,4.687,3.751,4.587,0,5.86-2.879,5.849-4.868,0-6.742-8.748-9.769-14.9-15.05M45.433,106.51c.1-.255.184-.516.269-.785.241-.732.456-1.507.644-2.3.064-.255.12-.509.177-.764q.207-.939.375-1.885l.064-.371c.043-.251.085-.5.124-.753q.175-1.109.3-2.221c.032-.247.06-.5.081-.746.074-.728.134-1.46.173-2.193.018-.244.032-.492.042-.736.032-.721.053-1.446.053-2.168,0-.241,0-.485,0-.725,0-.715-.021-1.429-.057-2.147-.011-.237-.025-.477-.039-.714q-.064-1.061-.17-2.122c-.021-.237-.046-.474-.074-.707q-.111-1.05-.272-2.1c-.035-.233-.071-.467-.113-.7-.025-.17-.053-.343-.081-.513-.088-.52-.188-1.043-.294-1.563q-.069-.345-.149-.69c-.152-.7-.325-1.386-.513-2.047-.064-.23-.134-.456-.2-.679a11.2,11.2,0,0,0-2.521-4.753,20.731,20.731,0,0,1,6.274,3.925c.216.195.421.389.619.583.308.3.594.6.863.9s.52.594.767.9c.166.205.325.41.481.619a22.09,22.09,0,0,1,1.259,1.878c.127.212.251.428.368.644a21.016,21.016,0,0,1,.955,1.948c.1.219.184.438.269.661a19.96,19.96,0,0,1,.672,2.012c.064.226.12.456.174.686a18.478,18.478,0,0,1,.375,2.072c.028.24.053.477.071.714.035.435.053.87.053,1.3l0,.244,0,.191c0,.134,0,.272-.007.406,0,.244-.018.492-.036.736a17.2,17.2,0,0,1-.3,2.221c-.049.255-.106.509-.166.764a19.989,19.989,0,0,1-.707,2.313c-.1.265-.2.53-.311.792a20.968,20.968,0,0,1-1.185,2.419c-.159.283-.329.562-.506.838a21.105,21.105,0,0,1-1.9,2.582c-.106.124-.216.247-.326.368-.159.177-.329.357-.506.537a20.807,20.807,0,0,1-7.26,4.869,9.679,9.679,0,0,0,2.2-3.748m-24.423-3.784a3.253,3.253,0,0,1-.329-2.062,3,3,0,0,0,.608,1.987.354.354,0,0,0,.032.039c-.1.014-.205.025-.311.035m1.8-.226a10.736,10.736,0,0,1,1.181-2.352,7.922,7.922,0,0,1,.552-.714,5.666,5.666,0,0,1,3.377-2,5.083,5.083,0,0,0-2.833,2.108,4.789,4.789,0,0,0-.81,2.847c-.025,0,.131,1.425-.647,1.407-.672-.011-1.121-.237-.82-1.3m.6,3.982A4.68,4.68,0,0,0,22.186,109a.9.9,0,0,0-.257-.217.672.672,0,0,0-.417-.081.907.907,0,0,0-.4.146.466.466,0,0,0-.193.354.946.946,0,0,0,.05.349.078.078,0,0,0,.1.045.075.075,0,0,0,.058-.089h0c-.059-.2-.076-.431.092-.544a.719.719,0,0,1,.31-.1.474.474,0,0,1,.295.064.711.711,0,0,1,.309.378q-.04.285-.06.589a.742.742,0,0,1-.052.086,1.2,1.2,0,0,1-1.214.352.744.744,0,0,1-.453-.366,2.139,2.139,0,0,1-.2-.581,2.036,2.036,0,0,1,.248-1.178,8.105,8.105,0,0,1,.749-1.106,6.324,6.324,0,0,1,2.838-2.4c.054,0,.11-.006.154-.006a2.775,2.775,0,0,1,1.881.629,3.987,3.987,0,0,0-2.6,1.167M70.268,148.3a4.692,4.692,0,0,1-3.356,1.057c-2.02,0-3.109-1.15-3.109-2.23a1.534,1.534,0,0,1,1.378-1.553,1.383,1.383,0,0,1,.82.227,1.752,1.752,0,0,0,1.094.385,1.724,1.724,0,0,0,1.31-.6,1.59,1.59,0,0,0,.363-1.354c-.726-3.7-5.933-4.446-14.1-4.446-1.452,0-3.261-.009-5.192-.014-2.209-.009-4.582-.023-6.759-.023-.489,0-.968,0-1.436,0a9,9,0,0,0,5.234-2.267,5.426,5.426,0,0,0,1.72-3.95c.258-4.011-2.883-6.7-5.912-9.3-3.172-2.725-6.489-5.984-7.068-10.613a26.765,26.765,0,0,0,4.622-.53,1.548,1.548,0,0,0,.247.409,2.42,2.42,0,0,0,1.068.658c5.649,1.516,8.174,6.2,10.62,10.738,1.5,2.777,2.919,5.406,5.008,7.2a60.729,60.729,0,0,0,5.965,4.344c4.508,3.009,8.4,5.61,8.4,9.57a3.173,3.173,0,0,1-.915,2.29" transform="translate(0 -55.809)" fill="#502b13"/>
    <path id="Path_91146" data-name="Path 91146" d="M248.438,417.207a7.749,7.749,0,0,1-.625.543h.043l12.391-3.6c-.764-.546-1.514-1.122-2.251-1.721l-7.931,2.306a6.641,6.641,0,0,1-1.628,2.475" transform="translate(-201.178 -334.814)" fill="#502b13"/>
    <path id="Path_91147" data-name="Path 91147" d="M261.429,401.375a6.474,6.474,0,0,1-.108,1.1l6.775-1.97a14.137,14.137,0,0,1-1.731-1.872l-4.973,1.446a7.883,7.883,0,0,1,.036,1.3" transform="translate(-212.144 -323.614)" fill="#502b13"/>
    <path id="Path_91148" data-name="Path 91148" d="M327.771,439.432l.218-.063c-.736-.559-1.532-1.118-2.371-1.686l-2.771.806a20.693,20.693,0,0,1,4.924.944" transform="translate(-262.092 -355.317)" fill="#502b13"/>
    <path id="Path_91149" data-name="Path 91149" d="M257.376,387.029l4.529-1.317c-.446-.638-.868-1.309-1.274-2l-4.071,1.183a8.491,8.491,0,0,1,.816,2.138" transform="translate(-208.279 -311.499)" fill="#502b13"/>
    <path id="Path_91150" data-name="Path 91150" d="M270.311,428.172c1.107,0,2.212.01,3.292.045l4.555-1.324-.328-.22c-.7-.47-1.416-.952-2.127-1.442l-10.07,2.927c1.737.007,3.356.014,4.678.014" transform="translate(-215.645 -345.209)" fill="#502b13"/>
    <path id="Path_91151" data-name="Path 91151" d="M196.276,316.605l5.813-1.69a11.3,11.3,0,0,0-2.626-1.065,3.415,3.415,0,0,1-.762-.325l-3.387.985a10.092,10.092,0,0,0,.962,2.1" transform="translate(-158.559 -254.524)" fill="#502b13"/>
    <path id="Path_91152" data-name="Path 91152" d="M204.893,328.232l6.689-1.945a12.774,12.774,0,0,0-1.994-1.8l-6.319,1.837a16.661,16.661,0,0,0,1.623,1.9" transform="translate(-165.018 -263.427)" fill="#502b13"/>
    <path id="Path_91153" data-name="Path 91153" d="M247.226,371.609l4.09-1.189c-.333-.595-.662-1.2-.994-1.816l-.126-.233-4.519,1.314a14.828,14.828,0,0,1,1.549,1.925" transform="translate(-199.444 -299.049)" fill="#502b13"/>
    <path id="Path_91154" data-name="Path 91154" d="M233.14,356.493l4.808-1.4c-.379-.694-.761-1.377-1.157-2.039l-5.638,1.639c.668.576,1.343,1.172,1.987,1.8" transform="translate(-187.653 -286.616)" fill="#502b13"/>
    <path id="Path_91155" data-name="Path 91155" d="M217.974,341.9l5.977-1.738a22.456,22.456,0,0,0-1.4-1.969l-6.59,1.916c.642.606,1.319,1.2,2.01,1.791" transform="translate(-175.323 -274.549)" fill="#502b13"/>
  </g>
</svg>
