<svg xmlns="http://www.w3.org/2000/svg" width="78.294" height="81.593" viewBox="0 0 78.294 81.593">

  <path id="Ellipse_610" data-name="Ellipse 610" d="M41,0h1.8l.043,0h.334l.044,0h.1l.044,0h.186l.043,0h.1l.043,0H43.8l.022,0h.039l.024,0h.061l.023,0h.062l.021,0h.02l.043,0,.02,0h.019l.02,0h0l.023,0,.02,0,.039,0,.019,0H44.3l.02,0h0l.023,0,.02,0h.019l.02,0h0l.021,0,.019,0,.039,0,.02,0,.022,0h0l.02,0h0l.023,0,.02,0,.04,0,.02,0,.022,0h0l.02,0h0l.023,0,.02,0,.04,0h0l.017,0h0l.017,0h0l.039,0,.02,0,.023,0h0l.02,0h0l.022,0,.02,0,.04,0,.019,0,.022,0h0l.04,0,.02,0h0l.039,0h0l.018,0h0l.018,0h0l.04,0,.02,0h0l.04,0h0l.022,0,.017,0h0l.04,0,.02,0h0l.04,0h0l.022,0,.02,0,.04,0h0l.02,0,.019,0h0l.04,0,.02,0h0l.04,0h0l.018,0h0l.019,0h0l.04,0,.02,0h0l.04,0h0l.022,0,.018,0h0l.04,0,.02,0,.022,0h0l.04,0,.02,0h0l.04,0h0l.018,0h0l.019,0h0l.04,0,.02,0h0l.039,0h0l.018,0h0l.019,0h0l.04.005.02,0h0l.04.005h0l.022,0,.019,0L46.4.353h0l.021,0,.019,0h0l.04.005.02,0h0l.04.005h0l.018,0h0l.018,0h0l.04.005.02,0h0l.04.005h0l.022,0,.018,0h0L46.77.4h0l.021,0,.019,0h0l.04.006.02,0h0l.039.006h0l.018,0h0l.018,0h0l.04.006.02,0h0l.04.006h0l.019,0h0l.018,0h0l.04.006h0l.021,0,.059.009h0l.019,0h0l.04.006h0l.018,0h0l.018,0h0L47.36.49l.02,0h0L47.422.5h0l.018,0h0l.018,0h0l.04.006.019,0h0l.039.006h0l.021,0,.017,0h0l.039.006.02,0h0l.019,0h0l.039.006.02,0h0l.039.007h0l.017,0h0l.017,0h0l.039.007.019,0h0l.039.007h0l.021,0,.019,0L48.009.6h0l.017,0h0l.019,0h0l.039.007.02,0h0l.039.007h0l.017,0h0l.019,0h0l.039.007h0l.017,0h0l.039.007h0l.02,0,.017,0h0l.038.007.019,0h0l.018,0h0l.02,0h0l.017,0,.02,0h0l.039.007h0l.017,0h0l.018,0h0l.02,0h0l.019,0,.019,0h0l.038.007h0l.017,0h0l.017,0h0l.038.007h0l.016,0h0l.018,0h0l.02,0h0l.017,0h0l.016,0h0l.038.007.019,0h0l.017,0h0l.019,0h0l.016,0,.02,0h0l.038.007h0l.016,0h0l.016,0h0L49.095.8h0l.019,0,.038.008h0l.016,0h0l.016,0h0l.038.008h0l.015,0h0l.017,0h0l.019,0h0l.016,0,.019,0h0l.037.008h0l.015,0h0l.016,0h0l.019,0h0l.016,0,.019,0h0l.017,0h0l.019,0h0l.015,0h.005l.014,0h0l.018,0h0l.016,0,.019,0h.005l.016,0h0l.019,0h0l.014,0,.019,0H49.7l.036.008.019,0h.006l.014,0h0l.018,0h0l.014,0,.019,0h.006l.015,0h0l.018,0,.018,0,.019,0h.007l.017,0,.018,0,.018,0,.007,0,.013,0h0l.018,0,.018,0,.018,0,.008,0,.016,0,.018,0,.018,0,.019,0h.006l.017,0,.018,0,.018,0,.008,0,.023.005.019,0,.018,0,.018,0,.017,0,.018,0,.018,0,.019,0,.011,0,.013,0,.018,0,.018,0,.02,0,.023.005.018,0,.018,0,.025.006.017,0,.018,0,.017,0,.018,0,.017,0,.018,0,.017,0h.006l.021,0,.017,0,.017,0H50.7l.021.005.016,0,.017,0,.018,0h0l.026.006.016,0,.017,0h0l.04.01.017,0,.017,0h0l.027.007.016,0,.017,0h0l.041.01h0l.013,0h0l.057.014h0l.013,0h0l.042.011h0l.013,0h0l.013,0h0l.042.011h0l.013,0h0l.043.011h0l.014,0h0l.059.015h0l.014,0h0l.06.016h0l.076.02h0l.059.016h0l.014,0h0l.043.012h0l.013,0h0l.013,0h0l.04.011h0l.011,0,.006,0,.012,0h0l.027.007h0l.012,0,.006,0,.011,0h.005l.037.01.017,0,.007,0,.01,0,.008,0,.017,0,.008,0,.01,0,.017,0,.008,0,.009,0,.016,0,.017,0,.018,0,.019.005.009,0,.014,0,.018,0,.018,0,.008,0,.016,0,.006,0,.012,0,.007,0,.011,0,.007,0,.012,0,.006,0,.017,0h0l.013,0,.005,0,.013,0h0l.036.01h0l.013,0,.005,0,.015,0h0l.018.005h0l.015,0h0l.014,0h0l.036.01h0l.015,0h0l.016,0h0l.037.011h0l.015,0h0l.037.011h0l.017.005h0l.017,0h0l.038.011h0l.017,0h0l.056.017h0l.018.005h0l.057.017h0a40.746,40.746,0,0,1,7.594,3.139h0l.017.009h0l.035.019h0l.017.009h0l.051.028h0l.016.009h0l.034.019h0l.015.008h0l.016.008h0l.017.009h0l.016.009,0,0L60.632,5l0,0,.032.018,0,0,.012.006.005,0,.012.006,0,0,.016.009,0,0,.013.007.006,0,.011.006.005,0,.012.007,0,0,.015.008.006,0,.01.005.007,0,.009.005.007,0,.011.006.01.005.01.005.007,0,.009,0,.008,0,.007,0,.008,0,.009.005.013.007.007,0,.009,0,.006,0,.009.005.006,0,.016.009.007,0,.008,0,.007,0L61,5.2l.007,0,.009,0,.008,0,.014.008.007,0,.009,0,.007,0,.008,0,.007,0,.014.008.008,0,.008,0,.007,0,.009,0,.007,0,.008,0,.007,0,.015.008.007,0,.008,0,.007,0,.008,0,.008,0,.01.006.011.006.008,0,.007,0,.008,0,.007,0,.008,0,.008,0,.012.007.009.005.007,0,.009,0,.007,0,.009.005.007,0,.014.008.007,0,.009.005.007,0,.008,0,.007,0,.01.006.007,0,.013.008.006,0,.009.005.007,0,.008,0,.007,0,.013.008.007,0,.009.005.007,0,.008,0,.008,0,.009.005.006,0,.014.008.007,0,.009.005.007,0,.008,0,.007,0,.011.007.008,0,.011.006.007,0,.009.005.007,0,.01.006.006,0,.014.008.006,0,.009.005.007,0,.009.005.006,0,.01.006.008,0,.012.007.006,0,.009.005.007,0,.009.005.006,0,.014.008.006,0,.01.006.006,0,.01.006.006,0,.011.007,0,0,.015.009.005,0,.01.006.006,0,.01.006.006,0,.015.009,0,0,.012.007.006,0,.009.006.006,0,.011.006,0,0,.015.009.005,0,.01.006.006,0,.01.006.005,0,.013.008,0,0,.013.008.006,0,.01.006.006,0,.011.006,0,0,.015.009,0,0,.011.006.006,0,.01.006.006,0,.013.008,0,0,.015.009.005,0,.01.006.006,0,.01.006.005,0,.015.009,0,0,.013.008.005,0,.011.007,0,0,.012.008,0,0,.016.01,0,0,.013.008,0,0,.011.007,0,0,.015.009h0l.014.009,0,0,.011.007.005,0L62.362,6l0,0,.016.01,0,0,.012.008,0,0,.011.007,0,0,.015.009h0l.015.009,0,0,.011.007,0,0,.012.008,0,0,.016.01h0l.014.009,0,0,.011.007,0,0,.013.008,0,0,.015.009,0,0,.011.007.005,0,.011.007,0,0,.015.009h0l.014.008,0,0,.011.007,0,0,.013.008h0l.016.01h0l.013.008,0,0,.012.007,0,0,.031.019,0,0,.012.007,0,0,.013.008,0,0,.016.01h0l.013.008,0,0,.011.007,0,0,.013.008,0,0,.015.01,0,0,.012.007,0,0,.012.008,0,0,.016.01h0l.015.009,0,0,.012.008,0,0,.014.009h0l.016.01,0,0L63,6.4l0,0,.012.007,0,0,.031.02,0,0,.012.008,0,0,.013.008,0,0,.016.01h0l.014.009,0,0,.012.008,0,0,.031.02,0,0,.012.008,0,0,.013.008h0l.016.01h0l.015.01,0,0,.012.008,0,0,.031.02h0l.014.009,0,0,.013.009,0,0,.031.02,0,0,.013.008,0,0,.014.009h0l.016.01h0l.014.009,0,0,.013.009,0,0,.032.021h0l.014.009,0,0,.015.01h0l.032.021,0,0,.013.009,0,0,.031.021,0,0,.013.009,0,0,.013.009h0l.031.02,0,0,.012.008,0,0,.015.01h0l.016.011h0l.014.009,0,0,.014.009h0l.032.021h0l.014.009,0,0,.015.01h0l.032.021h0l.014.009,0,0,.032.021h0l.014.01h0l.015.01h0l.032.021h0l.014.01h0l.032.022h0l.015.01h0l.015.01h0l.032.022h0l.014.009h0l.032.022h0l.015.01,0,0,.014.009h0l.031.021,0,0,.013.009,0,0,.014.01h0l.031.021,0,0,.013.009,0,0,.031.022h0l.014.01,0,0,.014.01h0l.032.022h0l.013.009,0,0,.031.021h0l.014.01,0,0,.013.009,0,0,.031.022h0l.013.009,0,0,.014.01h0l.031.022h0l.014.01h0l.031.022h0l.014.01,0,0,.014.01h0l.031.022,0,0,.013.009,0,0,.031.022h0l.014.01,0,0,.013.01h0l.031.022h0l.014.01,0,0,.031.022h0l.015.011,0,0,.014.01h0l.031.022h0l.014.01,0,0,.014.01h0l.031.022,0,0,.013.009,0,0,.031.022h0l.014.01,0,0,.013.01h0l.03.022,0,0,.013.009,0,0,.014.01h0l.016.011h0l.014.01,0,0,.013.009h0l.031.022h0l.013.01,0,0,.014.01h0L65.2,7.9h0l.014.01,0,0,.013.009,0,0,.03.022h0l.014.01,0,0,.014.01h0l.03.022,0,0L65.34,8h0l.031.023h0l.014.011,0,0,.014.01h0l.031.023h0l.013.01,0,0,.045.034h0l.014.01h0l.031.023h0l.014.01,0,0,.014.011h0l.03.023,0,0,.013.01h0l.031.023h0l.014.01,0,0,.013.01h0l.03.023h0l.013.01,0,0,.03.023h0l.014.011,0,0,.013.01h0l.03.023,0,0,.013.01,0,0,.014.011h0l.03.023,0,0,.013.01h0l.03.023h0l.013.01,0,0,.013.01h0L66,8.5l0,0,.013.01,0,0,.03.023h0l.014.011,0,0,.012.009,0,0,.03.023,0,0,.013.01,0,0,.014.011h0l.015.012h0l.014.011,0,0,.012.01,0,0,.03.023,0,0,.012.01,0,0,.013.01h0l.03.023,0,0,.013.01,0,0,.03.023h0l.014.011h0l.014.011h0l.03.024,0,0,.013.01h0l.03.024h0l.013.01,0,0,.012.01,0,0,.03.024h0l.013.011,0,0,.044.035,0,0,.012.01,0,0,.029.023h0l.013.01,0,0,.013.01h0l.029.023,0,0,.012.01,0,0,.03.024h0l.014.011,0,0,.013.01h0l.03.024h0l.013.011,0,0,.03.024h0l.014.012,0,0,.013.011,0,0,.029.024h0l.013.011,0,0,.014.011h0l.029.024,0,0,.012.01,0,0,.03.024h0L67,9.3l0,0,.013.011h0l.029.024,0,0,.013.01,0,0,.029.024h0l.014.012,0,0,.013.01,0,0,.029.024,0,0,.012.01,0,0,.012.01,0,0,.029.024,0,0,.012.01,0,0,.029.024h0l.013.011,0,0,.013.011h0l.029.024,0,0,.012.01,0,0,.014.012h0l.015.012h0l.013.011,0,0,.012.01,0,0,.028.024,0,0,.012.01,0,0,.043.036,0,0,.013.011h0l.029.025h0l.012.011,0,0,.013.011h0l.029.024,0,0,.012.01,0,0,.029.024h0l.013.011,0,0,.012.01,0,0,.028.024,0,0,.012.01,0,0,.013.011h0l.015.013h0l.013.012,0,0,.012.01,0,0,.028.024,0,0,.012.01,0,0,.013.011h0l.029.025,0,0,.012.01,0,0,.028.024,0,0,.012.01,0,0,.012.011h0l.028.024,0,0,.011.01,0,0,.028.025h0l.012.011,0,0,.012.01,0,0,.028.025,0,0,.011.01,0,0,.012.011h0l.014.012h0l.012.011,0,0,.01.009,0,0,.027.024,0,0,.011.01,0,0,.012.011h0l.014.013h0l.014.012,0,0,.011.01,0,0,.013.012h0l.014.013,0,0,.012.01,0,0,.012.011,0,0,.028.025,0,0,.011.01,0,0,.013.012h0l.014.013h0l.013.011,0,0,.012.011,0,0,.028.025,0,0,.012.011,0,0,.013.012h0l.028.025,0,0,.012.011,0,0,.028.025h0l.012.011,0,0,.013.012h0l.028.026,0,0,.012.011,0,0,.013.012h0l.014.013h0l.012.011,0,0,.012.011,0,0,.027.025,0,0,.011.01,0,0,.012.011h0l.014.013h0l.013.012,0,0,.012.011,0,0,.028.025,0,0,.012.011,0,0,.011.011,0,0,.014.013h0l.013.012,0,0,.011.01,0,0,.027.025,0,0,.012.011,0,0,.012.011,0,0,.027.025,0,0,.011.01,0,0,.012.011h0l.014.013h0l.012.011,0,0,.011.01,0,0,.027.025,0,0,.01.009,0,0,.01.01,0,0,.014.013h0l.013.012,0,0,.011.01,0,0,.013.012h0l.014.013,0,0,.011.01,0,0,.011.01,0,0,.027.025,0,0,.011.01,0,0,.013.012h0l.014.013h0l.012.011,0,0,.011.011,0,0,.027.026,0,0,.011.01,0,0,.012.011h0l.014.013h0l.012.012,0,0,.011.011,0,0,.027.025,0,0,.011.01,0,0,.011.011,0,0,.027.026,0,0,.011.01,0,0,.013.012h0l.014.013,0,0,.011.011,0,0,.01.01,0,0,.027.026,0,0,.011.011,0,0,.012.012h0l.014.013h0l.012.012,0,0,.011.011,0,0,.027.026,0,0,.012.012,0,0,.012.012h0l.027.026,0,0,.011.011,0,0,.027.026h0l.012.012,0,0,.012.012h0l.027.027h0l.012.012,0,0,.013.013h0l.014.014h0l.012.012,0,0,.012.011,0,0,.027.026,0,0,.011.011,0,0,.012.012h0l.014.014h0l.013.013,0,0,.012.012h0l.027.027h0l.012.012,0,0,.012.012h0l.027.027,0,0,.012.012,0,0,.027.027h0l.012.012,0,0,.012.012v0l.027.027h0l.012.012,0,0,.012.013h0l.026.027,0,0,.012.012h0l.027.027h0l.012.012,0,0,.013.013h0l.027.027h0l.012.012h0l.027.027h0l.012.012,0,0,.012.012h0l.026.027,0,0,.011.011,0,0,.026.027h0l.012.013,0,0,.012.012h0l.027.028h0l.012.012,0,0,.012.013h0l.026.027,0,0,.011.012,0,0,.026.027h0l.012.012,0,0,.012.012h0l.026.027,0,0,.012.012h0l.027.028h0l.012.013,0,0,.012.012h0l.026.028,0,0,.012.012,0,0,.026.028h0l.013.013,0,0,.011.012,0,0,.026.028v0l.011.012,0,0,.012.013h0l.026.028,0,0,.011.012,0,0,.026.028h0l.012.013,0,0,.012.013h0l.026.028h0l.012.013h0l.039.042h0l.012.013h0l.026.028h0l.013.014h0l.039.042h0l.012.013h0l.039.043h0l.039.043h0l.013.014h0l.039.043h0l.092.1h0l.052.058h0l.052.058h0l.039.044h0l.039.044h0l.013.014h0l.039.044h0l.052.058h0l.039.044h0l.013.015h0A41.157,41.157,0,0,1,75.5,18.842l-.841.541a40.3,40.3,0,0,0-14.2-13.339A39.814,39.814,0,0,0,41,1V0ZM77.385,57.641l.909.416q-.443.966-.933,1.905h0l-.028.053h0l-.028.052h0l-.009.016h0l-.027.052v0l-.027.052h0l-.008.016v0l-.018.034h0l-.009.016v0l-.008.015v0l-.018.034v0l-.008.015v0l-.018.034v0l-.008.014,0,0-.007.014v0l-.018.034v0l-.008.014v0l-.018.033v0l-.008.014,0,0-.008.015v0l-.018.033,0,0-.007.013,0,0-.018.033,0,0L77,60.629l0,0-.007.013v0l-.009.017v0l-.008.014,0,0-.006.012,0,0-.009.016h0l-.009.016,0,0-.007.012,0,0-.007.012,0,0-.009.016,0,0-.007.012,0,.005-.006.012,0,0-.008.014v0l-.008.015,0,0-.006.011,0,.005-.006.012,0,0-.008.015,0,.005-.006.011,0,.006-.006.011,0,.005-.009.016h0l-.009.015,0,0L76.8,61l0,.005-.007.012,0,0-.009.015,0,0-.006.011,0,.007-.005.01,0,.006-.009.015v0l-.008.013,0,.006-.005.01,0,.007-.006.01,0,.005-.008.015,0,.007-.005.009,0,.007-.005.009,0,.007-.007.013,0,.007-.006.01,0,.007-.005.009,0,.007-.005.009-.006.01-.006.011,0,.007,0,.009,0,.007-.005.009,0,.007-.007.012-.005.009-.005.009,0,.007,0,.008,0,.007-.005.009-.005.009-.007.012,0,.007,0,.008,0,.007,0,.008,0,.008,0,.008-.008.014,0,.007-.005.009,0,.007,0,.008,0,.007-.008.014,0,.008,0,.008,0,.007-.005.009,0,.006-.005.009,0,.006-.01.016,0,.007-.005.009,0,.006-.005.009,0,.007-.008.014,0,.007-.005.009,0,.007-.005.009,0,.006L76.4,61.7l0,.006-.005.009,0,.006-.005.009,0,0-.012.02,0,0-.006.01,0,.005-.006.01,0,.006-.019.032,0,.006-.005.009,0,.006-.005.009,0,0-.012.02,0,0-.006.01,0,0-.006.01,0,0-.02.034,0,0-.006.01,0,0-.006.011h0l-.014.024,0,0-.006.011,0,0-.006.011,0,0-.021.035,0,0-.006.01,0,0-.021.035,0,0-.006.011,0,0-.006.011v0l-.021.036,0,0-.006.011,0,0-.021.035,0,0-.006.01,0,0-.006.01,0,0-.021.035,0,0-.007.011,0,0-.022.037h0L76,62.364l0,0-.007.011h0l-.023.037v0l-.007.012v0l-.023.037v0l-.007.011,0,0-.031.05h0l-.008.012h0l-.024.039h0l-.008.012v0l-.031.05,0,0-.007.011v0l-.023.037h0l-.008.012v0l-.032.05v0l-.008.012h0l-.032.051h0l-.032.051v0l-.032.051h0l-.008.013h0l-.033.051h0l-.033.051h0l-.008.012h0l-.032.05v0l-.033.051h0l-.008.013h0l-.033.051h0l-.033.051h0l-.008.012h0l-.033.05h0l-.033.05h0l-.042.064h0l-.033.051h0l-.2.295h0l-.034.05h0l-.034.05h0l-.008.012h0l-.034.05h0l-.078.114h0l-.157.228h0q-.176.253-.355.5h0q-.161.226-.326.449h0L74,65.333h0l-.128.173h0l-.036.049h0l-.129.172h0l-.037.049h0l-.037.049h0l-.047.061h0l-.037.048h0l-.009.012h0L73.5,66h0l-.037.048h0l-.047.06h0l-.037.048h0l-.047.06h0l-.037.047h0l-.036.046,0,0-.009.011h0l-.037.047v0l-.009.011h0l-.028.036h0l-.009.012h0l-.037.047v0l-.037.046v0l-.009.011h0l-.037.047h0l-.009.011h0L73,66.637h0l-.009.011v0l-.027.034h0l-.008.011,0,0-.036.045,0,0-.008.01v0l-.027.033,0,0-.008.01,0,0-.037.045,0,0-.009.011v0l-.027.033,0,0-.008.01,0,0-.036.044,0,0-.008.01,0,0-.026.032,0,0-.008.01,0,0-.008.009v0l-.017.02,0,0-.008.009,0,0-.007.009,0,0-.025.03,0,0-.007.009,0,0-.026.031,0,0-.008.009,0,0-.008.009,0,0-.026.031,0,0-.008.009,0,0-.008.009h0l-.017.02,0,0-.007.009,0,0-.007.009,0,0-.017.021h0l-.008.009,0,0-.008.009,0,0-.025.03,0,0-.007.009,0,0-.007.009,0,0-.015.018,0,0-.007.009,0,0-.007.009,0,.005-.007.008,0,.005-.012.014,0,.005-.007.008,0,.005-.007.008,0,0-.013.015,0,0-.007.008,0,.006-.007.008,0,.005-.024.028,0,0L72.2,67.6l0,.006-.007.008,0,0-.013.015,0,0-.007.008,0,.006-.007.008,0,0-.024.028,0,0-.007.008,0,0-.007.008,0,0-.012.014-.005.006-.006.007-.005.006-.006.007-.005.006-.008.01-.008.009-.006.007-.005.006-.006.007-.006.006-.006.007-.008.009L72,67.836l-.007.008-.006.007-.006.007-.006.007-.006.007,0,.006-.011.012-.005.006-.006.007-.006.007-.006.007-.006.007-.008.009-.008.009-.007.008-.006.007-.006.007-.006.006-.007.008-.006.007-.01.011,0,.006-.007.008-.005.006-.007.008-.005.006-.008.01-.008.009-.006.007-.006.006-.006.007-.006.007-.007.008,0,.005-.011.012-.005.006-.007.008-.005.006-.007.007-.005.006-.009.01-.007.008-.006.007-.006.007-.006.007-.005.006-.007.008-.005.006-.01.012,0,.005-.007.008-.005.006-.007.008,0,.005-.011.013,0,0-.008.009-.005.006-.007.008-.005.006-.009.01,0,0-.011.013,0,.005-.007.008-.005.006-.007.008,0,0-.011.013,0,0-.008.009,0,.005-.008.008,0,0-.009.011,0,0-.01.011,0,0-.008.009,0,0-.009.01,0,0-.012.013,0,0-.009.01,0,0-.009.01,0,0-.012.013h0l-.011.012,0,0-.008.009,0,0-.009.01,0,0-.012.013,0,0-.01.011,0,0-.009.01,0,0-.012.013h0l-.011.012,0,0-.008.009,0,0-.009.01,0,0-.012.013,0,0-.009.01,0,0-.009.01,0,0-.012.013h0l-.012.013,0,0-.009.01,0,0-.011.012h0l-.012.013,0,0-.009.01,0,0-.009.01,0,0-.012.013,0,0-.011.012,0,0-.009.01,0,0-.012.012h0l-.012.013,0,0-.009.01,0,0-.01.011,0,0-.025.027,0,0-.01.011,0,0-.026.027,0,0-.01.011,0,0-.011.011,0,0-.013.014h0l-.012.013,0,0-.01.011,0,0-.025.027,0,0-.01.011,0,0-.011.012,0,0-.026.027,0,0-.011.012,0,0-.026.028v0l-.011.012,0,0-.026.027h0l-.012.013,0,0-.012.012v0l-.026.028v0l-.012.013h0l-.039.041,0,0-.012.012h0l-.027.028h0l-.012.013,0,0-.027.028h0l-.013.014h0l-.012.013h0l-.027.028h0l-.013.013h0l-.04.042v0l-.013.013h0l-.027.028h0l-.013.013h0l-.041.042h0l-.041.042h0l-.055.056h0a41.169,41.169,0,0,1-8.069,6.384h0l-.051.031h0l-.017.01h0l-.051.031h0l-.051.031h0l-.068.04h0l-.051.03h0l-.016.01h0l-.034.02h0l-.016.01h0l-.05.03h0l-.016.009h0l-.034.02h0l-.015.009h0l-.05.029h0l-.016.009h0l-.034.02h0l-.015.009h0l-.033.019h0l-.015.009,0,0-.016.009h0l-.034.019h0l-.015.009h0l-.033.019h0l-.015.009h0l-.016.009h0l-.034.019h0l-.015.009h0l-.034.019h0l-.015.009,0,0-.016.009h0l-.034.019h0l-.015.008h0l-.033.019h0l-.015.009h0l-.015.008h0l-.033.019,0,0-.014.008h0l-.033.019h0l-.015.008,0,0-.033.019h0L61,76.8h0l-.015.008h0l-.034.019h0l-.014.008,0,0-.015.009h0l-.017.009h0l-.015.008,0,0-.014.008,0,0-.033.018,0,0-.013.007,0,0-.015.009h0l-.017.009h0l-.014.008,0,0-.014.008,0,0-.033.018,0,0-.013.007,0,0-.015.008h0l-.017.009h0L60.633,77l0,0-.014.008h0l-.033.018,0,0-.014.007,0,0-.033.018h0l-.014.008,0,0-.014.008h0l-.033.018,0,0-.013.007,0,0-.033.018,0,0-.013.007,0,0-.014.007h0l-.017.009h0l-.015.008,0,0-.012.007,0,0-.015.008h0l-.016.009,0,0-.012.006,0,0-.012.007,0,0-.016.009h0l-.014.007,0,0-.013.007,0,0-.016.008h0l-.016.009,0,0-.012.006,0,0-.013.007h0l-.017.009h0l-.014.007,0,0-.012.007,0,0-.032.017,0,0-.012.006,0,0L60,77.342h0l-.017.009,0,0-.013.007,0,0-.012.007,0,0-.017.009h0l-.016.008,0,0-.012.006,0,0-.014.007h0l-.016.008,0,0-.012.006-.005,0-.012.006,0,0-.016.008h0l-.015.008,0,0-.012.006,0,0-.013.007,0,0-.016.008,0,0-.012.006-.005,0L59.7,77.5l0,0-.016.008h0l-.014.007,0,0-.012.006-.005,0-.014.007h0l-.016.008,0,0-.012.006-.005,0-.012.006,0,0-.016.008h0l-.014.007-.005,0-.011.006-.005,0L59.5,77.6h0l-.016.008-.005,0-.011.006-.006,0-.011.006,0,0-.016.008,0,0-.013.006-.005,0-.011.006-.005,0-.014.007h0l-.016.008,0,0-.012.006-.005,0-.012.006,0,0L59.3,77.7l0,0-.013.006-.005,0-.012.006,0,0-.015.007h0l-.016.008,0,0-.012.006-.005,0-.012.006,0,0-.016.008-.006,0-.011.005-.006,0-.011.005-.005,0-.015.008h0l-.015.007-.006,0-.011.005-.006,0-.012.006,0,0-.016.008,0,0-.012.006-.006,0-.011.005-.005,0L59,77.848h0l-.015.007-.006,0-.011.005-.006,0-.012.006,0,0-.016.008-.006,0-.011.005-.006,0-.011.005-.006,0-.016.008h0l-.014.007-.005,0-.011.006-.005,0-.013.006,0,0-.016.008,0,0-.012.006-.005,0-.012.006,0,0-.016.008,0,0-.013.006-.005,0-.011.005-.006,0L58.7,78l0,0L58.676,78l-.005,0-.011.005-.006,0-.011.005-.006,0-.016.007,0,0-.012.006-.007,0-.01,0-.006,0-.012.006,0,0-.016.008-.005,0-.011.005-.006,0-.011.005-.006,0-.016.007,0,0-.012.006-.007,0-.01,0-.007,0-.014.006h0l-.016.008-.006,0-.011.005-.006,0-.011.005-.006,0-.016.008,0,0-.013.006-.006,0-.011.005-.005,0-.014.006,0,0-.014.007-.006,0-.01,0-.007,0-.011.005-.005,0-.016.007-.005,0-.011.005-.006,0-.011,0-.006,0-.014.007,0,0-.014.006-.007,0-.01,0-.007,0-.011,0-.006,0-.016.007-.006,0-.011.005-.007,0-.01,0-.006,0-.012.005-.009,0-.011.005-.007,0-.009,0-.008,0-.01,0-.006,0-.016.007-.006,0-.011.005-.007,0-.01,0-.007,0-.016.007h0l-.013.006-.006,0-.011,0-.006,0-.012.005,0,0-.016.007-.006,0-.011.005-.006,0-.011.005-.005,0-.016.007,0,0-.012.006-.006,0-.011,0-.006,0-.012.006,0,0-.016.007-.006,0-.01,0-.006,0-.011,0-.006,0-.016.007,0,0-.013.006-.006,0-.011,0-.006,0-.013.006,0,0L57.6,78.5l-.006,0-.011,0-.006,0-.011.005-.005,0-.016.007,0,0-.013.006-.006,0-.011,0-.006,0-.013.006h0l-.016.007-.006,0-.011,0-.006,0-.011,0-.006,0-.016.007,0,0-.013.006-.006,0-.011,0-.006,0-.014.006h0l-.016.007-.006,0-.011,0-.006,0-.012.005,0,0-.016.007-.006,0-.011,0-.006,0-.011,0-.006,0-.014.006,0,0-.014.006-.006,0-.011,0-.006,0-.012.005,0,0-.016.007-.005,0-.011,0-.007,0-.011,0-.006,0-.016.007h0l-.014.006-.006,0-.011,0-.006,0-.012.005,0,0-.017.007,0,0-.012.005-.006,0-.011,0-.006,0-.016.007h0l-.015.006,0,0-.012.005-.005,0-.013.005,0,0L56.9,78.8l-.005,0-.012,0-.006,0-.011,0-.006,0-.016.007,0,0-.012.005-.007,0-.01,0-.007,0-.013.005,0,0-.016.007-.006,0-.011,0-.006,0-.012,0-.005,0-.016.007,0,0-.012.005-.006,0-.011,0-.006,0-.014.006h0l-.016.007-.006,0-.011,0-.006,0-.012,0,0,0-.017.007,0,0-.013.005-.006,0-.011,0-.006,0-.015.006h0l-.017.007,0,0-.013.005,0,0-.013.005,0,0-.017.007h0l-.014.006-.005,0-.012,0-.005,0-.015.006h0l-.017.007,0,0-.012.005-.006,0-.013.005,0,0-.017.007,0,0-.013.005-.006,0-.012,0-.005,0-.034.013-.006,0-.012,0-.006,0-.013.005,0,0-.017.007,0,0-.013.005-.006,0-.012,0,0,0-.017.007h0l-.016.006-.005,0-.012,0-.006,0-.014.006h0l-.017.007h0l-.014.006,0,0-.014.005,0,0-.035.014,0,0-.013,0-.005,0-.014.005h0l-.017.007,0,0-.013.005-.005,0-.013,0,0,0-.017.007h0l-.015.006,0,0-.013,0-.005,0-.015.006h0l-.017.007,0,0-.013,0-.006,0-.013,0,0,0-.017.007h0l-.015.006-.006,0-.012,0-.005,0-.016.006h0l-.017.007-.005,0-.012,0-.006,0-.012,0,0,0-.017.007h0l-.015.006,0,0-.013,0,0,0-.017.006h0l-.018.007,0,0-.013,0,0,0-.014.005h0l-.017.007h0l-.015.006,0,0-.014.005,0,0L55.4,79.4l0,0-.013.005-.005,0-.014.005h0l-.018.007h0l-.015.006,0,0-.014.005,0,0-.035.013,0,0-.014.005,0,0-.015.006h0l-.018.007h0l-.015.006,0,0-.014.005h0l-.036.013h0l-.014.005h0l-.017.006h0l-.018.007h0l-.015.006,0,0-.014.005h0l-.035.013,0,0-.014.005,0,0-.016.006h0l-.018.006h0l-.015.005,0,0-.015.005h0l-.036.013h0l-.015.005h0l-.036.013h0l-.015.005h0l-.015.005h0l-.036.013h0l-.014.005h0l-.036.013h0l-.016.006h0l-.016.006h0l-.036.013h0l-.015.005h0l-.036.013h0l-.016.005h0l-.016.006h0l-.019.006h0l-.017.006h0l-.015.005h0l-.036.013h0l-.016.005h0l-.018.006h0l-.019.007h0l-.018.006h0l-.016.006h0l-.037.013h0l-.017.006h0l-.055.019h0l-.017.006h0l-.038.013h0l-.017.006h0l-.055.019h0l-.017.006h0l-.037.013h0l-.017.006h0l-.056.019h0l-.056.019h0l-.018.006h0l-.038.012h0l-.018.006h0l-.018.006h0l-.038.012h0l-.018.006h0l-.057.018h0l-.057.018h0l-.019.006h0l-.057.018h0l-.057.018h0l-.076.024h0l-.193.061h0a40.752,40.752,0,0,1-6.4,1.439l-.14-.99A40.045,40.045,0,0,0,77.385,57.641ZM1.667,29.389l.959.283A39.951,39.951,0,0,0,10.739,67.16l-.756.654q-.677-.782-1.314-1.6h0l-.075-.1h0L8.5,66h0l-.009-.011h0l-.009-.011h0l-.009-.012h0L8.424,65.9h0l-.009-.011h0l-.008-.011,0,0-.008-.01v0l-.008-.011h0l-.009-.011h0l-.046-.061h0l-.008-.011h0l-.008-.011h0L8.3,65.741h0l-.008-.011v0l-.037-.049h0l-.009-.012h0l-.008-.011,0,0-.007-.01,0,0-.007-.009,0,0-.007-.009,0,0-.007-.01v0l-.008-.011h0l-.027-.037h0l-.008-.011,0,0-.007-.009,0,0-.006-.008,0,0-.006-.009,0,0L8.119,65.5l0,0-.007-.009,0,0-.027-.036h0l-.008-.011,0,0-.007-.009,0,0-.007-.009,0,0L8.045,65.4l0,0-.006-.009,0,0-.007-.009,0,0-.007-.01,0,0-.009-.012h0L8,65.333H8l-.008-.011,0,0-.006-.009,0,0L7.972,65.3l0,0-.006-.008,0,0-.005-.007,0,0-.006-.008,0,0-.006-.008,0,0-.006-.009,0,0-.017-.024,0,0L7.9,65.2l0,0-.006-.008,0-.005-.005-.007,0,0,0-.007,0-.005-.005-.007,0-.005,0-.006,0-.006,0-.007,0-.005-.007-.01v0L7.825,65.1h0l-.008-.012,0,0-.006-.008,0,0L7.8,65.061l0,0-.006-.008,0,0-.005-.007,0-.005-.005-.007,0,0-.006-.008,0,0L7.755,65l0,0-.006-.008,0-.006-.007-.01,0,0-.005-.007,0-.006,0-.006,0-.006,0-.006,0-.006,0-.006,0-.006,0-.006,0-.006,0-.006,0-.006,0-.005,0-.007,0-.005,0-.007,0,0-.012-.016,0,0,0-.007,0,0-.005-.007,0,0-.005-.007,0,0-.005-.007,0,0-.005-.007,0,0L7.6,64.782l0,0L7.59,64.77l0,0-.03-.042h0l-.006-.009,0,0L7.542,64.7l0,0-.006-.008,0,0-.006-.008,0,0-.005-.008,0,0-.005-.007,0,0L7.5,64.644l0,0-.03-.042h0l-.007-.009,0,0-.006-.009,0,0-.006-.009,0,0-.006-.009,0,0-.006-.009,0,0-.007-.01h0l-.039-.055,0,0-.006-.009,0,0-.006-.009,0,0-.006-.009,0,0-.006-.009,0,0-.006-.009v0l-.007-.01h0l-.039-.057h0l-.008-.011h0l-.008-.011h0l-.007-.011h0L7.26,64.3h0l-.007-.011h0l-.055-.08h0L7.189,64.2h0A40.763,40.763,0,0,1,.531,47.617h0l0-.013h0l0-.013h0l-.018-.113h0l0-.013h0l0-.014h0L.486,47.33h0l0-.014h0l0-.014h0l-.02-.129h0l0-.014h0l0-.013h0l0-.014h0l-.017-.114h0l0-.014h0l-.017-.115h0l0-.014h0l0-.013v0l0-.013v0l0-.013h0l-.014-.1v0l0-.013v0l0-.013v0l0-.012v0l0-.013v0l-.012-.085h0l0-.014h0l0-.013v0l0-.013v0l0-.013h0l-.011-.086h0l0-.014h0l0-.013v0l0-.013v0l0-.013v0l0-.013h0l-.011-.087h0l0-.013v0l0-.013h0l0-.013h0l0-.013h0l0-.013h0l-.011-.085v0l0-.013v0l0-.012V46.07l0-.013v0L.3,45.97h0l0-.013V45.9l-.01-.085v-.076l-.008-.07h0v-.087h0l-.006-.058h0v-.089l-.007-.07v-.092l-.006-.055h0V45.2h0v-.087h0L.2,45.052v-.1h0l0-.041v-.122l0-.027h0v-.12l0-.039v-.12h0l0-.039v-.113l0-.035v-.123l0-.037v-.438l0-.035V42.108h0V41.2s0-.006,0-.011v-.005s0-.008,0-.012,0,0,0,0v-.037s0-.006,0-.01,0,0,0-.006V41.1s0,0,0-.007,0-.007,0-.009,0,0,0-.007,0-.006,0-.009,0,0,0-.007,0-.007,0-.01,0,0,0-.006v-.016s0-.007,0-.011,0,0,0-.005V41H0v-.015s0,0,0,0,0-.009,0-.012v0c0-.006,0-.009,0-.015v0s0-.008,0-.012,0,0,0,0V40.9s0,0,0,0v-.012s0,0,0,0v-.03s0,0,0,0,0-.009,0-.015H0c0-.006,0-.008,0-.014v-.15H0v-.081H0v-.031H0v-.164H0v-.132h0v-.279h0v-.081h0V39.86h0V39.81h0v-.031h0v-.049h0v-.082h0v-.032h0V39.5h0v-.016h0V39.4h0v-.393h0v-.049h0v-.082h0v-.032h0v-.034l0-.031v0l0-.031h0v-.015h0l0-.031v0l0-.031v-.016h0v-.016h0v-.016l0-.031v-.016h0l0-.031v0l0-.031v-.017h0v-.016h0v-.017l0-.031V38.4h0v-.016h0v-.017l0-.031v-.017h0V38.3h0v-.016l0-.031v-.017h0V38.22h0V38.2l0-.031v-.017h0v-.016h0v-.015h0l0-.032h0l0-.048h0l0-.032h0l0-.032h0v-.016h0l0-.032h0l0-.032h0v-.015h0l0-.031v0l0-.031h0V37.8h0V37.78h0v-.015h0l0-.031h0v-.015h0l0-.032h0l0-.032h0l0-.048h0l0-.032h0v-.016h0l0-.032h0l0-.032h0l0-.032h0V37.44h0l0-.032h0l0-.048h0l0-.031v0l0-.031h0l0-.048h0l0-.048h0l.011-.113h0l0-.032h0l0-.016h0l0-.032h0l0-.032h0l0-.016h0l0-.032h0l0-.048h0l0-.032h0l0-.031h0l.013-.128h0A40.8,40.8,0,0,1,1.667,29.389ZM41,0V1A40.057,40.057,0,0,0,29.793,2.591l-.28-.96.232-.067h0l.03-.008h0l.029-.008h0l.03-.008h0l.015,0h0l.029-.008h0l.029-.008h0l.014,0h0l.015,0h0l.014,0h0l.028-.008h0l.013,0h0l.014,0h0l.011,0h0l.014,0h0l.012,0h0l.012,0h0l.013,0,.014,0h0l.013,0,.013,0h0l.013,0h0l.011,0,.015,0h0l.013,0,.014,0h0l.013,0,.014,0,.014,0,.017,0,.014,0,.006,0,.012,0,.013,0,.006,0,.012,0,.013,0,.015,0,.016,0,.013,0,.018,0,.013,0,.013,0,.013,0,.013,0,.006,0,.014,0,.012,0h0l.027-.007.013,0h.005l.014,0,.013,0h0l.028-.007.013,0h0l.02-.005.011,0h0l.019-.005h0l.01,0h0l.03-.008h0l.075-.019h0l.032-.008h0l.043-.011h0l.032-.008h0l.075-.019h0A40.886,40.886,0,0,1,37.3.164h0l.045,0h0l.034,0h0l.08-.007h0l.034,0h0l.079-.007h0l.034,0h.012l.033,0h0l.032,0h0l.033,0h.014l.02,0h.014l.034,0,.044,0,.034,0H37.9l.023,0h.013l.021,0h.013l.034,0h.013l.021,0h.057l.024,0h.171l.025,0H41Z" fill="#214b32"/>
</svg>
