<svg id="Group_359" data-name="Group 359" xmlns="http://www.w3.org/2000/svg" xmlns:xlink="http://www.w3.org/1999/xlink" width="86.847" height="50.922" viewBox="0 0 86.847 50.922">
  <defs>
    <clipPath id="clip-path">
      <rect id="Rectangle_147" data-name="Rectangle 147" width="86.847" height="50.922" fill="none"/>
    </clipPath>
  </defs>
  <g id="Group_168" data-name="Group 168" transform="translate(0 0)" clip-path="url(#clip-path)">
    <path id="Path_63126" data-name="Path 63126" d="M102.089,30.466l4.182,4.182a4.958,4.958,0,0,0,0-7.012L99.8,21.165c-1.936,1.936.353,7.365,2.289,9.3" transform="translate(-55.48 -11.853)" fill="#553720"/>
    <path id="Path_63127" data-name="Path 63127" d="M71.116,5.634,66.934,1.452a4.958,4.958,0,0,1,7.012,0l6.471,6.471c-1.936,1.936-7.365-.353-9.3-2.289" transform="translate(-37.485 0)" fill="#553720"/>
    <path id="Path_63128" data-name="Path 63128" d="M97.651,7.068l-.019-.019a8.249,8.249,0,0,1-11,0l-.019.019a8.249,8.249,0,0,1,0,11l.019.019a8.249,8.249,0,0,1,11,0l.019-.019a8.249,8.249,0,0,1,0-11" transform="translate(-48.509 -3.948)" fill="#9a683d"/>
    <path id="Path_63129" data-name="Path 63129" d="M8.324,67.492a3.031,3.031,0,0,1-1.309,2.57,5.794,5.794,0,0,1-3.507.962A14.484,14.484,0,0,1,.315,70.6L0,68.187a9,9,0,0,0,.872.533,6.008,6.008,0,0,0,2.8.727,3.308,3.308,0,0,0,1.879-.476,1.457,1.457,0,0,0,.707-1.261,1.4,1.4,0,0,0-.218-.76,2.773,2.773,0,0,0-1.471-.88q-.226-.073-.856-.3a12.4,12.4,0,0,1-2.069-.889,2.416,2.416,0,0,1-1.309-2.15A2.7,2.7,0,0,1,1.483,60.4a5.556,5.556,0,0,1,3.269-.825,13,13,0,0,1,2.15.2l.3.048L7.516,62.2a9.483,9.483,0,0,0-1.2-.663,4.809,4.809,0,0,0-1.9-.4,2.707,2.707,0,0,0-1.463.343,1.056,1.056,0,0,0-.541.933,1,1,0,0,0,.266.728A6.571,6.571,0,0,0,4.9,64.171a8,8,0,0,1,2.514,1.172,2.715,2.715,0,0,1,.913,2.15" transform="translate(0 -33.367)" fill="#553720"/>
    <path id="Path_63130" data-name="Path 63130" d="M33.7,65.3a5.394,5.394,0,0,1-1.754,4.1,6.114,6.114,0,0,1-4.356,1.649,6.093,6.093,0,0,1-4.315-1.6,5.233,5.233,0,0,1-1.722-4,5.579,5.579,0,0,1,1.689-4.195,5.976,5.976,0,0,1,4.332-1.632,6.183,6.183,0,0,1,4.376,1.624A5.306,5.306,0,0,1,33.7,65.3m-2.118,0a4.057,4.057,0,0,0-1.127-2.971,3.929,3.929,0,0,0-2.93-1.147,3.674,3.674,0,0,0-2.8,1.135,4.167,4.167,0,0,0-1.071,2.983,4.276,4.276,0,0,0,1.091,3.056,3.767,3.767,0,0,0,2.877,1.158,3.742,3.742,0,0,0,2.849-1.179,4.247,4.247,0,0,0,1.111-3.036" transform="translate(-12.068 -33.387)" fill="#553720"/>
    <path id="Path_63131" data-name="Path 63131" d="M62.338,60.039a1.386,1.386,0,0,0-.582,1.277v9.965l-7.612-8.446v6.983a1.334,1.334,0,0,0,.582,1.261H51.888a1.334,1.334,0,0,0,.582-1.261V61.4a1.522,1.522,0,0,0-.582-1.358h2.255l5.94,6.586v-5.31a1.393,1.393,0,0,0-.574-1.277Z" transform="translate(-29.059 -33.624)" fill="#553720"/>
    <path id="Path_63132" data-name="Path 63132" d="M81.9,71.079H78.73a1.333,1.333,0,0,0,.582-1.261v-8.5a1.384,1.384,0,0,0-.582-1.277H81.9a1.386,1.386,0,0,0-.582,1.277v8.5a1.335,1.335,0,0,0,.582,1.261" transform="translate(-44.091 -33.624)" fill="#553720"/>
    <path id="Path_63133" data-name="Path 63133" d="M100.041,65.043a1.352,1.352,0,0,0-.574,1.261v3.208a1.53,1.53,0,0,0,.178.832,15.27,15.27,0,0,1-4.5.679,6.577,6.577,0,0,1-4.219-1.309,5.356,5.356,0,0,1-2.1-4.4,5.245,5.245,0,0,1,1.822-4.126,6.85,6.85,0,0,1,4.7-1.6,8.887,8.887,0,0,1,1.2.073q.9.114,2.133.4l.267,2.53a6.255,6.255,0,0,0-3.726-1.463,4.188,4.188,0,0,0-3.071,1.146,4.064,4.064,0,0,0-1.164,3.033,4.013,4.013,0,0,0,1.2,3.057,4.488,4.488,0,0,0,3.22,1.137,4.958,4.958,0,0,0,2.037-.413V66.306a1.36,1.36,0,0,0-.582-1.263Z" transform="translate(-49.744 -33.367)" fill="#553720"/>
    <path id="Path_63134" data-name="Path 63134" d="M127.373,71.079h-3.258a.876.876,0,0,0,.315-.582,1.884,1.884,0,0,0-.186-.646l-1.2-2.845h-3.677l-1.309,3.015a1.33,1.33,0,0,0-.113.525.721.721,0,0,0,.3.533h-2.869a1.614,1.614,0,0,0,.283-.218,1.73,1.73,0,0,0,.412-.59l3.912-8.955a2.07,2.07,0,0,0,.194-.768.7.7,0,0,0-.259-.509h2.23l4.267,9.747a4.839,4.839,0,0,0,.331.646,2.94,2.94,0,0,0,.631.647m-4.995-5.625-1.18-2.748-1.172,2.748Z" transform="translate(-64.611 -33.624)" fill="#553720"/>
    <path id="Path_63135" data-name="Path 63135" d="M155.353,71.079h-3.144l-2.925-3.993a3.942,3.942,0,0,0-.962-1,2.222,2.222,0,0,0-1.091-.3v4.033a1.334,1.334,0,0,0,.582,1.261h-3.168a1.334,1.334,0,0,0,.582-1.261v-8.5a1.385,1.385,0,0,0-.582-1.277H147.5l.38.008q.371.008.679.008a8.025,8.025,0,0,1,2.037.218,2.629,2.629,0,0,1,1.948,2.611,2.747,2.747,0,0,1-.477,1.592,2.685,2.685,0,0,1-1.656,1.01,4.216,4.216,0,0,1,.549.6l.242.291,2.489,3.313q.04.049.178.243l.016.024a3.118,3.118,0,0,0,.614.663,7.93,7.93,0,0,0,.857.461m-5.027-8.211q0-1.293-2.166-1.293h-.93v2.731q.348.017.7.017a6.784,6.784,0,0,0,1.188-.081,1.525,1.525,0,0,0,.88-.477,1.3,1.3,0,0,0,.332-.9" transform="translate(-81.006 -33.624)" fill="#553720"/>
    <path id="Path_63136" data-name="Path 63136" d="M182.116,71.079h-3.258a.876.876,0,0,0,.315-.582,1.884,1.884,0,0,0-.186-.646l-1.2-2.845h-3.677L172.8,70.02a1.33,1.33,0,0,0-.113.525.721.721,0,0,0,.3.533h-2.869a1.6,1.6,0,0,0,.283-.218,1.724,1.724,0,0,0,.413-.59l3.912-8.955a2.069,2.069,0,0,0,.194-.768.7.7,0,0,0-.259-.509h2.23l4.267,9.747a4.842,4.842,0,0,0,.331.646,2.94,2.94,0,0,0,.631.647m-4.995-5.625-1.18-2.748-1.172,2.748Z" transform="translate(-95.269 -33.624)" fill="#553720"/>
    <path id="Path_63137" data-name="Path 63137" d="M10.633,98.6l-.582,2.32-.234.032a17.452,17.452,0,0,1-2.36.218A7.528,7.528,0,0,1,2.474,99.6a5.5,5.5,0,0,1-.008-8.292,7.384,7.384,0,0,1,4.918-1.58,13.975,13.975,0,0,1,2.3.235l.267,2.182q-.711-.347-1.091-.493a5.357,5.357,0,0,0-1.875-.332,4.23,4.23,0,0,0-3.067,1.128,3.949,3.949,0,0,0-1.168,2.978A3.835,3.835,0,0,0,4.03,98.454a4.989,4.989,0,0,0,3.426,1.127,6.93,6.93,0,0,0,2.974-.88Z" transform="translate(-0.329 -50.251)" fill="#9a683d"/>
    <path id="Path_63138" data-name="Path 63138" d="M37.008,95.447a5.394,5.394,0,0,1-1.754,4.1,6.114,6.114,0,0,1-4.356,1.649,6.093,6.093,0,0,1-4.315-1.6,5.233,5.233,0,0,1-1.722-4A5.579,5.579,0,0,1,26.55,91.4a5.976,5.976,0,0,1,4.332-1.632,6.183,6.183,0,0,1,4.376,1.624,5.306,5.306,0,0,1,1.75,4.057m-2.118,0a4.057,4.057,0,0,0-1.127-2.971,3.929,3.929,0,0,0-2.93-1.147,3.674,3.674,0,0,0-2.8,1.135,4.167,4.167,0,0,0-1.071,2.983A4.276,4.276,0,0,0,28.053,98.5a4.091,4.091,0,0,0,5.726-.02,4.247,4.247,0,0,0,1.111-3.036" transform="translate(-13.923 -50.272)" fill="#9a683d"/>
    <path id="Path_63139" data-name="Path 63139" d="M65.908,101.229H62.764l-2.925-3.993a3.934,3.934,0,0,0-.962-1,2.221,2.221,0,0,0-1.091-.3v4.033a1.335,1.335,0,0,0,.582,1.261H55.2a1.334,1.334,0,0,0,.582-1.261v-8.5a1.385,1.385,0,0,0-.582-1.277h2.853l.38.008q.372.008.679.008a8.02,8.02,0,0,1,2.037.218A2.628,2.628,0,0,1,63.1,93.034a2.747,2.747,0,0,1-.477,1.592,2.687,2.687,0,0,1-1.656,1.01,4.233,4.233,0,0,1,.55.6l.242.291,2.489,3.313q.04.049.177.243l.016.024a3.119,3.119,0,0,0,.614.663,7.91,7.91,0,0,0,.857.461m-5.027-8.211q0-1.293-2.166-1.293h-.93v2.731q.347.017.7.017a6.778,6.778,0,0,0,1.188-.081,1.524,1.524,0,0,0,.881-.477,1.3,1.3,0,0,0,.331-.9" transform="translate(-30.914 -50.509)" fill="#9a683d"/>
    <path id="Path_63140" data-name="Path 63140" d="M89.644,93.414a3,3,0,0,1-1.111,2.421,4.391,4.391,0,0,1-2.906.925,6.09,6.09,0,0,1-1.608-.234v3.443a1.335,1.335,0,0,0,.582,1.261H81.433a1.334,1.334,0,0,0,.582-1.261v-8.5a1.384,1.384,0,0,0-.582-1.277h3.645q.259,0,.776.016a5.422,5.422,0,0,1,1.988.347,2.947,2.947,0,0,1,1.317,1.14,3.157,3.157,0,0,1,.485,1.722m-2.166.032a1.647,1.647,0,0,0-.3-.97,1.433,1.433,0,0,0-.78-.566,9.918,9.918,0,0,0-2.384-.186v3.3a3.566,3.566,0,0,0,1.22.251,2.5,2.5,0,0,0,1.633-.5,1.631,1.631,0,0,0,.606-1.33" transform="translate(-45.605 -50.509)" fill="#9a683d"/>
    <path id="Path_63141" data-name="Path 63141" d="M1.625,47.211H2.908a1.175,1.175,0,0,1,.848.3.823.823,0,0,1,.231.588v.008a.874.874,0,0,1-.81.87l.917,1.22H3.68l-.866-1.16H1.962V50.2H1.625Zm1.253,1.522c.448,0,.767-.231.767-.614v-.008c0-.366-.281-.588-.763-.588H1.962v1.211Z" transform="translate(-0.91 -26.44)" fill="#9a683d"/>
    <rect id="Rectangle_146" data-name="Rectangle 146" width="0.337" height="2.985" transform="translate(3.749 20.772)" fill="#9a683d"/>
    <path id="Path_63142" data-name="Path 63142" d="M10.623,49.707l.209-.247a1.422,1.422,0,0,0,1.023.422c.4,0,.665-.213.665-.507v-.008c0-.277-.149-.435-.776-.568-.687-.149-1-.371-1-.861v-.009a.881.881,0,0,1,.981-.814,1.559,1.559,0,0,1,1.049.366l-.2.26a1.312,1.312,0,0,0-.861-.324c-.388,0-.635.213-.635.482v.008c0,.281.154.44.81.58s.972.388.972.844v.009c0,.511-.426.844-1.019.844a1.746,1.746,0,0,1-1.22-.478" transform="translate(-5.949 -26.385)" fill="#9a683d"/>
    <path id="Path_63143" data-name="Path 63143" d="M17.14,47.212H19.3v.307H17.477v1.019h1.629v.307H17.477v1.044h1.842V50.2H17.14Z" transform="translate(-9.599 -26.44)" fill="#9a683d"/>
    <path id="Path_63144" data-name="Path 63144" d="M26.149,47.211H27.42a1.1,1.1,0,0,1,.781.264.663.663,0,0,1,.192.478v.008a.72.72,0,0,1-.473.691c.354.106.639.311.639.721v.009c0,.511-.431.814-1.083.814H26.149Zm1.216,1.33c.4,0,.686-.183.686-.533V48c0-.294-.235-.486-.661-.486h-.909v1.028Zm.119,1.352c.452,0,.733-.2.733-.533v-.009c0-.324-.273-.512-.793-.512h-.942v1.053Z" transform="translate(-14.644 -26.44)" fill="#9a683d"/>
    <path id="Path_63145" data-name="Path 63145" d="M33.054,47.212h2.158v.307H33.391v1.019H35.02v.307H33.391v1.044h1.842V50.2H33.054Z" transform="translate(-18.511 -26.44)" fill="#9a683d"/>
    <path id="Path_63146" data-name="Path 63146" d="M40.1,49.015l-1.241-1.8h.409L40.273,48.7l1.015-1.492h.392l-1.241,1.8V50.2H40.1Z" transform="translate(-21.762 -26.44)" fill="#9a683d"/>
    <path id="Path_63147" data-name="Path 63147" d="M45.471,48.647v-.009a1.522,1.522,0,1,1,3.045-.008v.008a1.522,1.522,0,1,1-3.045.009m2.7,0v-.009a1.187,1.187,0,0,0-1.177-1.232,1.172,1.172,0,0,0-1.169,1.224v.008A1.187,1.187,0,0,0,47,49.871a1.172,1.172,0,0,0,1.169-1.224" transform="translate(-25.465 -26.375)" fill="#9a683d"/>
    <path id="Path_63148" data-name="Path 63148" d="M53.874,47.212h.315l1.88,2.392V47.212H56.4V50.2h-.269L54.2,47.749V50.2h-.328Z" transform="translate(-30.171 -26.44)" fill="#9a683d"/>
    <path id="Path_63149" data-name="Path 63149" d="M61.432,47.212h1.036A1.488,1.488,0,0,1,64.055,48.7V48.7A1.5,1.5,0,0,1,62.468,50.2H61.432Zm1.036,2.673A1.156,1.156,0,0,0,63.7,48.713V48.7a1.162,1.162,0,0,0-1.237-1.181h-.7v2.362Z" transform="translate(-34.404 -26.44)" fill="#9a683d"/>
    <path id="Path_63150" data-name="Path 63150" d="M68.436,47.391h-.422v-.179h1.032v.179h-.422v1.134h-.188Zm.9-.179h.2l.469.721.465-.721h.2v1.313h-.183V47.519l-.469.712h-.026l-.465-.712v1.006h-.188Z" transform="translate(-38.09 -26.44)" fill="#9a683d"/>
  </g>
</svg>
