<svg xmlns="http://www.w3.org/2000/svg" width="63.305" height="51.528" viewBox="0 0 63.305 51.528">
  <path id="Path_174116" data-name="Path 174116" d="M21.251-48.852a14.612,14.612,0,0,1,8.432,2.493,16.737,16.737,0,0,1,5.735,6.951,24.656,24.656,0,0,1,2.077,10.5,26.62,26.62,0,0,1-2.139,10.88,18.318,18.318,0,0,1-5.921,7.593,14.645,14.645,0,0,1-8.866,2.758,14.71,14.71,0,0,1-8.339-2.456,16.51,16.51,0,0,1-5.8-6.989A24.853,24.853,0,0,1,4.324-27.7,26.226,26.226,0,0,1,6.432-38.425a18.634,18.634,0,0,1,5.921-7.593A14.511,14.511,0,0,1,21.251-48.852Zm-.558,1.36q-3.534,0-5.828,5.175T12.57-27.923a41.4,41.4,0,0,0,1.178,10.955,13.221,13.221,0,0,0,3.162,6.044,6.056,6.056,0,0,0,4.216,1.889q3.6,0,5.859-5.213t2.263-14.431A40.958,40.958,0,0,0,28.071-39.6a13.588,13.588,0,0,0-3.1-6.007A5.975,5.975,0,0,0,20.693-47.492Zm34.66-1.36a12.094,12.094,0,0,1,5.177,1.058,8.581,8.581,0,0,1,3.565,2.984,8.1,8.1,0,0,1,1.3,4.647A10.287,10.287,0,0,1,63.909-34.8a14.1,14.1,0,0,1-4.061,4.307,19.927,19.927,0,0,1-5.921,2.8,17.347,17.347,0,0,1,6.882,1.171,10.979,10.979,0,0,1,4.96,3.853,10.97,10.97,0,0,1,1.86,6.535,13.812,13.812,0,0,1-1.488,6.384,18.444,18.444,0,0,1-4,5.213,24.7,24.7,0,0,1-5.8,3.929,31.6,31.6,0,0,1-6.851,2.456,30.923,30.923,0,0,1-7.037.831V1.241A19.743,19.743,0,0,0,48.439-.044a18,18,0,0,0,5.518-3.324,16.336,16.336,0,0,0,4.03-5.4,17.035,17.035,0,0,0,1.519-7.367,13.982,13.982,0,0,0-1.736-7.329A6.1,6.1,0,0,0,53-26.639l-1.705.831a3.34,3.34,0,0,1-1.457.378,1.082,1.082,0,0,1-.775-.264,1.155,1.155,0,0,1-.279-.869,1.277,1.277,0,0,1,.558-1.133,2.267,2.267,0,0,1,1.3-.378A7.208,7.208,0,0,1,51.663-28q.527.076,1.147.151A13.148,13.148,0,0,0,56.5-32.8a14.3,14.3,0,0,0,1.085-5.4q0-3.476-1.488-5.1a5.121,5.121,0,0,0-3.968-1.624,7.721,7.721,0,0,0-4.619,1.549,11.507,11.507,0,0,0-3.565,4.647l-1.054-.68a22.863,22.863,0,0,1,2.635-4.647,12.078,12.078,0,0,1,4-3.476A11.987,11.987,0,0,1,55.352-48.852Z" transform="translate(-4.324 48.852)" fill="#502b13" opacity="0.2"/>
</svg>
