<svg xmlns="http://www.w3.org/2000/svg" width="120.5" height="98.826" viewBox="0 0 120.5 98.826">
  <path id="Path_91158" data-name="Path 91158" d="M35.684-48.852a22.9,22.9,0,0,1,15.623,5.984q6.777,5.984,10.626,16.683T65.78-.98a80.509,80.509,0,0,1-3.963,26.112q-3.963,11.605-10.97,18.224a23.453,23.453,0,0,1-31.877.725Q12.135,38.187,8.23,27.307T4.324,1.921A79.32,79.32,0,0,1,8.23-23.828Q12.135-35.252,19.2-42.052A23.025,23.025,0,0,1,35.684-48.852ZM34.65-45.588q-6.548,0-10.8,12.421T19.6,1.377q0,16.32,2.183,26.293t5.858,14.507q3.676,4.533,7.811,4.533,6.663,0,10.855-12.512T50.5-.436q0-16.32-2.183-26.2T42.576-41.055Q39.015-45.588,34.65-45.588Zm66.97-3.264q8.615,0,13.612,5.984t5,17.045a37.709,37.709,0,0,1-2.24,13.147,54.681,54.681,0,0,1-5.8,11.424Q108.627,4.1,104.549,9.084t-7.926,9.7A67.954,67.954,0,0,0,90.018,28.4h24.468q4.71,0,5.973-1.9t1.723-6.619h2.183q0,11.243.115,17.408t.345,11.061a16.511,16.511,0,0,0-3.791-.544q-2.757-.181-6.318-.272t-7.007-.091H76.463V43.99q3.331-5.44,8.1-12.059a162,162,0,0,0,9.3-14.6A92.727,92.727,0,0,0,101.448-.074a66.357,66.357,0,0,0,3.044-20.491q0-9.792-2.814-14.325a9.086,9.086,0,0,0-8.213-4.533,11.791,11.791,0,0,0-8.558,3.9q-3.848,3.9-6.835,11.333l-1.838-1.995A57.724,57.724,0,0,1,81.69-37.337a27.058,27.058,0,0,1,8.156-8.341A21.134,21.134,0,0,1,101.62-48.852Z" transform="translate(-4.324 48.852)" fill="#502b13" opacity="0.2"/>
</svg>
