<svg xmlns="http://www.w3.org/2000/svg" width="120.5" height="98.083" viewBox="0 0 120.5 98.083">
  <path id="Path_109499" data-name="Path 109499" d="M35.329-48.852a25.782,25.782,0,0,1,15.446,4.817A32,32,0,0,1,61.28-30.607a49.879,49.879,0,0,1,3.8,20.288A53.865,53.865,0,0,1,61.167,10.7,35.171,35.171,0,0,1,50.321,25.367,25.88,25.88,0,0,1,34.08,30.695,25.949,25.949,0,0,1,18.8,25.951,31.554,31.554,0,0,1,8.185,12.45,50.276,50.276,0,0,1,4.324-7.984,53.07,53.07,0,0,1,8.185-28.71,35.782,35.782,0,0,1,19.032-43.379,25.659,25.659,0,0,1,35.329-48.852Zm-1.022,2.627q-6.474,0-10.676,10t-4.2,27.8q0,13.136,2.158,21.164t5.792,11.677q3.634,3.649,7.723,3.649,6.587,0,10.733-10.071T49.98-9.881q0-13.136-2.158-21.091t-5.679-11.6A10.689,10.689,0,0,0,34.307-46.225Zm77.343-2.627.454,3.795L77.919,13.326l.909-4.087H114.6q4.656,0,5.906-1.533t1.7-5.327h2.158q0,8.32.114,12.771t.341,8.1a10.45,10.45,0,0,0-2.839-.365q-2.044-.073-4.77-.219t-5.622-.146H71.1V19.456Zm1.817,0V49.231H101.655V-29.878l9.994-18.974Z" transform="translate(-4.324 48.852)" fill="#502b13" opacity="0.2"/>
</svg>
