<svg id="Group_6683" data-name="Group 6683" xmlns="http://www.w3.org/2000/svg" xmlns:xlink="http://www.w3.org/1999/xlink" width="42.443" height="42.081" viewBox="0 0 42.443 42.081">
  <defs>
    <clipPath id="clip-path">
      <rect id="Rectangle_871" data-name="Rectangle 871" width="42.443" height="42.081" fill="#7e4b2c"/>
    </clipPath>
  </defs>
  <g id="Group_6682" data-name="Group 6682" clip-path="url(#clip-path)">
    <path id="Path_69706" data-name="Path 69706" d="M92.385,323.41a1.424,1.424,0,0,1-.683-1.4c.021-4.5.011-9.007.011-13.511,0-.9.345-1.246,1.24-1.246q3.178,0,6.356,0a1.017,1.017,0,0,1,1.156,1.162c0,4.546-.01,9.092.013,13.638a1.4,1.4,0,0,1-.684,1.362Zm3.685-1.6a1.008,1.008,0,1,0-.989-1.005,1.041,1.041,0,0,0,.989,1.005" transform="translate(-83.966 -281.329)" fill="#7e4b2c"/>
    <path id="Path_69707" data-name="Path 69707" d="M0,103.913a6.235,6.235,0,0,1,.7-.759c.769-.609,1.572-1.174,2.342-1.782a.73.73,0,0,0,.247-.51c-.012-1.051-.053-2.1-.1-3.153a1.046,1.046,0,0,1,.531-1.1,1.091,1.091,0,0,1,1.215.166c.773.557,1.568,1.085,2.33,1.656a.918.918,0,0,0,1.024.142c.89-.371,1.808-.675,2.708-1.021a1.053,1.053,0,0,1,1.209.172,1.071,1.071,0,0,1,.225,1.2c-.316.985-.625,1.973-.9,2.97a.777.777,0,0,0,.108.594c.63.841,1.289,1.661,1.946,2.482a1.026,1.026,0,0,1-.8,1.745c-1.01.012-2.019.051-3.028.043a.786.786,0,0,0-.78.408c-.509.821-1.072,1.609-1.6,2.421a1.116,1.116,0,0,1-1.172.634c-.519-.084-.725-.47-.873-.915-.318-.955-.652-1.905-.962-2.863a.576.576,0,0,0-.451-.423c-.946-.251-1.884-.53-2.832-.773A1.461,1.461,0,0,1,0,104.418v-.505" transform="translate(0 -88.351)" fill="#7e4b2c"/>
    <path id="Path_69708" data-name="Path 69708" d="M220.333,223.673c-.007.127-.014.209-.015.29,0,.223,0,.445,0,.724.706,0,1.388-.014,2.069,0a1.9,1.9,0,0,1,1.8,1.22.784.784,0,0,1,.028.517,1.936,1.936,0,0,1-1.761,1.282q-6.881.01-13.763,0a1.415,1.415,0,0,1-.21-.013c-.868-.131-.96-.236-.96-1.1q0-5.913-.008-11.827a.643.643,0,0,1,.352-.632,11.55,11.55,0,0,0,2.259-1.522,18.287,18.287,0,0,0,1.448-2.25,3.591,3.591,0,0,0,.677-2.4c-.056-1.105-.016-2.216-.013-3.324,0-.615.33-.886.943-.783a7.042,7.042,0,0,1,.741.144,3.131,3.131,0,0,1,2.344,3.246c.023,1.6.007,3.2.009,4.8,0,.152,0,.3,0,.514h.47c2.315,0,4.63-.005,6.945,0a1.9,1.9,0,0,1,1.843,1.221.814.814,0,0,1,.012.554,1.937,1.937,0,0,1-1.784,1.247c-1,.009-1.992,0-2.988,0h-.433v1.013h.391c1,0,1.992,0,2.988,0a1.931,1.931,0,0,1,1.613.841.926.926,0,0,1,.008,1.331,1.951,1.951,0,0,1-1.649.854h-3.346v1.014c.914,0,1.822-.017,2.729,0a1.883,1.883,0,0,1,1.791,1.232.781.781,0,0,1,0,.553,1.887,1.887,0,0,1-1.792,1.232c-.9.022-1.794,0-2.741,0" transform="translate(-190.012 -186.646)" fill="#7e4b2c"/>
    <path id="Path_69709" data-name="Path 69709" d="M182.743,5.407a4.3,4.3,0,0,1-.481.748c-.735.752-1.508,1.468-2.242,2.221a.785.785,0,0,0-.2.577c.152,1.038.338,2.072.53,3.1a1.042,1.042,0,0,1-.391,1.12,1,1,0,0,1-1.146.044c-.94-.5-1.888-.983-2.823-1.491a.565.565,0,0,0-.617,0c-.91.5-1.834.964-2.747,1.452a1.063,1.063,0,0,1-1.223,0,1.081,1.081,0,0,1-.382-1.2c.2-1,.349-2.013.529-3.019a.624.624,0,0,0-.218-.627c-.755-.712-1.487-1.448-2.235-2.169a1.033,1.033,0,0,1-.362-1.091,1.019,1.019,0,0,1,.918-.749c1.053-.151,2.1-.319,3.16-.452a.568.568,0,0,0,.5-.362c.448-.934.914-1.859,1.366-2.79a1.046,1.046,0,0,1,1.987-.01c.453.932.92,1.856,1.366,2.791a.6.6,0,0,0,.538.373c1.083.139,2.163.3,3.24.483a1.13,1.13,0,0,1,.926,1.046" transform="translate(-154.466 0)" fill="#7e4b2c"/>
    <path id="Path_69710" data-name="Path 69710" d="M349.071,99.237c0,.532.014,1.065-.006,1.6a.579.579,0,0,0,.267.558c.84.609,1.667,1.235,2.492,1.863.513.391.7.862.432,1.3a1.505,1.505,0,0,1-.746.6c-1,.326-2.012.59-3.026.859a.642.642,0,0,0-.5.48c-.319.984-.67,1.959-1,2.941a1.024,1.024,0,0,1-.834.788,1.043,1.043,0,0,1-1.1-.54c-.577-.879-1.169-1.747-1.739-2.63a.57.57,0,0,0-.544-.29c-1.052,0-2.1-.036-3.155-.046a1.042,1.042,0,0,1-1.029-.59,1.028,1.028,0,0,1,.207-1.165c.641-.8,1.265-1.609,1.91-2.4a.673.673,0,0,0,.142-.721c-.323-.968-.6-1.95-.914-2.923a1.048,1.048,0,0,1,1.45-1.357c.967.369,1.945.708,2.91,1.082a.565.565,0,0,0,.613-.072c.84-.608,1.7-1.194,2.539-1.8a1.08,1.08,0,0,1,1.216-.152,1.059,1.059,0,0,1,.521,1.106c-.023.5-.005,1.009-.005,1.514h-.109" transform="translate(-309.935 -88.351)" fill="#7e4b2c"/>
  </g>
</svg>
