<svg id="Group_134054" data-name="Group 134054" xmlns="http://www.w3.org/2000/svg" xmlns:xlink="http://www.w3.org/1999/xlink" width="39.941" height="39.866" viewBox="0 0 39.941 39.866">
  <defs>
    <clipPath id="clip-path">
      <rect id="Rectangle_84290" data-name="Rectangle 84290" width="39.941" height="39.866" fill="#7e4b2c"/>
    </clipPath>
  </defs>
  <g id="Group_134053" data-name="Group 134053" clip-path="url(#clip-path)">
    <path id="Path_172579" data-name="Path 172579" d="M17.316,29.759c-.742-.266-1.494-.476-2.2-.8A11.659,11.659,0,0,1,8.44,21.172,20.024,20.024,0,0,1,8,18.1c-.033-.286-.117-.39-.406-.434A8.906,8.906,0,0,1,.1,9.825C-.065,7.811.029,5.777.012,3.751a1.518,1.518,0,0,1,.07-.382A1.74,1.74,0,0,1,1.731,2.01C3.64,1.98,5.55,1.989,7.46,1.982h.509V0H31.943V1.982h.507c1.884.005,3.768-.01,5.651.024a1.752,1.752,0,0,1,1.8,1.775,53.656,53.656,0,0,1-.088,6.033,8.582,8.582,0,0,1-5.545,7.3,12.2,12.2,0,0,1-2.014.561c-.233.056-.32.144-.325.382a11.733,11.733,0,0,1-.61,3.707,11.857,11.857,0,0,1-8.3,7.836c-.135.039-.271.076-.435.122.038.14.065.264.1.383.384,1.155.779,2.306,1.15,3.466a.4.4,0,0,0,.455.338c1.338-.016,2.676-.009,4.015-.007a1.953,1.953,0,0,1,2.048,1.456q.719,2.053,1.434,4.107c.042.121.074.244.122.4H8.015c.038-.134.069-.267.114-.395q.727-2.091,1.457-4.181A1.932,1.932,0,0,1,11.527,33.9c1.377-.006,2.754,0,4.131-.011a.479.479,0,0,0,.375-.206c.439-1.259.852-2.527,1.27-3.794a.507.507,0,0,0,.012-.132m2.64-21.792c-.583,1.3-1.124,2.489-1.648,3.686a.454.454,0,0,1-.5.317c-1.116-.016-2.233-.008-3.35-.006-.135,0-.269.013-.45.022.1.143.161.238.229.329.839,1.122,1.687,2.237,2.509,3.371a.849.849,0,0,1,.119.594c-.1.545-.265,1.08-.4,1.62-.162.654-.319,1.309-.495,2.032,1.277-.7,2.483-1.356,3.68-2.028a.522.522,0,0,1,.6-.005c.967.553,1.949,1.08,2.926,1.616.234.128.47.253.764.411-.308-1.246-.591-2.425-.9-3.6a.7.7,0,0,1,.122-.678c.644-.83,1.267-1.676,1.9-2.517.275-.368.547-.738.867-1.17h-.508c-1.091,0-2.182-.014-3.272.009a.517.517,0,0,1-.57-.382c-.337-.8-.708-1.584-1.065-2.374-.173-.384-.346-.768-.562-1.249m12.009,5.76a4.019,4.019,0,0,0,.4-.089,5.107,5.107,0,0,0,3.331-3.43,8.306,8.306,0,0,0,.24-2.7q0-.752,0-1.506H31.966ZM4.024,5.995a1.132,1.132,0,0,0-.04.214c0,.9-.05,1.794.013,2.685a5.226,5.226,0,0,0,3.334,4.622,5.642,5.642,0,0,0,.62.2V5.995Z" transform="translate(0)" fill="#7e4b2c"/>
  </g>
</svg>
