<svg id="Group_137105" data-name="Group 137105" xmlns="http://www.w3.org/2000/svg" xmlns:xlink="http://www.w3.org/1999/xlink" width="31.824" height="32.107" viewBox="0 0 31.824 32.107">
  <defs>
    <clipPath id="clip-path">
      <rect id="Rectangle_85961" data-name="Rectangle 85961" width="31.824" height="32.107" fill="#7e4b2c"/>
    </clipPath>
  </defs>
  <g id="Group_137104" data-name="Group 137104" clip-path="url(#clip-path)">
    <path id="Path_246102" data-name="Path 246102" d="M21.366,8.842v2.494c.264,0,.513,0,.761,0a.29.29,0,0,1,.331.317q.008,1.327,0,2.653c0,.208-.126.307-.342.306q-1.294-.006-2.588,0c-.233,0-.341-.1-.341-.335,0-.873,0-1.747,0-2.62a.282.282,0,0,1,.322-.32c.249,0,.5,0,.769,0V8.858H10.7V29.634c.4,0,.789,0,1.178,0,.359,0,.441.086.442.445,0,.535-.007,1.07,0,1.6.006.308-.12.424-.431.423q-3.669-.011-7.338,0c-.291,0-.421-.107-.417-.4.009-.557.008-1.114,0-1.67,0-.276.12-.4.393-.4.4,0,.8,0,1.227,0V8.865H4.59c-.185.5-.185.5-.772.5q-1.638,0-3.276,0C.12,9.364,0,9.244,0,8.819Q0,7.1,0,5.38c0-.466.1-.568.585-.57.688,0,1.376.008,2.064-.008a.786.786,0,0,0,.442-.155c1.375-1.094,2.747-2.191,4.1-3.311A1.352,1.352,0,0,0,7.531.7c.176-.573.322-.7.925-.7.491,0,.983,0,1.474,0a.662.662,0,0,1,.74.689.36.36,0,0,0,.244.364c2.9,1.388,5.786,2.791,8.69,4.164a2.215,2.215,0,0,0,.987.117,1.406,1.406,0,0,1,1.033.388c.723.631,1.468,1.238,2.205,1.854.327.273.423.519.311.817a.7.7,0,0,1-.756.448c-.664,0-1.328,0-2.019,0m-4.1-3.519.016-.053L10.691,2.1V5.323Zm-8.536-4L7.648,5.312h1.7V1.32Zm.443,24.758-2.06-2.052V28.14l2.06-2.063m.182-1.528V20.44L7.272,22.479l2.077,2.07m-.009-7.136V13.249L7.259,15.331l2.082,2.082m-.166,1.528L7.112,16.883v4.1l2.063-2.045M7.094,13.734l1.985-1.985L7.094,9.77ZM4.572,5.343c.53,0,1.052,0,1.573-.005A.212.212,0,0,0,6.3,5.218c.21-.74.41-1.482.613-2.224l-.056-.033-2.4,1.933.111.449M7.308,29.608H9.344V27.569L7.308,29.608M8.023,8.86,9.35,10.182V8.86Zm-.2-2.042-.754.7H8.551l-.729-.7m13.9.7-.78-.65-.781.65Zm-4.41,0-.7-.694-.791.694Zm-4.384,0-.687-.7-.8.7Zm5.092-.846.684.694.753-.694Zm-4.3.006.65.667.669-.667Zm-3.755.668.721-.666H9.32l.643.666M5.651,7.292,6.3,6.684H5.235l.415.608" transform="translate(0 0)" fill="#7e4b2c"/>
    <path id="Path_246103" data-name="Path 246103" d="M190.487,115.975h-1.881v-.364q0-2.44,0-4.881a.986.986,0,0,0-1.088-1.1q-.95-.005-1.9,0a.968.968,0,0,0-1.072,1.068q0,2.44,0,4.881v.383h-1.912V96.56h7.854Zm-6.292-15.21h1.832V99.11h-1.832Zm.005,2.753h1.827v-1.665H184.2Zm1.826,2.755V104.6h-1.851c0,.516-.005,1.015.007,1.514a.223.223,0,0,0,.158.15c.554.011,1.109.007,1.686.007m1.093-5.5h1.8V99.107h-1.8Zm0,2.739h1.815v-1.659h-1.815Zm1.809,1.095h-1.8v1.652h1.8Z" transform="translate(-158.662 -83.886)" fill="#7e4b2c"/>
    <path id="Path_246104" data-name="Path 246104" d="M114.506,148.357h7.845V160.97h-7.845Zm4.452,7.171H120.8v-1.654h-1.844Zm1.864-2.739c0-.518,0-1.005-.006-1.493,0-.062-.084-.174-.131-.175-.572-.012-1.144-.008-1.72-.008v1.676Zm-1.857,5.48H120.8v-1.657h-1.838Zm-1.093-7.135h-1.8v1.652h1.8Zm-1.807,4.389h1.81v-1.65h-1.81Zm1.811,1.095h-1.8v1.66h1.8Z" transform="translate(-99.477 -128.885)" fill="#7e4b2c"/>
    <rect id="Rectangle_85959" data-name="Rectangle 85959" width="4.737" height="0.628" transform="translate(25.528 10.957)" fill="#7e4b2c"/>
    <rect id="Rectangle_85960" data-name="Rectangle 85960" width="4.724" height="0.619" transform="translate(16.596 17.783)" fill="#7e4b2c"/>
  </g>
</svg>
