<svg xmlns="http://www.w3.org/2000/svg" xmlns:xlink="http://www.w3.org/1999/xlink" width="1366" height="868" viewBox="0 0 1366 868">
  <defs>
    <clipPath id="clip-path">
      <rect id="Rectangle_4486" data-name="Rectangle 4486" width="1366" height="868" fill="none"/>
    </clipPath>
  </defs>
  <g id="Group_336" data-name="Group 336" opacity="0.2">
    <g id="Group_335" data-name="Group 335" clip-path="url(#clip-path)">
      <path id="Path_63430" data-name="Path 63430" d="M0,31.542v2.706q16.21,11.364,32.428,22.7c.774.538,1.479,1.234,2.652,2.23-1.363.964-2.324,1.663-3.283,2.341Q15.9,72.579,0,83.653v2.773Q16.054,74.74,32.086,63.007c1.064-.781,2.13-1.528,3.6-2.57.1,1.889.233,3.123.216,4.357C35.706,87,35.433,109.2,35.338,131.4c-.012,3.12-.831,4.865-3,6.431Q16.13,149.509,0,161.356v1.7q16.574-11.523,33.126-23.113c2.139-1.513,3.794-1.707,6.016-.112C54.83,150.945,70.589,161.894,86.319,172.9c.786.549,1.519,1.225,2.842,2.283-2.728,1.945-4.9,3.528-7.1,5.065-14.247,9.906-28.518,19.759-42.722,29.761-2.132,1.5-3.756,1.757-6,.147q-16.62-11.8-33.337-23.4v1.989c13.473,9.547,30.488,22.1,35.039,26.1q.271,36.865.553,74.2c-1.776-.435-20.738-13.816-35.592-24.77v2.4q15.74,11.034,31.492,22.038c.971.682,1.9,1.46,3.222,2.485-1.2,1-1.987,1.757-2.844,2.356Q15.937,304.635,0,315.721v2.224q15.786-11.492,31.549-23.034c1.068-.784,2.146-1.53,3.628-2.591.1,1.845.242,3.076.228,4.3-.188,22.35-.432,44.693-.582,67.043-.017,2.5-.4,4.213-2.327,5.611Q16.222,381.006,0,392.879v2.215q16.606-11.519,33.178-23.1c1.909-1.34,3.369-1.56,5.392-.129,15.776,11.172,31.62,22.191,47.439,33.266.779.541,1.5,1.19,2.559,2.048-1.028.855-1.709,1.545-2.469,2.071q-23.92,16.648-47.84,33.3c-1.681,1.178-3,1.384-4.779.123Q16.771,430.867,0,419.185V421.3q16.228,11.9,32.463,23.76a4.737,4.737,0,0,1,2.141,4.377c.119,23.237.318,46.468.477,69.708.007.561-.081,1.125-.2,2.673C23.09,513.17,11.521,504.683,0,496.231v2.638q16,11.21,31.988,22.417a28.468,28.468,0,0,1,2.122,1.93c-1.154.917-1.966,1.654-2.832,2.253Q15.635,536.358,0,547.244v2.579Q11.456,541.5,22.915,533.19c3.787-2.747,7.616-5.438,12.013-8.572.052,1.974.145,3.352.133,4.736-.2,22.068-.461,44.15-.565,66.229-.017,3.111-.824,4.879-2.994,6.448Q15.708,613.408,0,624.965v1.66q16.623-11.545,33.232-23.113c1.434-1.008,2.635-1.31,4.171-.229q24.6,17.317,49.248,34.541a16.527,16.527,0,0,1,1.522,1.484c-1.432,1.016-2.419,1.733-3.423,2.429-15.439,10.746-30.915,21.427-46.295,32.305-2.331,1.645-4.022,1.6-6.329-.047Q16.108,662.613,0,651.413v2.13q15.8,11.589,31.609,23.16c1.562,1.143,2.654,2.189,2.661,4.879.069,23.066.292,46.151.453,69.232.012.705-.069,1.413-.133,2.544a12.132,12.132,0,0,1-2.227-.958Q16.175,740.551,0,728.691v2.659q15.487,10.862,30.987,21.689c.864.614,1.662,1.375,2.9,2.391-1.386,1-2.355,1.7-3.333,2.377Q15.275,768.421,0,779.051v2.241q16.21-11.8,32.409-23.628a18.235,18.235,0,0,1,2.03-1.066c.057,1.736.138,2.861.138,3.981q-.313,33.771-.6,67.534c-.017,2.332-.394,3.939-2.206,5.247Q15.857,844.847,0,856.464v2.021q16.3-11.342,32.577-22.705c1.527-1.063,2.8-1.5,4.489-.3Q60.246,851.812,83.492,868h3.115c-9.406-5.978-45.362-32.085-50.39-36.68q-.256-36.882-.541-74.226c2.752.852,46.988,32.863,52.508,37.916q.271,36.265.544,72.989h1.2c-.052-1.052-.095-1.933-.085-2.788.195-22.076.472-44.156.539-66.232.01-3.378.959-5.1,3.234-6.733,15.432-11.1,30.787-22.379,46.169-33.583.859-.623,1.785-1.128,3.086-1.948.071,1.845.18,3.217.169,4.586-.2,22.082-.446,44.159-.563,66.235-.017,3.055-.712,4.9-2.925,6.5-15.427,11.119-30.775,22.414-46.143,33.645-.145.106-.292.214-.439.32h1.576q23.112-16.035,46.193-32.132c1.769-1.231,3.167-1.592,5.09-.232C161.17,846.5,176.577,857.219,191.957,868h2.31c-16.856-12.359-33.161-24.321-49.576-36.356-.188-24.82-.366-49.564-.548-74.408,2.733.9,48.03,33.742,52.382,37.9.173,23.909.349,47.969.532,72.866h1.258a14.2,14.2,0,0,1-.142-1.854q.292-34.163.6-68.327c.012-1.995.309-3.481,1.876-4.609q15.274-11.074,30.5-22.235v.015l13.49-9.85,4.44-3.234c.389-.276.838-.541,1.339-.831.135-.062.254-.115.437-.2a29.575,29.575,0,0,1,.275,3.231c-.192,22.629-.434,45.263-.591,67.892-.019,2.376-.444,3.948-2.241,5.238-5.845,4.2-11.669,8.463-17.5,12.708v.232Q215.826,857.082,200.857,868H203.3q14.672-10.21,29.348-20.417,8.426-5.839,16.847-11.692a8.011,8.011,0,0,1,.95-.567,4.437,4.437,0,0,1,.563-.235c.045-.018.093-.026.14-.041a2.986,2.986,0,0,1,1.6-.021,4.618,4.618,0,0,1,1.175.608c15.356,10.855,30.766,21.589,46.166,32.364h2.659q-23.831-17.428-47.636-34.888a4.42,4.42,0,0,1-2.032-4.028q-.174-35.256-.453-70.512a16.858,16.858,0,0,1,.216-1.76c1.061.658,1.923,1.149,2.69,1.724q23.325,17.066,46.646,34.168a5.275,5.275,0,0,1,2.65,4.894c.071,23.075.29,46.159.453,69.235,0,.364-.017.74-.045,1.166h1.65a13.04,13.04,0,0,1-.128-1.763q.3-34.159.6-68.33c.019-2.009.34-3.478,1.89-4.6q24.529-17.767,48.989-35.69c.214-.129.482-.276.8-.435.121-.053.261-.115.42-.188.076,1.463.164,2.55.154,3.6q-.3,33.736-.608,67.469c-.017,2.315-.337,3.96-2.17,5.279-15.9,11.477-31.725,23.093-47.586,34.655h2.089c15.294-10.655,30.6-21.254,45.867-31.973a4.739,4.739,0,0,1,4.406-.817,6.15,6.15,0,0,1,.959.526c15.3,10.831,30.673,21.521,46.024,32.264h3.535c-8.575-5.226-42.138-29.5-50.525-36.644q-.264-36.917-.539-73.85c1.612.705,7.134,4.38,14.138,9.283,11.146,8.175,22.093,16.2,33.078,24.256,1.9,1.481,3.537,2.794,4.8,3.854.185,24.165.368,48.6.548,73.1h1.6a16.69,16.69,0,0,1-.147-1.965q.3-33.987.605-67.954a6.8,6.8,0,0,1,1.028-4.11c.071-.085.135-.179.211-.261a5.884,5.884,0,0,1,.605-.576c.223-.188.434-.379.686-.558q19.967-14.427,39.892-28.959c2.3-1.669,4.549-3.428,6.854-5.1.764-.555,1.619-1.028,2.668-1.657.057-.026.121-.062.183-.091.057,1.63.131,2.726.131,3.807q-.31,33.771-.6,67.534c-.017,2.332-.4,3.939-2.208,5.247-15.887,11.474-31.72,23.087-47.572,34.641h2.5q23.112-16.119,46.228-32.22a8.216,8.216,0,0,1,1.007-.6c.083-.041.164-.073.245-.106a3.97,3.97,0,0,1,.522-.165,2.648,2.648,0,0,1,1.187-.026,4.035,4.035,0,0,1,1.178.6Q493.612,851.812,516.858,868h3.466c-3.917-2.488-12.435-8.466-21.4-14.929v-.006q-7.151-5.244-14.32-10.44c-6.033-4.465-11.1-8.311-13.585-10.376a6.25,6.25,0,0,1-1.094-2.673q-.246-35.468-.52-71.359c.014-.314.028-.6.043-.94,2.274,1.2,11.533,7.647,21.671,14.935l7.806,5.726v-.076c10.47,7.629,20.227,14.95,22.63,17.15q.271,36.265.544,72.989h1.55c-.055-1.052-.095-1.933-.088-2.788.195-22.076.475-44.156.541-66.232.009-3.378.959-5.1,3.233-6.733,15.432-11.1,30.785-22.379,46.169-33.583.776-.567,1.626-1.043,2.744-1.739.074,1.736.171,3.064.159,4.377-.195,22.082-.444,44.159-.56,66.235-.017,3.055-.715,4.9-2.927,6.5-15.427,11.119-30.773,22.414-46.143,33.645-.145.106-.292.214-.439.32h1.925q23.115-16.035,46.193-32.132a5.424,5.424,0,0,1,2.386-1.058,3.893,3.893,0,0,1,2.355.826C594.538,846.5,609.943,857.219,625.323,868h2.659c-16.854-12.359-33.159-24.321-49.576-36.356-.188-24.764-.366-49.455-.546-74.243,4.978,2.617,47.8,33.7,52.033,37.734.171,23.909.347,47.969.529,72.866h1.607a14.194,14.194,0,0,1-.142-1.854q.292-34.163.6-68.327c.012-1.995.306-3.481,1.873-4.609q24.579-17.824,49.091-35.786a7.916,7.916,0,0,1,1.118-.549l.007.053c.074,1.422.171,2.5.159,3.537-.2,22.494-.449,44.981-.589,67.472-.012,2.573-.6,4.171-2.457,5.514-15.852,11.454-31.651,23.028-47.47,34.55h2.79q23.044-16.031,46.088-32.062a4.859,4.859,0,0,1,2.336-.984,3.688,3.688,0,0,1,2.1.755c15.318,10.825,30.7,21.539,46.064,32.291h2.654q-23.664-17.317-47.308-34.644a4.72,4.72,0,0,1-2.27-4.3q-.164-35.045-.453-70.087c0-.517.09-1.058.2-2.174,1.249.82,2.191,1.41,3.077,2.062,15.356,11.251,30.671,22.549,46.062,33.71,2.025,1.463,2.87,3.076,2.877,6.054.069,22.223.275,44.429.434,66.65.01.855-.026,1.721-.064,2.732h1.664a15.365,15.365,0,0,1-.112-1.81q.288-33.943.6-67.9c.01-2.142.242-3.746,1.947-4.982q24.444-17.7,48.8-35.557a11.142,11.142,0,0,1,1.356-.737c.069,1.439.154,2.388.147,3.311-.209,22.646-.453,45.272-.605,67.9-.014,2.38-.465,3.931-2.248,5.217C774.52,844.9,758.735,856.476,742.926,868H745c15.175-10.552,30.369-21.051,45.49-31.718a4.566,4.566,0,0,1,6.294-.094c15.054,10.723,30.208,21.231,45.328,31.812h3.471c-8.95-5.573-43.189-30.378-50.378-36.609-.183-24.092-.361-48.483-.548-73.941a78.591,78.591,0,0,1,8.314,5.238c14.575,10.69,28.75,21.089,43.04,31.565l.672.555q.267,36.534.544,73.192h1.6a6.034,6.034,0,0,1-.154-1.24c.188-23.081.444-46.162.579-69.249a5.407,5.407,0,0,1,2.673-4.935q19.967-14.427,39.892-28.959c2.3-1.669,4.549-3.428,6.854-5.1.772-.558,1.629-1.031,2.683-1.666.083,1.613.188,2.805.178,3.978q-.306,33.555-.6,67.1a8.655,8.655,0,0,1-.57,3.657l-.04.07a4.253,4.253,0,0,1-.6.878,5.367,5.367,0,0,1-.7.655c-.047.035-.083.076-.133.112-15.925,11.5-31.794,23.113-47.669,34.7h2.521q23.158-16.145,46.321-32.276a4.426,4.426,0,0,1,2.075-.884,3.122,3.122,0,0,1,1.754.608q14.177,10,28.387,19.923v-.185q9.148,6.4,18.29,12.814h3.115c-3.865-2.456-12.212-8.314-21.056-14.677v-.258q-12.5-9.174-25.047-18.263c-.648-.5-1.23-.961-1.762-1.384-1.7-1.472-2.372-3.149-2.376-5.928-.055-22.094-.273-44.176-.425-66.259-.014-1.216.066-2.438.133-3.954,1.394.732,5.408,3.437,10.636,7.094q9.245,6.781,18.492,13.566v-.256l.349.256v-.076c10.472,7.629,20.227,14.95,22.63,17.15q.274,36.265.546,72.989h1.2c-.052-1.052-.095-1.933-.085-2.788.195-22.076.472-44.156.539-66.232.01-3.378.959-5.1,3.234-6.733,15.432-11.1,30.787-22.379,46.169-33.583.859-.623,1.783-1.128,3.084-1.948.074,1.845.18,3.217.169,4.586-.195,22.082-.444,44.159-.56,66.235-.017,3.055-.715,4.9-2.925,6.5-15.429,11.119-30.775,22.414-46.143,33.645-.145.106-.292.214-.442.32h1.579q23.112-16.035,46.193-32.132c1.769-1.231,3.167-1.592,5.09-.232,15.344,10.863,30.749,21.583,46.131,32.364h2.31c-16.856-12.359-33.161-24.321-49.576-36.356-.188-24.82-.368-49.564-.548-74.408,2.733.9,48.03,33.742,52.382,37.9.173,23.909.349,47.969.532,72.866h1.258a14.184,14.184,0,0,1-.142-1.854q.292-34.163.6-68.327c.012-1.995.306-3.481,1.875-4.609q24.579-17.824,49.091-35.786a13.849,13.849,0,0,1,1.46-.708c.074,1.545.183,2.653.171,3.748-.2,22.494-.449,44.981-.586,67.472-.014,2.573-.6,4.171-2.457,5.514-15.854,11.454-31.651,23.028-47.47,34.55h2.441q23.041-16.031,46.088-32.062c1.643-1.146,2.965-1.507,4.781-.229,15.318,10.825,30.7,21.539,46.062,32.291h2.305q-23.66-17.317-47.308-34.644a4.725,4.725,0,0,1-2.27-4.3q-.164-35.045-.453-70.087c0-.552.1-1.1.226-2.388,1.422.94,2.438,1.566,3.4,2.277,15.356,11.251,30.673,22.549,46.064,33.71,2.025,1.463,2.868,3.076,2.875,6.054.069,22.223.278,44.429.437,66.65.01.855-.026,1.721-.064,2.732h1.315a15.4,15.4,0,0,1-.112-1.81q.289-33.943.6-67.9c.01-2.142.24-3.746,1.947-4.982q24.444-17.7,48.8-35.557a16.171,16.171,0,0,1,1.7-.911c.069,1.545.161,2.523.154,3.484-.209,22.646-.451,45.272-.6,67.9-.014,2.38-.468,3.931-2.251,5.217-15.842,11.454-31.628,23.025-47.434,34.55h1.728c15.173-10.552,30.369-21.051,45.49-31.718,2.379-1.683,4.183-1.839,6.64-.094,15.054,10.723,30.208,21.231,45.328,31.812h3.122c-8.948-5.573-43.189-30.378-50.376-36.609-.188-24.45-.368-49.194-.558-75.06,17.917,13.14,35.039,25.7,52.382,38.416q.267,36.561.544,73.253h1.254a6.022,6.022,0,0,1-.154-1.24c.19-23.081.446-46.162.582-69.249a5.407,5.407,0,0,1,2.673-4.935q19.967-14.427,39.892-28.959c2.3-1.669,4.549-3.428,6.854-5.1.857-.62,1.785-1.113,3.02-1.865.085,1.721.2,2.955.188,4.177q-.3,33.555-.6,67.1c-.019,2.238-.161,4.013-2.037,5.373-15.928,11.5-31.8,23.113-47.669,34.7h2.17q23.162-16.145,46.321-32.276c1.427-.99,2.631-1.36,4.178-.276q14.177,10,28.389,19.923v-2.306q-13.094-9.606-26.234-19.127c-2.191-1.6-2.946-3.346-2.953-6.448-.052-22.094-.273-44.176-.422-66.259-.017-1.387.09-2.755.161-4.589,1.263.787,2.182,1.293,3.046,1.93q13.2,9.672,26.4,19.365v-2.491q-13.547-9.492-27.093-18.968c-.4-.27-.75-.652-1.474-1.281a20.019,20.019,0,0,1,2.12-2.05q13.219-9.214,26.447-18.407v-2.094q-13.942,10.166-27.884,20.314a10.562,10.562,0,0,1-1.444.661c-.057-1.572-.152-2.676-.138-3.79.2-22.482.437-44.975.6-67.463.014-2.347.406-3.945,2.208-5.247q13.351-9.646,26.661-19.391V655.3q-13.454,9.355-26.856,18.792c-2.312,1.63-4.01,1.628-6.327-.035-15.46-10.99-31.017-21.774-46.527-32.652-.885-.611-1.721-1.34-2.927-2.3.871-.767,1.446-1.375,2.084-1.818q24.226-16.855,48.45-33.715a3.356,3.356,0,0,1,4.475-.018q13.8,9.708,27.627,19.353v-2.283c-9.568-7.009-19.064-13.966-28.6-20.966-.18-24.756-.363-49.511-.558-75.357,9.9,7.262,19.572,14.359,29.161,21.395v-2.479q-12.934-9.051-25.875-18.1c-.679-.482-1.292-1.1-2.5-2.112,1.436-1.025,2.319-1.669,3.208-2.282q12.585-8.76,25.165-17.508v-2.379q-12.521,9.135-25.037,18.284c-1.09.8-2.2,1.563-3.889,2.77-.093-2.042-.2-3.284-.18-4.53.19-22.215.451-44.426.558-66.649.014-3.1.826-4.9,3.005-6.46q12.792-9.223,25.543-18.554v-1.9q-13.5,9.381-27,18.777c-1.645,1.149-2.972,1.489-4.777.214-16.089-11.363-32.235-22.593-48.36-33.886-.579-.4-1.1-.937-1.98-1.686,1.052-.881,1.823-1.639,2.671-2.244q23.778-16.533,47.553-33.063c1.64-1.146,2.958-1.519,4.777-.25q13.536,9.575,27.115,19.048v-2.306q-12.959-9.5-25.932-18.977c-1.7-1.243-2.367-2.629-2.372-5.1-.1-22.635-.3-45.278-.453-67.924-.007-1.093.112-2.18.207-3.787,1.32.846,2.334,1.407,3.288,2.109q12.624,9.258,25.263,18.5v-2.45q-12.428-8.7-24.866-17.382c-.883-.629-1.719-1.357-2.92-2.312.855-.758,1.42-1.384,2.063-1.833q12.856-8.945,25.723-17.89v-2.03q-12.485,9.121-24.954,18.255c-.978.714-1.956,1.389-3.321,2.368-.161-1.636-.356-2.7-.351-3.766q.292-33.983.6-67.963c.014-2.312.373-3.963,2.189-5.276q12.945-9.342,25.837-18.763v-2.206q-13.308,9.249-26.6,18.522c-1.683,1.178-3.01,1.392-4.784.147-16.1-11.372-32.25-22.62-48.391-33.924-.591-.4-1.116-.925-2.115-1.786,1.23-.981,1.968-1.648,2.754-2.194,15.453-10.764,30.941-21.439,46.335-32.335,2.609-1.851,4.554-2.05,7.262-.109q12.724,9.1,25.541,18v-2.353c-9.273-6.8-18.475-13.551-27.753-20.352q-.281-37.041-.558-74.264c1.683.4,15.092,9.685,28.311,19.289V78.57q-12.671-8.87-25.339-17.749c-.582-.4-1.1-.937-1.944-1.666a22.054,22.054,0,0,1,1.809-1.625q12.735-8.879,25.474-17.708V37.355q-12.428,9.02-24.857,18.04c-.893.646-1.792,1.284-3,2.142a22.7,22.7,0,0,1-.42-3.1q.228-27.219.468-54.435h-1.985c.14,19.012.278,38.213.418,57.963-17.846-13.093-35.032-25.7-52.372-38.407q-.071-9.787-.147-19.556h-1.966q-.068,8.02-.13,16.04c-.012,2.55-.541,4.174-2.424,5.537-15.809,11.439-31.559,23.011-47.332,34.535-.681.5-1.422.89-2.386,1.492a13.487,13.487,0,0,1-.482-2.479q.228-27.567.468-55.125h-1.98c.14,19.048.283,38.275.43,58.1-17.929-13.158-35.075-25.722-52.515-38.51q-.075-9.782-.147-19.591h-1.961q-.078,8.192-.147,16.383c-.019,1.992-.3,3.481-1.866,4.621q-24.607,17.815-49.153,35.775a9.982,9.982,0,0,1-1.451.614c-.055-1.742-.15-2.993-.135-4.251q.242-26.567.475-53.142h-1.994c.138,19.068.28,38.154.416,57.651-1.55-1.008-2.562-1.6-3.516-2.294-15.363-11.257-30.692-22.567-46.1-33.727-2.039-1.492-2.842-3.111-2.858-6.069-.012-5.185-.055-10.376-.081-15.561h-1.923c-.045,5.347-.107,10.7-.142,16.045-.021,2.359-.427,3.942-2.229,5.232-16.1,11.639-32.14,23.4-48.206,35.123-.491.361-1.033.614-1.94,1.143-.093-1.484-.242-2.688-.233-3.9q.246-26.822.484-53.647h-1.992q.153,27.06.378,54.106c0,.961-.109,1.924-.2,3.578-1.427-.934-2.35-1.5-3.234-2.15-15.446-11.325-30.877-22.687-46.356-33.939a6.1,6.1,0,0,1-2.787-5.69c-.01-5.3-.055-10.6-.081-15.9h-1.937q-.068,7.954-.138,15.9c-.014,2.365-.442,3.948-2.232,5.241C938.871,32.435,923.292,43.839,907.7,55.2c-.093.065-.18.132-.271.2-.418.3-.84.605-1.292.925-.38.259-.8.485-1.422.831a16.86,16.86,0,0,1-.358-2.717q.228-27.219.47-54.435h-2.336c.14,18.93.278,38.046.418,57.7-17.72-13-34.8-25.525-52.021-38.148Q850.818,9.769,850.742,0h-2.315q-.068,8.02-.131,16.04c-.012,2.55-.541,4.174-2.424,5.537C830.085,33,814.359,44.552,798.61,56.062c-.608.423-1.27.79-2.16,1.313a10.62,10.62,0,0,1-.427-2.25Q796.25,27.558,796.49,0h-2.329c.138,18.965.283,38.107.427,57.845-17.8-13.064-34.84-25.552-52.163-38.254Q742.35,9.809,742.277,0h-2.312q-.075,8.192-.145,16.383a7.083,7.083,0,0,1-.565,3.032,4.586,4.586,0,0,1-.489.8c-.081.1-.192.182-.283.276a6.032,6.032,0,0,1-.7.635q-24.233,17.551-48.408,35.234c-.332.206-.715.444-1.13.684-.147.053-.337.126-.553.212-.059-1.666-.145-2.891-.131-4.113q.242-26.567.472-53.142H685.7c.135,18.792.273,37.6.408,56.8,0,.206-.009.394-.014.611-1.334-.858-2.274-1.419-3.148-2.056-15.36-11.257-30.69-22.567-46.1-33.727-2.037-1.492-2.839-3.111-2.856-6.069-.012-5.185-.055-10.376-.081-15.561h-2.274c-.045,5.347-.107,10.7-.142,16.045-.021,2.359-.425,3.942-2.227,5.232-16.1,11.639-32.14,23.4-48.206,35.123a17.7,17.7,0,0,1-1.607.955c-.093-1.392-.226-2.559-.216-3.707q.242-26.822.482-53.647h-2.338q.153,27.06.375,54.106c0,.914-.1,1.848-.185,3.361-1.227-.8-2.092-1.34-2.9-1.933-15.443-11.325-30.875-22.687-46.356-33.939a6.094,6.094,0,0,1-2.785-5.69c-.012-5.3-.055-10.6-.081-15.9h-2.289q-.068,7.954-.138,15.9c-.014,2.365-.442,3.948-2.229,5.241-16.106,11.627-32.152,23.381-48.215,35.079a16.652,16.652,0,0,1-1.576.928c-.05-.314-.1-.579-.145-.861-.052-1.14-.1-2-.09-2.85q.242-26.721.47-53.442h-2.341c.14,18.968.28,38.01.423,57.649-17.756-13.026-34.771-25.493-52.028-38.157q-.071-9.73-.145-19.491h-2.312c-.04,5.261-.093,10.523-.119,15.781-.028,2.744-.6,4.415-2.6,5.866C396.4,32.993,380.751,44.5,365.08,55.942c-.655.479-1.37.858-2.348,1.434-.074-.329-.15-.623-.221-.917-.047-1.2-.09-2.071-.083-2.941Q362.685,26.753,362.9,0h-2.343c.14,19.03.283,38.116.42,57.784-17.87-13.108-34.985-25.672-52.159-38.269-.047-6.516-.1-13.008-.145-19.515h-2.308q-.068,8.037-.131,16.078c-.017,2.409-.548,3.91-2.312,5.182-15.9,11.5-31.744,23.113-47.619,34.682-.582.432-1.251.793-2.113,1.3-.1-1.525-.237-2.7-.223-3.872Q254.2,26.686,254.436,0h-2.284q.164,26.183.325,52.364c0,1.457-.055,2.932-.1,5.05-.133-.088-.247-.159-.373-.238L231.153,41.958V42.1q-14-10.272-28.024-20.467c-2.039-1.492-2.839-3.111-2.858-6.069-.012-5.185-.055-10.376-.081-15.561h-1.923c-.045,5.347-.107,10.7-.142,16.045-.021,2.359-.427,3.942-2.229,5.232-16.1,11.639-32.14,23.4-48.206,35.123-.491.361-1.03.614-1.94,1.143-.093-1.484-.242-2.688-.233-3.9Q145.763,26.825,146,0h-1.99q.153,27.06.375,54.106c0,.961-.109,1.924-.2,3.578-1.427-.934-2.35-1.5-3.234-2.15C125.511,44.209,110.077,32.846,94.6,21.595a6.1,6.1,0,0,1-2.787-5.69C91.8,10.6,91.758,5.3,91.73,0H89.793q-.068,7.954-.138,15.9c-.014,2.365-.442,3.948-2.232,5.241C71.318,32.772,55.271,44.526,39.21,56.224c-.5.364-1.042.614-2.025,1.184-.064-1.745-.147-2.855-.135-3.966Q37.292,26.721,37.518,0H35.526c.142,19.051.283,38.178.425,57.9C23.72,48.93,11.844,40.228,0,31.542M37.268,217.427c.012-2.667,1.161-3.754,2.73-4.885q18.913-13.691,37.8-27.435c3.782-2.75,7.6-5.432,11.906-8.493.088,1.677.2,2.794.195,3.892-.2,22.511-.442,45.02-.591,67.534-.012,2.538-.534,4.166-2.422,5.535-15.811,11.442-31.561,23-47.33,34.52-.684.508-1.424.9-2.386,1.5a13.03,13.03,0,0,1-.48-2.482c.185-23.234.442-46.456.582-69.684m211.913-4.718a5.426,5.426,0,0,1,2.5,5c.083,22.79.292,45.581.446,68.359.01.925-.083,1.865-.171,3.364-1.116-.714-1.885-1.175-2.595-1.686q-9.1-6.667-18.2-13.349v.126q-14.141-10.377-28.32-20.672c-2.149-1.554-3.048-3.2-3.058-6.375-.04-22.074-.259-44.144-.408-66.221-.009-1.384.074-2.773.128-4.656a30.783,30.783,0,0,1,2.723,1.6q14.3,10.465,28.586,20.943v.106q9.184,6.733,18.378,13.457m979.38,311.844c1.363.878,2.372,1.463,3.331,2.177,15.358,11.251,30.68,22.576,46.1,33.713,2.182,1.575,2.994,3.29,2.994,6.41.055,22.088.273,44.185.427,66.276.007,1.381-.083,2.758-.154,4.659-1.363-.878-2.379-1.46-3.333-2.171-15.36-11.26-30.69-22.576-46.1-33.724-2.182-1.572-2.979-3.279-2.989-6.41-.048-22.1-.268-44.185-.42-66.265-.017-1.384.081-2.755.147-4.665m-.007-6.3q.3-34.159.605-68.327c.012-2.015.335-3.469,1.887-4.6q24.579-17.82,49.1-35.781a11.169,11.169,0,0,1,1.451-.7c.071,1.554.173,2.659.159,3.763q-.306,33.736-.6,67.469c-.019,2.321-.351,3.951-2.17,5.273-16.106,11.627-32.145,23.393-48.206,35.111-.491.355-1.03.629-1.9,1.166-.131-1.3-.332-2.344-.325-3.381m51.266,40.478c-16.091-11.4-32.254-22.635-48.389-33.93-.594-.417-1.133-.946-2.016-1.674a22.907,22.907,0,0,1,2.265-2.106c15.854-11.046,31.737-22.035,47.567-33.146,1.906-1.331,3.388-1.6,5.411-.17,15.892,11.245,31.858,22.338,47.786,33.5.686.476,1.32,1.081,2.6,2.139-1.512,1.075-2.479,1.792-3.464,2.462q-23.34,16.238-46.672,32.482c-1.714,1.21-3.117,1.839-5.09.447m-.166-232.368c-15.579-11.054-31.248-21.921-46.879-32.861-.883-.62-1.719-1.351-2.9-2.291a31.47,31.47,0,0,1,2.362-2.106c15.859-11.054,31.737-22.044,47.565-33.166,1.932-1.351,3.4-1.507,5.4-.079,15.783,11.184,31.649,22.2,47.484,33.292.786.541,1.512,1.216,2.87,2.33-1.555,1.11-2.538,1.815-3.526,2.515-15.465,10.731-30.953,21.418-46.373,32.255-2.144,1.5-3.78,1.7-6.011.112M1281.513,248c-.014,2.3-.316,3.96-2.158,5.282-16.115,11.636-32.171,23.407-48.246,35.131-.482.355-1.018.6-1.866,1.1a32.513,32.513,0,0,1-.337-3.443c.192-22.649.461-45.307.57-67.96.019-2.858.857-4.359,2.778-5.746,15.814-11.427,31.568-22.987,47.344-34.479.584-.429,1.225-.723,2.35-1.366.076,1.724.173,2.841.164,3.951q-.3,33.767-.6,67.531m-.256,83.045c.176,24.556.356,49.279.544,74.954-17.822-13.058-35-25.654-52.38-38.389q-.274-37.142-.551-74.343c2.685.711,46.729,32.54,52.387,37.778m-51.176,40.225q24.6,17.326,49.25,34.535a20.173,20.173,0,0,1,1.562,1.489c-1.42,1.016-2.4,1.733-3.4,2.429-15.441,10.746-30.918,21.427-46.3,32.305-2.3,1.633-4,1.651-6.324-.012-15.455-11-31.01-21.78-46.525-32.646-.885-.617-1.726-1.345-2.932-2.294a26.541,26.541,0,0,1,2.054-1.842q24.23-16.842,48.46-33.7c1.417-.99,2.614-1.363,4.164-.267M1120.187,524.442c17.76,12.864,34.894,25.569,52.239,38.248.185,24.838.366,49.591.548,75.2-1.757-1.219-2.778-1.886-3.765-2.618-15.156-11.116-30.284-22.3-45.5-33.284-2.241-1.622-3.219-3.3-3.226-6.677-.009-21.8-.245-43.6-.4-65.4-.012-1.53.052-3.058.1-5.467m-.093-7.162q.292-33.542.6-67.046c.019-2.291.3-3.96,2.144-5.294,16.2-11.695,32.333-23.542,48.5-35.337.392-.285.821-.485,1.529-.89a17.814,17.814,0,0,1,.432,2.82c-.188,23.055-.43,46.115-.594,69.173a4.911,4.911,0,0,1-2.146,4.448q-24.123,17.485-48.206,35.1a20.759,20.759,0,0,1-2.1,1.16c-.069-1.651-.173-2.888-.159-4.13m50.722,41.077c-15.567-11.043-31.222-21.9-46.841-32.837-.881-.62-1.716-1.343-2.922-2.291,1.068-.9,1.845-1.66,2.683-2.259q23.778-16.537,47.555-33.069c1.641-1.14,2.956-1.531,4.774-.256,16.087,11.375,32.233,22.605,48.355,33.9.586.4,1.111.919,2.222,1.874-1.41,1-2.3,1.648-3.2,2.262-15.65,10.881-31.326,21.712-46.928,32.687-2.063,1.445-3.6,1.475-5.7-.012m3.827,7.811c.017-2.85.852-4.362,2.773-5.758,15.814-11.425,31.568-22.975,47.344-34.476.582-.426,1.227-.72,2.355-1.363.071,1.722.166,2.835.161,3.945-.2,22.508-.442,45.017-.579,67.528-.014,2.57-.615,4.154-2.476,5.488-15.809,11.439-31.568,22.987-47.337,34.5-.684.491-1.417.9-2.547,1.6-.107-1.551-.266-2.747-.259-3.942.2-22.511.456-45.023.565-67.525m52.539-44.344c-1.531-1.052-2.55-1.719-3.542-2.453-15.244-11.16-30.464-22.405-45.765-33.472-2.156-1.557-3.032-3.234-3.036-6.381-.045-22.085-.266-44.144-.416-66.229-.01-1.372.081-2.753.142-4.639a30.505,30.505,0,0,1,2.725,1.619q23.621,17.3,47.242,34.609a4.974,4.974,0,0,1,2.436,4.6c.088,23.09.3,46.159.46,69.232,0,.811-.126,1.625-.247,3.114M1174.563,401.4c.2-22.226.451-44.441.579-66.67.019-2.849.591-4.665,2.742-6.2,15.731-11.316,31.381-22.805,47.057-34.238.681-.5,1.422-.893,2.426-1.539a22.106,22.106,0,0,1,.413,2.988q-.292,34.4-.6,68.82c-.012,2.227-.508,3.672-2.153,4.856q-24.152,17.529-48.227,35.187c-.487.355-1.023.6-2.084,1.2-.066-1.9-.154-3.149-.15-4.4m53.049-111.834c-9.062-6.04-17.509-12.658-26.124-18.895-8.689-6.3-17.333-12.705-26.056-19.124-.185-24.835-.363-49.494-.553-74.74a22.719,22.719,0,0,1,2.716,1.434c15.857,11.6,31.7,23.263,47.579,34.838a4.727,4.727,0,0,1,2.139,4.377c.114,23.228.313,46.468.48,69.7,0,.555-.083,1.125-.18,2.409M1176.74,255.69c15.788,11.184,31.651,22.209,47.482,33.287.786.546,1.505,1.222,2.809,2.288-2.93,2.092-5.313,3.816-7.723,5.485-13.941,9.709-27.924,19.327-41.817,29.13-2.362,1.669-4.143,1.9-6.631.129-15.356-10.957-30.82-21.671-46.25-32.482-.983-.687-1.93-1.448-3.2-2.409a20.267,20.267,0,0,1,2.051-1.989c15.952-11.119,31.941-22.179,47.864-33.363,1.935-1.354,3.4-1.5,5.411-.076m-3.563-7.185c-.017,2.021-.368,3.458-1.906,4.586q-24.593,17.8-49.108,35.757a9.235,9.235,0,0,1-1.429.667c-.069-1.58-.164-2.694-.152-3.8.2-22.491.439-44.973.6-67.466.017-2.35.42-3.939,2.215-5.241q24.148-17.467,48.2-35.126c.491-.361,1.03-.623,1.809-1.084a21.473,21.473,0,0,1,.385,2.938q-.288,34.388-.608,68.765m-52.5,43.792c17.618,12.914,34.821,25.531,52.237,38.3.183,24.814.368,49.593.558,74.866a13.678,13.678,0,0,1-2.362-1.058q-24.091-17.639-48.177-35.311a4.381,4.381,0,0,1-2.037-4.01c-.1-23.522-.3-47.049-.456-70.571,0-.414.085-.837.237-2.218m1.721,79.546c15.79,11.184,31.651,22.209,47.482,33.3.781.549,1.505,1.21,2.88,2.333-1.557,1.108-2.535,1.818-3.523,2.506-15.467,10.737-30.956,21.421-46.373,32.261-2.146,1.51-3.772,1.7-6.011.117-15.579-11.054-31.248-21.93-46.881-32.866-.883-.62-1.726-1.34-2.906-2.271a28.321,28.321,0,0,1,2.362-2.121c15.864-11.049,31.737-22.044,47.558-33.166,1.935-1.36,3.4-1.51,5.413-.091m-108.7,153.839q24.23,17.732,48.443,35.487a4.434,4.434,0,0,1,2.008,4.048q.178,35.247.451,70.513c0,.423-.1.837-.247,1.927-1.242-.781-2.16-1.3-3.027-1.933-15.548-11.383-31.077-22.831-46.66-34.168a5.726,5.726,0,0,1-2.6-5.352c-.076-22.652-.285-45.29-.444-67.93-.01-1,.062-1.992.109-3.34a7.875,7.875,0,0,1,1.968.749m-1.937-8.528c.2-22.085.446-44.153.565-66.232.012-3.049.693-4.915,2.92-6.522,15.534-11.166,30.979-22.511,46.463-33.786.862-.629,1.783-1.128,3.082-1.945.073,1.862.18,3.231.168,4.594-.2,22.085-.449,44.159-.563,66.244-.014,3.055-.726,4.894-2.937,6.483-15.422,11.122-30.766,22.405-46.133,33.651-.954.693-1.921,1.36-3.383,2.406-.081-2.145-.185-3.519-.183-4.894m50.44,40.948c-15.572-11.037-31.224-21.909-46.838-32.852-.867-.611-1.674-1.372-2.939-2.432,1.367-.975,2.329-1.666,3.3-2.341,15.655-10.872,31.329-21.689,46.933-32.673,1.963-1.375,3.414-1.4,5.391,0,15.678,11.107,31.423,22.044,47.149,33.043.864.617,1.662,1.369,2.778,2.3-1.161.922-1.98,1.654-2.851,2.265-15.638,10.89-31.312,21.727-46.907,32.717-2.184,1.542-3.829,1.519-6.011-.023m4.138,7.838c.017-2.265.565-3.657,2.184-4.835,16.1-11.651,32.131-23.413,48.2-35.125.494-.358,1.026-.643,1.9-1.181a32.365,32.365,0,0,1,.328,3.364c-.19,22.776-.43,45.545-.6,68.33-.017,2-.3,3.481-1.864,4.606q-24.736,17.926-49.412,35.96a6.114,6.114,0,0,1-1.17.441c-.067-1.31-.164-2.274-.154-3.228q.3-34.155.589-68.33m.283-82.339q-.281-37.1-.558-74.308c2.628.632,46.242,32.109,52.389,37.734.173,24.544.359,49.276.544,75-17.915-13.143-35.037-25.716-52.375-38.425m-.53-81.091c.192-22.94.449-45.877.582-68.814a5.786,5.786,0,0,1,2.773-5.311q21.171-15.277,42.292-30.687c2.279-1.657,4.58-3.27,7.464-5.329.048,2.147.109,3.552.095,4.944-.2,22.22-.439,44.438-.565,66.667-.019,2.565-.608,4.154-2.469,5.508-15.814,11.422-31.568,22.975-47.342,34.482-.684.505-1.415.9-2.412,1.516a22.466,22.466,0,0,1-.418-2.976m53.135-112.727c-1.531-1.058-2.547-1.721-3.533-2.453-15.253-11.172-30.469-22.408-45.772-33.475-2.146-1.554-3.046-3.2-3.055-6.375-.04-22.074-.259-44.144-.408-66.221-.01-1.384.073-2.773.128-4.656a30.778,30.778,0,0,1,2.723,1.6q23.628,17.3,47.247,34.614a5,5,0,0,1,2.45,4.6c.083,23.075.292,46.148.451,69.232.009.811-.112,1.636-.23,3.134m-51.212-34.238q24.294,17.119,48.659,34.094c.487.341.921.793,1.838,1.6-1.137.914-1.871,1.583-2.659,2.124q-23.774,16.533-47.532,33.09c-1.79,1.257-3.193,1.454-5.085.12-15.982-11.289-32.034-22.455-48.056-33.668-.586-.408-1.13-.922-2.023-1.651a24.04,24.04,0,0,1,2.232-2.056q24.077-16.753,48.144-33.5c1.581-1.1,2.835-1.307,4.482-.147m-3.279-7.635c-.017,2.617-.681,4.148-2.509,5.473-15.9,11.5-31.749,23.1-47.617,34.656-.594.432-1.227.77-2.113,1.3a22.442,22.442,0,0,1-.392-2.935q.3-34.388.61-68.759c.019-2.024.387-3.455,1.918-4.583,16.393-11.865,32.741-23.836,49.106-35.76a11.671,11.671,0,0,1,1.417-.67c.074,1.589.173,2.7.164,3.81-.2,22.488-.449,44.981-.584,67.466m-49.355,46.747c15.555,11.386,31.093,22.837,46.677,34.188a5.392,5.392,0,0,1,2.464,5.009c.09,22.817.292,45.619.458,68.421.009.849-.052,1.71-.076,2.453a3.743,3.743,0,0,1-.4.32c-.095.047-.235.135-.309.088a18.352,18.352,0,0,1-1.871-1.119q-24.814-18.181-49.7-36.453c-.178-24.838-.368-49.476-.548-75,1.517.952,2.443,1.451,3.3,2.092m-1.187,77.222c15.688,11.09,31.452,22.059,47.18,33.057.791.555,1.527,1.234,2.906,2.335-1.538,1.09-2.514,1.815-3.5,2.494q-23.347,16.229-46.672,32.476c-1.724,1.2-3.122,1.8-5.095.411-16.092-11.386-32.247-22.635-48.379-33.927-.594-.411-1.132-.94-2-1.666a24.511,24.511,0,0,1,2.281-2.118c15.847-11.037,31.742-22.015,47.548-33.154,2.111-1.484,3.67-1.357,5.724.091M905.911,601.035c-.76-.614-1.391-1.143-1.883-1.575-.178-24.606-.361-49.22-.551-74.9,9.776,7.171,19.335,14.183,28.807,21.136v-.15c7.789,5.717,15.538,11.4,23.333,17.118q.281,37.1.558,74.27c-1.263-.273-12.018-7.7-23.541-15.975v-.335c-8.938-6.548-17.815-13.055-26.723-19.588m1.339-81.919c-.527.385-1.064.767-1.662,1.19-.513.341-1.083.67-1.9,1.157-.086-1.78-.176-2.955-.157-4.107.19-22.215.449-44.426.556-66.649.014-3.1.829-4.9,3.008-6.46q12.792-9.223,25.54-18.554v-.232q10.569-7.716,21.132-15.426a27.211,27.211,0,0,1,2.469-1.431c.112,1.422.266,2.494.259,3.552q-.306,33.987-.594,67.957c-.021,2.371-.472,3.931-2.253,5.223q-10.7,7.725-21.362,15.52v-.023q-12.521,9.135-25.035,18.284m46.789,39.241q-10.68-7.583-21.4-15.058v-.082q-12.934-9.051-25.875-18.1c-.653-.467-1.261-1.06-2.386-2.018.287-.261.534-.5.779-.732.94-.673,1.631-1.172,2.319-1.645q12.585-8.76,25.163-17.508v-.232q10.78-7.5,21.54-15.047c1.928-1.354,3.4-1.522,5.4-.1,15.785,11.178,31.649,22.209,47.484,33.3.786.543,1.51,1.213,2.887,2.33-1.567,1.116-2.54,1.818-3.523,2.518-15.465,10.731-30.953,21.415-46.378,32.253-2.137,1.5-3.77,1.713-6.009.126m3.832,7.761c.019-2.347.425-3.936,2.232-5.235,16-11.571,31.934-23.266,47.892-34.905.591-.441,1.234-.776,2.239-1.389.095,1.5.252,2.7.242,3.91-.2,22.488-.439,44.978-.6,67.472-.017,2.347-.4,3.957-2.2,5.253-16.108,11.633-32.162,23.384-48.222,35.087-.494.355-1.03.617-2.044,1.216-.064-1.718-.15-2.835-.138-3.942.2-22.485.435-44.975.594-67.466m52.574-44.488c-1.1-.661-1.923-1.069-2.678-1.616q-23.639-17.326-47.289-34.632c-1.686-1.228-2.386-2.582-2.4-5.065-.093-22.8-.3-45.61-.458-68.418-.012-.955.1-1.915.183-3.308.988.576,1.714.922,2.367,1.392,15.854,11.627,31.7,23.3,47.579,34.858a5.457,5.457,0,0,1,2.41,5.059c.1,22.808.3,45.6.465,68.409.009.964-.1,1.918-.18,3.32M957.778,401.515c.192-22.353.437-44.7.577-67.049.017-2.523.468-4.183,2.374-5.567,15.8-11.407,31.53-22.97,47.294-34.473.762-.555,1.6-.984,2.782-1.724.062,1.789.164,3.164.15,4.542-.192,22.056-.453,44.115-.556,66.182-.014,3.105-.8,4.868-2.982,6.433-15.408,11.119-30.744,22.391-46.107,33.592-.959.708-1.937,1.39-3.321,2.385-.1-1.868-.221-3.093-.211-4.321m.85-149.973c-.185-24.976-.366-49.611-.548-74.085a3.286,3.286,0,0,1,.52-.353c.1-.056.237-.109.313-.065.627.37,1.268.714,1.864,1.134q24.793,18.186,49.683,36.45c.183,24.882.361,49.605.551,75.324-17.8-13.046-34.977-25.64-52.382-38.407m.933,3.84c16.182,11.448,32.435,22.749,48.652,34.106.484.344.919.793,1.688,1.469a27.654,27.654,0,0,1-2.26,2.039q-23.92,16.665-47.831,33.328c-1.626,1.134-2.958,1.583-4.791.291q-11.175-7.91-22.385-15.734v-.117q-12.425-8.7-24.866-17.382c-.883-.629-1.716-1.357-2.918-2.312.855-.758,1.42-1.384,2.063-1.833q12.852-8.945,25.721-17.89v-.232q11.075-7.689,22.148-15.39c1.614-1.131,2.941-1.63,4.779-.341m-3.174-7.341c-.014,2.538-.534,4.166-2.422,5.535q-10.858,7.857-21.68,15.775v-.035q-12.485,9.121-24.954,18.255c-.363.267-.736.532-1.121.8-.556.373-1.154.723-1.892,1.178a32.754,32.754,0,0,1-.311-3.381q.292-33.983.6-67.963c.012-2.312.373-3.963,2.187-5.276q12.945-9.342,25.837-18.763v-.176q6.122-4.446,12.243-8.886c3.782-2.75,7.6-5.432,11.906-8.493.088,1.677.2,2.794.195,3.892-.2,22.511-.442,45.02-.591,67.534M904.06,292.963c.226.088.427.165.636.244.857.526,1.631,1,2.329,1.51q12.624,9.258,25.26,18.5V313.1q10.918,8.007,21.844,16a4.422,4.422,0,0,1,2.042,4.019q.164,35.269.451,70.521c0,.414-.1.828-.235,1.956-1.227-.778-2.156-1.272-3.01-1.9q-10.374-7.6-20.742-15.217v-.085q-12.959-9.5-25.932-18.977c-1.693-1.243-2.365-2.629-2.369-5.1-.1-22.635-.3-45.278-.456-67.924-.007-1,.095-2.024.183-3.431m-.019,78.106a4.553,4.553,0,0,1,1.13.582q13.539,9.575,27.114,19.048v-.12q10.4,7.275,20.807,14.547c.779.541,1.5,1.19,2.559,2.048-1.028.855-1.709,1.545-2.469,2.071q-10.448,7.271-20.9,14.547v0q-13.5,9.381-27,18.777a7.41,7.41,0,0,1-.976.573,4,4,0,0,1-.6.235l-.114.032a3,3,0,0,1-1.593-.029,4.714,4.714,0,0,1-1.144-.6c-16.089-11.363-32.238-22.593-48.36-33.886-.582-.4-1.1-.937-1.982-1.686,1.052-.881,1.826-1.639,2.673-2.244q23.774-16.533,47.553-33.063a5.192,5.192,0,0,1,2.229-1l.04.006a3.543,3.543,0,0,1,1.026.167M805.165,531.856c12.813,9.406,25.616,18.827,38.484,28.128l1.009.8c1.856,1.489,2.609,3.167,2.611,6.072.055,22.088.271,44.185.425,66.276.007,1.325-.074,2.659-.145,4.445-1.178-.749-2.127-1.313-2.991-1.956-15.363-11.26-30.69-22.576-46.1-33.724-2.182-1.572-2.979-3.279-2.989-6.41-.048-22.1-.266-44.185-.42-66.265-.012-1.213.059-2.441.123-4.007,1.327.693,5.073,3.211,9.995,6.645m-9.976-13.607q.292-34.159.605-68.327c.009-2.015.335-3.469,1.887-4.6q24.575-17.82,49.1-35.781a6.929,6.929,0,0,1,1.111-.543c.071,1.466.164,2.55.152,3.61q-.306,33.736-.6,67.469c-.014,1.959-.266,3.425-1.434,4.63a5.023,5.023,0,0,1-.4.364c-.112.094-.211.188-.337.279-16.1,11.627-32.143,23.393-48.2,35.111-.3.217-.655.429-1.059.664-.164.088-.316.17-.52.285a29.322,29.322,0,0,1-.3-3.164m52.047,40.933c-.048-.021-.1-.053-.147-.073a5.78,5.78,0,0,1-.634-.382c-16.094-11.4-32.257-22.635-48.391-33.93-.591-.417-1.133-.946-2.013-1.674a22.638,22.638,0,0,1,2.265-2.106c15.852-11.046,31.737-22.035,47.567-33.146a5.28,5.28,0,0,1,2.616-1.078,4.376,4.376,0,0,1,2.445.908c15.892,11.245,31.858,22.338,47.783,33.5.66.458,1.284,1.043,2.462,2.021-1.068.852-1.845,1.533-2.645,2.109-.23.162-.453.317-.679.47q-23.34,16.238-46.672,32.482a10.617,10.617,0,0,1-1.125.711,3.294,3.294,0,0,1-2.341.379,3.588,3.588,0,0,1-.491-.188m4.335-149.1q23.963,17.52,47.874,35.081a4.3,4.3,0,0,1,2.139,3.934q.146,35.507.43,70.994a6.986,6.986,0,0,1-.254,1.225c-8.789-5.911-17.162-12.42-25.681-18.607-8.682-6.3-17.328-12.717-26.039-19.107-.183-24.823-.366-49.405-.546-74.493a10.071,10.071,0,0,1,2.077.972m-2.037-8.525q.3-33.732.591-67.475c.019-2.359.461-3.907,2.253-5.208,15.992-11.566,31.934-23.263,47.888-34.914.515-.37,1.1-.684,1.835-1.128a30.174,30.174,0,0,1,.278,3.275c-.19,22.638-.437,45.272-.589,67.892-.014,2.371-.439,3.945-2.234,5.247-16.073,11.615-32.093,23.345-48.144,35.034-.463.308-.99.585-1.757,1.013-.057-1.6-.135-2.679-.121-3.737m.2,165.3c.017-3.1.824-4.891,3-6.448,15.306-11.028,30.54-22.2,45.794-33.322q1.5-1.062,3.079-2.192a16.821,16.821,0,0,1,.43,2.82q-.281,34.608-.612,69.232c0,.306-.031.573-.052.852a6.264,6.264,0,0,1-2.4,3.878q-24.262,17.626-48.467,35.349a6.111,6.111,0,0,1-1.128.529c-.033-.167-.064-.326-.1-.491-.05-1.533-.112-2.761-.1-3.966.192-22.079.451-44.153.556-66.241m42.612-284.471Q872.49,267.848,852.63,253.3c-.2-.159-.4-.32-.582-.467a4.385,4.385,0,0,1-1.707-3.781q-.167-35.283-.453-70.562a10.271,10.271,0,0,1,.123-1.251c1.27.626,4.758,2.926,9.347,6.093,13.9,10.194,27.627,20.261,41.442,30.4.456.376.862.717,1.2,1.013.188,24.644.368,49.25.56,74.255-.952-.338-4.867-2.908-10.209-6.607m-42.133-27.241a5.914,5.914,0,0,1,1.275.7c15.785,11.184,31.651,22.2,47.484,33.292.746.514,1.455,1.16,2.683,2.171-1,.834-1.719,1.5-2.448,2.042-.3.217-.6.426-.888.632-15.223,10.564-30.464,21.084-45.642,31.747l-.745.517a8.2,8.2,0,0,1-1.486.849c-.026.012-.052.018-.076.026a4.128,4.128,0,0,1-1.085.256,4.7,4.7,0,0,1-3-1.028C830.71,315.3,815.038,304.438,799.407,293.5c-.881-.62-1.716-1.351-2.9-2.291a31.451,31.451,0,0,1,2.365-2.106c15.859-11.054,31.734-22.044,47.563-33.166a5.257,5.257,0,0,1,2.379-1.013,4.005,4.005,0,0,1,1.4.232M847.8,248a8.294,8.294,0,0,1-.539,3.343,5.5,5.5,0,0,1-1.735,2.024c-15.971,11.536-31.884,23.2-47.814,34.817-.442.291-.935.6-1.51.952-.109.059-.221.123-.344.194a28.8,28.8,0,0,1-.316-3.261c.192-22.649.463-45.307.572-67.96.019-2.858.855-4.359,2.778-5.746,15.814-11.427,31.566-22.987,47.344-34.479a20.891,20.891,0,0,1,2.011-1.178c.074,1.613.161,2.7.154,3.763q-.3,33.767-.6,67.531m-30.808,60.125q10.7,7.848,21.362,15.664c4.466,3.369,7.875,6.037,9.19,7.256.173,24.183.351,48.536.536,73.791-.954-.326-4.971-2.964-10.432-6.745-13.357-9.785-26.457-19.388-39.635-29.05-.793-.64-1.453-1.19-1.956-1.633q-.274-36.966-.548-73.994c2.149,1.063,11.355,7.447,21.483,14.712m-21.469,62.716a3.543,3.543,0,0,1,.845.429q24.6,17.326,49.253,34.535a14.838,14.838,0,0,1,1.329,1.26,16.979,16.979,0,0,1-1.783,1.674c-.078.059-.157.112-.235.167q-2.817,1.965-5.629,3.928-15.957,11.087-31.893,22.235c-3.39,2.368-6.792,4.721-10.18,7.1a5.536,5.536,0,0,1-2.6,1.031,5.312,5.312,0,0,1-3.131-1.181c-15.455-11-31.013-21.78-46.525-32.646-.888-.617-1.728-1.345-2.932-2.294a26.111,26.111,0,0,1,2.051-1.842q24.23-16.842,48.46-33.7a5.3,5.3,0,0,1,1.569-.776,3.3,3.3,0,0,1,1.4.079M686.812,524.809c.339.209.646.391.933.561,16.908,12.259,33.275,24.377,49.806,36.471a4.662,4.662,0,0,1,1.17,2.236c.176,23.783.349,47.516.525,72-.036.438-.074.911-.114,1.487-1.455-1-2.4-1.633-3.288-2.291-15.159-11.116-30.286-22.3-45.5-33.284-2.244-1.622-3.222-3.3-3.229-6.677-.007-21.8-.245-43.6-.394-65.4-.014-1.445.043-2.914.088-5.1m-.086-7.529q.292-33.542.6-67.046c.019-2.291.3-3.96,2.141-5.294,16.2-11.695,32.333-23.542,48.5-35.337a13.185,13.185,0,0,1,1.216-.717,15.268,15.268,0,0,1,.4,2.647c-.188,23.055-.432,46.115-.6,69.173a5.933,5.933,0,0,1-.506,2.553c-.057.12-.14.229-.207.344a5.143,5.143,0,0,1-1.432,1.551q-24.123,17.485-48.206,35.1a14.172,14.172,0,0,1-1.757.981c-.069-1.551-.166-2.758-.152-3.951m50.725,41.077c-15.569-11.043-31.222-21.9-46.843-32.837-.878-.62-1.714-1.343-2.92-2.291,1.068-.9,1.842-1.66,2.683-2.259q23.778-16.537,47.553-33.069a5.244,5.244,0,0,1,2.227-1,3.4,3.4,0,0,1,1.061.165,4.559,4.559,0,0,1,1.14.585c16.087,11.375,32.233,22.605,48.355,33.9.546.373,1.059.867,2.023,1.7-.933.808-1.6,1.46-2.322,1.965-.23.165-.453.317-.679.47-14.2,9.876-28.425,19.723-42.6,29.661-1.467,1.025-2.939,2.042-4.4,3.067a7.164,7.164,0,0,1-1.31.732c-.062.023-.121.044-.18.065a3.723,3.723,0,0,1-.869.176,4.678,4.678,0,0,1-2.915-1.025m3.827,7.811c.017-2.85.852-4.362,2.773-5.758,15.814-11.425,31.566-22.975,47.344-34.476a19.768,19.768,0,0,1,1.933-1.131c.038.261.078.482.116.72.062,1.2.121,2.106.116,2.993-.2,22.508-.439,45.017-.577,67.528-.014,2.57-.615,4.154-2.476,5.488-15.809,11.439-31.571,22.987-47.337,34.5-.584.417-1.218.784-2.084,1.319-.052.027-.078.044-.133.073-.1-1.439-.247-2.594-.242-3.731.2-22.511.458-45.023.567-67.525m52.209-44.57c-1.341-.914-2.3-1.551-3.212-2.227-15.244-11.16-30.464-22.405-45.768-33.472-2.153-1.557-3.029-3.234-3.036-6.381-.043-22.085-.264-44.144-.415-66.229-.007-1.322.076-2.664.138-4.448a24.14,24.14,0,0,1,2.384,1.428q23.621,17.3,47.242,34.609a4.974,4.974,0,0,1,2.436,4.6c.088,23.09.3,46.159.458,69.232,0,.767-.109,1.554-.226,2.888M741.2,401.4c.2-22.226.449-44.441.577-66.67.019-2.849.594-4.665,2.742-6.2,15.733-11.316,31.383-22.805,47.057-34.238.6-.438,1.28-.823,2.113-1.342a18.957,18.957,0,0,1,.377,2.791q-.292,34.4-.6,68.82a7.508,7.508,0,0,1-.42,2.656c-.059.147-.133.288-.2.426a4.2,4.2,0,0,1-.328.543c-.093.132-.185.267-.292.4a5.32,5.32,0,0,1-.912.834Q781.3,376.682,771.317,384q-5.68,4.147-11.36,8.29-8.123,5.936-16.253,11.856c-.591.405-1.254.8-2.056,1.293-.093.05-.207.115-.309.17-.067-1.786-.147-3-.142-4.21m52.719-112.063c-8.936-5.981-17.288-12.506-25.8-18.666-8.689-6.3-17.331-12.705-26.053-19.124-.188-24.779-.363-49.382-.553-74.566a16.369,16.369,0,0,1,2.365,1.26c15.859,11.6,31.7,23.263,47.579,34.838a4.729,4.729,0,0,1,2.141,4.377c.112,23.228.311,46.468.477,69.7,0,.517-.071,1.072-.159,2.18m-52.187-34.359a6.073,6.073,0,0,1,1.3.711c15.785,11.184,31.649,22.209,47.482,33.287.717.5,1.4,1.125,2.512,2.042a21.372,21.372,0,0,1-1.527,1.551c-1.166.834-2.255,1.613-3.312,2.362q-5.114,3.56-10.228,7.124-12.361,8.579-24.7,17.2-4.975,3.468-9.952,6.933a5.94,5.94,0,0,1-2.547,1.011,5.336,5.336,0,0,1-3.26-1.19c-15.358-10.957-30.823-21.671-46.25-32.482-.935-.655-1.856-1.384-3.029-2.28-.043-.044-.1-.1-.147-.15a19.983,19.983,0,0,1,2.03-1.968c15.954-11.119,31.941-22.179,47.864-33.363a5.836,5.836,0,0,1,1.923-.908,4.114,4.114,0,0,1,1.845.12m-2.267-6.475c-.017,2.021-.368,3.458-1.909,4.586q-24.59,17.8-49.106,35.757c-.029.021-.059.035-.088.056-.235.126-.518.235-1,.447-.069-1.486-.154-2.57-.142-3.631.2-22.491.437-44.973.594-67.466.019-2.35.42-3.939,2.217-5.241q24.144-17.467,48.2-35.126a16.255,16.255,0,0,1,1.491-.9,18.251,18.251,0,0,1,.354,2.756q-.285,34.388-.605,68.765m-52.182,44.027C704.786,305.363,721.886,317.9,739.2,330.6c.18,24.77.368,49.5.556,74.728a9.793,9.793,0,0,1-2.011-.919q-24.095-17.639-48.18-35.311a4.379,4.379,0,0,1-2.035-4.01c-.107-23.522-.3-47.049-.458-70.571,0-.388.078-.814.211-1.983m.074,78.585a6.142,6.142,0,0,1,1.327.726c15.79,11.184,31.649,22.209,47.482,33.3.727.511,1.427,1.137,2.63,2.127-.874.79-1.5,1.442-2.179,1.939-.378.27-.741.526-1.1.773q-19.828,13.766-39.638,27.561c-2.293,1.6-4.594,3.187-6.885,4.788a5.728,5.728,0,0,1-2.569,1.072,4.749,4.749,0,0,1-2.944-1.043C667.9,431.3,652.233,420.428,636.6,409.491c-.885-.62-1.726-1.34-2.906-2.271a28.345,28.345,0,0,1,2.36-2.121c15.864-11.049,31.739-22.044,47.558-33.166a5.137,5.137,0,0,1,2.514-1.049,3.978,3.978,0,0,1,1.225.232M579.975,525.681q24.23,17.732,48.443,35.487a4.433,4.433,0,0,1,2.006,4.048q.178,35.247.453,70.513a15.384,15.384,0,0,1-.221,1.727c-1.066-.661-1.923-1.16-2.706-1.733-15.546-11.383-31.077-22.831-46.658-34.168a5.722,5.722,0,0,1-2.6-5.352c-.076-22.652-.287-45.29-.446-67.93-.009-.972.059-1.948.107-3.234a5.522,5.522,0,0,1,1.624.643m-1.591-8.528c.2-22.085.449-44.153.567-66.232.012-3.049.691-4.915,2.918-6.522,15.536-11.166,30.982-22.511,46.463-33.786.781-.57,1.629-1.046,2.744-1.736.071,1.751.171,3.076.159,4.386-.2,22.085-.449,44.159-.563,66.244-.017,3.055-.726,4.894-2.939,6.483-15.42,11.122-30.763,22.405-46.133,33.651-.874.635-1.776,1.263-3.044,2.165-.078-2-.176-3.337-.173-4.653M628.827,558.1c-15.574-11.037-31.224-21.909-46.841-32.852-.864-.611-1.671-1.372-2.937-2.432,1.367-.975,2.329-1.666,3.3-2.341C598,509.6,613.673,498.787,629.278,487.8a4.832,4.832,0,0,1,2.517-1,4.754,4.754,0,0,1,2.524,1c15.681,11.107,31.426,22.044,47.149,33.043.867.617,1.664,1.369,2.78,2.3-1.163.922-1.98,1.654-2.854,2.265-15.636,10.89-31.309,21.727-46.9,32.717a5.257,5.257,0,0,1-2.828,1.11,5.386,5.386,0,0,1-2.835-1.134m4.138,7.838c.014-2.265.565-3.657,2.184-4.835,16.1-11.651,32.131-23.413,48.194-35.125.423-.306.914-.585,1.581-.987a28.307,28.307,0,0,1,.3,3.17q-.285,34.163-.6,68.33a9.75,9.75,0,0,1-.207,1.968,5.171,5.171,0,0,1-1.854,2.779q-24.632,17.855-49.215,35.819a3.161,3.161,0,0,1-.829.32c-.067-1.243-.157-2.186-.147-3.108q.3-34.155.589-68.33m41.368-52.2c-13.886-10.191-27.428-20.129-41.088-30.143q-.281-37.028-.556-74.164c2.873,1.39,18.368,12.306,31.832,22.156v.118q5.94,4.354,11.894,8.719c3.97,3.008,7,5.4,8.314,6.6.171,24.153.351,48.5.532,73.782-.983-.329-5.216-3.108-10.928-7.065M632.718,402.508c.192-22.94.446-45.877.579-68.814a5.783,5.783,0,0,1,2.775-5.311q21.171-15.277,42.29-30.687c2.175-1.58,4.383-3.134,7.087-5.059.017.235.033.426.052.646.043,1.636.085,2.85.074,4.028-.2,22.22-.442,44.438-.567,66.667-.019,2.565-.605,4.154-2.467,5.508-15.816,11.422-31.568,22.975-47.344,34.482-.6.444-1.27.825-2.1,1.328a18.89,18.89,0,0,1-.382-2.788m52.8-112.95c-1.341-.922-2.3-1.557-3.2-2.23-15.256-11.172-30.471-22.408-45.773-33.475-2.148-1.554-3.048-3.2-3.058-6.375-.038-22.074-.259-44.144-.408-66.221-.01-1.334.069-2.685.123-4.465a23.73,23.73,0,0,1,2.381,1.41q23.625,17.3,47.244,34.614a5,5,0,0,1,2.45,4.6c.086,23.075.294,46.148.453,69.232.007.767-.1,1.563-.211,2.911m-51.23-34.015q24.29,17.119,48.657,34.094c.489.341.921.793,1.837,1.6-1.135.914-1.871,1.583-2.657,2.124q-23.774,16.533-47.532,33.09a4.954,4.954,0,0,1-2.369,1,4.165,4.165,0,0,1-2.367-.878C613.88,315.278,597.826,304.112,581.8,292.9c-.584-.408-1.13-.922-2.023-1.651a24.331,24.331,0,0,1,2.232-2.056q24.077-16.753,48.146-33.5a4.493,4.493,0,0,1,2.089-.89,3.6,3.6,0,0,1,2.044.743m-3.279-7.635c-.017,2.617-.684,4.148-2.512,5.473-15.9,11.5-31.749,23.1-47.615,34.656-.515.373-1.087.7-1.795,1.113a18.659,18.659,0,0,1-.361-2.747q.3-34.388.608-68.759c.019-2.024.387-3.455,1.921-4.583C597.653,201.2,614,189.226,630.365,177.3a6.389,6.389,0,0,1,1.075-.517c.071,1.5.164,2.585.154,3.657-.2,22.488-.446,44.981-.582,67.466m-49.357,46.747c15.557,11.386,31.1,22.837,46.679,34.188a5.392,5.392,0,0,1,2.464,5.009c.09,22.817.292,45.619.458,68.421.009.849-.052,1.71-.076,2.453a3.736,3.736,0,0,1-.4.32l-.059.029a16.954,16.954,0,0,1-1.771-1.06q-24.814-18.181-49.7-36.453c-.18-24.767-.368-49.338-.548-74.781,1.3.8,2.165,1.29,2.953,1.874m-1.187,77.222c15.688,11.09,31.454,22.059,47.18,33.057.793.555,1.527,1.234,2.908,2.335-1.541,1.09-2.517,1.815-3.5,2.494q-23.35,16.229-46.675,32.476a5.386,5.386,0,0,1-2.8,1.2,3.933,3.933,0,0,1-1.944-.784c-16.092-11.386-32.247-22.635-48.379-33.927-.591-.411-1.13-.94-1.994-1.666a24.808,24.808,0,0,1,2.279-2.118c15.847-11.037,31.742-22.015,47.551-33.154a4.833,4.833,0,0,1,2.685-1.019,5.341,5.341,0,0,1,2.688,1.11M477.816,605.156c-3.416-2.609-6.063-4.706-7.391-5.9-.176-24.456-.358-49.1-.544-74.763,17.761,13.037,34.773,25.522,52.019,38.172q.285,37.032.558,74.135c-2.291-1.084-12.609-8.231-23.539-16.09v-.085q-10.587-7.755-21.1-15.467m-7.9-88.08c.195-22.085.465-44.162.548-66.241.007-3.281.867-5.106,3.127-6.748,1.391-1,2.778-2.024,4.169-3.029,14.245-10.276,28.43-20.675,42.636-31.025a20.093,20.093,0,0,1,2.137-1.251c.109,1.328.247,2.365.24,3.372q-.3,33.987-.591,67.957c-.021,2.371-.475,3.931-2.253,5.223-15.921,11.5-31.775,23.122-47.648,34.7-.6.441-1.268.8-2.274,1.4-.05-1.9-.1-3.14-.09-4.362m50.751,41.28c-15.576-11.063-31.248-21.924-46.876-32.861-.886-.626-1.728-1.351-2.911-2.286.959-.855,1.612-1.589,2.357-2.118,15.854-11.049,31.739-22.038,47.565-33.16a5.175,5.175,0,0,1,2.528-1.058,4.5,4.5,0,0,1,2.528.961c15.783,11.178,31.649,22.209,47.484,33.3.783.543,1.51,1.213,2.887,2.33-1.567,1.116-2.54,1.818-3.526,2.518-15.462,10.731-30.953,21.415-46.375,32.253a5.816,5.816,0,0,1-2.828,1.19,4.969,4.969,0,0,1-2.835-1.063m3.832,7.761c.019-2.347.425-3.936,2.232-5.235,16-11.571,31.936-23.266,47.892-34.905.515-.382,1.111-.714,1.906-1.19.095,1.4.235,2.559.226,3.71-.2,22.488-.437,44.978-.6,67.472-.017,2.347-.4,3.957-2.2,5.253-16.108,11.633-32.162,23.384-48.222,35.087-.432.311-.914.564-1.7,1.019-.062-1.6-.14-2.685-.128-3.746.2-22.485.435-44.975.591-67.466m52.239-44.685c-.919-.535-1.674-.934-2.343-1.419q-23.635-17.326-47.289-34.632c-1.683-1.228-2.386-2.582-2.4-5.065-.093-22.8-.3-45.61-.456-68.418-.012-.9.088-1.839.169-3.117a23.37,23.37,0,0,1,2.032,1.2c15.854,11.627,31.694,23.3,47.577,34.858a5.452,5.452,0,0,1,2.41,5.059c.1,22.808.3,45.6.465,68.409.01.914-.088,1.842-.166,3.123M524.41,401.515c.192-22.353.437-44.7.579-67.049.017-2.523.465-4.183,2.372-5.567,15.8-11.407,31.533-22.97,47.294-34.473.681-.494,1.453-.917,2.443-1.519.064,1.68.154,3.014.142,4.336-.192,22.056-.456,44.115-.558,66.182-.014,3.105-.8,4.868-2.979,6.433C558.3,380.978,542.958,392.25,527.6,403.451c-.878.646-1.785,1.284-2.989,2.144-.095-1.724-.207-2.911-.2-4.08m.852-149.973c-.185-24.976-.366-49.611-.551-74.085a3.541,3.541,0,0,1,.52-.353c.017-.012.036,0,.055-.012.6.35,1.206.682,1.776,1.081q24.793,18.186,49.682,36.45c.18,24.8.359,49.441.548,75.066-17.673-12.952-34.742-25.467-52.031-38.148m.584,3.84c16.179,11.448,32.435,22.749,48.65,34.106.487.344.919.793,1.69,1.469A27.618,27.618,0,0,1,573.924,293Q550,309.661,526.1,326.323a5.415,5.415,0,0,1-2.241,1.031,3.506,3.506,0,0,1-2.2-.74c-16.186-11.454-32.43-22.749-48.652-34.106-.446-.323-.874-.758-1.757-1.542a25.078,25.078,0,0,1,1.89-1.677c.19-.138.38-.27.56-.4Q477.847,286,482,283.11q19.714-13.678,39.415-27.388a5.549,5.549,0,0,1,2.239-1.058,3.451,3.451,0,0,1,2.191.717m-3.174-7.341c-.014,2.538-.534,4.166-2.424,5.535-15.811,11.442-31.559,23-47.33,34.52-.6.447-1.275.825-2.08,1.316a10.678,10.678,0,0,1-.437-2.3c.185-23.234.442-46.456.582-69.684a6.8,6.8,0,0,1,.211-1.727v0a5.621,5.621,0,0,1,2.521-3.155q18.91-13.691,37.8-27.435c3.68-2.676,7.4-5.294,11.569-8.255.086,1.536.19,2.612.18,3.654-.2,22.511-.442,45.02-.589,67.534m-50.4,45.792q24.084,17.617,48.142,35.267a4.424,4.424,0,0,1,2.044,4.019q.164,35.269.449,70.521a16.95,16.95,0,0,1-.207,1.757c-1.056-.652-1.918-1.134-2.687-1.7-15.55-11.392-31.074-22.837-46.665-34.15a5.764,5.764,0,0,1-2.633-5.347c-.078-22.646-.287-45.293-.446-67.936-.007-.961.047-1.936.095-3.29a8.251,8.251,0,0,1,1.909.861m-.332,78.027c15.773,11.172,31.62,22.191,47.437,33.266.781.541,1.505,1.19,2.559,2.048-1.026.855-1.707,1.545-2.467,2.071q-23.92,16.648-47.843,33.3a4.422,4.422,0,0,1-2.317.928,3.933,3.933,0,0,1-2.113-.8c-15.982-11.3-32.034-22.461-48.047-33.671-.643-.444-1.246-1.013-2.255-1.868.926-.781,1.645-1.454,2.4-2.015.33-.235.653-.464.966-.681,14.624-10.161,29.263-20.285,43.859-30.508.943-.658,1.887-1.31,2.83-1.968a5.233,5.233,0,0,1,2.467-1.04,4.4,4.4,0,0,1,2.528.94M381.523,538.995q10.156,7.46,20.348,14.862c4.8,3.581,8.687,6.566,10.721,8.261a5.949,5.949,0,0,1,.99,2.124c.18,24.027.361,48.272.541,73.515-.439-.282-.8-.505-1.175-.74C396,624.583,379.676,612.606,363.311,600.6a5.975,5.975,0,0,1-1.36-2.9c-.173-23.971-.354-47.8-.529-71.717.01-.261.021-.488.031-.773,2.139,1.119,10.565,6.971,20.071,13.784M361.59,518.208q.292-34.15.6-68.33c.012-2.012.318-3.472,1.873-4.609q24.586-17.811,49.094-35.772a.737.737,0,0,1,.078-.047c.237-.141.527-.261,1.049-.5.076,1.451.161,2.526.157,3.584-.2,22.629-.442,45.255-.594,67.9-.017,2.262-.556,3.666-2.175,4.841-16.191,11.73-32.337,23.554-48.5,35.325a11.532,11.532,0,0,1-1.284.752,28.062,28.062,0,0,1-.3-3.14m51.34,40.5c-16.2-11.451-32.456-22.767-48.695-34.133-.5-.358-.954-.784-1.781-1.478a22.172,22.172,0,0,1,2.184-2.089q23.934-16.687,47.876-33.337a8.856,8.856,0,0,1,.786-.473,3.565,3.565,0,0,1,2.79-.273,4.291,4.291,0,0,1,.876.449c16.1,11.357,32.259,22.611,48.389,33.909a28,28,0,0,1,2.122,1.93c-1.151.917-1.966,1.654-2.832,2.253Q441,541.928,417.372,558.38A5.2,5.2,0,0,1,415,559.42a3.506,3.506,0,0,1-2.07-.711m3.214,6.833a6.667,6.667,0,0,1,.121-1.013,6.168,6.168,0,0,1,1.992-3.437c.192-.156.37-.317.584-.47q18.906-13.682,37.788-27.432c3.67-2.659,7.388-5.276,11.609-8.287.026.132.05.267.078.405.052,1.6.121,2.835.109,4.045-.2,22.068-.461,44.15-.565,66.229-.014,3.111-.821,4.879-2.991,6.448-15.429,11.116-30.761,22.405-46.14,33.648-.757.552-1.565,1.116-2.528,1.8-.055.021-.128.056-.19.082a16.4,16.4,0,0,1-.449-2.77c.19-23.084.444-46.171.582-69.249m52.133-44.062c-.852-.573-1.686-1.172-2.531-1.757-16.685-12.235-32.974-24.186-49.31-36.171-.178-24.785-.363-49.355-.546-74.537.185.079.349.144.525.214a10.865,10.865,0,0,1,1.83,1c15.866,11.6,31.708,23.269,47.586,34.826a4.735,4.735,0,0,1,2.139,4.377q.182,34.855.48,69.708c0,.514-.069,1.066-.173,2.336M415.938,400.925c.192-22.056.458-44.118.56-66.179.009-3.1.786-4.874,2.968-6.448,15.318-11.037,30.538-22.238,45.8-33.386.513-.376,1.03-.746,1.591-1.143.484-.32,1.014-.617,1.712-1.046.1,1.613.216,2.77.2,3.9-.188,22.35-.432,44.693-.584,67.043-.017,2.5-.4,4.213-2.324,5.611-16.006,11.542-31.953,23.225-47.926,34.858a18.445,18.445,0,0,1-1.923,1.122c-.04-1.868-.09-3.1-.078-4.327m34.339-124.653q-12.624-9.249-25.251-18.493c-3.39-2.576-6.1-4.7-7.683-6.057a3.967,3.967,0,0,1-.551-1.26c-.178-24.124-.363-48.46-.544-72.842.017-.126.026-.217.047-.379,1.916.943,8.822,5.658,17.06,11.5q14.668,10.756,29.246,21.454c2.59,2,4.62,3.619,5.8,4.659q.271,36.794.551,74.058c-1.963-.94-9.7-6.24-18.682-12.635m-32-20.2c15.486,10.963,31.048,21.768,46.58,32.64.971.682,1.895,1.46,3.219,2.485-1.2,1-1.985,1.757-2.844,2.356q-23.646,16.436-47.292,32.89a5.97,5.97,0,0,1-1.933.919,3.84,3.84,0,0,1-1.648-.1,5.066,5.066,0,0,1-1.166-.611c-15.994-11.3-32.05-22.473-48.085-33.707a27.4,27.4,0,0,1-2.158-1.886,27.638,27.638,0,0,1,2.132-1.9c.2-.138.387-.273.577-.4,15.655-10.9,31.343-21.745,46.952-32.746a7.013,7.013,0,0,1,1.486-.817,2.794,2.794,0,0,1,.3-.082,3.807,3.807,0,0,1,.883-.165,5.2,5.2,0,0,1,3,1.125m-4.074-8.149c-.012,2.576-.605,4.16-2.469,5.505-15.814,11.425-31.568,22.984-47.342,34.491-.6.435-1.28.82-2.139,1.354a28.906,28.906,0,0,1-.318-3.27c.195-22.655.434-45.3.594-67.957a6.706,6.706,0,0,1,1.213-4.339c.038-.044.059-.1.1-.144a6.428,6.428,0,0,1,.916-.843c.109-.088.192-.185.309-.27,15.892-11.48,31.723-23.093,47.577-34.655.427-.3.921-.558,1.6-.931l.4-.206c.074,1.586.159,2.67.15,3.745-.2,22.508-.444,45.017-.584,67.519M373.228,300.76c12.944,9.492,25.664,18.822,38.482,28.219q1.435,1.15,2.22,1.854.267,36.94.553,73.92c-1.947-.919-9.686-6.216-18.667-12.605q-12.97-9.5-25.828-18.927c-3.5-2.67-6.2-4.815-7.542-6.019-.176-24.174-.356-48.554-.541-73.879,1,.373,5.418,3.317,11.324,7.438M363.316,371.6c15.883,11.237,31.829,22.323,47.75,33.466.686.491,1.332,1.061,2.324,1.845a20.781,20.781,0,0,1-1.963,1.854q-24.219,16.881-48.434,33.765a5.668,5.668,0,0,1-.876.5,4.023,4.023,0,0,1-2.737-.138,5.561,5.561,0,0,1-.52-.282q-24.29-17.119-48.659-34.1a22.224,22.224,0,0,1-1.764-1.536c.75-.687,1.287-1.246,1.861-1.666.306-.22.6-.429.888-.632q23.728-16.493,47.453-33a5.017,5.017,0,0,1,2.21-.931,3.988,3.988,0,0,1,2.467.858M255.993,526.618Q279.34,543.7,302.672,560.81a5.383,5.383,0,0,1,2.509,4.991c.078,22.8.292,45.6.444,68.4.01.9-.1,1.827-.207,3.34-16.989-12.453-33.591-24.629-50.286-36.868a6.186,6.186,0,0,1-1.527-3.079c-.171-23.965-.349-47.81-.525-72.237,0-.185.01-.35.012-.546,1.261.767,2.12,1.237,2.9,1.81m-2.863-10.073c.2-21.912.451-43.824.553-65.748.017-3.061.738-4.888,2.932-6.478,10.895-7.846,21.749-15.79,32.6-23.736q7.09-5.182,14.183-10.361c.325-.232.667-.476,1.021-.726.337-.223.717-.423,1.28-.74a33.413,33.413,0,0,1,.263,3.375c-.192,22.629-.434,45.255-.586,67.9-.012,2.4-.527,3.919-2.293,5.191-16,11.566-31.943,23.246-47.911,34.87a21.241,21.241,0,0,1-1.98,1.178c-.031-1.992-.083-3.355-.064-4.727m52.346,42.7a5.1,5.1,0,0,1-1.073-.576c-15.982-11.281-32.029-22.453-48.059-33.668-.632-.449-1.237-1.011-2.27-1.868.971-.826,1.714-1.531,2.49-2.095.292-.206.575-.408.857-.6,15.548-10.8,31.122-21.565,46.644-32.44a5.428,5.428,0,0,1,2.512-1.084,4.329,4.329,0,0,1,2.528.925c15.769,11.178,31.62,22.185,47.437,33.257.776.549,1.5,1.2,2.566,2.065-1,.855-1.678,1.536-2.436,2.062q-23.924,16.661-47.833,33.3a5.412,5.412,0,0,1-1.754.837,3.718,3.718,0,0,1-1.61-.115m2.213,7.3c.014-2.394.446-4.048,1.83-5.423a8.293,8.293,0,0,1,.634-.555c.093-.073.176-.15.278-.223,15.828-11.389,31.573-22.967,47.351-34.47a9.735,9.735,0,0,1,.933-.579c.271-.147.546-.3.9-.494a19.985,19.985,0,0,1,.356,2.77q-.3,34.419-.6,68.826c-.012,2.23-.522,3.654-2.158,4.847q-24.155,17.5-48.244,35.152c-.425.3-.912.558-1.726,1.022-.064-1.786-.15-3.008-.14-4.2.2-22.223.444-44.45.584-66.67m52.218-44.993c-1.332-.914-2.282-1.542-3.191-2.215-15.254-11.178-30.469-22.408-45.777-33.463-2.165-1.572-3.053-3.24-3.06-6.369-.059-22.085-.271-44.138-.42-66.224-.009-1.343.064-2.691.114-4.483a22.818,22.818,0,0,1,2.367,1.381q23.625,17.3,47.256,34.6a5.445,5.445,0,0,1,2.46,5.026c.083,22.787.292,45.584.446,68.374.012.908-.093,1.839-.195,3.369M307.589,402.091q.292-33.987.605-67.957a9.269,9.269,0,0,1,.382-2.838,5.724,5.724,0,0,1,.275-.6c.062-.126.131-.25.2-.37a5.966,5.966,0,0,1,.472-.643,5.061,5.061,0,0,1,.864-.814c16.008-11.557,31.955-23.252,47.926-34.876.366-.241.781-.508,1.23-.784l.748-.394c.019.132.043.247.064.379.045,1.6.1,2.755.093,3.889-.2,22.217-.446,44.435-.591,66.661-.017,2.691-.494,4.439-2.521,5.914-15.719,11.333-31.369,22.852-47.04,34.288-.681.5-1.446.928-2.4,1.516a33.494,33.494,0,0,1-.309-3.37m50.072-114.507c-16.735-12.259-32.926-24.139-49.2-36.077-.176-24.635-.356-49.156-.541-74.637.8.411,1.427.705,1.989,1.022,16.747,12.276,32.921,24.136,49.153,36.039a4.1,4.1,0,0,1,.893,1.636c.176,24.459.354,48.756.544,73.976-.959-.64-1.887-1.307-2.835-1.959m-47.722-31.621c15.474,11,31.041,21.8,46.57,32.67.9.629,1.752,1.331,2.93,2.238a16.343,16.343,0,0,1-1.918,1.933q-24.234,16.9-48.484,33.762a7.4,7.4,0,0,1-.707.42,4.153,4.153,0,0,1-3.134-.176q-24.753-17.445-49.561-34.794a10.3,10.3,0,0,1-1.109-1.1c.487-.485.9-.9,1.277-1.269a10.615,10.615,0,0,1,.9-.729c14.952-10.408,29.928-20.763,44.847-31.268.81-.567,1.624-1.131,2.433-1.7a7.985,7.985,0,0,1,1.529-.855c.069-.026.135-.047.2-.071a3.975,3.975,0,0,1,.931-.188,5.123,5.123,0,0,1,3.3,1.128m-4.079-7.476c-.017,2.027-.4,3.434-1.935,4.556q-24.583,17.811-49.11,35.769a6.863,6.863,0,0,1-1.073.5c-.064-1.522-.145-2.612-.131-3.684.2-22.491.439-44.981.586-67.472.026-2.374.465-3.925,2.255-5.22,15.994-11.566,31.936-23.263,47.9-34.905.508-.367,1.083-.687,1.778-1.1a20.352,20.352,0,0,1,.34,2.791q-.3,34.371-.608,68.77m-52.187,43.991c17.5,12.835,34.609,25.372,51.914,38.066.185,24.756.373,49.5.56,74.716a9.531,9.531,0,0,1-2.011-.919q-24.095-17.644-48.177-35.3a4.4,4.4,0,0,1-2.039-4.016c-.1-23.525-.29-47.047-.444-70.568-.009-.388.071-.811.2-1.977m1.738,79.546c15.591,11.043,31.257,21.918,46.883,32.863.876.614,1.707,1.34,2.882,2.286a30.415,30.415,0,0,1-2.4,2.13q-23.949,16.657-47.9,33.3a8.11,8.11,0,0,1-1.011.605,3.857,3.857,0,0,1-2.692-.094,4.075,4.075,0,0,1-.427-.217q-9.782-6.9-19.6-13.734v.1q-14.131-9.9-28.266-19.773c-.886-.62-1.728-1.34-2.908-2.271a28.709,28.709,0,0,1,2.362-2.121q14.408-10.034,28.812-20.061v.006c6.2-4.321,12.412-8.628,18.6-12.987a5.437,5.437,0,0,1,2.828-1.143,5.207,5.207,0,0,1,2.832,1.11m-108.8,153.657q24.226,17.732,48.441,35.487a4.434,4.434,0,0,1,2.008,4.048q.178,35.247.451,70.513c0,.423-.1.837-.247,1.927-1.242-.781-2.16-1.3-3.027-1.933-15.548-11.383-31.077-22.831-46.66-34.168a5.726,5.726,0,0,1-2.6-5.352c-.076-22.652-.285-45.29-.444-67.93-.009-1,.062-1.992.109-3.34a7.932,7.932,0,0,1,1.97.749m-1.94-8.528c.2-22.085.446-44.153.565-66.232.014-3.049.693-4.915,2.92-6.522,15.534-11.166,30.979-22.511,46.463-33.786.862-.629,1.783-1.128,3.082-1.945.074,1.862.183,3.231.171,4.594-.2,22.085-.451,44.159-.565,66.244-.014,3.055-.724,4.894-2.937,6.483-15.422,11.122-30.766,22.405-46.133,33.651-.954.693-1.921,1.36-3.383,2.406-.081-2.145-.185-3.519-.183-4.894M195.11,558.1c-15.572-11.037-31.224-21.909-46.838-32.852-.867-.611-1.674-1.372-2.939-2.432,1.37-.975,2.329-1.666,3.3-2.341,15.655-10.872,31.328-21.689,46.933-32.673,1.963-1.375,3.414-1.4,5.392,0q14.9,10.554,29.852,20.96v.071q8.921,6.24,17.844,12.479c.577.408,1.1.931,2.194,1.859-.081.065-.135.112-.211.173-1.291.917-2.153,1.533-3,2.124L230.8,537.182v.2q-14.857,10.333-29.683,20.74c-2.184,1.542-3.829,1.519-6.011-.023m4.14,7.838c.014-2.265.563-3.657,2.182-4.835q14.889-10.778,29.721-21.662v.029q8.529-6.231,17.06-12.462c.508-.376,1.023-.746,1.586-1.143.437-.3.924-.579,1.664-1.028.078,1.745.171,2.92.157,4.083-.19,22.347-.446,44.7-.589,67.043-.009,2.57-.575,4.163-2.441,5.511q-8.906,6.438-17.787,12.943v.209q-15.409,11.214-30.82,22.429a6.113,6.113,0,0,1-1.17.441c-.066-1.31-.164-2.274-.154-3.228q.3-34.155.591-68.33m33.47-57.992c-11.134-8.17-22.145-16.251-33.19-24.347q-.281-37.1-.558-74.308c1.569.379,17.742,11.745,31.832,22.044v.373q9.106,6.671,18.228,13.36c.871.7,1.574,1.29,2.084,1.742q.271,36.926.553,73.914c-1.959-.911-9.838-6.3-18.95-12.779M199,402.508c.192-22.94.449-45.877.582-68.814a5.786,5.786,0,0,1,2.773-5.311q21.174-15.277,42.292-30.687c2.054-1.492,4.15-2.97,6.652-4.75l.439-.253c.1,1.451.252,2.617.24,3.751q-.288,33.762-.591,67.519c-.017,2.309-.366,3.951-2.182,5.273q-9.22,6.658-18.4,13.384v.212q-14.49,10.558-28.973,21.136c-.684.505-1.413.9-2.412,1.516a22.486,22.486,0,0,1-.418-2.976m1.923-146.965q14.918,10.514,29.88,20.937v.135q9.045,6.332,18.091,12.664c.677.464,1.292,1.055,2.457,2.009l-.021.018c-1.474,1.055-2.365,1.7-3.257,2.33q-8.639,6-17.269,12.018v.206q-14.793,10.28-29.574,20.587c-1.79,1.257-3.193,1.454-5.085.12-15.982-11.289-32.034-22.455-48.056-33.668-.586-.408-1.13-.922-2.023-1.651a24.03,24.03,0,0,1,2.232-2.056q24.077-16.753,48.146-33.5c1.579-1.1,2.832-1.307,4.48-.147m-3.279-7.635c-.017,2.617-.681,4.148-2.512,5.473-15.9,11.5-31.746,23.1-47.615,34.656-.594.432-1.227.77-2.113,1.3a22.429,22.429,0,0,1-.392-2.935q.3-34.388.61-68.759c.019-2.024.387-3.455,1.918-4.583,16.393-11.865,32.741-23.836,49.108-35.76a11.4,11.4,0,0,1,1.415-.67c.074,1.589.173,2.7.164,3.81-.2,22.488-.449,44.981-.584,67.466M148.29,294.655c15.555,11.386,31.093,22.837,46.677,34.188a5.387,5.387,0,0,1,2.464,5.009c.09,22.817.292,45.619.461,68.421.009.849-.052,1.71-.078,2.453a3.741,3.741,0,0,1-.4.32c-.095.047-.235.135-.309.088a18.368,18.368,0,0,1-1.871-1.119q-24.814-18.181-49.7-36.453c-.183-24.838-.37-49.476-.551-75,1.517.952,2.443,1.451,3.3,2.092M147.1,371.878c15.686,11.09,31.452,22.059,47.178,33.057.793.555,1.529,1.234,2.908,2.335-1.538,1.09-2.514,1.815-3.5,2.494q-23.347,16.229-46.672,32.476c-1.721,1.2-3.122,1.8-5.095.411-16.092-11.386-32.247-22.635-48.379-33.927-.591-.411-1.132-.94-2-1.666a24.812,24.812,0,0,1,2.281-2.118c15.847-11.037,31.742-22.015,47.548-33.154,2.111-1.484,3.67-1.357,5.724.091M90.787,566.118c.019-2.347.425-3.936,2.232-5.235,16-11.571,31.934-23.266,47.892-34.905.591-.441,1.235-.776,2.239-1.389.095,1.5.252,2.7.242,3.91-.2,22.488-.437,44.978-.6,67.472-.017,2.347-.4,3.957-2.2,5.253-16.111,11.633-32.162,23.384-48.222,35.087-.494.355-1.03.617-2.044,1.216-.064-1.718-.15-2.835-.138-3.942.2-22.485.437-44.975.594-67.466m-3.832-7.761C71.377,547.294,55.708,536.433,40.077,525.5c-.886-.626-1.726-1.351-2.908-2.286.959-.855,1.61-1.589,2.357-2.118,15.854-11.049,31.737-22.038,47.565-33.16,1.928-1.354,3.4-1.522,5.4-.1,15.785,11.178,31.649,22.209,47.484,33.3.786.543,1.51,1.213,2.889,2.33-1.569,1.116-2.54,1.818-3.526,2.518-15.465,10.731-30.953,21.415-46.375,32.253-2.139,1.5-3.77,1.713-6.011.126m56.406-36.727c-1.1-.661-1.923-1.069-2.678-1.616q-23.639-17.326-47.289-34.632c-1.686-1.228-2.386-2.582-2.4-5.065-.093-22.8-.3-45.61-.456-68.418-.012-.955.1-1.915.18-3.308.988.576,1.714.922,2.367,1.392,15.854,11.627,31.7,23.3,47.579,34.858a5.457,5.457,0,0,1,2.41,5.059c.1,22.808.3,45.6.465,68.409.009.964-.1,1.918-.18,3.32M90.695,401.515c.192-22.353.437-44.7.577-67.049.017-2.523.468-4.183,2.374-5.567,15.8-11.407,31.53-22.97,47.294-34.473.762-.555,1.6-.984,2.782-1.724.062,1.789.164,3.164.15,4.542-.192,22.056-.453,44.115-.556,66.182-.014,3.105-.8,4.868-2.982,6.433-15.408,11.119-30.744,22.391-46.1,33.592-.962.708-1.94,1.39-3.324,2.385-.1-1.868-.223-3.093-.211-4.321m.85-149.973c-.185-24.976-.366-49.611-.548-74.085a3.448,3.448,0,0,1,.518-.353c.1-.056.242-.109.318-.065.624.37,1.265.714,1.861,1.134q24.793,18.186,49.683,36.45c.183,24.882.361,49.605.551,75.324-17.8-13.046-34.975-25.64-52.382-38.407m.933,3.84c16.182,11.448,32.435,22.749,48.652,34.106.487.344.919.793,1.688,1.469A27.253,27.253,0,0,1,140.555,293q-23.917,16.665-47.828,33.328c-1.626,1.134-2.958,1.583-4.791.291-16.184-11.454-32.428-22.749-48.65-34.106-.484-.35-.919-.808-1.959-1.721,1.351-.966,2.234-1.607,3.115-2.224q23.635-16.41,47.256-32.84c1.617-1.131,2.941-1.63,4.779-.341M86.293,403.7c-15.548-11.392-31.074-22.837-46.663-34.15A5.759,5.759,0,0,1,37,364.2c-.078-22.646-.287-45.293-.449-67.936-.007-1,.052-1.986.1-3.422a11.682,11.682,0,0,1,2.253.993Q62.986,311.45,87.046,329.1a4.429,4.429,0,0,1,2.044,4.019q.164,35.269.449,70.521c0,.414-.095.828-.235,1.956-1.227-.778-2.156-1.272-3.01-1.9m-49.54,47.141c.007-3.3.869-5.129,3.167-6.786,15.638-11.237,31.184-22.664,46.765-34.015a26.789,26.789,0,0,1,2.467-1.431c.112,1.422.264,2.494.259,3.552q-.3,33.987-.594,67.957c-.021,2.371-.472,3.931-2.253,5.223-15.918,11.5-31.772,23.122-47.648,34.7-.667.494-1.394.867-2.616,1.6-.05-2.027-.112-3.3-.1-4.565.2-22.085.465-44.162.551-66.241m-.043,148.419c-.178-24.538-.361-49.261-.546-75.019,17.886,13.131,35.008,25.693,52.37,38.427q.281,37.1.558,74.27c-2.6-.561-45.431-31.427-52.382-37.678M35.858,749.5c.192-22.338.442-44.688.582-67.034.017-2.556.527-4.174,2.407-5.535,15.8-11.427,31.53-22.984,47.3-34.473.757-.564,1.574-.984,2.7-1.657.078,1.636.207,2.867.2,4.1-.2,22.212-.468,44.414-.563,66.62-.012,3.126-.857,4.868-3.015,6.422-15.31,11.04-30.545,22.223-45.8,33.372-1.068.779-2.139,1.525-3.6,2.565-.1-1.9-.223-3.146-.211-4.38m103.819,7.723Q115.743,773.9,91.8,790.552c-1.534,1.072-2.792,1.483-4.475.291q-24.458-17.238-49-34.353a23.017,23.017,0,0,1-1.709-1.56c1.118-.911,1.764-1.51,2.455-2,15.659-10.9,31.35-21.73,46.955-32.743,2.4-1.695,4.207-1.76,6.64-.018,15.372,10.934,30.835,21.653,46.266,32.452.971.69,1.909,1.46,3.229,2.476-1.049.908-1.728,1.6-2.483,2.127M90.7,715.63q-.278-37.142-.548-74.361c3.022.917,43.712,30.267,52.37,37.67.188,24.512.368,49.276.56,75.1-17.9-13.122-35.025-25.681-52.382-38.4m50.815-40.863c-16.087-11.357-32.235-22.6-48.363-33.877-.582-.405-1.1-.94-1.978-1.692,1.049-.89,1.833-1.636,2.673-2.241q23.785-16.529,47.553-33.066c1.648-1.146,2.972-1.516,4.779-.235,16.082,11.372,32.233,22.6,48.351,33.889.582.4,1.106.922,2.213,1.874-1.313.931-2.108,1.513-2.908,2.068Q170.062,658,146.3,674.559c-1.652,1.155-2.977,1.484-4.777.209m2.659,75.289c.192-22.646.432-45.307.6-67.951.014-2.324.368-3.978,2.189-5.291,16.113-11.648,32.164-23.425,48.241-35.143a19.207,19.207,0,0,1,2.03-1.06c.064,1.71.15,2.838.14,3.963q-.3,33.78-.589,67.528c-.019,2.324-.394,3.942-2.2,5.255q-24.03,17.357-47.952,34.923c-.572.414-1.2.729-2.137,1.293-.133-1.392-.335-2.465-.323-3.516m103.031,7.817q-8.2,5.7-16.4,11.389v.22q-15.039,10.426-30.049,20.928c-2.039,1.433-3.582,1.589-5.71.07-15.676-11.125-31.447-22.068-47.183-33.069-.8-.555-1.555-1.2-2.623-2.048a15.421,15.421,0,0,1,1.854-1.921q24.223-16.895,48.479-33.777c1.424-1,2.628-1.354,4.176-.261q15.512,10.924,31.055,21.789v.091q8.4,5.874,16.8,11.754c.857.608,1.648,1.366,2.951,2.462-1.415,1-2.372,1.7-3.343,2.374m3.915-4.527c-.427-.17-.807-.317-1.159-.473l-18.812-13.789v.156q-15.071-11.056-30.144-22.091a4.413,4.413,0,0,1-2.032-4.019q-.164-35.287-.458-70.577c0-.414.088-.84.133-1.257,1.529.273,17.837,11.68,32.152,22.176v.464q8.8,6.455,17.609,12.9a5.473,5.473,0,0,1,2.414,5.047c.088,22.811.3,45.61.461,68.421,0,.831-.078,1.7-.164,3.046m.867-78.147c-.081-.006-.159,0-.237-.015a4.959,4.959,0,0,1-1.059-.276,7.339,7.339,0,0,1-1.633-.908c-5.949-4.245-11.935-8.419-17.908-12.614v.117q-14.063-9.871-28.138-19.706c-1.09-.758-2.16-1.536-3.618-2.588a28.7,28.7,0,0,1,2.426-2.23q14.661-10.21,29.329-20.411v.009q9.127-6.363,18.25-12.735c.147-.1.292-.182.434-.264.159-.1.313-.179.468-.264a3.936,3.936,0,0,1,3.148-.258,6.133,6.133,0,0,1,1.135.623c15.887,11.248,31.858,22.341,47.8,33.492.672.479,1.3,1.084,2.462,2.1-2.9,2.056-5.282,3.8-7.694,5.479-13.938,9.691-27.919,19.309-41.815,29.112a6.046,6.046,0,0,1-3.345,1.337m.764,75.554c.195-23.087.446-46.162.579-69.252a6.461,6.461,0,0,1,.119-.969,6.39,6.39,0,0,1,2.146-3.569c.152-.117.287-.241.449-.358q18.917-13.673,37.788-27.435c3.692-2.679,7.424-5.291,11.576-8.249.1,1.34.223,2.262.221,3.161-.2,22.8-.451,45.6-.591,68.389-.017,2.465-.7,3.886-2.414,5.12C286.721,729.114,270.871,740.75,255,752.345c-.513.376-1.094.693-1.821,1.122a15.241,15.241,0,0,1-.425-2.714m103.479,6.319Q332.314,773.732,308.4,790.4a4.8,4.8,0,0,1-2.341.981,3.709,3.709,0,0,1-2.1-.758c-16.077-11.372-32.228-22.611-48.346-33.895-.586-.408-1.109-.946-2.225-1.886,1.586-1.128,2.678-1.93,3.784-2.691q21.605-15,43.189-30.046c1.066-.743,2.134-1.481,3.2-2.227a7.414,7.414,0,0,1,1.315-.734c.055-.023.109-.044.164-.065a3.833,3.833,0,0,1,.9-.188,4.6,4.6,0,0,1,2.913,1c15.56,11.049,31.215,21.909,46.838,32.834.876.623,1.714,1.34,2.92,2.283-.966.837-1.638,1.542-2.376,2.059m.978-5.117q-23.61-17.322-47.24-34.591a5.447,5.447,0,0,1-2.424-5.032c-.088-22.641-.29-45.284-.446-67.924-.007-1.008.1-2.03.195-3.59.515.329.978.62,1.4.881,16.562,12.15,32.784,24.039,49.1,36.007a5.771,5.771,0,0,1,1.306,2.43c.178,24.274.358,48.46.546,73.427-1.144-.743-1.816-1.146-2.436-1.607m3.469-76.447a4.457,4.457,0,0,1-2.526-.955c-15.792-11.187-31.649-22.2-47.484-33.29-.76-.541-1.486-1.19-2.5-2.027.252-.27.477-.529.691-.773a13.641,13.641,0,0,1,1.586-1.378q19.754-13.766,39.514-27.549,4.092-2.851,8.179-5.7a7.379,7.379,0,0,1,1.111-.635c.047-.023.1-.056.145-.079a3.718,3.718,0,0,1,1.033-.235,4.348,4.348,0,0,1,2.63.952c15.792,11.187,31.651,22.2,47.486,33.292.743.52,1.458,1.172,2.706,2.2.045.05.088.1.14.153-1.441,1.031-2.315,1.666-3.205,2.28-15.662,10.875-31.347,21.709-46.976,32.684a5.249,5.249,0,0,1-2.528,1.06m.415,73.541q.317-33.3.6-66.611a8.288,8.288,0,0,1,.688-3.813c.048-.085.1-.173.152-.256a4.687,4.687,0,0,1,.489-.667,6.225,6.225,0,0,1,.919-.849c.017-.012.029-.026.047-.038,15.9-11.478,31.739-23.114,47.6-34.676.119-.091.259-.167.385-.25.51-.32,1.059-.637,1.712-1.025.116,1.254.273,2.294.266,3.3-.2,22.635-.442,45.266-.591,67.9-.019,2.388-.51,3.919-2.284,5.194-16,11.565-31.946,23.243-47.916,34.876a21.744,21.744,0,0,1-1.952,1.166c-.05-1.81-.119-3.041-.112-4.257m105.564,6.807c-1.075.776-1.911,1.378-2.742,1.951-15.548,10.808-31.124,21.559-46.622,32.485a4.8,4.8,0,0,1-3.086,1.031,5.731,5.731,0,0,1-2.564-1.1c-15.574-11.04-31.219-21.909-46.846-32.837-.864-.605-1.664-1.378-2.754-2.291,1.18-.922,2.008-1.648,2.887-2.268q19.618-13.643,39.234-27.3c2.676-1.865,5.354-3.716,8.027-5.584.154-.109.3-.17.449-.264a6.339,6.339,0,0,1,.781-.432,3.729,3.729,0,0,1,.439-.135,3.407,3.407,0,0,1,.729-.138,4.867,4.867,0,0,1,2.619,1.011c15.674,11.1,31.426,22.05,47.142,33.052.85.6,1.641,1.351,2.842,2.341-.2.173-.358.317-.534.476m1.306-2.626a8.119,8.119,0,0,1-1.887-.828Q442,734.77,417.937,717.131a4.424,4.424,0,0,1-2.049-4.022q-.171-35.243-.449-70.518c0-.391.083-.8.207-1.774,1.054.655,1.911,1.14,2.678,1.7q23.336,17.093,46.653,34.183a7.5,7.5,0,0,1,1.766,1.686c.064.1.138.188.195.288a5.488,5.488,0,0,1,.7,2.905c.066,23.066.29,46.151.453,69.232.009.673-.064,1.372-.126,2.415m.757-78.036a5.8,5.8,0,0,1-2.882-1.2c-15.46-10.987-31.013-21.786-46.525-32.655-.881-.617-1.721-1.348-2.915-2.3.876-.776,1.448-1.372,2.094-1.83q24.223-16.85,48.455-33.7a6.6,6.6,0,0,1,.821-.485,2.928,2.928,0,0,1,2.232-.138,3.779,3.779,0,0,1,.767.394q24.607,17.317,49.25,34.541a16.923,16.923,0,0,1,1.519,1.484c-1.432,1.016-2.419,1.733-3.423,2.429-15.439,10.746-30.913,21.427-46.295,32.305a5.288,5.288,0,0,1-3.1,1.152m1.042,78.353c-.093-1.707-.2-2.891-.192-4.045.192-22.338.444-44.688.584-67.034.017-2.556.527-4.174,2.407-5.535,15.795-11.427,31.53-22.984,47.3-34.473a24.786,24.786,0,0,1,2.365-1.46c.078,1.528.195,2.726.185,3.9-.2,22.212-.47,44.414-.565,66.62-.01,3.126-.855,4.868-3.013,6.422-15.311,11.04-30.547,22.223-45.8,33.372-.886.646-1.788,1.281-2.9,2.068-.107.044-.242.1-.373.162m103.278,3.678q-23.931,16.678-47.876,33.328a5.107,5.107,0,0,1-2.1.972,3.271,3.271,0,0,1-2.023-.682q-24.458-17.238-49-34.353a18.683,18.683,0,0,1-1.562-1.425,20.71,20.71,0,0,1,1.861-1.8c.15-.118.3-.232.449-.338,15.657-10.9,31.35-21.73,46.955-32.743a6,6,0,0,1,3.141-1.263,5.763,5.763,0,0,1,3.15,1.246c15.37,10.934,30.832,21.653,46.266,32.452.971.69,1.906,1.46,3.226,2.476-1.047.908-1.726,1.6-2.483,2.127M524.422,715.63q-.281-37.067-.548-74.211c4.929,2.394,43.6,30.322,52.021,37.52.185,24.43.363,49.115.556,74.84-17.77-13.031-34.787-25.511-52.028-38.148m53.013-40.084a3.705,3.705,0,0,1-2.2-.779c-16.087-11.357-32.235-22.6-48.363-33.877-.579-.405-1.1-.94-1.975-1.692,1.047-.89,1.831-1.636,2.673-2.241q23.781-16.529,47.553-33.066a5.138,5.138,0,0,1,2.232-1,3.605,3.605,0,0,1,2.2.764c16.082,11.372,32.231,22.6,48.351,33.889.582.4,1.1.922,2.213,1.874-1.315.931-2.111,1.513-2.908,2.068Q603.426,658,579.664,674.559a5.086,5.086,0,0,1-2.229.987m.461,74.511q.288-33.969.6-67.951c.014-2.324.368-3.978,2.187-5.291,16.113-11.648,32.167-23.425,48.244-35.143a13.131,13.131,0,0,1,1.686-.89c.064,1.607.142,2.706.135,3.792q-.3,33.78-.591,67.528c-.019,2.324-.392,3.942-2.2,5.255Q603.925,734.714,580,752.28c-.494.358-1.068.667-1.809,1.1a31.385,31.385,0,0,1-.3-3.326m102.912,7.891c-15.574,10.808-31.155,21.568-46.686,32.464a5.376,5.376,0,0,1-2.671,1.107,4.8,4.8,0,0,1-2.687-1.037c-15.678-11.125-31.447-22.068-47.183-33.069-.8-.555-1.555-1.2-2.623-2.048a15.419,15.419,0,0,1,1.852-1.921q24.223-16.895,48.479-33.777a4.672,4.672,0,0,1,1.961-.89,3.051,3.051,0,0,1,1.868.629Q657.884,736.846,682.7,754.2a13.913,13.913,0,0,1,1.375,1.413c-1.341.966-2.3,1.663-3.272,2.335m4.034-4.6a8.906,8.906,0,0,1-1.942-.9q-24.1-17.644-48.173-35.3a4.408,4.408,0,0,1-2.032-4.019q-.164-35.287-.458-70.577a10.353,10.353,0,0,1,.119-1.134c2.832,1.292,18.475,12.262,32.167,22.309v.209q6.4,4.7,12.813,9.383c2.516,1.939,4.646,3.622,6.173,4.9a4.868,4.868,0,0,1,.867,1.936c.178,23.971.359,47.846.534,72.163-.019.314-.043.649-.067,1.028m.729-78.136a6.479,6.479,0,0,1-3.188-1.354c-15.159-10.814-30.426-21.392-45.651-32.059-1.09-.758-2.16-1.536-3.618-2.588a29.066,29.066,0,0,1,2.426-2.23c15.759-10.972,31.547-21.885,47.263-32.946a5.539,5.539,0,0,1,2.923-1.157,5.084,5.084,0,0,1,2.752,1.052c15.579,11.057,31.248,21.935,46.876,32.866.888.62,1.724,1.34,3.174,2.488-2.968,2.112-5.344,3.837-7.749,5.514-12.056,8.375-24.13,16.709-36.148,25.167-1.857,1.3-3.723,2.591-5.579,3.9a5.9,5.9,0,0,1-3.48,1.348m.945,78.092c-.078-1.683-.157-2.9-.147-4.069.192-22.088.472-44.165.541-66.247.009-3.361.957-5.112,3.226-6.733C705.5,665.2,720.79,653.971,736.107,642.82l.38-.27c.734-.52,1.543-.984,2.638-1.66l.007.082c.04,1.892.1,3.126.09,4.333-.2,22.085-.456,44.15-.57,66.244-.017,3.038-.712,4.894-2.92,6.483l-.221.162c-15.351,11.066-30.621,22.306-45.92,33.5-.4.291-.812.582-1.251.893-.5.326-1.03.626-1.757,1.066-.021-.126-.045-.229-.069-.35m103.32,3.822q-23.9,16.67-47.828,33.339a8.608,8.608,0,0,1-.9.529,4.5,4.5,0,0,1-.653.27c-.019.009-.036.009-.055.018a3.021,3.021,0,0,1-1.633.026,4.691,4.691,0,0,1-1.194-.62c-16.082-11.369-32.226-22.6-48.351-33.892-.586-.411-1.109-.94-2.232-1.892,1.382-.993,2.265-1.628,3.169-2.265q23.628-16.41,47.249-32.849a6.1,6.1,0,0,1,1.735-.864,3.705,3.705,0,0,1,1.74.112,4.639,4.639,0,0,1,.952.491c16.087,11.369,32.235,22.6,48.355,33.883.584.405,1.113.919,2,1.674-.943.82-1.61,1.519-2.36,2.039m3.3-3.49c-.356-.229-.667-.432-.945-.608-16.892-12.385-33.275-24.4-49.932-36.615a4.791,4.791,0,0,1-1.04-1.953c-.18-24.236-.361-48.612-.546-73.638,1.32.843,2.267,1.4,3.136,2.045,15.346,11.237,30.657,22.558,46.055,33.68,2.21,1.6,2.918,3.358,2.93,6.442.052,21.918.271,43.847.43,65.768.009,1.343-.047,2.714-.088,4.879m1.13-78.112a4.851,4.851,0,0,1-2.69-1.028c-15.678-11.134-31.447-22.074-47.18-33.093-.793-.549-1.557-1.2-2.623-2.036a15.6,15.6,0,0,1,1.852-1.915q24.233-16.908,48.481-33.783a5.988,5.988,0,0,1,1.268-.682,3.477,3.477,0,0,1,1.93.1,3.532,3.532,0,0,1,.631.317q24.768,17.45,49.59,34.791a14.84,14.84,0,0,1,1.37,1.431c-1.346.955-2.308,1.648-3.274,2.33-15.569,10.8-31.158,21.565-46.689,32.461a7.763,7.763,0,0,1-1.439.823c-.083.032-.164.032-.245.059a3.77,3.77,0,0,1-.983.223m.627,77.8c-.088-1.554-.2-2.75-.19-3.942.2-22.341.446-44.679.584-67.031.019-2.547.534-4.177,2.414-5.534,15.8-11.427,31.533-22.984,47.3-34.479.667-.491,1.424-.893,2.357-1.445.083,1.534.2,2.735.19,3.913-.195,22.215-.461,44.409-.555,66.623-.017,3.1-.845,4.862-2.984,6.41-1.242.9-2.479,1.8-3.718,2.7-14.271,10.308-28.487,20.719-42.734,31.1-.767.552-1.612,1.043-2.638,1.677l-.026.015m103.4,3.986q-10.783,7.508-21.576,15.017-1.87,1.3-3.742,2.606-11.239,7.813-22.468,15.637a4.2,4.2,0,0,1-4.786.056c-15.985-11.3-32.029-22.461-48.054-33.677-.582-.408-1.106-.943-2.206-1.874,1.3-.925,2.1-1.513,2.9-2.059q23.778-16.533,47.551-33.069a5.14,5.14,0,0,1,2.222-1,3.521,3.521,0,0,1,1.14.209,4.6,4.6,0,0,1,1.064.555c16.092,11.369,32.235,22.6,48.36,33.892.575.4,1.1.931,1.98,1.674a31.1,31.1,0,0,1-2.384,2.033m3.25-4c-.354-.144-.7-.262-1.011-.379a14.131,14.131,0,0,1-1.384-.858q-23.621-17.3-47.237-34.614a4.959,4.959,0,0,1-2.429-4.615c-.081-23.075-.292-46.145-.453-69.217,0-.77.1-1.563.211-2.882l.131.079c1.287.881,2.208,1.5,3.1,2.147,15.244,11.175,30.469,22.411,45.768,33.483,2.158,1.551,3.025,3.237,3.036,6.386.04,22.076.264,44.147.406,66.215.012,1.278-.067,2.585-.133,4.254m1.526-78.153a3.942,3.942,0,0,1-2.018-.185,7.694,7.694,0,0,1-1.6-.911c-15.462-10.99-31.017-21.774-46.53-32.652-.883-.611-1.719-1.34-2.925-2.3.871-.767,1.443-1.375,2.082-1.818q24.23-16.855,48.45-33.715a3.914,3.914,0,0,1,2.127-.82,4.02,4.02,0,0,1,2,.8q13.792,9.708,27.625,19.353v-.126q10.73,7.513,21.45,15.044a16.52,16.52,0,0,1,1.522,1.484c-1.434,1.016-2.419,1.733-3.423,2.429q-9.768,6.8-19.548,13.587V655.3q-13.45,9.355-26.853,18.792a7.781,7.781,0,0,1-1.339.749,4.753,4.753,0,0,1-.734.253c-.1.029-.192.038-.29.059m.1,74.675c.2-22.482.437-44.975.6-67.463.014-2.347.4-3.945,2.208-5.247q13.351-9.646,26.659-19.391V657.5q10.3-7.522,20.6-15.038c.755-.564,1.574-.984,2.7-1.657.078,1.636.207,2.867.2,4.1-.2,22.212-.468,44.414-.563,66.62-.012,3.126-.857,4.868-3.015,6.422q-10.153,7.319-20.265,14.718v-.018Q918.347,742.81,904.4,752.959a6.558,6.558,0,0,1-1.1.511c-.057-1.486-.145-2.565-.131-3.64m103.589,7.394q-23.934,16.678-47.876,33.328c-1.534,1.072-2.792,1.483-4.475.291q-10.868-7.663-21.775-15.267v-.129q-13.543-9.492-27.093-18.968c-.4-.27-.748-.652-1.474-1.281a20.017,20.017,0,0,1,2.122-2.05q13.219-9.214,26.445-18.407v-.226q10.249-7.134,20.474-14.327c2.4-1.695,4.207-1.76,6.64-.018,15.372,10.934,30.835,21.653,46.266,32.452.971.69,1.909,1.46,3.229,2.476-1.049.908-1.728,1.6-2.483,2.127M957.788,715.63q-.281-37.142-.548-74.361c3.02.917,43.712,30.267,52.37,37.67.188,24.512.366,49.276.558,75.1-17.9-13.122-35.023-25.681-52.38-38.4m50.815-40.863c-16.089-11.357-32.238-22.6-48.365-33.877-.579-.405-1.1-.94-1.975-1.692,1.049-.89,1.83-1.636,2.673-2.241q23.785-16.529,47.553-33.066c1.648-1.146,2.972-1.516,4.779-.235,16.082,11.372,32.233,22.6,48.351,33.889.582.4,1.106.922,2.213,1.874-1.313.931-2.108,1.513-2.908,2.068q-23.781,16.511-47.543,33.072c-1.652,1.155-2.977,1.484-4.777.209m2.659,75.289q.292-33.969.6-67.951c.014-2.324.368-3.978,2.189-5.291,16.113-11.648,32.164-23.425,48.242-35.143a19.2,19.2,0,0,1,2.03-1.06c.064,1.71.15,2.838.14,3.963q-.3,33.78-.589,67.528c-.021,2.324-.394,3.942-2.2,5.255q-24.031,17.357-47.954,34.923c-.57.414-1.2.729-2.134,1.293-.135-1.392-.332-2.465-.323-3.516m103.261,7.891c-15.572,10.808-31.155,21.568-46.684,32.464-2.039,1.433-3.583,1.589-5.71.07-15.676-11.125-31.447-22.068-47.183-33.069-.8-.555-1.555-1.2-2.623-2.048a15.429,15.429,0,0,1,1.854-1.921q24.223-16.895,48.479-33.777c1.424-1,2.628-1.354,4.176-.261q24.768,17.441,49.59,34.794a14.189,14.189,0,0,1,1.375,1.413c-1.341.966-2.3,1.663-3.274,2.335m1.745-5.5q-24.1-17.644-48.175-35.3a4.408,4.408,0,0,1-2.032-4.019q-.16-35.287-.458-70.577c0-.414.088-.84.133-1.257,2.464.441,43.291,29.782,52.346,37.655.183,24.77.368,49.426.551,74.566a13.584,13.584,0,0,1-2.365-1.066m-.52-78.594c-15.156-10.814-30.424-21.392-45.649-32.059-1.09-.758-2.16-1.536-3.618-2.588a28.322,28.322,0,0,1,2.426-2.23c15.757-10.972,31.547-21.885,47.261-32.946,2.149-1.507,3.792-1.677,6.023-.106,15.581,11.057,31.248,21.935,46.879,32.866.888.62,1.721,1.34,3.172,2.488-2.968,2.112-5.344,3.837-7.749,5.514-13.945,9.691-27.933,19.289-41.808,29.133-2.557,1.818-4.43,1.707-6.937-.073m3.986,75.377c.192-22.088.475-44.165.544-66.247.01-3.361.954-5.112,3.224-6.733,15.434-11.1,30.787-22.379,46.169-33.577.864-.635,1.785-1.134,3.172-2,.04,2.074.107,3.355.095,4.627-.2,22.085-.453,44.15-.568,66.244-.017,3.04-.715,4.9-2.932,6.492-15.422,11.116-30.763,22.405-46.131,33.651-.962.7-1.928,1.372-3.39,2.412-.083-2.144-.192-3.519-.183-4.871m103.819,7.891q-23.9,16.67-47.831,33.339c-1.636,1.137-2.965,1.507-4.784.223-16.082-11.369-32.226-22.6-48.351-33.892-.586-.411-1.106-.94-2.229-1.892,1.379-.993,2.265-1.628,3.169-2.265q23.625-16.41,47.247-32.849c1.636-1.134,2.956-1.548,4.777-.261,16.089,11.369,32.238,22.6,48.358,33.883.582.405,1.113.919,2,1.674-.94.82-1.61,1.519-2.357,2.039m3.288-3.155c-17.7-12.979-34.809-25.528-52.249-38.316-.183-24.7-.368-49.541-.556-75.054,1.52.981,2.538,1.557,3.488,2.265,15.344,11.237,30.654,22.558,46.053,33.68,2.21,1.6,2.92,3.358,2.93,6.442.055,21.918.271,43.847.43,65.768.01,1.416-.052,2.835-.095,5.214m-1.9-79.475c-15.681-11.134-31.45-22.074-47.18-33.093-.8-.549-1.56-1.2-2.623-2.036a15.592,15.592,0,0,1,1.849-1.915q24.233-16.908,48.481-33.783c1.422-.993,2.633-1.345,4.178-.261q24.771,17.45,49.59,34.791a14.519,14.519,0,0,1,1.37,1.431c-1.346.955-2.308,1.648-3.271,2.33-15.572,10.8-31.157,21.565-46.691,32.461-2.037,1.437-3.58,1.578-5.7.076m3.124,74.887c.2-22.341.446-44.679.586-67.031.019-2.547.532-4.177,2.412-5.534,15.8-11.427,31.535-22.984,47.3-34.479.755-.555,1.581-.964,2.694-1.642.085,1.642.216,2.879.2,4.11-.2,22.215-.463,44.409-.558,66.623-.017,3.114-.845,4.877-3.005,6.431-15.517,11.175-30.951,22.5-46.428,33.774-.864.623-1.783,1.131-3,1.9-.09-1.672-.214-2.9-.2-4.151m103.942,7.929q-23.91,16.652-47.84,33.3c-1.645,1.149-2.97,1.489-4.781.226-16.082-11.369-32.228-22.605-48.353-33.889-.582-.408-1.1-.943-2.2-1.874,1.3-.925,2.094-1.513,2.9-2.059q23.781-16.533,47.551-33.069c1.636-1.143,2.965-1.525,4.777-.235,16.092,11.369,32.235,22.6,48.36,33.892.572.4,1.1.931,1.978,1.674a30.65,30.65,0,0,1-2.384,2.033M1286.183,642.97c15.244,11.175,30.467,22.411,45.765,33.483,2.158,1.551,3.027,3.237,3.036,6.386.04,22.076.264,44.147.406,66.215.014,1.381-.078,2.773-.147,4.642-1.151-.682-1.973-1.075-2.728-1.625q-23.625-17.3-47.24-34.614a4.967,4.967,0,0,1-2.429-4.615c-.078-23.075-.29-46.145-.451-69.217-.007-.82.119-1.639.23-3.117,1.55,1.066,2.562,1.733,3.556,2.462m48.958-46.015c-.012,1.86-.356,3.2-1.79,4.245q-24.593,17.868-49.129,35.833a11.208,11.208,0,0,1-1.553.714c-.05-1.877-.135-3.261-.119-4.641.192-22.079.449-44.153.553-66.241.017-3.1.826-4.891,3-6.448,15.529-11.19,30.984-22.529,46.466-33.812.791-.576,1.583-1.134,2.709-1.936a19.946,19.946,0,0,1,.475,3.055q-.281,34.608-.61,69.232m-49.853-186.87q23.959,17.52,47.871,35.081a4.3,4.3,0,0,1,2.139,3.934q.146,35.507.43,70.994a9.424,9.424,0,0,1-.3,1.434c-8.9-5.963-17.366-12.556-25.982-18.816-8.68-6.3-17.326-12.717-26.039-19.107-.183-24.87-.366-49.5-.546-74.637a14.316,14.316,0,0,1,2.429,1.116M1335.5,364c-.014,2.371-.437,3.945-2.234,5.247-16.1,11.633-32.141,23.381-48.215,35.087-.487.355-1.033.605-2.025,1.187-.057-1.739-.145-2.852-.131-3.963q.3-33.732.591-67.475c.019-2.359.463-3.907,2.253-5.208,15.994-11.566,31.934-23.263,47.89-34.914.6-.429,1.234-.746,2.161-1.325.123,1.331.316,2.4.3,3.472-.192,22.638-.439,45.272-.591,67.892m.209-149.388c.188,24.829.373,49.611.565,74.807a9.056,9.056,0,0,1-2.082-.817q-24.24-17.732-48.476-35.5a4.445,4.445,0,0,1-2.011-4.048q-.167-35.283-.456-70.562c0-.417.085-.837.237-2.186,17.62,12.92,34.833,25.543,52.223,38.307m.876-151.363q-.274,34.8-.6,69.611a4.648,4.648,0,0,1-1.868,4.195q-24.729,17.93-49.414,35.957a7.257,7.257,0,0,1-1.168.441c-.066-1.451-.161-2.556-.15-3.654q.3-33.952.589-67.907c.017-2.253.551-3.652,2.18-4.83q24.13-17.5,48.187-35.137c.494-.361,1.028-.629,1.783-1.09a13.042,13.042,0,0,1,.458,2.415m-103.223-6.827c15.655-10.875,31.328-21.7,46.938-32.676,1.968-1.375,3.411-1.375,5.392.024,15.674,11.1,31.423,22.044,47.142,33.043.869.605,1.664,1.375,2.782,2.285-1.18.934-2,1.66-2.875,2.271-15.643,10.9-31.312,21.733-46.907,32.725-2.187,1.542-3.829,1.5-6.011-.047-15.569-11.04-31.219-21.918-46.833-32.843-.869-.608-1.662-1.378-2.93-2.435,1.372-.975,2.334-1.677,3.3-2.347m-4.005,4.474a8.192,8.192,0,0,1,1.97.74q24.241,17.736,48.443,35.487a4.427,4.427,0,0,1,2.013,4.039q.174,35.265.456,70.515c0,.423-.1.849-.247,1.936-1.241-.784-2.16-1.3-3.025-1.924-15.555-11.4-31.074-22.843-46.66-34.174a5.734,5.734,0,0,1-2.614-5.349c-.074-22.646-.28-45.3-.446-67.936,0-.993.067-1.986.109-3.334m1.538,78.7c16.084,11.378,32.226,22.608,48.353,33.88.579.414,1.111.931,1.994,1.683-1.049.9-1.818,1.663-2.666,2.244q-23.764,16.551-47.544,33.093c-1.633,1.143-2.96,1.525-4.77.247-16.094-11.369-32.238-22.608-48.36-33.883-.584-.408-1.111-.934-2.227-1.892,1.289-.917,2.082-1.5,2.885-2.05q23.781-16.515,47.553-33.066c1.626-1.137,2.958-1.536,4.781-.256m-2.775-75.142q-.31,33.718-.6,67.466c-.012,2.341-.389,3.954-2.2,5.27-16.106,11.61-32.152,23.366-48.225,35.081-.484.355-1.028.611-1.812,1.075a22.824,22.824,0,0,1-.377-2.944c.188-22.92.427-45.836.6-68.75.017-2.024.392-3.469,1.925-4.586q24.59-17.815,49.1-35.766a10.414,10.414,0,0,1,1.415-.673c.071,1.6.166,2.714.164,3.825M1124.8,56.667c15.56-10.834,31.15-21.6,46.644-32.561,2.336-1.645,4.036-1.583,6.337.062,15.477,10.984,31.041,21.786,46.57,32.658.893.623,1.745,1.34,2.908,2.241a15.3,15.3,0,0,1-1.93,1.954q-24.251,16.886-48.5,33.73c-1.436,1.013-2.64,1.293-4.171.22q-24.625-17.339-49.305-34.567a22.006,22.006,0,0,1-1.641-1.536c1.344-.964,2.215-1.586,3.093-2.2m48.462,41.953c.183,24.914.37,49.626.558,75.339-17.81-13.061-34.982-25.655-52.38-38.4-.187-24.753-.373-49.514-.563-75.368C1138.8,73.339,1156,85.953,1173.267,98.62m-51.235,40.566q24.757,17.419,49.552,34.749a14.675,14.675,0,0,1,1.265,1.36c-1.308.934-2.289,1.639-3.269,2.324-15.441,10.761-30.911,21.451-46.3,32.308-2.255,1.589-3.953,1.78-6.332.094-15.543-11.078-31.2-21.921-46.819-32.858-.8-.549-1.541-1.207-2.6-2.053a13.218,13.218,0,0,1,1.588-1.657q24.518-17.075,49.058-34.136a2.934,2.934,0,0,1,3.858-.132m-2.239-74.919q-.3,33.974-.594,67.963c-.021,2.347-.453,3.925-2.251,5.229-15.918,11.507-31.758,23.149-47.631,34.735-.669.491-1.394.849-2.571,1.531-.081-1.689-.176-2.679-.169-3.669.2-22.652.456-45.3.586-67.963.017-2.617.724-4.136,2.552-5.461,15.816-11.419,31.578-22.961,47.356-34.467.669-.488,1.4-.855,2.438-1.489.121,1.454.292,2.523.282,3.593M1015.48,57.076c15.956-11.116,31.941-22.17,47.871-33.357,1.93-1.357,3.4-1.507,5.408-.076,15.79,11.172,31.654,22.2,47.482,33.284.781.549,1.508,1.228,2.811,2.285-2.934,2.086-5.313,3.822-7.72,5.5-13.945,9.694-27.922,19.309-41.812,29.118-2.367,1.672-4.15,1.9-6.626.135-15.258-10.9-30.623-21.536-45.953-32.273-1.087-.764-2.158-1.548-3.556-2.562a20.065,20.065,0,0,1,2.1-2.053m-2.885,3.375c1.353.875,2.365,1.448,3.321,2.153,15.363,11.248,30.685,22.579,46.1,33.73,2.165,1.563,3.013,3.246,3.015,6.4.05,22.085.268,44.176.423,66.259.009,1.387-.09,2.779-.147,4.688-1.353-.875-2.369-1.457-3.321-2.15-15.358-11.251-30.69-22.579-46.1-33.727-2.163-1.569-2.994-3.261-3-6.4-.052-22.082-.268-44.165-.423-66.271-.014-1.372.076-2.753.138-4.674m2.32,79.663c15.465,11,31.036,21.794,46.568,32.67.9.626,1.755,1.331,2.894,2.206a10.65,10.65,0,0,1-1.5,1.774q-24.54,17.1-49.1,34.165a2.977,2.977,0,0,1-3.87.068q-24.785-17.432-49.592-34.788a12.993,12.993,0,0,1-1.23-1.231c1.154-.931,1.971-1.663,2.851-2.271,15.553-10.831,31.138-21.6,46.639-32.549,2.3-1.616,3.986-1.71,6.339-.044m-3.6-75.659q-.281,33.758-.589,67.525c-.012,2.321-.361,3.942-2.186,5.264-16.016,11.563-31.967,23.269-47.942,34.923-.582.42-1.211.74-2.386,1.448-.04-2.133-.1-3.534-.09-4.929.2-21.941.461-43.871.551-65.815.017-3.24.755-5.141,3.108-6.839,15.641-11.213,31.179-22.649,46.758-34.009.684-.5,1.42-.858,2.526-1.507.107,1.551.263,2.747.252,3.939M907.162,57.531q12.735-8.879,25.472-17.708v-.247q11.356-7.892,22.711-15.8c1.645-1.146,2.968-1.507,4.781-.226,16.082,11.363,32.235,22.6,48.353,33.883.586.414,1.106.934,1.982,1.68-.961.831-1.643,1.513-2.388,2.042q-23.917,16.639-47.84,33.3c-1.65,1.146-2.975,1.489-4.784.209q-11.392-8.046-22.815-16.022V78.57Q919.964,69.7,907.3,60.821c-.584-.4-1.1-.937-1.947-1.666a22.025,22.025,0,0,1,1.811-1.625m12.16,13.813c12.454,9.139,24.785,18.184,37.147,27.244.18,24.864.361,49.605.548,75.348-4.71-3.458-8.585-6.3-12.464-9.148l-11.92-8.751v-.1c-8.86-6.5-17.658-12.952-26.519-19.447a5.622,5.622,0,0,1-1.244-2.406q-.274-36.226-.546-72.625c1.716.764,7.63,4.715,15,9.885m-15.771,67.6a6.35,6.35,0,0,1,3.2,1.337q12.72,9.1,25.538,18v-.144q10.559,7.376,21.118,14.756c.786.549,1.519,1.225,2.842,2.283-2.728,1.945-4.9,3.528-7.1,5.065q-13.853,9.633-27.706,19.268-7.728,5.371-15.446,10.755a4.266,4.266,0,0,1-4.136.684,5.127,5.127,0,0,1-.608-.323c-16.1-11.372-32.252-22.62-48.393-33.924-.589-.4-1.116-.925-2.115-1.786,1.232-.981,1.968-1.648,2.756-2.194,15.451-10.764,30.939-21.439,46.333-32.335a6.457,6.457,0,0,1,3.72-1.445m-.677-75.7q-.278,34.8-.6,69.611c0,.273-.038.508-.059.758a6.26,6.26,0,0,1-2.426,3.887Q875.372,155.215,851,173.013a3.814,3.814,0,0,1-.829.32c-.062-1.387-.152-2.471-.14-3.534q.3-33.952.586-67.907c.017-2.253.553-3.652,2.18-4.83q24.13-17.5,48.189-35.137c.416-.306.89-.564,1.474-.908a10.827,10.827,0,0,1,.418,2.233M797.078,58.5c1.166-.828,2.049-1.472,2.922-2.074,15.652-10.875,31.326-21.7,46.936-32.676a4.675,4.675,0,0,1,2.581-.981,4.921,4.921,0,0,1,2.464,1c15.671,11.1,31.423,22.044,47.142,33.043.867.605,1.664,1.375,2.782,2.285-1.18.934-2,1.66-2.877,2.271-15.64,10.9-31.312,21.733-46.9,32.725a7.2,7.2,0,0,1-1.216.673,4.522,4.522,0,0,1-.781.27c-.045.012-.088.015-.133.026a3.822,3.822,0,0,1-2.006-.156,7.581,7.581,0,0,1-1.529-.861c-15.567-11.04-31.219-21.918-46.831-32.843-.862-.6-1.652-1.366-2.9-2.409.131-.109.228-.194.349-.3M795.991,61a5.494,5.494,0,0,1,1.624.635q24.241,17.736,48.446,35.487a4.311,4.311,0,0,1,1.866,2.653l.014.05a6.457,6.457,0,0,1,.133,1.337q.174,35.265.453,70.515a15.215,15.215,0,0,1-.216,1.739c-1.068-.667-1.925-1.163-2.706-1.727-15.553-11.4-31.072-22.843-46.66-34.174a5.737,5.737,0,0,1-2.612-5.349c-.074-22.646-.282-45.3-.446-67.936,0-.964.062-1.942.1-3.228m-1.009,77.842a2.818,2.818,0,0,1,.579.059,2.915,2.915,0,0,1,.406.07,4.568,4.568,0,0,1,1.216.623c16.087,11.378,32.228,22.608,48.355,33.88.567.405,1.1.917,1.951,1.648-.2.194-.366.367-.539.546a23.114,23.114,0,0,1-2.087,1.733Q821.1,193.956,797.323,210.5a5.822,5.822,0,0,1-1.83.89,3.117,3.117,0,0,1-.449.109,3.061,3.061,0,0,1-.456-.047,2.588,2.588,0,0,1-.465-.073,4.53,4.53,0,0,1-1.223-.632c-16.094-11.369-32.238-22.608-48.36-33.883-.582-.408-1.111-.934-2.227-1.892,1.289-.917,2.082-1.5,2.887-2.05q23.781-16.515,47.551-33.066a5.22,5.22,0,0,1,2.232-1.008m-.572-74.39q-.313,33.718-.6,67.466a7.048,7.048,0,0,1-.859,3.8,4.51,4.51,0,0,1-.321.5,5.546,5.546,0,0,1-.536.511,6.838,6.838,0,0,1-.6.543c-16.02,11.551-31.984,23.246-47.973,34.9-.37.247-.786.5-1.253.778-.116.065-.24.135-.368.209a19.4,19.4,0,0,1-.349-2.761q.281-34.379.605-68.75c.017-2.024.392-3.469,1.925-4.586q24.586-17.815,49.1-35.766a5.892,5.892,0,0,1,1.073-.52c.069,1.51.159,2.6.157,3.672M691.439,56.667C707,45.833,722.589,35.07,738.08,24.106a5.287,5.287,0,0,1,3.108-1.146,5.818,5.818,0,0,1,2.88,1.207c15.479,10.984,31.041,21.786,46.572,32.658.89.623,1.743,1.34,2.908,2.241a15.142,15.142,0,0,1-1.932,1.954q-24.248,16.886-48.5,33.73a6.556,6.556,0,0,1-.612.358,3.161,3.161,0,0,1-2.507.223,3.983,3.983,0,0,1-.705-.361q-24.625-17.339-49.3-34.567a21.394,21.394,0,0,1-1.643-1.536c1.344-.964,2.215-1.586,3.1-2.2M690.18,62.4c16.828,12.347,33.076,24.268,49.372,36.218.183,24.829.37,49.461.553,75.081-17.682-12.967-34.745-25.481-52.028-38.14-.185-24.638-.368-49.291-.558-75.013.9.611,1.771,1.237,2.661,1.854m-2.469,76.467a3.771,3.771,0,0,1,.605.317q24.757,17.419,49.55,34.749a9.74,9.74,0,0,1,1.056,1.128,14.313,14.313,0,0,1-1.764,1.639q-4.405,3.08-8.813,6.146-13.465,9.364-26.906,18.763-6.214,4.336-12.433,8.672a5.453,5.453,0,0,1-2.386.9,5.29,5.29,0,0,1-3.044-1.157c-15.546-11.078-31.2-21.921-46.822-32.858-.793-.549-1.538-1.207-2.595-2.053a13.38,13.38,0,0,1,1.586-1.657q24.522-17.075,49.06-34.136a5.478,5.478,0,0,1,.855-.491,3.285,3.285,0,0,1,2.049.041m-1.633-74.6q-.3,33.974-.6,67.963a9.44,9.44,0,0,1-.3,2.388,5.942,5.942,0,0,1-1.553,2.471c-.1.091-.18.191-.3.279-.081.07-.173.138-.259.209-15.864,11.469-31.651,23.069-47.47,34.617a24.27,24.27,0,0,1-2.234,1.34c-.078-1.563-.164-2.529-.159-3.478.2-22.652.458-45.3.589-67.963.017-2.617.722-4.136,2.552-5.461C652.167,85.213,667.926,73.67,683.7,62.164c.589-.429,1.258-.79,2.111-1.3.119,1.345.273,2.382.264,3.4M582.112,57.076c15.956-11.116,31.941-22.17,47.873-33.357a5.082,5.082,0,0,1,2.526-1.049,4.532,4.532,0,0,1,2.533.972c15.79,11.172,31.651,22.2,47.482,33.284.707.5,1.391,1.116,2.479,2.015a13.951,13.951,0,0,1-1.23,1.387c-1.109.79-2.153,1.539-3.155,2.256q-6.823,4.755-13.641,9.506C656.57,79.3,646.162,86.514,635.8,93.829a6.365,6.365,0,0,1-3.172,1.342,5.544,5.544,0,0,1-3.108-1.207c-15.258-10.9-30.621-21.536-45.953-32.273-1.085-.764-2.156-1.548-3.554-2.562a20.073,20.073,0,0,1,2.094-2.053m-2.889,3.59c1.17.746,2.113,1.3,2.979,1.939,15.363,11.248,30.683,22.579,46.1,33.73,2.163,1.563,3.01,3.246,3.015,6.4.047,22.085.266,44.176.423,66.259.007,1.331-.083,2.679-.142,4.474-1.17-.746-2.115-1.31-2.979-1.936-15.358-11.251-30.687-22.579-46.1-33.727-2.163-1.569-3-3.261-3-6.4-.052-22.082-.266-44.165-.42-66.271-.014-1.316.069-2.653.131-4.459M578.2,138.939a5.474,5.474,0,0,1,3,1.175c15.462,11,31.036,21.794,46.565,32.67.9.626,1.757,1.331,2.894,2.206a10.649,10.649,0,0,1-1.5,1.774q-24.543,17.1-49.1,34.165a3.767,3.767,0,0,1-1.783.717,3.223,3.223,0,0,1-1.735-.649q-24.785-17.432-49.595-34.788a13.611,13.611,0,0,1-1.23-1.231c1.156-.931,1.973-1.663,2.854-2.271,15.553-10.831,31.136-21.6,46.639-32.549a5.815,5.815,0,0,1,2.987-1.219m-.6-74.484q-.281,33.758-.589,67.525c-.014,2.321-.363,3.942-2.187,5.264-16.016,11.563-31.969,23.269-47.945,34.923-.515.373-1.094.684-2.039,1.246-.04-2.012-.095-3.378-.088-4.727.2-21.941.463-43.871.553-65.815.017-3.24.753-5.141,3.105-6.839,15.643-11.213,31.179-22.649,46.76-34.009a25.139,25.139,0,0,1,2.191-1.316c.107,1.451.247,2.609.237,3.748M473.381,57.587c.37-.264.71-.505,1.045-.734q3.458-2.406,6.916-4.809,8.785-6.112,17.578-12.221v-.006q11.531-8.011,23.057-16.037a5.157,5.157,0,0,1,2.229-1,3.653,3.653,0,0,1,2.206.77c16.082,11.363,32.235,22.6,48.353,33.883.584.414,1.106.934,1.98,1.68-.959.831-1.64,1.513-2.386,2.042q-23.917,16.639-47.843,33.3a5.124,5.124,0,0,1-2.227.987,3.7,3.7,0,0,1-2.208-.778C505.994,83.3,489.85,72.072,473.733,60.792c-.553-.391-1.064-.89-2.016-1.71a20.851,20.851,0,0,1,1.664-1.5m-2.5,3.84a85.4,85.4,0,0,1,8.827,5.59c14.487,10.634,28.729,21.078,43.045,31.571.18,24.782.361,49.441.548,75.089-4.549-3.334-8.335-6.119-12.115-8.889-12.362-9.071-24.71-18.187-37.116-27.147-2.035-1.451-2.884-3.058-2.889-6.049-.062-22.088-.271-44.171-.427-66.256,0-1.134.062-2.3.128-3.91m.463,77.76a6.613,6.613,0,0,1,1.166.643c15.686,11.116,31.445,22.065,47.178,33.072.783.549,1.519,1.225,2.842,2.283-2.728,1.945-4.9,3.528-7.1,5.065-14.245,9.906-28.518,19.759-42.719,29.761a5.389,5.389,0,0,1-3.234,1.207,5.306,5.306,0,0,1-2.424-1.06c-15.574-11.054-31.245-21.924-46.874-32.855-.89-.629-1.733-1.351-2.925-2.274a24.792,24.792,0,0,1,2.334-2.144C435.3,161.926,451.06,151.036,466.757,140c.086-.056.173-.112.259-.159.2-.135.382-.22.574-.332a4.627,4.627,0,0,1,3.753-.323m-2.263-78.2c.1,1.575.2,2.706.183,3.81C469.072,87,468.8,109.2,468.707,131.4c-.012,3.12-.833,4.865-3,6.431C450.393,148.86,435.161,160.064,419.9,171.2c-.869.632-1.757,1.257-2.882,2.059-.119.038-.275.094-.444.156-.062-1.842-.147-3.143-.145-4.427.2-22.059.468-44.118.556-66.182.021-3.126.862-4.85,3.022-6.41,15.306-11.046,30.54-22.25,45.8-33.389.575-.423,1.154-.837,1.792-1.29.411-.267.857-.517,1.455-.881.009.053.024.1.033.147M365.773,56.814q9.562-6.654,19.121-13.308,4.612-3.2,9.219-6.416c6.5-4.524,13.01-9.027,19.5-13.575a6.551,6.551,0,0,1,.741-.414,3.452,3.452,0,0,1,2.747-.141,5.644,5.644,0,0,1,.94.52q23.842,16.828,47.752,33.463c.774.538,1.481,1.234,2.654,2.23-1.363.964-2.324,1.663-3.283,2.341-15.546,10.819-31.115,21.583-46.615,32.5a5.149,5.149,0,0,1-2.923,1.093,5.414,5.414,0,0,1-2.735-1.1C397.323,82.959,381.67,72.1,366.056,61.159c-.874-.6-1.676-1.36-2.79-2.28,1.035-.861,1.738-1.539,2.507-2.065m-3.3,4.142c.275.091.546.17.793.247a15.739,15.739,0,0,1,1.586.99C380.6,73.72,396.33,85.3,412.111,96.784c1.7,1.234,2.365,2.632,2.365,5.091.1,22.64.3,45.29.463,67.936,0,1.04-.116,2.095-.209,3.5a27.257,27.257,0,0,1-2.357-1.428q-23.628-17.322-47.256-34.6c-1.707-1.237-2.365-2.641-2.376-5.082-.09-22.655-.287-45.3-.449-67.939,0-.975.1-2,.185-3.311m-1.035,77.877a4.1,4.1,0,0,1,2.372.881c15.88,11.225,31.827,22.317,47.748,33.472.689.467,1.332,1.052,2.312,1.836a20.609,20.609,0,0,1-1.94,1.863c-16.151,11.239-32.311,22.435-48.443,33.724a4.339,4.339,0,0,1-2.082.87,3.739,3.739,0,0,1-2.049-.761c-16.2-11.416-32.435-22.729-48.662-34.086-.482-.344-.921-.8-1.978-1.727,1.344-.958,2.227-1.6,3.115-2.215q23.632-16.414,47.247-32.861a7.021,7.021,0,0,1,1.23-.705,3.342,3.342,0,0,1,.323-.094,3.546,3.546,0,0,1,.807-.2M360.8,64.385c-.2,22.491-.444,44.981-.575,67.463-.021,2.615-.684,4.157-2.512,5.488-15.9,11.477-31.749,23.087-47.617,34.65-.513.373-1.09.693-1.8,1.122a18.429,18.429,0,0,1-.354-2.758q.3-34.384.6-68.77c.021-2.012.4-3.44,1.932-4.562q24.572-17.824,49.094-35.772a9.723,9.723,0,0,1,1.078-.511c.069,1.5.166,2.576.152,3.652M257.607,56.767c15.655-10.91,31.343-21.75,46.957-32.746a7.872,7.872,0,0,1,1.244-.711,5.022,5.022,0,0,1,.833-.288l.055-.012a3.951,3.951,0,0,1,2.137.17,7.1,7.1,0,0,1,1.4.77c15.572,11.06,31.245,21.933,46.876,32.875.886.611,1.712,1.345,2.9,2.28a31.218,31.218,0,0,1-2.367,2.142q-23.949,16.639-47.9,33.3a4.463,4.463,0,0,1-2.293.922,4,4,0,0,1-2.146-.82q-24.162-17.031-48.4-33.906c-.582-.4-1.1-.958-2.2-1.921,1.325-.949,2.108-1.513,2.9-2.05m22.269,22.679c8.677,6.31,17.319,12.7,26.079,19.13.176,24.794.361,49.429.548,75.069-17.775-13.037-34.79-25.511-52.023-38.148-.188-24.65-.373-49.323-.567-74.872,9.1,6.169,17.466,12.65,25.963,18.822m-26.984,59.238a4.005,4.005,0,0,1,2.443.858c15.883,11.237,31.827,22.329,47.75,33.477.646.447,1.28,1,2.17,1.71.038.044.09.1.133.15a17.369,17.369,0,0,1-1.947,1.824c-16.137,11.275-32.3,22.479-48.424,33.771a5.8,5.8,0,0,1-.99.558,3.907,3.907,0,0,1-2.476-.123,5.167,5.167,0,0,1-.667-.361q-9.85-6.94-19.731-13.825v.112q-14.049-9.848-28.112-19.671c-.8-.549-1.538-1.207-2.595-2.053a13.218,13.218,0,0,1,1.586-1.657q24.28-16.908,48.579-33.8a5.042,5.042,0,0,1,2.282-.969m-.579-77.921c.066,1.745.169,3.076.159,4.38-.2,22.091-.449,44.159-.565,66.241-.014,3.052-.719,4.9-2.927,6.5-6.073,4.38-12.122,8.81-18.176,13.231v.217q-14.287,10.426-28.57,20.866c-.669.491-1.394.849-2.571,1.531-.081-1.689-.176-2.679-.169-3.669.2-22.652.456-45.3.586-67.963.017-2.617.724-4.136,2.552-5.461q14.284-10.311,28.52-20.722v.009q9.206-6.707,18.413-13.41c.781-.567,1.629-1.052,2.747-1.745M148.4,57.076c15.956-11.116,31.941-22.17,47.871-33.357,1.93-1.357,3.4-1.507,5.411-.076Q216.212,33.927,230.8,44.094v.076q8.86,6.2,17.723,12.4c.89.623,1.752,1.334,2.9,2.206a11.365,11.365,0,0,1-1.56,1.745Q240.334,67.167,230.8,73.8v.235Q216.6,83.882,202.436,93.829c-2.367,1.672-4.15,1.9-6.626.135-15.258-10.9-30.623-21.536-45.953-32.273-1.087-.764-2.158-1.548-3.556-2.562a20.06,20.06,0,0,1,2.1-2.053m-2.882,3.375c1.351.875,2.362,1.448,3.319,2.153,15.363,11.248,30.685,22.579,46.1,33.73,2.165,1.563,3.013,3.246,3.017,6.4.045,22.085.266,44.176.42,66.259.009,1.387-.09,2.779-.147,4.688-1.356-.875-2.369-1.457-3.321-2.15-15.358-11.251-30.687-22.579-46.1-33.727-2.16-1.569-2.994-3.261-3-6.4-.052-22.082-.266-44.165-.423-66.271-.014-1.372.078-2.753.14-4.674m2.317,79.663c15.465,11,31.036,21.794,46.568,32.67.9.626,1.754,1.331,2.894,2.206a10.652,10.652,0,0,1-1.5,1.774q-24.54,17.1-49.1,34.165a2.973,2.973,0,0,1-3.867.068q-24.789-17.432-49.6-34.788A13.376,13.376,0,0,1,92,174.978c1.156-.931,1.97-1.663,2.851-2.271,15.555-10.831,31.139-21.6,46.641-32.549,2.293-1.616,3.986-1.71,6.336-.044m-3.6-75.659q-.285,33.758-.591,67.525c-.012,2.321-.361,3.942-2.187,5.264-16.013,11.563-31.967,23.269-47.942,34.923-.582.42-1.211.74-2.386,1.448-.04-2.133-.1-3.534-.09-4.929.2-21.941.461-43.871.551-65.815.017-3.24.755-5.141,3.108-6.839,15.64-11.213,31.179-22.649,46.758-34.009.684-.5,1.422-.858,2.526-1.507.107,1.551.264,2.747.254,3.939m-103.522-7.6Q64.485,40.324,88.261,23.78c1.645-1.146,2.968-1.507,4.784-.226,16.08,11.363,32.233,22.6,48.351,33.883.586.414,1.106.934,1.982,1.68-.962.831-1.641,1.513-2.388,2.042Q117.073,77.8,93.15,94.457c-1.65,1.146-2.975,1.489-4.784.209C72.279,83.3,56.135,72.072,40.015,60.792c-.589-.417-1.113-.943-2.2-1.874,1.306-.937,2.1-1.516,2.9-2.065m-3.5,3.461C54.884,73.292,72.068,85.9,89.387,98.588c.18,24.864.361,49.605.548,75.348-4.71-3.458-8.585-6.3-12.464-9.148-12.364-9.071-24.712-18.187-37.119-27.147-2.032-1.451-2.885-3.058-2.889-6.049-.059-22.088-.268-44.171-.425-66.256,0-1.387.093-2.767.171-5.023" fill="#e2d3b0" fill-rule="evenodd"/>
    </g>
  </g>
</svg>
