<svg xmlns="http://www.w3.org/2000/svg" width="13.975" height="14.001" viewBox="0 0 13.975 14.001">
  <path id="Icon_feather-phone" data-name="Icon feather-phone" d="M16.142,12.733V14.69a1.3,1.3,0,0,1-1.422,1.3,12.91,12.91,0,0,1-5.63-2,12.721,12.721,0,0,1-3.914-3.914,12.91,12.91,0,0,1-2-5.656A1.3,1.3,0,0,1,4.471,3H6.428a1.3,1.3,0,0,1,1.3,1.122A8.376,8.376,0,0,0,8.19,5.955,1.3,1.3,0,0,1,7.9,7.332l-.828.828a10.438,10.438,0,0,0,3.914,3.914l.828-.828a1.3,1.3,0,0,1,1.376-.294,8.376,8.376,0,0,0,1.833.457,1.3,1.3,0,0,1,1.122,1.324Z" transform="translate(-2.667 -2.5)" fill="#7e4b2c" stroke="#7e4b2c" stroke-linecap="round" stroke-linejoin="round" stroke-width="1"/>
</svg>
