<svg id="Group_334" data-name="Group 334" xmlns="http://www.w3.org/2000/svg" xmlns:xlink="http://www.w3.org/1999/xlink" width="21.22" height="35.342" viewBox="0 0 21.22 35.342">
  <defs>
    <clipPath id="clip-path">
      <rect id="Rectangle_317" data-name="Rectangle 317" width="21.22" height="35.342" fill="#7a5424"/>
    </clipPath>
  </defs>
  <g id="Group_333" data-name="Group 333" clip-path="url(#clip-path)">
    <path id="Path_63428" data-name="Path 63428" d="M13.262,16.309a.381.381,0,0,0,0,.069c.1.375.1.854.338,1.1s.714.239,1.086.343c1.3.365,2.607.721,3.905,1.1A3.306,3.306,0,0,1,21.181,22.2c.066,1.814.03,3.632.025,5.447,0,.341-.207.514-.552.53-.241.011-.484-.011-.724.012-.085.008-.232.1-.232.159-.014,1.193-.01,2.386-.01,3.613.219,0,.4-.007.582,0a.513.513,0,0,1,.551.47,8.359,8.359,0,0,1-.045,1.682,1.464,1.464,0,0,1-1.5,1.222q-8.644.005-17.288,0A1.56,1.56,0,0,1,.422,33.79c-.01-.368,0-.736,0-1.1,0-.527.2-.718.735-.721h.39a2.376,2.376,0,0,0,.03-.255c0-1.07,0-2.14.006-3.21,0-.235-.06-.339-.309-.318a5.312,5.312,0,0,1-.621,0,.538.538,0,0,1-.6-.591c-.015-.356-.013-.713-.016-1.07-.011-1.1-.046-2.209-.023-3.313a11.106,11.106,0,0,1,.2-1.774,2.876,2.876,0,0,1,1.98-2.322c1.191-.409,2.409-.738,3.62-1.087.55-.159,1.113-.276,1.665-.429a.417.417,0,0,0,.256-.216c.114-.335.193-.681.29-1.042a5.575,5.575,0,0,1-2.122-1.785,11.819,11.819,0,0,1-.766-1.379c-.077-.153-.13-.244-.326-.28a2.119,2.119,0,0,1-1.5-3.109.6.6,0,0,0,.022-.437,7.1,7.1,0,0,1-.494-3.408A2.807,2.807,0,0,1,3.01,5.21,7.967,7.967,0,0,1,9.736.059,8.126,8.126,0,0,1,17.948,4.63a4.522,4.522,0,0,1,.24,2.8c-.1.553-.211,1.1-.287,1.661a.6.6,0,0,0,.147.384,2.125,2.125,0,0,1-1.151,3.4.352.352,0,0,1-.133.029c-.519-.094-.677.228-.858.639a5.553,5.553,0,0,1-2.4,2.622c-.079.045-.155.095-.24.147M2.68,31.944h15.9v-.356q0-4.553,0-9.107c0-.582-.1-.674-.687-.674H3.374c-.605,0-.693.088-.693.7q0,4.536,0,9.072ZM16.88,8.7c.107-.783.256-1.551.3-2.326a2.549,2.549,0,0,0-.231-1.228,6.805,6.805,0,0,0-6.075-4.026,6.7,6.7,0,0,0-5.56,2.39A4.825,4.825,0,0,0,3.9,6.359a5.633,5.633,0,0,0,.432,2.486L4.494,8.8a10.328,10.328,0,0,1,1.27-.329c.589-.079,1.195-.043,1.783-.125A5.51,5.51,0,0,0,11.6,5.856a1.745,1.745,0,0,1,3.018-.15A7.209,7.209,0,0,1,15.74,7.941c.255.747.252.748,1.14.763M10.586,15.82a4.7,4.7,0,0,0,4.732-5.207A8.346,8.346,0,0,0,14.783,8.6a12.187,12.187,0,0,0-1-2.137c-.395-.641-.868-.585-1.292.042l-.077.114a6.193,6.193,0,0,1-2.609,2.23A8.786,8.786,0,0,1,6.3,9.569c-.206.006-.307.068-.354.271a4.826,4.826,0,0,0,4.644,5.98M19.715,33.1H1.523c0,.119,0,.21,0,.3,0,.761.078.843.849.843,5.449,0,10.9-.009,16.347.008,1.025,0,1.074-.158,1-1.152M7.654,20.7c-.263-.376-.476-.685-.693-.991-.509-.719-.509-.718-1.379-.482-.044.012-.09.017-.134.03-.974.3-1.957.568-2.92.9a1.891,1.891,0,0,0-1.276,1.58,8.767,8.767,0,0,0-.143,1.4c-.009,1.184.019,2.368.033,3.552,0,.122.014.243.023.389l.411-.026v-.413c0-1.4,0-2.8,0-4.207a2.366,2.366,0,0,1,.049-.58A1.508,1.508,0,0,1,3.12,20.706c1.481-.006,2.962,0,4.534,0M20.135,27.06c0-1.531.014-3.034,0-4.537a2.612,2.612,0,0,0-2.3-2.706c-.9-.213-1.791-.481-2.684-.735a.305.305,0,0,0-.4.137c-.286.43-.6.844-.893,1.267a1.578,1.578,0,0,0-.1.217c1.443,0,2.845,0,4.247,0A1.542,1.542,0,0,1,19.684,22.4c0,1.425,0,2.851,0,4.276v.388ZM9.061,16.735c-.081.294-.17.554-.216.822a.364.364,0,0,0,.126.3q.758.533,1.543,1.027a.368.368,0,0,0,.323.008c.5-.315,1-.647,1.489-.985a.3.3,0,0,0,.123-.231c-.068-.32-.164-.633-.252-.955a6.268,6.268,0,0,1-3.134.02M16.417,11.8a.979.979,0,0,0,.98-1.091.938.938,0,0,0-.98-.879ZM9.684,19.662c-.491-.325-.929-.614-1.367-.9-.277-.183-.357-.181-.675.012L8.733,20.3l.951-.635m4.1-.982c-.266,0-.479-.065-.61.011-.5.29-.968.626-1.491.973l.952.633,1.149-1.617M4.746,9.924a.939.939,0,0,0-.6.887.919.919,0,0,0,.6.881Zm6.417,10.769c-.492-.425-.624-.419-.9,0Z" transform="translate(0 -0.001)" fill="#7a5424"/>
    <path id="Path_63429" data-name="Path 63429" d="M66.132,184.739a1.7,1.7,0,0,1-1.719-1.725,1.726,1.726,0,1,1,3.451.011,1.705,1.705,0,0,1-1.732,1.715m.016-1.1a.606.606,0,0,0,.612-.61.623.623,0,1,0-1.244.021.6.6,0,0,0,.632.589" transform="translate(-55.508 -156.22)" fill="#7a5424"/>
  </g>
</svg>
