<svg id="Group_328" data-name="Group 328" xmlns="http://www.w3.org/2000/svg" xmlns:xlink="http://www.w3.org/1999/xlink" width="34.158" height="34.158" viewBox="0 0 34.158 34.158">
  <defs>
    <clipPath id="clip-path">
      <rect id="Rectangle_314" data-name="Rectangle 314" width="34.158" height="34.158" fill="#7a5424"/>
    </clipPath>
  </defs>
  <g id="Group_327" data-name="Group 327" clip-path="url(#clip-path)">
    <path id="Path_63419" data-name="Path 63419" d="M20.491,31.487l1.643,1.625c.2.2.364.4.233.7a.616.616,0,0,1-.66.343q-9.423,0-18.847,0c-.538,0-.724-.186-.725-.718,0-.633,0-1.266,0-1.95H.769c-.6,0-.769-.172-.769-.774Q0,19.205,0,7.7c0-.6.162-.759.776-.759q6.5,0,13.009.006a.8.8,0,0,0,.635-.273Q17.519,3.5,20.633.337c.443-.451.666-.449,1.109,0q.982,1,1.966,2c.408.416.408.655,0,1.072L20.554,6.621c-.083.085-.162.173-.276.3h5.274A13.171,13.171,0,0,1,25.882,5.5a4.248,4.248,0,0,1,8.216.809,5.294,5.294,0,0,1,.057.762q0,10.006,0,20.012a4.277,4.277,0,0,1-4.4,4.4c-2.936.006-5.871,0-8.807,0h-.461M2.134,12.8c0-1,0-1.96,0-2.925,0-.655.147-.8.8-.8q4.4,0,8.806,0A.629.629,0,0,0,12.113,9c.337-.281.65-.59.972-.889l-.067-.073H1.085V30.4H2.134V14.7a.734.734,0,0,1,.008-.3c.083-.168.172-.388.318-.454a.9.9,0,0,1,.549.064c.095.029.165.143.243.222q3.715,3.714,7.431,7.428c.084.083.186.2.284.207.606.019,1.213.01,1.841.01v-.506c0-1.049-.009-1.059-1.045-1.094a1.6,1.6,0,1,1,.033-3.2c.811-.005,1.623,0,2.435,0,.515,0,.707-.194.711-.7,0-.295,0-.59,0-.88H16.01c0,.294,0,.569,0,.845a1.633,1.633,0,0,1-1.791,1.8c-.812,0-1.623,0-2.435,0a.532.532,0,0,0-.573.524.555.555,0,0,0,.535.536c.143.014.289,0,.433.005a1.6,1.6,0,0,1,1.7,1.691c0,.318,0,.636,0,.951h2.117a.7.7,0,0,0,.017-.091c0-.278,0-.556,0-.834.006-.442.183-.628.618-.653.533-.032,1.066-.055,1.6-.1a.393.393,0,0,0,.288-.156c.212-.483.4-.977.6-1.481-.391-.436-.786-.872-1.178-1.312-.327-.369-.329-.608.01-.952q1.031-1.044,2.076-2.075a.569.569,0,0,1,.927-.02c.4.353.8.7,1.193,1.067a.286.286,0,0,0,.377.051,11.306,11.306,0,0,1,1.133-.473.36.36,0,0,0,.285-.38c.019-.522.051-1.043.08-1.565a.555.555,0,0,1,.63-.606c.318,0,.636,0,.946,0V10.15c-.072,0-.116-.009-.16-.01-2.7,0-5.4,0-8.106.008a.67.67,0,0,0-.418.2c-1.589,1.6-3.167,3.216-4.755,4.821a1.64,1.64,0,0,1-.506.365c-1.134.476-2.276.934-3.415,1.4-.282.115-.568.243-.829-.029-.243-.254-.138-.532-.029-.807.224-.567.488-1.122.658-1.7a7.159,7.159,0,0,1,2.353-3.614,3.738,3.738,0,0,0,.328-.333c.078-.083.152-.171.253-.284H3.187V12.8ZM33.091,24.36v-.427q0-8.267,0-16.534a8.489,8.489,0,0,0-.059-.962,3.194,3.194,0,0,0-6.345.647q0,8.467,0,16.934v.319a4.379,4.379,0,0,1,6.407.024M20.426,33.07l-17.2-17.2v17.2ZM25.668,22.98H12.008c1.748,1.75,3.458,3.467,5.18,5.173a.642.642,0,0,0,.416.128q3.9.011,7.8.005h.26Zm-13.8-9.033L19.275,6.4l-1.608-1.52L10.31,12.372a3.357,3.357,0,0,1,1.553,1.575m5.226,7.934c1.211,0,2.388,0,3.564-.011.077,0,.2-.146.22-.24a5.244,5.244,0,0,1,3.452-4.217,12.839,12.839,0,0,1,1.277-.355V13.365h-.546c-.035.574-.08,1.127-.1,1.681a.643.643,0,0,1-.5.649c-.622.227-1.235.485-1.835.763a.676.676,0,0,1-.848-.1c-.411-.385-.839-.751-1.215-1.085l-1.548,1.551c.344.385.707.805,1.086,1.21a.671.671,0,0,1,.1.846c-.277.589-.525,1.193-.756,1.8-.159.42-.257.513-.723.537-.541.027-1.081.064-1.632.1Zm12.794,2.136a3.2,3.2,0,1,0,.024,6.392,3.2,3.2,0,0,0-.024-6.392M25.6,18.228a4.069,4.069,0,0,0-3.634,3.636H25.6ZM27.01,30.42a9.785,9.785,0,0,1-.649-.826.489.489,0,0,0-.485-.247c-2.366.007-4.732,0-7.1,0H18.35c.34.331.616.582.87.854a.646.646,0,0,0,.521.219c2.222-.008,4.443,0,6.665,0ZM25.6,8.035a.454.454,0,0,0-.089-.025q-3.083,0-6.165,0a.3.3,0,0,0-.187.039c-.328.319-.648.647-1.007,1.009H25.6ZM19.635,2.873l1.51,1.419,1.563-1.45L21.193,1.424,19.635,2.873M10.918,14.679a1.5,1.5,0,0,0-1.326-1.315l-.867,2.209,2.194-.894M18.5,4.043l1.554,1.482.359-.322-1.58-1.516-.333.355" transform="translate(0 0.001)" fill="#7a5424"/>
    <rect id="Rectangle_309" data-name="Rectangle 309" width="1.024" height="1.028" transform="translate(14.97 13.365)" fill="#7a5424"/>
    <path id="Path_63420" data-name="Path 63420" d="M35.939,157.368c0-1.623,0-3.245,0-4.868,0-.286.042-.538.336-.661s.506.033.7.232q4.938,4.941,9.879,9.879c.195.195.372.4.248.7s-.387.356-.685.355q-4.868-.005-9.737,0c-.56,0-.743-.181-.743-.733q0-2.451,0-4.9m7.123,2.42-6.038-6.037v6.037Zm2.161,2.141.065-.086c-.266-.247-.543-.485-.8-.746a.692.692,0,0,0-.549-.234c-2.189.009-4.378.005-6.567.005h-.344v1.06Z" transform="translate(-31.135 -131.516)" fill="#7a5424"/>
    <rect id="Rectangle_310" data-name="Rectangle 310" width="6.901" height="1.016" transform="translate(17.622 26.18)" fill="#7a5424"/>
    <rect id="Rectangle_311" data-name="Rectangle 311" width="1.027" height="1.025" transform="translate(19.237 24.033)" fill="#7a5424"/>
    <rect id="Rectangle_312" data-name="Rectangle 312" width="1.022" height="1.036" transform="translate(21.374 24.031)" fill="#7a5424"/>
    <rect id="Rectangle_313" data-name="Rectangle 313" width="1.024" height="1.031" transform="translate(23.508 24.038)" fill="#7a5424"/>
    <path id="Path_63421" data-name="Path 63421" d="M212.014,189.891a2.133,2.133,0,1,1-4.266.012,2.133,2.133,0,0,1,4.266-.012m-2.134-1.056a1.07,1.07,0,0,0-1.066,1.054,1.067,1.067,0,1,0,2.134,0,1.07,1.07,0,0,0-1.067-1.053" transform="translate(-179.993 -162.683)" fill="#7a5424"/>
  </g>
</svg>
