<svg id="Group_325" data-name="Group 325" xmlns="http://www.w3.org/2000/svg" xmlns:xlink="http://www.w3.org/1999/xlink" width="38.053" height="34.158" viewBox="0 0 38.053 34.158">
  <defs>
    <clipPath id="clip-path">
      <rect id="Rectangle_308" data-name="Rectangle 308" width="38.053" height="34.158" fill="#7a5424"/>
    </clipPath>
  </defs>
  <g id="Group_324" data-name="Group 324" clip-path="url(#clip-path)">
    <path id="Path_63412" data-name="Path 63412" d="M19.268,85.11a16.312,16.312,0,0,1-7.518-1.915A31.033,31.033,0,0,1,3.375,76.7C2.292,75.549,1.3,74.307.29,73.092c-.394-.473-.378-.733,0-1.224a37.235,37.235,0,0,1,9.849-9.192,17.956,17.956,0,0,1,7.3-2.72,14.248,14.248,0,0,1,6.806.9,23.756,23.756,0,0,1,6.269,3.616A39.61,39.61,0,0,1,37.8,71.9a.77.77,0,0,1,.042,1.11,36.411,36.411,0,0,1-10.747,9.77A17.126,17.126,0,0,1,20.657,85c-.539.067-1.084.086-1.389.109m-.24-1.486a14.917,14.917,0,0,0,7.023-1.981,34.307,34.307,0,0,0,10.156-8.938.29.29,0,0,0,0-.444c-.34-.393-.656-.806-.994-1.2a33.011,33.011,0,0,0-9.1-7.705,14.994,14.994,0,0,0-6.57-2,14.255,14.255,0,0,0-7.544,1.961A34.244,34.244,0,0,0,1.851,72.259a.29.29,0,0,0,0,.444c.34.392.656.806.994,1.2a33,33,0,0,0,9.1,7.7,15.021,15.021,0,0,0,7.091,2.017" transform="translate(0 -50.952)" fill="#7a5424"/>
    <path id="Path_63413" data-name="Path 63413" d="M43.053,39.06a3.694,3.694,0,0,1-.48.607.6.6,0,0,1-.725,0,1.819,1.819,0,0,1-.314-.257c-.946-.941-1.9-1.876-2.824-2.837a1.226,1.226,0,0,1-.356-.727.707.707,0,0,1,1.1-.563,1.614,1.614,0,0,1,.285.233c.954.951,1.911,1.9,2.853,2.861a4.676,4.676,0,0,1,.457.683" transform="translate(-32.648 -29.937)" fill="#7a5424"/>
    <path id="Path_63414" data-name="Path 63414" d="M187.2,39.868a3.721,3.721,0,0,1-.611-.486.6.6,0,0,1,0-.724,1.878,1.878,0,0,1,.257-.313q1.413-1.418,2.831-2.831a.851.851,0,0,1,.843-.337.711.711,0,0,1,.451,1.1,1.865,1.865,0,0,1-.26.311c-.933.936-1.864,1.876-2.809,2.8a5.209,5.209,0,0,1-.7.485" transform="translate(-158.729 -29.924)" fill="#7a5424"/>
    <path id="Path_63415" data-name="Path 63415" d="M124.4,2.977c0,.691,0,1.382,0,2.074,0,.53-.3.883-.742.882s-.738-.354-.74-.884q0-2.092,0-4.184a.749.749,0,1,1,1.481,0c.005.7,0,1.407,0,2.11" transform="translate(-104.63 -0.001)" fill="#7a5424"/>
    <path id="Path_63416" data-name="Path 63416" d="M85.842,93.744a8.933,8.933,0,0,1-17.69,1.717,8.8,8.8,0,0,1,.561-5.264c.213-.5.6-.71,1.019-.54a.756.756,0,0,1,.36,1.063,7.834,7.834,0,0,0-.624,3.138,7.426,7.426,0,1,0,8.305-7.506,7.569,7.569,0,0,0-3.672.486,1.7,1.7,0,0,1-.672.154.643.643,0,0,1-.625-.581.7.7,0,0,1,.466-.83,13.5,13.5,0,0,1,1.94-.6,8.489,8.489,0,0,1,5.724.812,8.7,8.7,0,0,1,4.729,6.447c.089.5.12,1,.179,1.508" transform="translate(-57.865 -72.186)" fill="#7a5424"/>
    <path id="Path_63417" data-name="Path 63417" d="M103.348,115.057a5.2,5.2,0,1,1-4.853-5.177,6.931,6.931,0,0,1,1.75.433c.614.213.727.693.356,1.238-.3.436-.279.814.051,1.09a.708.708,0,0,0,.922.014c.683-.443,1.1-.339,1.366.42.219.635.339,1.3.5,1.957l-.1.024m-4.391-3.605a3.708,3.708,0,1,0,2.785,2.807,2.3,2.3,0,0,1-2.785-2.807" transform="translate(-79.12 -93.523)" fill="#7a5424"/>
    <path id="Path_63418" data-name="Path 63418" d="M84.47,100.561a.739.739,0,1,1-.738-.73.768.768,0,0,1,.738.73" transform="translate(-70.646 -84.98)" fill="#7a5424"/>
  </g>
</svg>
