<svg id="Group_385" data-name="Group 385" xmlns="http://www.w3.org/2000/svg" xmlns:xlink="http://www.w3.org/1999/xlink" width="30.945" height="30.258" viewBox="0 0 30.945 30.258">
  <defs>
    <clipPath id="clip-path">
      <rect id="Rectangle_65584" data-name="Rectangle 65584" width="30.945" height="30.258" fill="#7a5424"/>
    </clipPath>
  </defs>
  <g id="Group_384" data-name="Group 384" clip-path="url(#clip-path)">
    <path id="Path_63461" data-name="Path 63461" d="M54.727,0a10.1,10.1,0,1,1-10.1,10.1A10.1,10.1,0,0,1,54.727,0m5.291,14.825a7.078,7.078,0,1,1-1.848-10.9A6.874,6.874,0,0,1,61.415,7.8a7.025,7.025,0,0,1-.689,6.07l.831.523a8.125,8.125,0,1,0-.821,1.075l-.719-.645m-3.9-6.739H52.224V9.1h3.908a1.468,1.468,0,0,1-1.4,1c-.757.007-1.515,0-2.272,0a1.156,1.156,0,0,0-.6,2.193q.958.579,1.919,1.152l2.719,1.628.513-.857c-.12-.075-.216-.138-.314-.2q-2.122-1.273-4.243-2.549a1.152,1.152,0,0,1-.228-.262,1.332,1.332,0,0,1,.337-.1c.7-.009,1.41.005,2.114-.01a2.945,2.945,0,0,0,.775-.11A2.529,2.529,0,0,0,57.221,9.08h1.022V8.074h-1L56.8,7.06h1.951V6.084H51.214v.985h.356c1.052,0,2.1,0,3.156,0a1.415,1.415,0,0,1,1.392,1.015m-6.923,2.5h.968V9.61h-.968Zm10.1,0h.968V9.61H59.3Z" transform="translate(-38.988 0)" fill="#7a5424"/>
    <path id="Path_63462" data-name="Path 63462" d="M0,171.378c.845,0,1.579-.007,2.312.008.093,0,.2.1.275.181,1.179,1.172,2.35,2.351,3.533,3.518a1.89,1.89,0,0,0,.567.378c.607.262,1.24.467,1.837.75a3.5,3.5,0,0,0,1.646.2v-.956c-.012-.01-.029-.036-.043-.034a5.148,5.148,0,0,1-2.347-.6,3.561,3.561,0,0,1-1.5-.988c-.606-.652-1.255-1.263-1.947-1.953.8,0,1.521,0,2.241,0a.28.28,0,0,1,.14.06.47.47,0,0,1,.112.11,7.045,7.045,0,0,0,3.775,2.3,4.508,4.508,0,0,0,1.093.078V175.9h7.066v-.978h-6a1.735,1.735,0,0,1,1.671-2.027c.747-.017,1.494-.013,2.241,0a.671.671,0,0,0,.521-.219,7.106,7.106,0,0,1,1.016-.89,2.948,2.948,0,0,1,3.4.156.557.557,0,0,1,.2.381c.013,1.83.005,3.66.013,5.49,0,.207-.064.282-.266.335-2.194.576-4.384,1.167-6.578,1.745a.915.915,0,0,1-.455,0q-4.328-1.191-8.651-2.4a.888.888,0,0,1-.371-.216q-2.619-2.6-5.218-5.224A2.128,2.128,0,0,1,0,171.378" transform="translate(0 -149.665)" fill="#7a5424"/>
    <path id="Path_63463" data-name="Path 63463" d="M204.642,155.883h5.075v10h-5.075Zm3.561,7.579H206.22v.968H208.2Z" transform="translate(-178.772 -136.177)" fill="#7a5424"/>
    <rect id="Rectangle_65583" data-name="Rectangle 65583" width="1.984" height="8.04" transform="translate(22.838 20.717)" fill="#7a5424"/>
    <path id="Path_63464" data-name="Path 63464" d="M220.423,13.149v-.993h1v.993l.009-.008h-1.019Z" transform="translate(-192.55 -10.619)" fill="#7a5424"/>
    <path id="Path_63465" data-name="Path 63465" d="M213.619,20.95h-.993v-1h.993l-.009-.009v1.019Z" transform="translate(-185.747 -17.419)" fill="#7a5424"/>
    <path id="Path_63466" data-name="Path 63466" d="M228.4,19.949h.993v1H228.4l.008.009V19.941Z" transform="translate(-199.529 -17.42)" fill="#7a5424"/>
    <path id="Path_63467" data-name="Path 63467" d="M221.424,27.926v.993h-1v-.993l-.009.009h1.019Z" transform="translate(-192.55 -24.396)" fill="#7a5424"/>
    <path id="Path_63468" data-name="Path 63468" d="M20.633,113.006v-.993h1v.993l.009-.008H20.624Z" transform="translate(-18.017 -97.853)" fill="#7a5424"/>
    <path id="Path_63469" data-name="Path 63469" d="M13.829,120.807h-.993v-1h.993l-.009-.009v1.019Z" transform="translate(-11.213 -104.653)" fill="#7a5424"/>
    <path id="Path_63470" data-name="Path 63470" d="M28.612,119.807h.993v1h-.993l.008.009V119.8Z" transform="translate(-24.995 -104.654)" fill="#7a5424"/>
    <path id="Path_63471" data-name="Path 63471" d="M21.633,127.783v.993h-1v-.993l-.009.009h1.019Z" transform="translate(-18.016 -111.629)" fill="#7a5424"/>
  </g>
</svg>
