<svg id="Group_377" data-name="Group 377" xmlns="http://www.w3.org/2000/svg" xmlns:xlink="http://www.w3.org/1999/xlink" width="31.997" height="30.259" viewBox="0 0 31.997 30.259">
  <defs>
    <clipPath id="clip-path">
      <rect id="Rectangle_65579" data-name="Rectangle 65579" width="31.997" height="30.259" fill="#ffffff"/>
    </clipPath>
  </defs>
  <path id="Path_63433" data-name="Path 63433" d="M0,100.058v1.731H1.382v15.832H12.911V101.774h3.345v-1.716Z" transform="translate(0 -87.53)" fill="#ffffff"/>
  <g id="Group_376" data-name="Group 376">
    <g id="Group_375" data-name="Group 375" clip-path="url(#clip-path)">
      <path id="Path_63434" data-name="Path 63434" d="M115.627,67.625l.555-5.011c-.439.075-.841.154-1.246.21a16.809,16.809,0,0,1-5.286-.213,3.881,3.881,0,0,1-.844-.212,1.537,1.537,0,0,1-.863-1.863,1.571,1.571,0,0,1,1.755-1.126c.763.106,1.522.25,2.288.316a8.876,8.876,0,0,0,4.562-.594,9.215,9.215,0,0,0,.921-.524,4.619,4.619,0,0,1,1.758-.691,3.312,3.312,0,0,1,3.624,2.548,7.857,7.857,0,0,1-.093,1.738c-.233,2.153-.483,4.3-.724,6.456a2.38,2.38,0,0,1-2.4,2.352,15.057,15.057,0,0,1-1.684.035,16.57,16.57,0,0,0-3.489.152,5.751,5.751,0,0,0-.665.168,1.274,1.274,0,0,0-.854.793,57.354,57.354,0,0,0-2.236,7.042,1.835,1.835,0,0,1-1.37,1.5,1.717,1.717,0,0,1-2.083-2.08c.374-1.535.8-3.06,1.252-4.573.375-1.243.84-2.459,1.251-3.691a3.383,3.383,0,0,1,2.458-2.226,13.966,13.966,0,0,1,3.11-.481c.092-.006.184-.016.3-.026" transform="translate(-93.779 -50.641)" fill="#ffffff"/>
      <path id="Path_63435" data-name="Path 63435" d="M180.5,98.332c-.005.076-.012.137-.012.2,0,1.436,0,2.873,0,4.352.328,0,.636-.006.944,0a2.491,2.491,0,0,1,2.433,2.278c.022.257-.045.365-.317.348-.3-.019-.6-.01-.906,0-.175,0-.252-.055-.288-.24a.9.9,0,0,0-.983-.81q-1.954-.007-3.908,0a.893.893,0,0,0-.98.808c-.037.174-.11.249-.292.243-.323-.01-.646-.01-.969,0-.209.006-.266-.077-.253-.282a2.468,2.468,0,0,1,2.428-2.342c.3-.008.6,0,.93,0V98.562h-.835c-.7,0-1.4-.008-2.095,0-.251,0-.359-.066-.349-.335.017-.489.017-.98,0-1.469-.009-.259.077-.345.338-.342q1.594.02,3.189.01A4,4,0,0,0,181,95.774a3.236,3.236,0,0,0,1.285-2.31c.155-1.217.225-2.446.321-3.67q.137-1.744.247-3.491c.014-.225.114-.282.314-.28q.8.009,1.594,0c.207,0,.306.064.286.292-.209,2.386-.388,4.774-.629,7.156a7.63,7.63,0,0,1-.915,3.028,3.373,3.373,0,0,1-2.814,1.811c-.06,0-.119.013-.195.022" transform="translate(-153.057 -75.251)" fill="#ffffff"/>
      <path id="Path_63436" data-name="Path 63436" d="M177.473,3.536a3.534,3.534,0,1,1,3.539,3.528,3.531,3.531,0,0,1-3.539-3.528" transform="translate(-155.251 0)" fill="#ffffff"/>
      <path id="Path_63437" data-name="Path 63437" d="M37.74,34.469c-1.062,0-2.125-.006-3.187.005-.233,0-.347-.056-.412-.3q-1.053-3.914-2.135-7.821c-.079-.285-.021-.4.261-.444.3-.049.67-.254.881-.145.188.1.21.529.289.818.571,2.085,1.143,4.17,1.7,6.259a.356.356,0,0,0,.42.32c1.791-.012,3.583,0,5.374-.013.291,0,.4.085.368.373a5.135,5.135,0,0,0,0,.531c0,.414,0,.415-.4.415H37.74" transform="translate(-27.97 -22.512)" fill="#ffffff"/>
    </g>
  </g>
</svg>
