<svg id="Group_379" data-name="Group 379" xmlns="http://www.w3.org/2000/svg" xmlns:xlink="http://www.w3.org/1999/xlink" width="29.186" height="30.259" viewBox="0 0 29.186 30.259">
  <defs>
    <clipPath id="clip-path">
      <rect id="Rectangle_65580" data-name="Rectangle 65580" width="29.186" height="30.259" fill="#fff"/>
    </clipPath>
  </defs>
  <g id="Group_378" data-name="Group 378" clip-path="url(#clip-path)">
    <path id="Path_63438" data-name="Path 63438" d="M14.593,25.883q-6.448,0-12.9,0A1.582,1.582,0,0,1,.043,24.652,2.148,2.148,0,0,1,0,24.168Q0,15.362,0,6.557A1.576,1.576,0,0,1,1.73,4.847q4.543,0,9.085,0a.428.428,0,0,0,.479-.3A16.024,16.024,0,0,1,13.938.4c.469-.53.627-.527,1.086,0a16.306,16.306,0,0,1,2.649,4.19.369.369,0,0,0,.4.266q4.673-.012,9.346-.005A1.586,1.586,0,0,1,29.185,6.62q0,8.741,0,17.481a1.6,1.6,0,0,1-1.795,1.782h-12.8M28.3,20.131v-.361q0-6.559,0-13.118c0-.706-.224-.923-.943-.924H18.4c-.114,0-.227.011-.362.018.019.1.03.16.043.222a10.658,10.658,0,0,1-.493,6.2.362.362,0,0,1-.4.282c-1.813-.01-3.625-.007-5.438,0-.173,0-.295-.015-.373-.215a10.493,10.493,0,0,1-.657-5.457c.051-.338.111-.674.172-1.044h-.332q-4.4,0-8.792,0c-.663,0-.891.233-.891.909q0,6.575,0,13.151c0,.113.014.227.022.342ZM14.46,9.161a1.959,1.959,0,0,0,.047-3.919,1.959,1.959,0,1,0-.047,3.919m.116,14.051c.389,0,.779,0,1.169,0,.326,0,.531-.185.527-.447a.454.454,0,0,0-.506-.436q-1.168-.013-2.337,0a.452.452,0,0,0-.509.432c-.007.265.2.446.521.451.379.006.757,0,1.136,0" transform="translate(0 0)" fill="#fff"/>
    <path id="Path_63439" data-name="Path 63439" d="M50.189,207.978v-2.6H60.376v2.578c.142.007.256.017.37.018.835,0,1.671,0,2.506,0,.365,0,.566.16.565.436s-.2.435-.566.435q-7.973,0-15.946,0c-.222,0-.442-.035-.5-.27a.624.624,0,0,1,.094-.466.581.581,0,0,1,.408-.131c.824-.012,1.649-.006,2.473-.006h.406" transform="translate(-40.693 -178.592)" fill="#fff"/>
    <path id="Path_63440" data-name="Path 63440" d="M96.244,102.3c-.368.554-.684,1.056-1.034,1.534a.667.667,0,0,1-.419.187,5.477,5.477,0,0,1-.716.008c0,.311,0,.6,0,.889-.005.326-.18.533-.441.534s-.437-.2-.446-.532c-.008-.281,0-.562,0-.891a3.09,3.09,0,0,1-.653-.01.966.966,0,0,1-.537-.271c-.338-.444-.626-.927-.967-1.447Z" transform="translate(-79.157 -88.96)" fill="#fff"/>
    <path id="Path_63441" data-name="Path 63441" d="M140.007,77.857a5.557,5.557,0,0,1,.774,4.575.425.425,0,0,1-.265.272.457.457,0,0,1-.343-.169c-.406-.49-.792-1-1.179-1.488l1.013-3.19" transform="translate(-120.864 -67.702)" fill="#fff"/>
    <path id="Path_63442" data-name="Path 63442" d="M68.818,77.514a16.51,16.51,0,0,0,1.006,3.06.377.377,0,0,1-.055.322q-.537.67-1.109,1.312a.539.539,0,0,1-.363.192c-.093-.006-.225-.166-.253-.279a5.531,5.531,0,0,1,.724-4.486.742.742,0,0,0,.05-.12" transform="translate(-59.005 -67.404)" fill="#fff"/>
    <path id="Path_63443" data-name="Path 63443" d="M97.344,124.03a5.492,5.492,0,0,1,0,.583.415.415,0,0,1-.448.415.4.4,0,0,1-.427-.4,9.67,9.67,0,0,1,0-1.165.4.4,0,0,1,.428-.4.419.419,0,0,1,.448.417,4.927,4.927,0,0,1,0,.55" transform="translate(-83.866 -107.011)" fill="#fff"/>
    <path id="Path_63444" data-name="Path 63444" d="M118.86,123.785c0-.1-.007-.194,0-.29a.417.417,0,0,1,.432-.429.41.41,0,0,1,.444.416,3.455,3.455,0,0,1,0,.613.439.439,0,1,1-.879-.018c0-.1,0-.194,0-.291" transform="translate(-103.354 -107.014)" fill="#fff"/>
  </g>
</svg>
