<svg xmlns="http://www.w3.org/2000/svg" xmlns:xlink="http://www.w3.org/1999/xlink" width="22.559" height="18.379" viewBox="0 0 22.559 18.379">
  <defs>
    <clipPath id="clip-path">
      <rect id="Rectangle_85710" data-name="Rectangle 85710" width="22.559" height="18.379" fill="#fff"/>
    </clipPath>
  </defs>
  <g id="Group_136809" data-name="Group 136809" clip-path="url(#clip-path)">
    <path id="Path_174063" data-name="Path 174063" d="M5.611,12.567a11.688,11.688,0,0,1,1.148.575,2.3,2.3,0,0,1,.925,1.251.189.189,0,0,0,.217.155c.47-.008.94,0,1.41,0a1.5,1.5,0,0,1,1.031.372c.238.207.472.42.7.636a.321.321,0,0,1,.048.5.336.336,0,0,1-.492-.014c-.2-.179-.407-.361-.6-.547a1.011,1.011,0,0,0-.736-.287q-2.071.009-4.142,0a.915.915,0,0,0-.693.277L2.362,17.592c-.028.029-.053.062-.1.115H12.451a7.289,7.289,0,0,1-.564-.52.527.527,0,0,1-.142-.36.316.316,0,0,1,.547-.152c.327.284.651.572.966.869a.625.625,0,0,0,.468.178q4.164-.009,8.328,0a1.666,1.666,0,0,1,.2,0,.328.328,0,0,1,.021.652,1,1,0,0,1-.2.005H.485c-.051,0-.1,0-.154,0a.329.329,0,0,1-.024-.657c.036-.006.073-.005.133-.009v-.568q0-.936,0-1.873a2.6,2.6,0,0,1,2.622-2.655c.139,0,.278,0,.444,0,0-.091.01-.168.01-.245q0-1.3,0-2.6c0-.279.119-.428.33-.425s.33.155.33.433c0,.932,0,1.865,0,2.817h.741V6.543H4.178V7.6c0,.162,0,.323,0,.485-.009.245-.131.38-.335.38s-.322-.129-.324-.382c0-.426,0-.852,0-1.278V6.54c-.339-.028-.752.077-.915-.288a4.367,4.367,0,0,1-.193-.994c-.447-.155-.566-.325-.566-.862,0-.411,0-.823,0-1.234a.68.68,0,0,1,.737-.74h.474C3,2.08,2.946,1.758,2.888,1.438A.787.787,0,0,1,3.66.486c.182,0,.365,0,.544,0,.057-.367.163-.5.375-.484s.3.15.32.484c.169,0,.341,0,.513,0a.781.781,0,0,1,.809.938c-.047.3-.1.607-.15.911a.7.7,0,0,0,0,.088c.179,0,.354,0,.528,0a.677.677,0,0,1,.67.675c.006.455,0,.911,0,1.366a.713.713,0,0,1-.621.8c0,.176,0,.358,0,.54a.66.66,0,0,1-.724.723H5.611ZM1.1,17.776a1.619,1.619,0,0,0,.338-.192Q2.7,16.307,3.953,15.019A1.526,1.526,0,0,1,5.1,14.544c.58,0,1.161,0,1.741,0,.059,0,.118-.01.2-.017A1.835,1.835,0,0,0,5.5,13.32,19.91,19.91,0,0,0,2.921,13.3a1.848,1.848,0,0,0-1.8,1.68A8.587,8.587,0,0,0,1.1,16.12c0,.528,0,1.055,0,1.656m1.413-13.2H6.595V3.1H2.513ZM5.377,2.421c.066-.374.131-.733.192-1.093.023-.136-.051-.185-.177-.184H3.722c-.154,0-.208.069-.178.223.058.3.1.606.165.906a.228.228,0,0,0,.162.142c.49.011.981.006,1.506.006M3.134,5.852H5.976V5.269H3.134Z" transform="translate(0 0)" fill="#fff"/>
    <path id="Path_174064" data-name="Path 174064" d="M97.68,72.746a2.71,2.71,0,0,0-1.492.059q-1.016.353-2.032.709a.347.347,0,0,1-.45-.109.318.318,0,0,1,.138-.48c.857-.3,1.71-.61,2.583-.852a2.835,2.835,0,0,1,1.872.187c.31.13.618.269.923.411a1.017,1.017,0,0,1-.158,1.942c-1.259.36-2.521.711-3.782,1.066-.069.019-.136.044-.207.067.025.121.056.227.067.335a.664.664,0,0,1-.475.688c-.469.144-.94.28-1.414.4a.671.671,0,0,1-.865-.5c-.015-.048-.034-.1-.059-.166-.376.107-.756.186-1.115.322a8.928,8.928,0,0,1-3.232.388c-.521,0-1.043.005-1.564.006a.824.824,0,0,1-.291-1.611c.129-.048.26-.092.421-.149-.047-.081-.083-.148-.123-.212-.357-.572-.717-1.143-1.073-1.716-.217-.349-.118-.6.275-.714.105-.031.212-.059.317-.09A1.2,1.2,0,0,1,87.17,73c.525.471,1.064.926,1.583,1.4a.458.458,0,0,0,.54.112c.955-.35,1.918-.677,2.88-1.009a.664.664,0,0,1,.274-.056.307.307,0,0,1,.282.293.324.324,0,0,1-.243.35q-.621.22-1.243.437l-4.809,1.677c-.028.01-.065.012-.081.031-.05.061-.093.128-.138.192.065.044.131.127.2.127,1.131-.007,2.263,0,3.392-.052a5.718,5.718,0,0,0,1.188-.3c.353-.1.706-.193,1.055-.3a.338.338,0,0,0,.192-.167.709.709,0,0,1,.481-.444c.45-.131.9-.259,1.349-.39a.72.72,0,0,1,.7.141.243.243,0,0,0,.19.039c1.311-.365,2.62-.738,3.932-1.1a.368.368,0,0,0,.315-.344.381.381,0,0,0-.264-.367.543.543,0,0,0-.439-.041c-.271.089-.548.159-.824.233-.256.069-.431,0-.486-.2-.061-.213.043-.36.31-.441.046-.014.091-.035.179-.07m-9.4,2.115c-.548-.481-1.066-.931-1.58-1.387a.539.539,0,0,0-.648-.068L87.2,75.238l1.084-.377m4.761,1.683,1.445-.411-.18-.614-1.441.412.176.613" transform="translate(-77.716 -65.633)" fill="#fff"/>
    <path id="Path_174065" data-name="Path 174065" d="M55.629,189.837c-.059,0-.117,0-.176,0a.328.328,0,0,1-.023-.653,1.751,1.751,0,0,1,.329,0,.338.338,0,0,1,.353.342.332.332,0,0,1-.352.317c-.044,0-.088,0-.132,0Z" transform="translate(-50.268 -172.474)" fill="#fff"/>
    <path id="Path_174066" data-name="Path 174066" d="M69.828,178.2c-.328,0-.472-.1-.481-.32s.121-.328.385-.342c.468-.026.564.095.582.324s-.154.339-.486.339" transform="translate(-63.225 -161.859)" fill="#fff"/>
    <path id="Path_174067" data-name="Path 174067" d="M40.341,189.867c-.358,0-.515-.12-.487-.372.025-.225.189-.3.6-.288a.343.343,0,0,1,.374.321c.009.223-.157.339-.483.339" transform="translate(-36.333 -172.502)" fill="#fff"/>
    <path id="Path_174068" data-name="Path 174068" d="M69.807,189.859c-.31,0-.444-.081-.468-.282a.331.331,0,0,1,.352-.378c.427-.022.622.086.616.34-.005.222-.159.321-.5.321" transform="translate(-63.215 -172.495)" fill="#fff"/>
    <path id="Path_174069" data-name="Path 174069" d="M83.893,189.871H83.8c-.253,0-.408-.129-.406-.33s.157-.326.41-.33c.073,0,.147,0,.22,0a.33.33,0,1,1,0,.659c-.044,0-.088,0-.132,0" transform="translate(-76.037 -172.507)" fill="#fff"/>
    <path id="Path_174070" data-name="Path 174070" d="M98.156,189.837c-.059,0-.118,0-.176,0a.307.307,0,0,1-.312-.3.319.319,0,0,1,.291-.349,1.939,1.939,0,0,1,.373,0,.338.338,0,0,1,.309.34.332.332,0,0,1-.332.315c-.051,0-.1,0-.154,0" transform="translate(-89.045 -172.473)" fill="#fff"/>
    <path id="Path_174071" data-name="Path 174071" d="M113.858,189.824c-.059,0-.118,0-.176,0a.311.311,0,0,1-.312-.308.306.306,0,0,1,.274-.342,1.531,1.531,0,0,1,.394,0,.328.328,0,0,1-.027.655c-.051,0-.1,0-.154,0" transform="translate(-103.361 -172.46)" fill="#fff"/>
    <path id="Path_174072" data-name="Path 174072" d="M55.823,178.17c-.1-.026-.24-.021-.306-.086a.441.441,0,0,1-.137-.33.436.436,0,0,1,.253-.248.914.914,0,0,1,.369-.013.325.325,0,0,1,.332.311.338.338,0,0,1-.309.339,1.37,1.37,0,0,1-.2,0l0,.026" transform="translate(-50.489 -161.813)" fill="#fff"/>
    <path id="Path_174073" data-name="Path 174073" d="M98.145,177.627c.336-.007.5.1.5.312s-.176.346-.512.341a.931.931,0,0,1-.238-.028.293.293,0,0,1-.223-.332.289.289,0,0,1,.272-.292,1.592,1.592,0,0,1,.2,0" transform="translate(-89.052 -161.945)" fill="#fff"/>
    <path id="Path_174074" data-name="Path 174074" d="M83.891,177.582c.355,0,.5.1.483.351-.015.228-.167.317-.534.31-.271-.005-.432-.126-.438-.328-.007-.218.163-.333.489-.333" transform="translate(-76.039 -161.906)" fill="#fff"/>
    <path id="Path_174075" data-name="Path 174075" d="M165.473,100.21a.32.32,0,0,1-.31.329.331.331,0,0,1-.346-.322.348.348,0,0,1,.34-.335.331.331,0,0,1,.317.328" transform="translate(-150.267 -91.065)" fill="#fff"/>
    <path id="Path_174076" data-name="Path 174076" d="M188.987,93a.33.33,0,0,1-.327-.318.318.318,0,0,1,.321-.34.33.33,0,0,1,.334.311.349.349,0,0,1-.328.346" transform="translate(-172.006 -84.19)" fill="#fff"/>
    <path id="Path_174077" data-name="Path 174077" d="M177.053,96.171a.326.326,0,0,1,.333.331.329.329,0,0,1-.658-.015.324.324,0,0,1,.325-.316" transform="translate(-161.127 -87.681)" fill="#fff"/>
    <path id="Path_174078" data-name="Path 174078" d="M153.345,103.8a.31.31,0,0,1,.331.326.335.335,0,0,1-.315.33.34.34,0,0,1-.334-.336.313.313,0,0,1,.318-.32" transform="translate(-139.518 -94.639)" fill="#fff"/>
    <path id="Path_174079" data-name="Path 174079" d="M141.859,107.856a.329.329,0,0,1-.35.314.306.306,0,0,1-.3-.33.322.322,0,0,1,.319-.322.347.347,0,0,1,.335.339" transform="translate(-128.74 -98.027)" fill="#fff"/>
    <path id="Path_174080" data-name="Path 174080" d="M200.845,89.1a.312.312,0,0,1-.312-.345.333.333,0,0,1,.332-.311.339.339,0,0,1,.315.331.316.316,0,0,1-.335.325" transform="translate(-182.83 -80.637)" fill="#fff"/>
    <path id="Path_174081" data-name="Path 174081" d="M60.963,40.135a.333.333,0,0,1,.364-.3.31.31,0,0,1,.291.342.321.321,0,0,1-.355.3.345.345,0,0,1-.3-.347" transform="translate(-55.581 -36.318)" fill="#fff"/>
    <path id="Path_174082" data-name="Path 174082" d="M35.484,40.15a.335.335,0,0,1-.34.328.321.321,0,0,1-.31-.329.307.307,0,0,1,.334-.322.32.32,0,0,1,.317.323" transform="translate(-31.758 -36.311)" fill="#fff"/>
    <path id="Path_174083" data-name="Path 174083" d="M48.246,40.13a.324.324,0,0,1,.646.045.324.324,0,1,1-.646-.045" transform="translate(-43.986 -36.314)" fill="#fff"/>
  </g>
</svg>
