<svg id="Group_136835" data-name="Group 136835" xmlns="http://www.w3.org/2000/svg" xmlns:xlink="http://www.w3.org/1999/xlink" width="18.049" height="18.079" viewBox="0 0 18.049 18.079">
  <defs>
    <clipPath id="clip-path">
      <rect id="Rectangle_85716" data-name="Rectangle 85716" width="18.05" height="18.079" fill="#fff"/>
    </clipPath>
  </defs>
  <g id="Group_136834" data-name="Group 136834" clip-path="url(#clip-path)">
    <path id="Path_174097" data-name="Path 174097" d="M2.929,3.6c.03-.2.05-.365.082-.532a.637.637,0,0,1,.62-.526q2.144,0,4.289,0a.648.648,0,0,1,.634.575c.022.157.045.313.069.483.208,0,.408.008.607,0A1.711,1.711,0,0,1,11,5.372C10.979,7.331,11,9.291,11,11.25c0,.618-.023,1.237.005,1.853a1.756,1.756,0,0,1-1.225,1.838l1.234,1.913.033-.01c0-.055.009-.111.009-.166,0-.683,0-1.365,0-2.048,0-.274.084-.357.358-.359.229,0,.459,0,.688,0,.207,0,.318.108.311.279s-.1.246-.316.249c-.163,0-.327,0-.5,0v2.737h5.918V14.8H13.365c-.059,0-.118,0-.176,0a.233.233,0,0,1-.234-.221.236.236,0,0,1,.181-.282.853.853,0,0,1,.226-.023h4.144V2.091H15.7V3.776c.091.006.172.008.253.018a.88.88,0,0,1,.835.849,8.811,8.811,0,0,1-.01,1.234.863.863,0,0,1-.868.792q-1.447.014-2.894,0a.878.878,0,0,1-.87-.85c-.017-.364-.014-.73-.006-1.094a.906.906,0,0,1,.919-.937c.052,0,.1,0,.171,0v-1.7c-.253,0-.509,0-.766,0a1.033,1.033,0,0,1-1-.77A1.032,1.032,0,0,1,12.448,0Q15.087,0,17.725,0c.239,0,.324.095.324.355q0,4.219,0,8.438,0,4.449,0,8.9c0,.311-.074.386-.381.386H9.39c-.261,0-.315-.038-.4-.275-.064-.169-.087-.4-.211-.488s-.35-.033-.531-.033c-1.765,0-3.53,0-5.295,0-.145,0-.227.032-.262.183a3.888,3.888,0,0,1-.141.4.3.3,0,0,1-.319.221c-.641,0-1.283,0-1.924-.008a.384.384,0,0,1-.283-.148.354.354,0,0,1,.036-.3C.59,16.777,1.134,15.94,1.675,15.1l.1-.158c-.043-.018-.078-.035-.115-.049A1.672,1.672,0,0,1,.552,13.3q-.014-2.56,0-5.119A.449.449,0,0,1,.7,7.892.253.253,0,0,1,.951,7.9a.484.484,0,0,1,.122.3c.008,1.071.005,2.142.005,3.213,0,.6,0,1.2,0,1.8a1.167,1.167,0,0,0,1.246,1.248c.494,0,.987,0,1.5,0l.145-.821a.757.757,0,0,1,.776-.652q1.033,0,2.065,0a.768.768,0,0,1,.792.679c.037.22.067.441.114.659.011.051.076.129.117.129.523.006,1.049.028,1.57-.009a1.107,1.107,0,0,0,1.066-1.175q0-2.339,0-4.678c0-1.077-.018-2.154.006-3.23A1.205,1.205,0,0,0,9.221,4.125c-2.294.018-4.589.007-6.883.007A1.165,1.165,0,0,0,1.078,5.4c0,.541,0,1.083,0,1.624,0,.191-.093.29-.255.292a.256.256,0,0,1-.27-.283c0-.659-.017-1.319.03-1.975A1.64,1.64,0,0,1,2.166,3.6c.252,0,.5,0,.763,0m11.53,2.54c.453,0,.905,0,1.358,0a.4.4,0,0,0,.454-.438q.009-.476,0-.953a.39.39,0,0,0-.425-.433q-1.376-.008-2.752,0a.384.384,0,0,0-.424.43q-.008.476,0,.953a.393.393,0,0,0,.448.441c.447,0,.894,0,1.341,0m3.048-4.59V.53H12.719c-.088,0-.177,0-.264,0a.5.5,0,0,0-.488.517.51.51,0,0,0,.575.5h4.967Zm-9.3,14.111c-.07-.194-.127-.378-.205-.553A.218.218,0,0,0,7.842,15q-2.062-.009-4.124,0c-.047,0-.125.013-.137.042-.085.2-.156.407-.236.624ZM2.956,16.738H8.6c-.046-.132-.094-.245-.125-.363a.21.21,0,0,0-.247-.177c-1.046.008-2.093,0-3.139,0-.6,0-1.2,0-1.8,0a.213.213,0,0,0-.163.081,4.56,4.56,0,0,0-.168.451m-2.218.811c.423,0,.821,0,1.217,0a.165.165,0,0,0,.187-.133c.217-.612.442-1.222.664-1.833L3.022,15c-.174,0-.321.009-.466,0a.272.272,0,0,0-.283.152c-.474.748-.957,1.49-1.437,2.235-.03.047-.056.1-.1.169M8.529,15c.311.85.607,1.663.907,2.474a.134.134,0,0,0,.1.074c.42.005.841,0,1.259,0,0-.027,0-.04,0-.048q-.779-1.213-1.562-2.424A.182.182,0,0,0,9.105,15c-.181-.008-.362,0-.576,0m-4.167-.543H7.191c-.047-.267-.078-.523-.146-.769a.289.289,0,0,0-.221-.156c-.7-.012-1.4-.008-2.1-.006a.22.22,0,0,0-.236.193c-.045.24-.085.482-.131.738M8.077,3.594c-.01-.1-.025-.193-.028-.286-.008-.185-.1-.245-.282-.241-.523.012-1.047,0-1.57,0-.818,0-1.635,0-2.453,0-.108,0-.2.007-.223.139s-.032.251-.049.384Zm7.077-1.5H13.788V3.774h1.367Z" transform="translate(0 0)" fill="#fff"/>
    <path id="Path_174098" data-name="Path 174098" d="M21.323,86.261c-.364,0-.729,0-1.093,0a.956.956,0,0,1-1.01-.989q-.013-1.049,0-2.1A.935.935,0,0,1,20.2,82.2q1.128-.012,2.257,0a.914.914,0,0,1,.967.928q.029,1.1,0,2.2a.933.933,0,0,1-.986.933c-.37,0-.74,0-1.111,0m.009-3.538c-.365,0-.729,0-1.094,0a.43.43,0,0,0-.49.486q-.006,1.015,0,2.03a.438.438,0,0,0,.491.491q1.085,0,2.17,0a.43.43,0,0,0,.487-.474q.009-1.032,0-2.065a.416.416,0,0,0-.47-.467c-.365,0-.729,0-1.094,0" transform="translate(-17.855 -76.378)" fill="#fff"/>
    <path id="Path_174099" data-name="Path 174099" d="M86.638,82.215c.364,0,.729,0,1.093,0a.936.936,0,0,1,1.007,1.014q0,1.023,0,2.046a.95.95,0,0,1-1,1.006q-1.093,0-2.186,0a.962.962,0,0,1-1.013-1.021q0-1.023,0-2.046a.943.943,0,0,1,.974-1c.376-.007.752,0,1.128,0m.007.53c-.371,0-.741,0-1.112,0a.422.422,0,0,0-.468.47q0,1.024,0,2.047a.439.439,0,0,0,.493.488q1.085,0,2.171,0a.429.429,0,0,0,.48-.477q0-1.024,0-2.047c0-.334-.147-.479-.487-.482-.359,0-.718,0-1.076,0" transform="translate(-78.556 -76.399)" fill="#fff"/>
    <path id="Path_174100" data-name="Path 174100" d="M59.713,62.766c-.317,0-.634,0-.951,0a.67.67,0,1,1,0-1.337q.951,0,1.9,0a.671.671,0,1,1,0,1.337c-.317,0-.634,0-.951,0m0-.809h-.934c-.1,0-.2.013-.2.139s.1.141.2.141h1.868c.108,0,.217-.015.212-.148s-.109-.133-.211-.132c-.311,0-.623,0-.934,0" transform="translate(-53.941 -57.083)" fill="#fff"/>
    <path id="Path_174101" data-name="Path 174101" d="M114.5,157.93a1.077,1.077,0,1,1,.01-2.154,1.077,1.077,0,0,1-.01,2.154m0-.529a.548.548,0,1,0,0-1.1.548.548,0,0,0,0,1.1" transform="translate(-105.402 -144.76)" fill="#fff"/>
    <path id="Path_174102" data-name="Path 174102" d="M19.567,156.85a1.067,1.067,0,0,1,1.073-1.074,1.077,1.077,0,1,1-.007,2.154,1.067,1.067,0,0,1-1.066-1.08m1.073-.545a.548.548,0,0,0,0,1.1.548.548,0,1,0,0-1.1" transform="translate(-18.183 -144.76)" fill="#fff"/>
    <path id="Path_174103" data-name="Path 174103" d="M56.7,150.325H55.13c-.21,0-.328-.094-.332-.257s.122-.271.338-.271h3.123c.223,0,.339.094.338.268s-.117.26-.344.261H56.7" transform="translate(-50.922 -139.203)" fill="#fff"/>
    <path id="Path_174104" data-name="Path 174104" d="M56.694,161.363c-.523,0-1.047,0-1.57,0-.21,0-.326-.1-.324-.263s.129-.265.33-.265q1.57,0,3.14,0c.22,0,.335.1.328.28s-.113.248-.335.249h-1.57" transform="translate(-50.925 -149.459)" fill="#fff"/>
    <path id="Path_174105" data-name="Path 174105" d="M126.845,62.1a.629.629,0,0,1-.631.621.634.634,0,1,1,.006-1.267.632.632,0,0,1,.625.646m-.489-.007c-.063-.049-.1-.1-.135-.1a.094.094,0,0,0-.005.188c.032.006.074-.044.14-.089" transform="translate(-116.701 -57.107)" fill="#fff"/>
    <path id="Path_174106" data-name="Path 174106" d="M21.155,62.092a.627.627,0,0,1-.624.627.634.634,0,1,1,.624-.627m-.488-.01c-.068-.046-.107-.09-.145-.09s-.086.061-.081.086a.144.144,0,0,0,.087.1c.031.006.072-.048.139-.1" transform="translate(-18.491 -57.105)" fill="#fff"/>
  </g>
</svg>
