<svg xmlns="http://www.w3.org/2000/svg" xmlns:xlink="http://www.w3.org/1999/xlink" width="171.861" height="63.612" viewBox="0 0 171.861 63.612">
  <defs>
    <clipPath id="clip-path">
      <rect id="Rectangle_71425" data-name="Rectangle 71425" width="171.861" height="63.612" fill="none"/>
    </clipPath>
  </defs>
  <g id="Group_117243" data-name="Group 117243" transform="translate(0 0)">
    <g id="Group_117242" data-name="Group 117242" transform="translate(0 0)" clip-path="url(#clip-path)">
      <path id="Path_91054" data-name="Path 91054" d="M98.637,20.852V6.385L92.229,17.552h-3.1L82.717,6.385V20.852h-.812l-2.911-7.887V0h4.115l7.566,13.688L98.245,0h4.115V18.954a1.9,1.9,0,0,1-1.9,1.9Z" transform="translate(31.732 0)" fill="#f9e9c2"/>
      <path id="Path_91055" data-name="Path 91055" d="M81.733,20.852l-1.257-3.741h0l-2.267-6.864-2.489-7.6-2.561,8.082L70.208,19.7h.011l-.373,1.154H65.791L73.239,0h4.854l7.744,20.852Z" transform="translate(26.428 0)" fill="#f9e9c2"/>
      <path id="Path_91056" data-name="Path 91056" d="M56.943,20.852l-1.027-2.121V0H67.249a2.513,2.513,0,0,1,2.51,2.509v.741H59.8V8.486H68.5v3.251H59.8V17.6h9.358l-1.215,3.252Z" transform="translate(22.461 0)" fill="#f9e9c2"/>
      <path id="Path_91057" data-name="Path 91057" d="M56.1,13.475l.428-.289a6.83,6.83,0,0,0,2.889-6c0-4.5-2.958-7.189-7.911-7.189H43.75V3.842a12.566,12.566,0,0,1,1.695,6.584,12.575,12.575,0,0,1-1.695,6.585v3.841h3.881V14.534h4.535L55.5,20.852h4.485Zm-4.595-2.191H47.631V3.252h3.874c2.313,0,3.748,1.532,3.748,4,0,2.449-1.472,4.031-3.748,4.031" transform="translate(17.574 0)" fill="#f9e9c2"/>
      <path id="Path_91058" data-name="Path 91058" d="M36.931,0H30.937V18.421a2.435,2.435,0,0,0,2.431,2.432h3.563c7.492,0,11.966-3.9,11.966-10.427S44.423,0,36.931,0m0,17.6H34.817V3.252h2.114C41.783,3.252,44.8,6,44.8,10.426S41.783,17.6,36.931,17.6" transform="translate(12.427 0)" fill="#f9e9c2"/>
      <path id="Path_91059" data-name="Path 91059" d="M109.014,14.257a9.4,9.4,0,0,0,.038-4.983,3.929,3.929,0,0,0-2.84-2.676c-.952,2.41-.118,6.254,2.8,7.659" transform="translate(42.515 2.65)" fill="#f9e9c2"/>
      <path id="Path_91060" data-name="Path 91060" d="M122.153,16.731a5.008,5.008,0,0,0-5.818-3.988,4.456,4.456,0,0,0,5.818,3.988" transform="translate(46.732 5.082)" fill="#f9e9c2"/>
      <path id="Path_91061" data-name="Path 91061" d="M107.829,5.1a.409.409,0,0,0-.039.126c.126,2.257,3.091,4.683,5.333,4.341a.55.55,0,0,0,.315-.437c-.663-2.958-2.979-4.509-5.61-4.03" transform="translate(43.299 2.013)" fill="#f9e9c2"/>
      <path id="Path_91062" data-name="Path 91062" d="M118.508,4.918c-2.341-.569-5.853,3.028-5.223,5.349,2.5.021,4.907-3.029,5.223-5.349" transform="translate(45.477 1.951)" fill="#f9e9c2"/>
      <path id="Path_91063" data-name="Path 91063" d="M115.361,13.748c-1.043,1.444-.592,3.455.824,3.782a2.827,2.827,0,0,0-.824-3.782" transform="translate(46.111 5.522)" fill="#f9e9c2"/>
      <path id="Path_91064" data-name="Path 91064" d="M117.151,11.387a4.058,4.058,0,0,0,5.89-.582,4.209,4.209,0,0,0-5.89.582" transform="translate(47.06 3.968)" fill="#f9e9c2"/>
      <path id="Path_91065" data-name="Path 91065" d="M117.017,11.442c1.927-.732,3.322-3.764,2.541-5.448-2.139.47-3.431,3.2-2.541,5.448" transform="translate(46.891 2.408)" fill="#f9e9c2"/>
      <path id="Path_91066" data-name="Path 91066" d="M106.384,11.7a2.118,2.118,0,0,0-1.969-1.93c-.38,1.036.907,1.833,1.969,1.93" transform="translate(41.916 3.922)" fill="#f9e9c2"/>
      <path id="Path_91067" data-name="Path 91067" d="M109.118,14.154a4.513,4.513,0,0,0,2.576-5.238c-2.108.935-3.434,3.59-2.576,5.238" transform="translate(43.726 3.581)" fill="#f9e9c2"/>
      <path id="Path_91068" data-name="Path 91068" d="M113.835,13.186c2.2-.346,3.281-3.182,2.9-4.837-1.951.325-3.214,2.407-2.9,4.837" transform="translate(45.708 3.354)" fill="#f9e9c2"/>
      <path id="Path_91069" data-name="Path 91069" d="M115.127,3.838c-1.833.025-3.106,1.954-2.645,4.007a3.773,3.773,0,0,0,2.645-4.007" transform="translate(45.146 1.541)" fill="#f9e9c2"/>
      <path id="Path_91070" data-name="Path 91070" d="M111.108,3.9a2.157,2.157,0,0,0,1.144,2.826A2.213,2.213,0,0,0,111.108,3.9" transform="translate(44.559 1.568)" fill="#f9e9c2"/>
      <path id="Path_91071" data-name="Path 91071" d="M118.932,9.543a1.963,1.963,0,0,0,2.624-.953,2,2,0,0,0-2.624.953" transform="translate(47.775 3.372)" fill="#f9e9c2"/>
      <path id="Path_91072" data-name="Path 91072" d="M119.447,12.417a2.052,2.052,0,0,0,2.67,1.113c-.387-.945-1.214-1.3-2.67-1.113" transform="translate(47.982 4.968)" fill="#f9e9c2"/>
      <path id="Path_91073" data-name="Path 91073" d="M117.112,15.744a1.93,1.93,0,0,0,1.486,2.342,2.014,2.014,0,0,0-1.486-2.342" transform="translate(47.02 6.324)" fill="#f9e9c2"/>
      <path id="Path_91074" data-name="Path 91074" d="M109.014,14.257c-2.92-1.4-3.754-5.249-2.8-7.659a3.929,3.929,0,0,1,2.84,2.676,9.4,9.4,0,0,1-.038,4.983" transform="translate(42.515 2.65)" fill="#f9e9c2"/>
      <path id="Path_91075" data-name="Path 91075" d="M122.153,16.731a4.456,4.456,0,0,1-5.818-3.988,5.008,5.008,0,0,1,5.818,3.988" transform="translate(46.732 5.082)" fill="#f9e9c2"/>
      <path id="Path_91076" data-name="Path 91076" d="M107.829,5.1c2.63-.479,4.945,1.072,5.61,4.03a.553.553,0,0,1-.315.437c-2.243.342-5.209-2.084-5.333-4.341a.374.374,0,0,1,.039-.126" transform="translate(43.299 2.013)" fill="#f9e9c2"/>
      <path id="Path_91077" data-name="Path 91077" d="M118.508,4.918c-.315,2.32-2.721,5.37-5.223,5.349-.631-2.321,2.882-5.918,5.223-5.349" transform="translate(45.477 1.951)" fill="#f9e9c2"/>
      <path id="Path_91078" data-name="Path 91078" d="M117.151,11.387a4.209,4.209,0,0,1,5.89-.582,4.058,4.058,0,0,1-5.89.582" transform="translate(47.06 3.968)" fill="#f9e9c2"/>
      <path id="Path_91079" data-name="Path 91079" d="M117.017,11.442c-.89-2.247.4-4.979,2.541-5.448.781,1.685-.614,4.717-2.541,5.448" transform="translate(46.891 2.408)" fill="#f9e9c2"/>
      <path id="Path_91080" data-name="Path 91080" d="M110.111,14.4a3.957,3.957,0,0,1-4.916,3.227c.022-1.923,2.938-3.579,4.916-3.227" transform="translate(42.257 5.764)" fill="#f9e9c2"/>
      <path id="Path_91081" data-name="Path 91081" d="M109.415,13.336c-1.775,1.225-4.805,1.65-5.558-.447a4.277,4.277,0,0,1,5.558.447" transform="translate(41.719 4.845)" fill="#f9e9c2"/>
      <path id="Path_91082" data-name="Path 91082" d="M109.118,14.154c-.858-1.648.468-4.3,2.576-5.238a4.513,4.513,0,0,1-2.576,5.238" transform="translate(43.726 3.581)" fill="#f9e9c2"/>
      <path id="Path_91083" data-name="Path 91083" d="M113.835,13.186c-.315-2.431.948-4.512,2.9-4.837.383,1.655-.7,4.491-2.9,4.837" transform="translate(45.708 3.354)" fill="#f9e9c2"/>
      <path id="Path_91084" data-name="Path 91084" d="M115.127,3.838a3.773,3.773,0,0,1-2.645,4.007c-.461-2.053.812-3.982,2.645-4.007" transform="translate(45.146 1.541)" fill="#f9e9c2"/>
      <path id="Path_91085" data-name="Path 91085" d="M111.22,15.522a2.32,2.32,0,0,1,.066-3.158,2.3,2.3,0,0,1-.066,3.158" transform="translate(44.444 4.966)" fill="#f9e9c2"/>
      <path id="Path_91086" data-name="Path 91086" d="M111.108,3.9a2.213,2.213,0,0,1,1.144,2.826A2.157,2.157,0,0,1,111.108,3.9" transform="translate(44.559 1.568)" fill="#f9e9c2"/>
      <path id="Path_91087" data-name="Path 91087" d="M118.932,9.543a2,2,0,0,1,2.624-.953,1.963,1.963,0,0,1-2.624.953" transform="translate(47.775 3.372)" fill="#f9e9c2"/>
      <path id="Path_91088" data-name="Path 91088" d="M119.447,12.417c1.456-.186,2.283.168,2.67,1.113a2.052,2.052,0,0,1-2.67-1.113" transform="translate(47.982 4.968)" fill="#f9e9c2"/>
      <path id="Path_91089" data-name="Path 91089" d="M117.112,15.744a2.014,2.014,0,0,1,1.486,2.342,1.93,1.93,0,0,1-1.486-2.342" transform="translate(47.02 6.324)" fill="#f9e9c2"/>
      <path id="Path_91090" data-name="Path 91090" d="M72.706,17.017V29.958a5.178,5.178,0,0,1-5.172,5.172s-.22,0-.568-.018a4.052,4.052,0,0,0-.6.024c-.406,0-.848-.006-.848-.006a5.178,5.178,0,0,1-5.172-5.172V17.017H56.019V29.958c0,.189.007.378.018.565,0,.059.008.115.014.172.01.132.022.264.038.394.007.062.014.125.024.186.018.136.041.271.064.4.01.048.017.1.027.143q.053.269.122.534c.007.029.017.059.025.09.039.146.081.29.128.433l.055.161c.042.122.087.244.133.363.02.052.041.1.062.156.057.14.118.279.182.416l.034.074c.078.164.161.324.248.481.018.035.039.069.059.1q.1.183.214.362c.028.045.057.088.086.133.074.114.15.224.228.334.027.038.052.074.078.111a9.5,9.5,0,0,0,.685.831l.087.09c.1.1.193.2.293.3l.105.1c.107.1.216.2.328.293.024.021.048.043.073.063.14.118.285.233.432.342l.028.02c.135.1.272.193.411.286.015.008.028.02.043.029v0a9.422,9.422,0,0,0,2.48,1.145h0c.022.007.045.011.066.018.17.048.341.093.514.132l.108.025c.2.042.4.08.608.111l.085.011c.175.024.352.042.53.057.053,0,.107.008.161.011.206.014.412.024.622.024h2.016c.209,0,.416-.01.622-.024l.161-.011c.178-.015.355-.034.528-.057l.087-.011c.2-.031.406-.069.607-.111l.109-.025c.172-.039.343-.084.513-.132.022-.007.045-.011.066-.018h0a9.5,9.5,0,0,0,6.8-9.108V17.017Z" transform="translate(22.503 6.835)" fill="#f9e9c2"/>
      <path id="Path_91091" data-name="Path 91091" d="M109.38,17.017V29.958a5.178,5.178,0,0,1-5.172,5.172s-.219,0-.568-.018a4.052,4.052,0,0,0-.6.024c-.406,0-.848-.006-.848-.006a5.178,5.178,0,0,1-5.172-5.172V17.017H92.693V29.958c0,.189.007.378.018.565,0,.059.01.115.013.172.011.132.024.264.039.394.007.062.015.125.024.186.018.136.041.271.066.4.008.048.015.1.025.143q.053.269.122.534c.007.029.017.059.025.09.039.146.081.29.128.433l.055.161c.042.122.087.244.133.363.021.052.041.1.062.156.057.14.118.279.182.416l.034.074c.078.164.161.324.248.481.018.035.039.069.059.1.069.122.14.242.216.362.028.045.056.088.086.133.073.114.149.224.227.334.027.038.052.074.079.111a9.749,9.749,0,0,0,.684.831l.088.09c.1.1.193.2.293.3l.105.1c.107.1.214.2.328.293.022.021.048.043.073.063.14.118.285.233.432.342l.028.02c.133.1.272.193.411.286.015.008.028.02.043.029v0a9.422,9.422,0,0,0,2.48,1.145h0l.067.018c.168.048.339.093.513.132l.109.025c.2.042.4.08.607.111l.086.011c.175.024.352.042.53.057.053,0,.107.008.161.011.206.014.413.024.622.024h2.016c.209,0,.416-.01.622-.024l.161-.011c.178-.015.355-.034.53-.057l.086-.011c.2-.031.406-.069.607-.111l.109-.025c.172-.039.343-.084.513-.132.022-.007.045-.011.066-.018h0a9.5,9.5,0,0,0,6.8-9.108V17.017Z" transform="translate(37.235 6.835)" fill="#f9e9c2"/>
      <path id="Path_91092" data-name="Path 91092" d="M111.157,38.92V34.546h11.678a4.375,4.375,0,0,1,4.375,4.375Zm0-.905V17.152h4.5V34.546c0,2.487-2.016,3.51-4.5,3.51Z" transform="translate(44.652 6.89)" fill="#f9e9c2"/>
      <path id="Path_91093" data-name="Path 91093" d="M21.757,36.209a12.342,12.342,0,0,1-4.108,2.331,15.3,15.3,0,0,1-4.833.778,15.028,15.028,0,0,1-4.79-.778,12.729,12.729,0,0,1-4.1-2.267,11.154,11.154,0,0,1-2.864-3.663A10.97,10.97,0,0,1,0,27.673a10.711,10.711,0,0,1,1.085-4.907,11.008,11.008,0,0,1,2.906-3.619A12.667,12.667,0,0,1,8.1,16.922a15.018,15.018,0,0,1,4.759-.757,15.663,15.663,0,0,1,4.662.692A13.31,13.31,0,0,1,21.6,18.89l-2.906,3.364a9.046,9.046,0,0,0-2.746-1.277,10.976,10.976,0,0,0-3.087-.447,10.575,10.575,0,0,0-3.077.447A8.2,8.2,0,0,0,7.142,22.3a6.286,6.286,0,0,0-1.873,2.246,7.072,7.072,0,0,0-.692,3.214,6.439,6.439,0,0,0,2.609,5.419,8.234,8.234,0,0,0,2.66,1.33c2.119.618,6.77.586,7.632-1.7h.873A3.406,3.406,0,0,1,21.757,36.209ZM10.151,26.246H21.757v4.078H16.481a6.955,6.955,0,0,1-6.33-4.078" transform="translate(0 6.493)" fill="#f9e9c2"/>
      <path id="Path_91094" data-name="Path 91094" d="M30.847,17.017V37.923a9.49,9.49,0,0,0,4.324-7.966V17.017Z" transform="translate(12.391 6.835)" fill="#f9e9c2"/>
      <path id="Path_91095" data-name="Path 91095" d="M35.627,17.017V29.958a5.178,5.178,0,0,1-5.172,5.172s-.219,0-.568-.018a4.06,4.06,0,0,0-.6.024c-.406,0-.848-.006-.848-.006a5.178,5.178,0,0,1-5.172-5.172V17.017H18.94V29.958c0,.189.007.378.018.565,0,.059.01.115.014.172.01.132.022.264.038.394.007.062.015.125.024.186.018.136.041.271.064.4.01.048.017.1.027.143q.053.269.122.534c.007.029.017.059.025.09.039.146.081.29.128.433l.055.161c.042.122.087.244.133.363.02.052.041.1.062.156.057.14.118.279.182.416l.034.074c.078.164.161.324.248.481.018.035.039.069.059.1.069.122.14.242.216.362.028.045.056.088.086.133.073.114.149.224.227.334.027.038.052.074.078.111a9.505,9.505,0,0,0,.685.831l.087.09c.1.1.193.2.293.3l.105.1c.107.1.216.2.328.293.024.021.048.043.073.063.14.118.285.233.432.342l.028.02c.135.1.272.193.411.286.015.008.028.02.043.029v0a9.41,9.41,0,0,0,2.481,1.145h0l.067.018c.168.048.339.093.513.132l.109.025c.2.042.4.08.607.111l.086.011c.175.024.352.042.53.057.053,0,.107.008.161.011.206.014.414.024.622.024h2.016c.209,0,.416-.01.622-.024l.161-.011c.178-.015.355-.034.53-.057l.086-.011c.2-.031.406-.069.607-.111l.109-.025c.172-.039.343-.084.513-.132.022-.007.045-.011.066-.018h0a9.5,9.5,0,0,0,6.8-9.108V17.017Z" transform="translate(7.608 6.835)" fill="#f9e9c2"/>
      <rect id="Rectangle_71424" data-name="Rectangle 71424" width="4.292" height="7.093" transform="translate(17.467 35.61)" fill="#f9e9c2"/>
      <path id="Path_91096" data-name="Path 91096" d="M58.09,34.223a6.676,6.676,0,0,1-.863-.063,4.555,4.555,0,0,1-.99-.245,3.477,3.477,0,0,1-.957-.575,3.436,3.436,0,0,1-.841-1.054l-.97-1.63a6.831,6.831,0,0,0,2.705-1.465A6.6,6.6,0,0,0,58.26,24.04a7.357,7.357,0,0,0-.533-2.831,6.38,6.38,0,0,0-1.448-2.194,6.254,6.254,0,0,0-2.246-1.383,8.387,8.387,0,0,0-2.873-.479H37.333V19.32h-.006V38.277h.006v.643h4.279V33.876a2.4,2.4,0,0,1,1.62-2.265,14.989,14.989,0,0,1,5.234-.556h.223L51.373,35.4a8.652,8.652,0,0,0,1.511,1.906,5.253,5.253,0,0,0,1.554,1.032,5.851,5.851,0,0,0,1.618.426c.542.053,1.1.085,1.661.085H59.6V34.223Zm-7.7-7.491H48.466a24.4,24.4,0,0,0-5.91.575,6.853,6.853,0,0,0-1.041.356V21.472h8.878c1.789,0,3.45.373,3.45,2.523,0,2.353-1.374,2.736-3.45,2.736" transform="translate(14.994 6.89)" fill="#f9e9c2"/>
      <path id="Path_91097" data-name="Path 91097" d="M94.4,34.291A5.94,5.94,0,0,1,92.631,34a4.149,4.149,0,0,1-1.894-1.65l-3.194-5.387,7.185-9.815H89.183L83.507,25.03v0L79.145,31.1V17.152H74.556v21.77h4.589L84.8,30.763l2.869,4.71a16.561,16.561,0,0,0,1.768,1.874,6.649,6.649,0,0,0,1.533,1.022,5.589,5.589,0,0,0,1.469.447,12.215,12.215,0,0,0,1.576.107H95.91V34.291Z" transform="translate(29.949 6.89)" fill="#f9e9c2"/>
      <path id="Path_91098" data-name="Path 91098" d="M119.924,11.763l-4.829,3.365c-.318-2.433-.611-4.663-.9-6.895l-.057-.006c-.233,3.49-.467,6.98-.713,10.674l-4.591-3.251-.158.167c.135.195.261.4.405.583,1,1.28,1.976,2.571,3,3.828h3.817a9.254,9.254,0,0,1-.334-1.416,1.561,1.561,0,0,1,.308-1.263c.847-1.135,1.667-2.29,2.494-3.44.549-.761,1.092-1.526,1.637-2.289l-.074-.059" transform="translate(43.653 3.305)" fill="#f9e9c2"/>
      <text id="Near_Airport" data-name="Near Airport" transform="translate(48.984 58.774)" fill="#f9e9c2" font-size="10" font-family="Helvetica" letter-spacing="0.099em"><tspan x="0" y="0">Near Airport</tspan></text>
    </g>
  </g>
</svg>
