<svg xmlns="http://www.w3.org/2000/svg" width="61.714" height="50.614" viewBox="0 0 61.714 50.614">
  <path id="Path_173001" data-name="Path 173001" d="M20.385-48.852a11.731,11.731,0,0,1,8,3.065,20.271,20.271,0,0,1,5.442,8.544A38.153,38.153,0,0,1,35.8-24.335a41.232,41.232,0,0,1-2.03,13.373,22.612,22.612,0,0,1-5.618,9.333,11.858,11.858,0,0,1-8.413,3.39,11.794,11.794,0,0,1-7.913-3.018,19.95,19.95,0,0,1-5.5-8.59,38.448,38.448,0,0,1-2-13,40.624,40.624,0,0,1,2-13.187,23.017,23.017,0,0,1,5.618-9.333A11.792,11.792,0,0,1,20.385-48.852Zm-.529,1.672q-3.353,0-5.53,6.362T12.149-23.127A65.3,65.3,0,0,0,13.266-9.661q1.118,5.108,3,7.43a5.248,5.248,0,0,0,4,2.322q3.412,0,5.56-6.408t2.147-17.738a64.6,64.6,0,0,0-1.118-13.42,18.74,18.74,0,0,0-2.942-7.383A5.171,5.171,0,0,0,19.855-47.18Zm34.3-1.672a8.6,8.6,0,0,1,6.972,3.065q2.559,3.065,2.559,8.73a19.313,19.313,0,0,1-1.147,6.733,28,28,0,0,1-2.971,5.851q-1.824,2.74-3.912,5.294t-4.059,4.968A34.8,34.8,0,0,0,48.212-9.29H60.743q2.412,0,3.059-.975a7.888,7.888,0,0,0,.882-3.39H65.8q0,5.758.059,8.915T66.038.926A8.456,8.456,0,0,0,64.1.647Q62.685.554,60.861.508T57.272.462h-16V-1.3q1.706-2.786,4.148-6.176a82.967,82.967,0,0,0,4.765-7.476,47.49,47.49,0,0,0,3.883-8.915,33.985,33.985,0,0,0,1.559-10.494q0-5.015-1.441-7.337a4.653,4.653,0,0,0-4.206-2.322,6.039,6.039,0,0,0-4.383,2,17.5,17.5,0,0,0-3.5,5.8l-.941-1.022a29.563,29.563,0,0,1,2.794-5.711,13.858,13.858,0,0,1,4.177-4.272A10.824,10.824,0,0,1,54.154-48.852Z" transform="translate(-4.324 48.852)" fill="#502b13" opacity="0.2"/>
</svg>
